<svg xmlns="http://www.w3.org/2000/svg" width="205.3" height="400" version="1.0" viewBox="0 0 154 300"><path d="m94 9 2 2c2 1 2 1 0 2l-3 2-1 1-1-1-1-2c-2 0-3 3-3 4 1 1 0 2-1 3l-3 5-3 6-2 6c1 1 0 3-2 5l-4 4-2 4-2 4-2 3-2 2-6 6-2 3-3 3c-2 0-3 1-4 3 0 2-1 3-2 3l-1 2c1 1 0 3-2 5l-3 1-2-1c-2 1-2 4 0 3 1 0 1 2-3 6l-5 5-2 3-2 2c-2 0-3 0-3 2 0 3-4 8-5 8-2 0-8 7-8 10l1 2 1 1-3 1c-2 0-2 0-2 5 1 4 0 5-1 6v1c3 2 4 3 3 5-1 3-1 3 6 3 4-1 6-1 8-3l4-3 6-6 13-14 7-9 3-5 7-8 4-5 2-2 13-16-1 5v12l-1 8c-1 0-2 4-1 6v2l-1 5-1 3c-2 0-1 3 0 4 2 0 2 1 0 4l-1 6c1 3 0 4-1 5l-1 5c0 3 0 3 2 3 1-1 2 0 2 1l-2 2-1 3 1 2 2 4c0 3 0 4-2 3-2 0-3 2-5 7 0 3 0 3 2 3 3 0 3 0 2 3l-3 4c-2 1-3 5-1 5 4 0 2 14-1 15l-1 3-1 2-1 4 1 7v8l-1 6c-1 0-2 4-3 16l-3 23c-1 6-1 6 1 8v2c-3 1-4 3-5 8l1 6 2 5 2 2 1-2 1-1c1 0 2 1 2 3 0 3 3 3 4 0l3-3v1c-2 1-3 5 0 5 2 0 7-6 7-8l2-2 1-4c-1-3-1-4 1-4s4-6 4-13l2-8 2-4v-4l3-24 2-14v-7l1-7v-7l-1-3-1-6c0-2 0-2 1 0l2 1v-6l-1-3c-2 0-1-3 1-3 2-1 2-2 2-7-1-4 0-7 1-9v-5c-2 0-1-3 0-4 2-1 2-2 1-5v-6l-2-2-1-4c0-2 0-3 2-3 3-1 3-2 3-5l3-36c1-9 2-11 4-6l4 6 3 8c1 7 6 13 10 14l4 1c2 2 7 0 10-3s4-8 2-10l-1-5c0-7-5-19-10-26l-3-5-2-2-1-2-3-4-2-4-2-2-1-3c0-4-3-6-5-4-1 1-1 1-1-1l-2-3v-3c2-1 2-5 0-6-1-1-2-13-1-15 2-3 0-5-2-3l-6 1h-4c0-2-1-2-3-2l-3 1z"/><path d="m102 130 2 1 1-1-2-1-1 1z"/></svg>