<svg xmlns="http://www.w3.org/2000/svg" width="400" height="285.3" version="1.0" viewBox="0 0 300 214"><path d="M69 4c-8 2-13 8-15 16v5l-4-1c-6 0-11 1-15 4-4 5-7 10-7 17v6l-4-1c-6 0-11 1-15 5-6 5-6 3-6 63 0 52 0 55 2 63 2 9 8 21 14 28l3 5h88l7-4c10-4 19-14 24-23 5-12 6-18 6-48v-28l-3-5c-5-6-10-9-19-9l-6 1V68l-1-33c-3-10-11-15-20-15-5 0-5 0-6-3C88 8 78 2 69 4zM217 9c-5 2-8 6-10 12 0 2-1 2-8 2-6 0-7 1-11 4-7 6-7 6-8 42v32l-4-1c-8-2-17 3-21 10-2 4-2 5-2 34l1 36c4 13 13 24 24 31l4 3h98l4-8c6-9 10-21 12-32l1-58V65l-4-4c-5-6-7-8-15-8h-7v-5c0-13-8-21-20-21-6 0-6 0-6-3 0-7-7-15-14-17-5-2-8-1-14 2z"/></svg>