<svg xmlns="http://www.w3.org/2000/svg" width="400" height="332" version="1.0" viewBox="0 0 300 249"><path d="M131 9c-1 1-1 2 1 2l1-2c0-1-1-2-2 0zM131 13l-14 3-6 1-4 1c-2 0-9 4-10 7l-3 1-7 3 1 2c2 1 0 4-2 3-2 0-9 7-9 9l-3 5-4 6c0 2-5 6-7 6-1-1-1 0-2 4 0 4-1 7-3 6-2 0-3 2-2 3s0 2-2 4l-3 5-1 2-2 1-6 13-2 7c0 3-1 5-2 5l-6 17-2 5-1 6-3 12a207 207 0 0 0-6 50l-1 2c0 2 0 2-2 1l-3 1c-1 2-1 7 1 8v2c-1 1 3 5 5 5l3 2 9 2 21 4 6 1 3 1 5 1c4 0 6 0 7 2l5 1c2-1 3 0 3 1s4 3 7 2l2 1 3 1c2-1 3 0 3 1l3 1 3 1h10l9-1-1-2c0-3 0-3 2-2 1 2 5 2 5-1l1-1c3 0 5-4 5-6s0-5 2-8l2-6 1-2 1-2 3-4c2-2 3-6 1-8-1-1-1-2 1-4l4-8c2-6 9-13 13-13l3 2 6 1c3 1 4 0 3-2l1-3c1 0 6 4 6 6l1 1c2 0 7 7 11 14l5 10 6 15 3 4 4 5c3 5 6 5 12 2 8-3 11-11 7-19l-2-6-3-6c-2-4-4-5-5-5-2 1-2 0-1-2l-1-3-2-1c0-2-4-7-6-7l-1 2-2 2c-3 1-4 1-5-1-2-1-2-1 0-3 4-4 4-7 2-10h-3v6c-2 3-10-4-13-10-1-4-6-8-8-8l-6-3c-4-3-6-4-8-2h-5c-12-2-14-2-17 1l-3 4-2 4c-4 6-8 12-9 16l-2 4-3 6-5 6c-2 1-3 3-3 6l-3 6-3 5-1 1-5 3c-3 3-4 4-9 4-7 1-9 2-4 4l3 1-3 1c-3 1-10 0-12-1l-2-1-3-1-4-3h-2l-5-1-4-3-2-2-10-5c-1-1 2-2 4-1 1 1 3 1 3-1 0-1-7-4-8-3-1 0-2-17-1-22l1-7 1-6 1-7c1-5 2-10 7-22l2-9 5-13 1-4 1-3c2-2 8-13 8-16l2-3 2-5c0-3 0-3 2-3s8-6 8-8 8-10 12-10c2-1 4-2 4-4l4-2 5-4c15-15 19-17 28-18 9 0 24 2 27 4l4 2 2 2 3 1 3 2c1 2 4 4 7 5 3 0 5 2 5 2 0 2 7 9 9 9l2 2 2 3c2 0 3 2 3 3s0 2 1 1c2 0 2 1 2 4s0 4 3 7c2 2 4 3 6 2l2 1-1 2v4l2-1c1-1 3 1 7 7l4 5 2 2 6 13c1 0 2 2 2 5l3 5 1 3 1 2 1 3 7 17 3 10 2 8 2 6 1 4 2 4 1 9v6l3 4 4 3 3 2c1 1 1 1 3-1l2-3 3-4 2-3 1-1v-4c-1-3-1-3 1-5 2-1 2-2 2-5l-2-5-2-4-2-3c-2 0-3 2-2 5v3l-2-2-1-6v-6c1-2 1-9-1-11l-3-6c-2-6-3-7-6-5 0 1-1 1-1-1v-3l-1-13-1-2-3-4c-3-2-4-3-3-4 2-1 1-4-1-4l-2-2c0-3-3-9-5-10l-1-2-1-2-2-2c0-3-2-7-4-6l-1 3v2c-1 1-2-3-2-9 0-2-1-3-2-3-2 0-3 0-3-2l-3-4c-2-2-2-2-1-4 1-3 1-4-2-4-1 0-3-2-5-6-4-7-6-9-9-11l-4-3-3-3-3-3c-1-3-3-4-7-4-3 0-3 0-1-1v-3l-4-2-2-1-2-4c-2-1-3-1-9 1-2 1-2 1-2-1s-1-3-3-2l-3-2-3-1-2-1c-1-1-1-1 1-1l6 2 4 1c1-2-1-4-4-5l-3-1-2-1-2-1c-1-1-12-2-13-1h-25zm82 174v3l-2-2c-1-4 0-4 2-1zm8 10-1 2h-2c-1-2 0-3 1-3l2 1zm-121 25h-1c-2 0-2-1-1-1l2 1z"/><path d="M158 147c0 2 4 3 7 3l2-2c1-1-1-2-4-2l-5 1zM176 151c-1 1 2 2 3 2l1-2h-4zM184 155c0 3 2 5 3 3v-3h-3zM281 167l2 2 1-2-1-2-2 2zM61 209c-1 2 0 3 2 3l1-2c0-2-2-3-3-1zM69 214c1 2 6 4 7 3v-3c-1-1-7-2-7 0zM80 216c-2 1-1 3 2 3l2-2-4-1z"/></svg>