<svg xmlns="http://www.w3.org/2000/svg" width="209.3" height="400" version="1.0" viewBox="0 0 157 300"><path d="M17 8h-3c-3 0-3 0-3 2l1 3v2l1 7 2 8 2 4 3 7c0 3 2 6 3 7l1 3 1 3 2 5 7 14a121 121 0 0 1 11 26l1 4 2 4 2 3 1 5 1 3 2 5 2 6 2 4 2 5 1 3 1 3c-1 2 0 3 1 3 2 1 2 2 2 5l1 3 1 1v2l2 2 2 7c2 2 3 5 3 9l1 5 4 13v3l2 4 1 2v3c-1 0-1 1 1 3l2 4 1 4 2 6 3 7 2 6 1 7c1 3 1 3-1 2-1 0-4-1-5-3l-14-11c-1 1-2 0-3-2l-3-2-3-3-2-2-1-2-3-1c-2 0-4-2-4-4l-7-5-5-3-4-3-2-2c0-2-1-3-2-3l-3-1-5-2-3-3-1-2-4-2c-2-2-2-2-3-1h-4c-2 2-2 7 1 8l1 2 2 4 1 3 4 6 4 6 3 3 6 5 10 8 12 10 8 6 5 4a147 147 0 0 0 24 19c1 0 4 2 6 5s5 5 6 5l3 2c4 4 13 8 15 7l2-1h8c3 4 11-8 12-17l1-8v-5c3-2 3-6 4-26 0-21-2-41-5-42l-1 5-1 5-2 1h-1c-1 0-5 2-5 4s1 2 2 2c2-1 2 0 2 1l-1 2c-1 0-4 6-3 7l-2 1-1 5-1 6-2 3-1 3-2 5c0 5-2 6-4 1l-2-4-1-2-6-14c-1-3-5-13-5-17l-3-5-2-5-1-4v-1l-1-3c-1-2-2-4-1-6l-1-4c-1 0-3-3-3-8l-3-9c-2-1-3-8-3-11l-2-3-1-4-1-5-3-4a70 70 0 0 0-9-22l-2-4-1-2-3-6-2-7-2-1c-1 0-2-2-1-4l-1-4-3-2c-1 1-1 0-1-1l-2-10-4-4-1-4v-2l-1-3c1-2 1-2-1-3-3-1-7-8-7-13l-2-5-2-3-2-2-1-4-1-3-6-8c0-2 0-3-2-3-1 0-2 0-2-2-1-3-7-7-7-4zM132 298c-1 2 0 2 2 2l1-2h-3z"/></svg>