<?xml version="1.0" encoding="UTF-8" standalone="no"?>
<svg
   xml:space="preserve"
   width="712.35565"
   height="799.15594"
   viewBox="0 0 402.92617 452.02258"
   version="1.1"
   id="svg1"
   xmlns="http://www.w3.org/2000/svg"
   xmlns:svg="http://www.w3.org/2000/svg"><defs
     id="defs1" /><path
     d="m 345.16274,37.929282 c -64,-51 -173,-45.9999999 -243,-12 -74.999999,36 -127.999999,128.999998 -88.999999,208.999998 30,63 90.999999,79 152.999999,78 89,13 191,-14 223,-77 30,-62 9,-153.999998 -44,-197.999998 z m -218,292.999998 c -18,-10 -48.999999,-12 -60.999999,7 -7,10 -5,22 2,31 8,9 20,11 31.999999,11 18,1 51,-6 48,-31 -2,-11 -10,-16 -21,-18 z m 45,98 c -3,-12 -13,-16 -23,-16 -11,-4 -24,-3 -28,10 -6,16 9,29 24,29 14,1 31,-6 27,-23 z"
     id="path1"
     style="fill:#ffffff;fill-opacity:1" /></svg>
