<?xml version="1.0" encoding="UTF-8" standalone="no"?>
<svg
   width="396.65311"
   height="394.52893"
   version="1.0"
   viewBox="0 0 297.48983 295.87574"
   id="svg1"
   xmlns="http://www.w3.org/2000/svg"
   xmlns:svg="http://www.w3.org/2000/svg">
  <defs
     id="defs1" />
  <path
     d="m 132.37307,1.8808853 c -5,3 -4,1 -40.000003,72.9999997 l -25,50.000005 v 88 l -28,15 c -31,16 -35,19 -38,30 -7,21 14,43 35,37 6,-2 106.000003,-55 109.000003,-58 l 2,-2 4,3 c 3,3 56,31 98,52 26,14 50,1 48,-25 -1,-15 -5,-18 -39,-36 l -27,-15 -1,-45 v -45 l -30,-58.000005 c -35,-67.9999997 -35,-67.9999997 -47,-63.9999997 h -8 c -5,-3 -8,-1.99999998 -13,0 z m 33,84.9999997 17,47.000005 v 8 c 0,15 -1,14 -8,-6 -9,-24 -14,-30 -26,-30 -13,0 -17,5 -26,30 l -6,18 -1,-5 c -2,-13 -2,-13 16,-63.000005 l 17,-46 z"
     id="path1"
     style="fill:#ffffff;fill-opacity:1" />
</svg>
