<?xml version="1.0" encoding="UTF-8" standalone="no"?>
<svg
   width="228.01967"
   height="367.57419"
   version="1.0"
   viewBox="0 0 170.99087 275.65687"
   id="svg1"
   xmlns="http://www.w3.org/2000/svg"
   xmlns:svg="http://www.w3.org/2000/svg">
  <defs
     id="defs1" />
  <path
     d="m 90.99522,0.65685439 c -7,4.00000001 -1,10.99999961 7,9.99999961 11,-2.9999996 14,0 21,15 l 5,13 h -56 c -61.0000001,0 -60.0000001,0 -63.0000001,5 v 56 c 2,2.999996 6.0000001,4.999996 12.0000001,4.999996 h 5 v 134 H -0.00478007 v 37 H 170.99522 v -37 h -23 v -134 h 6 c 12,0 13,-2 13,-32.999996 0,-34 1,-33 -22,-33 h -15 l -6,-15 -6,-15.9999996 -6,-2 -9,-4 c -4,-2.00000001 -8,-2.00000001 -12,-1.00000001 z m -1,121.99999561 c 2,2 2,3 2,14 v 11 h 11 c 11,0 14,1 14,6 0,5 -3,6 -14,6 h -11 v 30 c 0,34 0,34 -7,34 -8,0 -8,0 -8,-34 v -30 h -10 c -11,0 -14,-1 -14,-6 0,-5 3,-6 14,-6 h 10 v -11 c 0,-14 1,-16 8,-16 z"
     id="path1"
     style="fill:#ffffff;fill-opacity:1" />
</svg>
