<?xml version="1.0" encoding="UTF-8" standalone="no"?>
<svg
   width="700"
   height="800"
   viewBox="-32 0 448 512"
   version="1.1"
   id="svg1"
   xmlns="http://www.w3.org/2000/svg"
   xmlns:svg="http://www.w3.org/2000/svg">
  <defs
     id="defs1" />
  <path
     d="M 416,358 V 26 C 416,10 406,0 390,0 H 64 C 10,0 -32,42 -32,96 v 320 c 0,54 42,96 96,96 h 326 c 13,0 26,-10 26,-26 v -16 c 0,-6 -3,-12 -10,-19 -3,-16 -3,-61 0,-73 7,-4 10,-10 10,-20 z M 112,144 c 0,-9 7,-16 16,-16 h 48 V 80 c 0,-9 7,-16 16,-16 h 32 c 9,0 16,7 16,16 v 48 h 48 c 9,0 16,7 16,16 v 32 c 0,9 -7,16 -16,16 h -48 v 112 c 0,9 -7,16 -16,16 h -32 c -9,0 -16,-7 -16,-16 V 192 h -48 c -9,0 -16,-7 -16,-16 z M 349,448 H 64 c -19,0 -32,-13 -32,-32 0,-19 16,-32 32,-32 h 285 z"
     id="path1"
     style="fill:#ffffff;fill-opacity:1" />
</svg>
