<svg xmlns="http://www.w3.org/2000/svg" width="204" height="400" version="1.0" viewBox="0 0 153 300"><path d="m20 7-1 4v14l2 4c0 10 1 16 4 18l2 4c-1 1 3 13 5 14s2 2 1 5c0 3 4 19 8 26l1 5c0 2 2 3 3 0 1-1 1-1 1 1l-1 2c-1 1 0 5 2 7l1 8 1 6 1 4 1 3c1 0 2 2 2 5l3 7 2 6 1 5c2 1 4 5 4 8s3 10 4 11l3 8c0 5 2 13 3 14l1 5 2 9 2 7 1 3c1 0 2 1 1 2l1 9 1 8-4-3-4-3-10-7-5-3-6-4c0-3-2-4-5-4l-3-3c-2-3-6-7-8-7l-2-2h-2l-2-1-4-2-5-2h-2l-5-2c-4-2-7-1-5 2l1 9c0 7 2 13 4 15l3 3c0 2 2 3 3 3l1 1c0 2 3 6 6 7 1 1 3 2 3 4l2 3 2 2 2 1 2 1 4 4 5 4 8 1c6 1 10 2 10 6 0 2 2 4 5 3 2 0 3 1 3 4 1 3 3 5 5 5 2-1 6 3 5 5 0 2 8 7 9 5 1-1 2 0 4 1s2 1 1 3v3l4 3c2 3 5 3 6 0 1-1 2-2 3-1l-1 2c-2 2-1 3 1 3l2-1 3-3 3-4v-1l3-2 2-2 1 2c0 2 1 2 3 1s6-11 6-13c-1-1 0-2 1-3 2-2 5-9 6-18 1-8 1-9-1-10-2-2-2-3-1-5 0-2 0-2 1-1l2 1v-2l-1-2c4-2 5-9 2-9l-3-1h2c2 0 2 0 2-3l-1-4c-2 0-2-1-3-6 0-2-1-3-3-3-3 0-3 0-3 2l-1 3-1 5c0 4-1 6-3 3 0-2-3-2-3 0l2 3c2 2 0 4-3 4-3-1-4 2-1 3l1 1-1 4c1 6-1 10-3 10s-4 2-6 8c-2 7-3 7-3 2l-1-6c-2-2-4-9-4-17l-3-9-1-5v-4l-1-7-2-8c-2-2-2-4-2-5l-1-5-2-4-1-2c-2 0-2-3-1-5 1-1-1-12-3-14l-1-5-1-5-3-6-2-5-1-3c0-2-2-6-4-6s-4-4-2-5v-2c0-2-1-2-3-1v-4l-1-7-2-6c-1-4-4-6-4-1 0 2 0 2-1 0l-2-4v-6c2-2 1-6-1-7-3-1-4-3-2-3l1-1-2-2c-3 0-5-3-5-7l-1-3v-2c2-2 1-7-1-8l-2-6-3-8-1-2c1-1 0-3-1-5l-2-6-2-4-2-5-3-5-2-5-3-6c-2-2-3-3-2-5 0-2-2-4-4-2-1 1-1 1-2-1 0-2-1-2-3 0zm48 110v2l-1-2v-1l1 1zm34 111-1-1 1-1v2zm33 38-2 1v-1l1-1 1 1z"/><path d="M65 103c-1 1 0 2 1 1v-2l-1 1zM138 196v6c3 0 5-3 5-5-1-3-4-4-5-1zM142 214l2 2 1-2-1-2-2 2z"/></svg>