<svg xmlns="http://www.w3.org/2000/svg" width="509.3" height="332.5"><path d="M93 335c1-1 1 1 0 0m78-2c3-1 2 1 0 0m-78-2c2-1 2 1 0 0m-10 0c1-4 7 1 0 0m86-1c0-14 11 5 0 0m4-1c-1-2-1 3 0 0m154 1c2-1 2 1 0 0m62 0c2-2 1 1 0 0m-298-1c-4-15 15 3 0 0m233-2c0-14 12 5 0 0m62 0c-2-15 14 4 0 0m-212-1c1-2 1 1 0 0m-120-1c-2-6 6 2 0 0m95 0s0 1 0 0m-113 0c2-2 2 1 0 0m149-1c-2-5 4 4 0 0m-89 0c1-1 1 0 0 0m77 0c1-1 1 0 0 0m-103-1c1 0 1 1 0 0m-33 0c1-2 1 2 0 0m69 0c-1-4 4 0 0 0m153 0c2-2 1 1 0 0m71 0c1-2 0 1 0 0m-26-1c1 0 1 1 0 0m88 0s0 1 0 0m-52 0c-1-6 4 3 0 0m-84-1c4-4 11-11 8-19 0-8-1-10-5-2 4 2 1 13-7 7 0-8-3-8-13-4-10 6-15-5-11-3 1-5 7-3 15-7 11-19-15-6-25-12-9-10-9 0-12 1 0-7-22-4-22-1 0-3-10-3-15 1-3 4-21 11-22 9-4-3-15-8-19-6 7 4 4 8-4 8 6-6-8-7-5-4-12-1 9 0 1 3-2 7-8-6-6 1-5 0-8 2-10 3 6 5-6 7-10 6 0-9-4 8-11-1 2-3-4-4-9-10 6 2 5-14 2-5-6 1 3-12-8-16-13-10 4-13-6-22-2-13-6-3-2 5-9 7-16 6-5-2 1-7 2-15-2-20-1 8-4 5 0 14-6 5-16-5-9-6-9-4-16 6-25 3 1-4 3-9 9-8 4-3 19-14 9-14 5-1 6-13 14-5 4 4-20 5 0 10 13 5-3-4 7-2 7 0-11-7 3-9 6-2-16-6-5-2 4 4-5 0-8-3-13 7-25-3-38 1-17-2 24-2 3-11 4-10 11-10 24-11 8 0 21 6 12-7 2-14 4-23-1-35 2-8 6-15 2-26-3-12 7-26-11-24-3-6-27 0-15-7 9 1 26 4 30-2-7-8-20-2-29-3-5-5 18 2 24-4 0-2 7-5 11-10 2-3 15-2 13-6 7-2 11-4 6-9 2 7-8 4-12-2 4 2 14 0 3-4 5-1-4-7-9-4-16-11 4 1 4-5 5 7 16 0 21 8 0 10 9 10 16 6 9 3 26 5 10-2-4-5-7-11-15-13-5-5-7-12-6-15-6-9 15 8 8-2 13-2 6 7 6 12 9-8 11 5 19 9-4 3-4 13 0 13 14 2-3-10 2-11-4-11-5-11-9-18 1-3 13 4 15-1l15 10c7 7 7-9 12 3 5 2 5 15 4 21 4 0 7 4 10 2 0 9 8 2 7 2-3-2-1-10 7-4 3 7-6 2-8 8 2 7 15-1 19 9 7 4 15-1 7-2-6 1 3-5-3-6-2 6-4-3-6 1-6-6 8-5-2-13 0-14 10 2 7 1 0-7 14-9 10-1-8 12 11-5 0 10-7 8 5 11 10 0-6-6 10-4 3-9 6-12 11 10 6 2-3 5-3-5-4 7 6-5 0 14 5 2 6-1 21 4 29 3 6-2 6-15 7-3 12-1 7-11 3-4-4-3-1-10 1-14 10-5 11-7 8 3-4 6 11-7 4 5 10-4 13-4 13-10 7-5 8 13 3 4-1 7 16 10 18 16 10-1-2-21 10-11 8-2 7-19 11-9 9 5 8 18 10 15 2 3 6 0 5-8 2 7 8 1 6-6 3-9 3 18-3 18 6 10 13-1 19-2-1 9 17-22 30-12 9 5 15 7 18 2 2-9 6-4 3 6-14 2-1 5 4 9 8 8 11-5 11 9 1-4 7-4 8 4 10 2 2 5 5 14 2 6 2-4 7 1 5-10 1 5-4 3 5 1-4 12 4 8 3-4 11-25 13-16 6 2-11 22-7 33-7 11 7 0 0 11 8 5-14 19-5 4 12-11-12-8-5-4-10 11 3 3-2 16-9 14 13 5 13-3 3-8 6-10 14-15 7 1 19-24 13-7-17 10 8 13-2 25 5 7-9 14-12 22-8 6-19 10-22 19 8-3 2 8-3 6-5 8-1-4-8-2 1 8 14 9 5 11 3 6 9 6 5 10 3-1 13-1 12 5-5 4 2 15-7 14-6 8 15 6 1 9-2 4 1 11-6 7-7 7-2 11-9 6-2 11-9 6-4 0-8 5-16 18-11 22-2 5-11-8-9 3 13 6-11 6-3 1-7 2-7 8-13 5-12 0-6 12-18 8-7-3-3 4-12-1-1-7-4-2-6-3 7 4-11 9-8 2 11 3 2-12 4-4-6-8-19 8-22-4l-8 3c1 4-1 12-9 7-1-1-5-3-7 3-5-3-6-7-11-8 2-5-7-4 0-8 6-9-20-8-12-6-6-1-14 1-9 6 6 3 7 14 7 23-1 16-19-2-28-6-9 0 5 18-14 17M88 301c-1-2-1 1 0 0m230-2s0 1 0 0m-224-1c2-3-3 2 0 0m154 0c1-8-8 2 0 0m143 0c-1-2-2 2 0 0m-148 0c1-3-3 2 0 0m85-1c1-2-3 2 0 0m62-1c-2 0 0 3 0 0m-293 0c-1-2-3 3 0 0m232 0c-1-1-1 0 0 0m1-1c1-1-2 2 0 0m-71-2c-1 0 1 2 0 0m-179 1c-1-1-1 0 0 0m247 0c0-1 0 0 0 0m-209-2c-1-1-1 0 0 0m-1-2c-1 0 1 2 0 0m146-1c11-1-11-5 3-3 5-2-9-11-12-1 4 0 5 5 9 4m-3-7c2-2 2 1 0 0m83 6c-1 0 0 1 0 0m-216-7c-2-2-3 2 0 0m320-19c-1-1 0 0 0 0m15-23c0-7-5 1 0 0m-6 0c-1-3-1 1 0 0m8-1c-1-6-2 3 0 0m-7 0c-1-1-1 1 0 0m-417-3c1-7-9 3 0 0m419 0c-4-5 1 0 0 0m-425 0c1-3-2 2 0 0m17-4c-2 0 0 1 0 0m11-11c-2-3-2 2 0 0m1-3c-3-1 0 2 0 0m-1-2c-1 0 0 1 0 0m389-4c0-3-2 2 0 0m-400-2c0-4-2 1 0 0m395 0c-1 0 0 1 0 0m-397-1c1-1-2 2 0 0m398-5c0-1 0 1 0 0m2-1c-1-1-1 1 0 0m-2-3c0-1 0 1 0 0m11-6c2-5-4 0 0 0m3-6c1-8-5 9 0 0m-6-1c0-1-1 2 0 0m-3-16c4-6-1 2 0 0m2-4c4-4-4 2 0 0m1-3c0-3-2 2 0 0m-5-4c0-1 0 0 0 0m3-4c-1-1 0 2 0 0m-1-2c-1-3-1 5 0 0m1-4c-2-6-3 5 0 0m10-32c7-8-7-7 0 0m0-3c1-2-2-1 0 0m3-5c0-3-1 5 0 0M46 90c0-1 0 0 0 0m400-9c0-1 0 0 0 0m-232-2c10-1 15-12 7-7-2 3-19 9-7 7m9-5c1-1 1 0 0 0m0-1c0-1 0 0 0 0m216 4c1-3-2 2 0 0m2-2c-1-1-1 2 0 0m-228 0c0-1-1 1 0 0m225-3s0 1 0 0m-239-1s1 1 0 0m175 0c0-1 0 0 0 0m-167-2c-2-1 1 3 0 0m-2 0c-1-2-1 1 0 0m-1-3c5-5-5-1 0 0m-46 0c-2-2 5-3 2-6-2 0-10 0-9 3 3-4 4 5 7 3m-2 0c1-1 1 0 0 0m1-2c0-1 0 1 0 0m1-2c1-1 1 2 0 0m-4 0c2-1 1 1 0 0m2 0c1-2 1 1 0 0m0-1c0-1 0 0 0 0m69 5c1-4-4 2 0 0m-63-1c2-3-7 0 0 0m46 1c-1-1-1 0 0 0m62-2c-1 0 0 1 0 0m-62 0c-1-2-3 1 0 0m-35 0c-1-4-3 2 0 0m105-2c-2-2-2 4 0 0m-111 0c-2-1 0 2 0 0m15 0c-1-2 0 2 0 0m24 0c-1-1-1 2 0 0m149 0c-1 1 0 1 0 0m-151-1c1-9-5 4 0 0m71 1c0-1-1 1 0 0m142-1c2-4-2 3 0 0m-209 0c0-1 0 1 0 0m211 0c3-3-3 1 0 0m-257-1c1-2-2 1 0 0m112 0c5-6-5-2 0 0m-109-1c-1 0-1 1 0 0m64-1c-1-1-1 3 0 0m49 1c-1-1-1 0 0 0m-6-1c0-6-4 3 0 0m6-1c-1-2-2 1 0 0M94 56c-1 0 0 1 0 0m-13 0c-1-1-1 1 0 0m217-1c1-7-2 1 0 0m-22 1c0-1 0 1 0 0m-146-1s0 1 0 0m144-1c1-11-6 7 0 0m5 0c-1 0-1 1 0 0M79 53c-3-1 1 3 0 0m-1 0c-1-3-1 0 0 0m201-1c-1 0 0 1 0 0m-2-2c-2-2 1 4 0 0M147 38c0-2-1 1 0 0m-37-5c-2-1 0 3 0 0m28-2c-1-4-3 2 0 0m-15-1c-1-1-1 1 0 0M42 321c1 0 0 1 0 0m53 0s0 1 0 0m307 0c1-3 2 2 0 0m-73 0c0-1 0 1 0 0m-287-1c1-2 2 2 0 0m29-1c2-1 1 1 0 0m234-1c1-1 1 1 0 0m62 0c1-2 1 1 0 0m-330-1c1-3 3 1 0 0m57 0c-9-1-3-11 1-12 5 2 9 8 2 11 2-4-2 3-3 1m6-7c0-1 0 1 0 0m-4-3c-1 0-1 1 0 0m122 10c-2-4 3 2 0 0m-75 0c1-2 0 1 0 0m50 0c1-1 1 0 0 0m-48-1c1-4 3 2 0 0m6 0c2-1 2 0 0 0m-90-1c0-3 3 2 0 0m79 0c-2-4 3 1 0 0m-61 0c-1-2 1 1 0 0m247 0s0 1 0 0m5 0c1 0 1 1 0 0m-250 0c1-2 1 1 0 0m34 0c1-1 0 0 0 0m-50-1s0 1 0 0m2 0c2-3 1 3 0 0m10 0c2-1 2 2 0 0m296 0c-1-4 4 2 0 0m-330 0c1-3 4 0 0 0m269 0c0-3 2 1 0 0m-237 0c0-1 0 0 0 0m71 0c-1-8 15-4 3 0zm7-2c-3-4-1 4 0 0m145 2c1-1 1 1 0 0m51 0c0-1 0 0 0 0m86 0c0-5 4 1 0 0m-134-1c-1-3 3 1 0 0m62 0c-1-4 3 0 0 0m-278 0c-1-3 4-1 0 0m123 0c1-1 1 1 0 0m5 0c-4-7 7 0 0 0m-20 0c1-1 1 0 0 0m162-1c1-1 1 1 0 0m15 0c1-1 1 2 0 0m-317 0c0-4 4 2 0 0m11 0c1-1 1 1 0 0m4 0c0-5 5 2 0 0m11 0c0-1 0 1 0 0m114-1c-2-5 6 2 0 0m-11 1c0-1 0 0 0 0m-52-1c1-1 1 1 0 0m5 0c-3-6 6 0 0 0m167 0c-1-6 6 1 0 0m11 0c0-2 1 1 0 0m50-1c2-6 5 4 0 0m-219 1c1-3 2-1 0 0m100 0c1-1 1 0 0 0m5-1c1-1 0 2 0 0m110 0c1-1 2 1 0 0m16 1c-1-3 1 0 0 0m-121-1c1 0 0 1 0 0m57 0s0 1 0 0m-196-1c-2-5 6 2 0 0m253 1c-4-8 8-1 0 0m-265 0c1-1 0 0 0 0m151 0c1-1 1 0 0 0m95 0c0-1 0 0 0 0m77 0c-1-3 2 1 0 0m-351-1c1 0 0 1 0 0m128 0c-8-6 6-4 0 0m0-3c-1-1-1 1 0 0m131 3c-1-5 4 1 0 0m96 0c-1-6 7 1 0 0m-173 0c1-1 0 1 0 0m69 0c-1-2 1 0 0 0m23 0c-4-6 6-1 0 0m-94 0c1-1 1 0 0 0m82 0c1-1 1 0 0 0m59-1c0-4 3 2 0 0m-334 0c1-1 1 1 0 0m4 0c2-2-1 2 0 0m9 0c1 0 0 1 0 0m48 0c-3-11 8 0 0 0m31 0s0 1 0 0m155 0c1 0 0 1 0 0m79 0c1-1 1 1 0 0m23 0c-2-6 6 1 0 0m-283 0c1 0 0 1 0 0m-79 0c0-2 1 1 0 0m23 0c1-1 0 0 0 0m77 0c0-1 0 0 0 0m151 0c0-3 1-1 0 0m-221-1c2-1 2 1 0 0m85 0c-1-3 3 1 0 0m79 0c1 0 1 1 0 0m65 0c1 0 1 1 0 0m6 0c1 0 1 1 0 0m42 0c-1-11 9 1 0 0m-256 0c0-1 0 1 0 0m169 0c1 0 1 1 0 0m36 0c-1-1 2 1 0 0m20 0c0-2 1 0 0 0m37 0c0-2 1 0 0 0m-217 0c1-3 3 1 0 0m168 0c0-2 2 0 0 0m105-1c-1-11 8 2 0 0m-361 0c1 0 1 1 0 0m82 0c1-1 1 1 0 0m2 0c1-1 1 1 0 0m68 0c1 0 1 1 0 0m98 0c1 0 1 1 0 0m21 0c1 0 0 1 0 0m59 0c0-1 0 1 0 0m-313 0c2-2 3 1 0 0m14 0c0-3 4 2 0 0m60 0c-4-9 8-1 0 0m185 0c1-1 1 1 0 0m42 0c1-2 1 1 0 0m15 0c0-1 0 1 0 0m-320 0c1-1 1 0 0 0m12 0c1-6 8 1 0 0m25 0c1-1 1 0 0 0m30-1c0-1 2 1 0 0m171 0c1-2 3 1 0 0m87 0c1 0 0 1 0 0m-290 0c-1-2 3 0 0 0m39 0s0 1 0 0m71 0s0 1 0 0m32 0c1-3 1 1 0 0m75 0c1-2 3 1 0 0m8 0c0-1 0 1 0 0m-263 0c0-3 3 1 0 0m164 0c1-1 0 1 0 0m73 0c1-1 1 1 0 0m12 0c1-6 7 1 0 0m25 0c1-1 1 0 0 0m29 0c1-2 2 1 0 0m14 0c-1-3 3 0 0 0m-321-1c0-1 1 2 0 0m15 0c0-4 3 3 0 0m20 0c1-2 3 2 0 0m33 0c1 0 0 1 0 0m249 0c-11-4 7-4 0 0m-319 0c1 0 0 1 0 0m9 0c-2-5 10-9 8-2-8-1 0 2-8 2m11 0c1-1 1 1 0 0m53 0c-1-2 2 1 0 0m46 0c0-5-5-10-1-10 6 2 2 6 2 10zm1-4c-1-3-2 1 0 0m1-2c-2-1 1 1 0 0m18 6c-6-10 12 1 0 0m1-4c-1 0 0 1 0 0m138 4c0-3 2 2 0 0m-221 0c1-10 15-4 1 0zm26 0c2-2-1 1 0 0m157-1c-5-8 4 3 0 0m-242 1c-1-3 2 1 0 0m29-1c1-1 1 2 0 0m94 1c0-1 0 0 0 0m130-1c-1-3 2 2 0 0m51 0c-2-5 4 4 0 0m2 0s0 1 0 0m36 0c1-2 1 2 0 0m-348 0c2-2 1 1 0 0m12-1c4-4 2 5 0 0m72 1c1 0 0 1 0 0m167 0c-5-8 19-4 4-2-2-2-1 5-4 2m11 0c1-1 1 1 0 0m112 0c0-1 0 1 0 0m-223 0c1-1 0 1 0 0m103 0c1-2 1 1 0 0m44 0c-2-9 16-3 4-2 1 1-3 2-4 2m23 0c0-5 2 2 0 0m-52-1c0-1 0 2 0 0m91 0c0-9 16-3 2 1zm-358 0c0-2 3 1 0 0m58 0c2 0-1 1 0 0m16 0c-5-7 5-3 0 0m15 0c0-2 0 2 0 0m39 0c1-3 2 0 0 0m65 0c1 0 1 1 0 0m89 0s0 1 0 0m32 0c1-1 1 1 0 0m1 0c1 0 1 1 0 0m13 0c1-1 2 1 0 0m-297 0c1-1 0 1 0 0m276 0c-2-5 4 0 0 0m95-1c1-4 4 2 0 0m-400 0c0-3 3 2 0 0m58 0c-2-5 6 1 0 0m11 0c0-1 0 1 0 0m63 0c-1-3 4 1 0 0m3 0c0-1 0 1 0 0m128 0c1-1 0 1 0 0m-175 0c1-1 0 0 0 0m236 0c1-2 1 1 0 0m-347-1c1-1 2 1 0 0m31 0c0-1 2 1 0 0m250 0c-1-1 2 1 0 0m33 0c-1-6 7 2 0 0m-255 0c1-1 1 1 0 0m54 0c1-1 1 1 0 0m47 0c1-3 5 1 0 0m3 0c-2-4 4 0 0 0m147 0c4-3-1 2 0 0m16 0c1 0 0 1 0 0m-174 0c4-4 1-1 0 0m28 0c1-1 0 0 0 0m4 0c1-1 1 0 0 0m159 0c1-2 1 1 0 0m33 0c0-6 6 1 0 0m12 0c0-1 0 0 0 0m-351-1c1-1 0 1 0 0m38 0c-4-8 9 2 0 0m4 0c1-1 2 1 0 0m59 0c1 0 1 1 0 0m30 0s0 1 0 0m97 0c1-2 1 2 0 0m-90 0c1 0 1 1 0 0m9 0s0 1 0 0m-151 0c1-1 0 0 0 0m10 0c-5-6 3-2 0 0m107 0c1-1 1 0 0 0m177 0c1-2 1 1 0 0m-281-1c-4-5 4 2 0 0m121 0c1-1 1 1 0 0m3 0c0-1 2 1 0 0m101 0c0-1 0 1 0 0m38 0c-4-8 8 2 0 0m4 0c0-1 2 0 0 0m-279 0c1-1 1 1 0 0m48 0c0-4 5 1 0 0m27 0c1 0 0 1 0 0m219 0c1 0 1 1 0 0m43-1c-4-9 8 3 0 0m-269 1c1-1 0 0 0 0m13 0c-3-6 7 0 0 0m152 0c1-1 0 0 0 0m3 0c0-1 0 0 0 0m7 0c0-1 0 0 0 0m55 0c1-1 1 0 0 0m43 0c1-2 1 1 0 0m-337-1c2 0 0 1 0 0m111 1c0-1 0 0 0 0m1-1c2-4 1 2 0 0m129 0c-3-3 4 0 0 0m3 0s0 1 0 0m-203 0s0 1 0 0m14 0s0 1 0 0m13 0s0 1 0 0m37 0c1 0 0 1 0 0m125 0c1-1 1 1 0 0m8 0c-2-5 4 2 0 0m40 0c-1-4 4 1 0 0m-138 0c1-1 1 1 0 0m18 0c1-1 1 0 0 0m134 0c1-2 1 1 0 0m14 0c1-1 0 1 0 0m34 0c-1-4 5 0 0 0m32 0c0-1 0 0 0 0m-319-1c0-4 5 3 0 0m42 0c1 0 0 1 0 0m190 1c0-1 0 0 0 0m74-1c1 0 1 1 0 0m30 0c0-3 3 2 0 0m-396 0c1 0 0 1 0 0m281 0c1 0 1 1 0 0m8 0s0 1 0 0m17 0s0 1 0 0m73 0c-2-7 8 2 0 0m-258 0c1-1 1 1 0 0m-117-1c-2-7 8 2 0 0m4 0c-1-2 3 2 0 0m114 0c2-1 2 2 0 0m5 0c-3-5 7 1 0 0m12 1c1-1 1 0 0 0m153-1s0 1 0 0m3 0c3-2 5 1 0 0m-134 0c-3-7 7 0 0 0m73 0c1 0 0 1 0 0m42 0c0-1 0 1 0 0m122 0c1-1 1 1 0 0m-329 0c1-1 1 1 0 0m89 0c0-1 0 1 0 0m199 0c1-2 1 1 0 0m-359-1c1-1 0 2 0 0m59 0s0 1 0 0m22 1c0-1 0 0 0 0m29-1c-3-6 7 2 0 0m37 0c4-1-2 2 0 0m93 0c-2-7 8 2 0 0m4 0c-1-2 2 2 0 0m32 1c1-1 0 0 0 0m64 0c1-1 0 0 0 0m-242-1c1 0 0 1 0 0m-46 0c1-1 0 1 0 0m71 0c1-3 2 0 0 0m29 0c1-1 1 1 0 0m7 0c1-4 3 1 0 0m209 0c1-2 1 1 0 0m-365-1c-1-4 4 2 0 0m138 0c-5-3 1-15 3-3 3 1-1 5-3 3m2-3c0-1 0 0 0 0m7 4c1-2 0 1 0 0m84 0c1-2 1 1 0 0m133-1c1-1 0 1 0 0m-88 0c1-1 1 1 0 0m4 0c2-6 2 2 0 0m2 0c1-1 1 1 0 0m69 0c1-1 1 1 0 0m-295 0c1-2 1 1 0 0m7 0c1-2 1 1 0 0m171-1c0-3 3 2 0 0m110 1c1-2 1 1 0 0m53-1c1-1 1 2 0 0m-327 0c1-3 2 2 0 0m3 0c1-1 0 1 0 0m5 0c0-2 3 0 0 0m37 0c-7-7 5-13 0-3 1-5 4 5 0 3m-1-9c-1 0 0 1 0 0m-46 9c1-2 1 1 0 0m9 0c0-1 0 0 0 0m300-1c-1-7 8 2 0 0m-241 0s0 1 0 0m1 0c0-1 1 1 0 0m215 0c0-1 0 1 0 0m-276 0c1-1 1 1 0 0m70 0c0-1 0 1 0 0m7 0c1-1 1 1 0 0m83 0c1-1 1 0 0 0m-254-1c1 0 0 1 0 0m384 0c1-1 1 1 0 0m7 0c2-2 2 2 0 0m24 0c1-3 3 2 0 0m13 0c1-4 2 3 0 0m-416 0c1-1 1 1 0 0m242 0c-4-2 4 0 0 0m128 0c1 0 0 1 0 0m-366-1c0-1 2 2 0 0m110 0c5-1-1 3 0 0m48 1c1-1 0 0 0 0m10 0c0-1 0 1 0 0m2 0c2-9 17 1 0 0m63 0c2-2 2 1 0 0m-220-1c1 0 0 1 0 0m57 0s0 1 0 0m7 0c1-1 0 1 0 0m48 0s0 1 0 0m117 0c-2-4 3 2 0 0m175 0c0-2 2 2 0 0m-407 0c1-3 1 1 0 0m140-1c-9-9 6-10 2 0l-1 1zm2-3c-1-3-2 3 0 0m82 4c1-1 1 1 0 0m-97-1c0-1 0 2 0 0m9 0c0-1 0 2 0 0m21 0c1-1 1 1 0 0m-170 0c1-2 1 2 0 0m117 0c1-1 1 1 0 0m120 0c0-1 0 1 0 0m11 0c1 0 1 1 0 0m-115 0c1-1 0 1 0 0m14 0c2-2 1 1 0 0m100 0c1-2 1 1 0 0m128 0c1-1 1 1 0 0m-230-1c1-1 1 2 0 0m241 1c-1-3 2 0 0 0m-269-1s0 1 0 0m33 0c1-1 1 1 0 0m88 0s0 1 0 0m-3 0c-11-11 7 2 0 0m-165 0c1-1 0 0 0 0m318-1c1-1 0 1 0 0m50 0c1 0 0 1 0 0m-188 0c0-1 0 1 0 0m151 0c-10-4 5-7 0 0m9 0c-3-3 3 0 0 0m-287 0c0-1 0 0 0 0m-126-1c1 0 0 1 0 0m75 0c0-1 0 1 0 0m169 0c0-2 2 1 0 0m4 0c1-10 9 3 0 0m142 0c1-1 2 0 0 0m31 0c0-6 7 4 0 0m-52 0c1-1 1 1 0 0m30 0c0-3 2 1 0 0m49 0c0-1 0 1 0 0m-443 0c0-1 0 0 0 0m167 0c1-2 1 1 0 0m195 0c1-3 3 0 0 0m3-1c1-4 1 4 0 0m23 0c1-1 1 2 0 0m-159 0s0 1 0 0m133 0s0 1 0 0m14 0c0-2 2 2 0 0m-229 0c1-1 1 1 0 0m-39 0c1-2 1 1 0 0m125 0c1-2 1 1 0 0m179 0c-5-6 9-3 0 0m-427-1c1-3 3 2 0 0m30 0c0-1 0 1 0 0m129 0c1 0 1 1 0 0m88 0s0 1 0 0m8 0s0 1 0 0m137 0c1-1 1 1 0 0m-198 0c3 0 0 1 0 0m56 0s0 1 0 0m166 0c0-8 5 0 0 0m-401 0c0-1 0 0 0 0m110 0c1-4 4 0 0 0m272-1c3-8 4 5 0 0m63 1c0-2 0 1 0 0m-315-1c1 0 0 1 0 0m117 0c1 0 1 1 0 0m1 0c1 0 1 1 0 0m127 0c0-1 0 1 0 0m-372 0c3-1 2 1 0 0m389 0c1-3 1 2 0 0m42 0c0-2 0 2 0 0m-427 0c1-1 0 0 0 0m127 0c1-1 0 0 0 0m106 0c0-1 0 0 0 0m-251-1c1-3 1 2 0 0m252 0c1-1 0 1 0 0m166 0c1-1 1 0 0 0m-8-1c-4-4-6-16 0-18 3 8-2 12 3 11 1 3 0 8-3 7m-252 0s0 1 0 0m-190 0c0-1 0 0 0 0m469 0c-1-3 3 0 0 0m-298-1c2-1 2 2 0 0m-119 0c1 0 0 1 0 0m382 0c0-5 3 2 0 0m-414 0c-5-10 9 0 0 0m140 0c0-1 0 1 0 0m286-1c1-1 0 1 0 0m-26 0c1-1 0 1 0 0m8 0c-10-10 15-5 0 0m4 0c1-1 1 1 0 0m16 0c-1-2 1 1 0 0m-401-1s0 1 0 0m1 0c-1-4 5 1 0 0m376 0c1 0 1 1 0 0m27 0c2-4 1 2 0 0m-14 0c0-1 0 0 0 0m16 0c0-2 0 1 0 0m-409-1c0-2 2 1 0 0m7 0c1-1 1 1 0 0m-38 0c-5-9 10-1 0 0m424-1c1-1 1 2 0 0m14-2c0-1 2 0 0 0m-416 0c1-1 1 1 0 0m382 0c2-4 1 2 0 0m6 0c1-2 2 0 0 0m26-1c-2-7 3 2 0 0m-405 0c1-1 1 1 0 0m409-1c1-1 1 2 0 0m-436 0c1 0 1 1 0 0m413 0c2-4 4 0 0 0m24 0c2-2 2 1 0 0m-412-1s0 1 0 0m384 0s0 1 0 0m-394-1c1 0 1 1 0 0m11 0c0-1 0 0 0 0m415 0c1-1 1 1 0 0m-38-1c-1-5 4 1 0 0m55 0c1 0 0 1 0 0m-10 0c0-2 0 1 0 0m-426-1c0-3 2 2 0 0m425-1c2-2 1 3 0 0m-30 0c3-5 3 4 0 0m-393 0c0-2 2 0 0 0m418 0c-1-5 3 3 0 0m-21 0c0-1 0 0 0 0m-404-1c0-1 0 1 0 0m388 0c1-1 1 1 0 0m15 0c1-1 1 1 0 0m9 0c-1-5 5 0 0 0m-24-1c0-1 0 0 0 0m30 0c-1-4 3 0 0 0m-29-1c1 0 1 1 0 0m13-1c-1-7 6 2 0 0m18 0c1-1 1 1 0 0m-431-1c-4-3 3 0 0 0m-8 0c0-2 1 1 0 0m16-1c1-1 1 1 0 0m407 0c-2-2 3 1 0 0m4 0c-1-4 3 1 0 0m3 0c1 0 0 1 0 0m2-1c2-1 2 2 0 0m2 0c-7-11 8-5 0 0m-433-1c1-2 1 1 0 0m422 0c0-1 0 0 0 0m0-1c0-2 2 0 0 0m-396-1c0-3 2 2 0 0m-34-1c-1-5 5 2 0 0m20 0c0-3 2 1 0 0m-1-1s0 1 0 0m436-1c1-2 1 1 0 0m-440-1c-2-10-1-6 3-1 0 1-2 2-3 1m422 0c1-2 1 1 0 0m-415-1c1-4 6 1 0 0m-24-2c1-1 1 2 0 0m442 0c1-2 1 2 0 0m-419-1c1 0 1 1 0 0m422 0c-2-4 5 1 0 0m-435 0s0 1 0 0m5 0c0-1 0 1 0 0m3 0c-1-2 1 0 0 0m2 0c1-1 0 0 0 0m1-1c0-2 2 2 0 0m-1 0s0 1 0 0m2-1c2-1 1 2 0 0m-3 0c1 0 0 1 0 0m2 0s0 1 0 0m428-1c1-3 3 2 0 0m-440 0c1-1 1 1 0 0m26 0c0-1 0 0 0 0m429 0c0-1 0 0 0 0m-11-1c0-3 2 1 0 0m-419-1s0 1 0 0m-21 0c-1-4 2 2 0 0m-16-1c1 0 0 1 0 0m476-1c1-1 1 1 0 0m4-1c1-2 1 2 0 0m-463 0c0-1 0 0 0 0m14 0c1-1 1 1 0 0m422-1c1-1 1 2 0 0m-8 0c1-1 1 0 0 0m-450-1c0-3 2 1 0 0m456-1c0-2 1 1 0 0m17-1c1 0 1 1 0 0m8 0c1-1 0 0 0 0m-481-1c-2-5 4 2 0 0m4-1s0 1 0 0m3-2c1-1 0 1 0 0m458 0c0-1 0 0 0 0m-6-1c-1-2 1 1 0 0m3-1c-2-6 7 2 0 0m-454-3c1-9 16 2 0 0m456-2c-1-1 1 1 0 0m-11-1c1 0 0 1 0 0m31-1c0-6 6 3 0 0m-28-1c-1-5 4 0 0 0m-440-2c2 0 0 2 0 0m21 0c1-1 0 2 0 0m-19 0c1-2 1 1 0 0m423 0c1-2 1 1 0 0m-407-1c2-1 1 1 0 0m410-1c0-1 0 1 0 0m15 0c0-1 0 1 0 0m-17-3c1-1 1 2 0 0m2 0c-5-10 14-4 0 0m-428-1c0-3 3 3 0 0m2 0c1-4 2 1 0 0m421 0c0-3 2 1 0 0m-409-2c-1-2 2 1 0 0m9-1c1-1 0 0 0 0m399 0c0-1 0 0 0 0m37-3c0-2 2 0 0 0m-36-1c-4-7 4 0 0 0m25 0c-2-11 9 2 0 0m-18 0c1-1 0 1 0 0m22 0c1-1 1 1 0 0m-19-1c0-2 2 1 0 0m-453 0c0-1 1 1 0 0m1-1c4-1 1 2 0 0m453 0c-4-10 11 0 0 0m-15-1c1-1 1 2 0 0m10 0c0-1 0 0 0 0m-4-1c-1-2 2 1 0 0m-9 0c0-2 2 1 0 0m14-1c-1-8 6 1 0 0m8-2c-4-2-6-19 3-10-4 3 7 15-3 10m-15 1c1-1 0 1 0 0m-447-1c-1-2 4 0 0 0m-4-1c2 0 0 1 0 0m476-4c-14-4 6-12 2-1l-2 1zm-20-3c-1-1 1 0 0 0m3-2c1-1 1 1 0 0m2 0c0-1 0 1 0 0m-3-1c1-1 0 1 0 0m-441-2s0 1 0 0m16-1c-2-1 4 1 0 0m427 0c1 0 1 1 0 0m7 0c1-1 1 1 0 0m-5 0s0 1 0 0m22-4c0-2 2 1 0 0m-453 0c2-1 0 0 0 0m438-3c1 0 1 1 0 0m5 0c2-3 2 1 0 0M28 165c-1-3 2 3 0 0m20 1c1-2 1 1 0 0m-2-6c4-2-3 3 0 0m-5-2c-5 0-1-11 0-5-3-2 7 10 0 5m416 1c2-4 2 2 0 0m-3 0c3-5 2-1 0 0m3-2c2-10 1 4 0 0m-418 0c1 0 0 1 0 0m425-1c-3-5 5-1 0 0m-428 0c0-1 0 1 0 0m0-1c1-1 1 0 0 0m9 0c1-1 0 0 0 0m412-1c2-2-1 2 0 0m-414 0c3-2 2 1 0 0m418 0c0-1 0 0 0 0m-415-1c1 0 1 1 0 0m412 0c1-1 1 0 0 0m-416-2c0-1 0 1 0 0m422 0c0-2 1 1 0 0m-418-1c0-1 0 1 0 0m-28-2c0-9 4 1 0 0m24 0c3-1 0 1 0 0m3-2c1 0 0 1 0 0m-4 0c-2-7 1-10-5-7-6 7-13 6-15 3-6 1 1-7-4-7-4 8-4-3-2-6-2-4 12-11 12-8-3 1-4 14 2 5 5 2-14 19 0 13 9 5 5-13 9-9 8 0-3-9 8-8 5 8-2 8-3 5 1-5-1 8 2 7-3 8 4 7-4 12m-12-4c-1-1-1 1 0 0m-6-6c1-4-3 3 0 0m-4 0c0-1 0 0 0 0m2-1c-1-1-2 1 0 0m-1-2c1-8-5 3 0 0m21-1c-3-2-1 4 0 0m-18 0c0-1 0 1 0 0m-6-1c0-5-3 4 0 0m7 0c-2-2-2 1 0 0m-2-2c-1-1-1 1 0 0m-2-2c1-8-6 6 0 0m4 1c-1-1-1 1 0 0m0-3s1 1 0 0m-1-1c-2-3 1 4 0 0m6 21c0-2 2 2 0 0m429-1c1-4 1 3 0 0m11 0c1-2 2 1 0 0m27-3c1-2 2 0 0 0m-484-2c1-2 1 1 0 0m487-1c1-2 2 1 0 0m-9-1c0-3 5-4 0 0m7-4c1-1 1 1 0 0m-27-1c0-2 1 1 0 0m43 0c5-3-2 2 0 0m-469-1c1 0 1 1 0 0m440 0c0-1 0 0 0 0m-17-1c1-2 1 1 0 0m4-1c-1-6 2 4 0 0m4 0c2-1 1 1 0 0m-426 0c1-3 1 1 0 0m422-2c1-1 1 1 0 0m-2-1c0-1 0 2 0 0m-442-1c1-1 0 1 0 0m2-1c2-7 6 0 0 0m441 0c-2-11 12-11 2 0h-1zm-443-2c1-2 1 2 0 0m8 0c-4-1 11-10 3-2-1-1-2 3-3 2m-13-2c1 0 0 1 0 0m454 0c1-1 1 1 0 0m-450-2c1-1 1 2 0 0m11-2c-1-3 2 1 0 0m0-2c2-2 1 1 0 0m435-4c1 0 1 1 0 0m3 0c1-1 0 1 0 0m10 0c1-1 0 1 0 0m-25-2c1-1 1 0 0 0m-423-1c0-1 0 0 0 0m463-1s0 1 0 0m-28 0c2-5 3-2 0 0m17 0c6-7 6-1 0 0m24 0c1-1 1 1 0 0m-472-1c3-2-1 2 0 0m2 0c0-1 0 0 0 0m431-3c1-1 1 1 0 0m-427-1c0-1 0 1 0 0m449 0c3-4 3-1 0 0m-7-1c0-1 1 0 0 0m-447 0c0-1 0 1 0 0m441-1c2-4 2 1 0 0m-27-2c0-2 0 2 0 0m47 0c2-3 3 1 0 0m-17 0c0-1 0 1 0 0M14 96c0-1 0 1 0 0m492-1c1-1 1 1 0 0m-47-1c0-1 0 0 0 0m48 0c2-3 2 0 0 0m-43-2c0-1 0 1 0 0m7 0c0-1 0 1 0 0m40 0c0-1 0 0 0 0M38 90c1-1 0 1 0 0m440 0c1-3 1 0 0 0m-13 0c0-1 0 0 0 0m2-1c1-1 0 2 0 0M40 89s0 1 0 0m-5-1c-16-4 7-4 0 0m8 0c0-5 4 3 0 0m431 1c1-1 1 0 0 0M50 87c1 0 0 0 0 0m436 0c1-1 0 2 0 0M47 87c0-1 0 1 0 0m434 0c0-3 2 0 0 0m-12-2c4-6 3 1 0 0m5-1c0-1 0 1 0 0m8 0c-4-8 11 1 0 0m-32-1c0-1 0 1 0 0m5 0c0-2 1 0 0 0m45-1c1 0 0 1 0 0M33 82c1-1 1 0 0 0m453-2c0-3 3-2 0 0m-3 0c1-1 1 0 0 0m-35-1c1-1 1 1 0 0M36 78c-2-2 4 1 0 0m-5-1c-13-1 10 1 0 0m4 0c1 0 0 1 0 0m4 0c-2-3 3 1 0 0m409 0c1-2 2 0 0 0m28 0c1-2 0 1 0 0m-12-2c1-2 1 2 0 0M52 75c-6-3 4-1 0 0m-17-1c1-1 1 1 0 0m415-1c1-8 10-8 2-2 0 0-3 6-2 2M48 74c0-3 2 0 0 0m-3-1c-15-2 8-5 0 0zm8 0c1-1 1 1 0 0m412 0c1-2 1 1 0 0M51 73c0-1 0 0 0 0m150 0c1-1 1 0 0 0m-5-1c1-1 1 1 0 0m-13-1c-2-4 4 0 0 0m179 0c0-3 2 1 0 0m-150 0c1-1 1 1 0 0M56 71c1-1 0 0 0 0m137-1c0-3 2 3 0 0m171 0c-1-1 1 1 0 0m-182-1c-2-4 4 2 0 0m248 0c0-1 0 1 0 0m-70-1c1-1 0 1 0 0m-172 0c1-1 1 1 0 0m3 0c1-1 1 1 0 0m174-1c-3-13 9 0 0 0m67 1c1-2 1 0 0 0M41 67c-15-3-8-9 2-4 4 1 2 6-2 4m144 0c0-2 1 1 0 0m265 0s0 1 0 0m-214-1c0-2 1 3 0 0m-45 0c-5-5 6-3 0 0m71 0c3-1-1 2 0 0m171 0s0 1 0 0M63 66c-9-7 11-2 1 0zm5 0c1 0 0 1 0 0m295 0c1 0 1 1 0 0m8 0c1-1 1 1 0 0m57-1c4-4 5 3 0 0m36 0c1-2 0 3 0 0m-281 0c1-1 0 1 0 0m178 0c-1-4 4 0 0 0m13 0c1-3 2-1 0 0m4 0c1-2 1 1 0 0m-149-1c1 0 0 1 0 0m16 1c0-1 0 0 0 0m76-1c0-1 1 2 0 0M72 64s0 1 0 0m3 0c1-1 1 0 0 0m-4-1c-1-2 3 2 0 0m299 0c0-2 1 1 0 0M24 62c-3-9 10 2 0 0m36 0s0 1 0 0m194 1c-1-2 1 0 0 0M58 62c1 0 0 1 0 0m176 0c-1-3 2 1 0 0m11 0c0-4 1 3 0 0m187 0c1-6 2 3 0 0m22 0c1-1 1 1 0 0M69 62c1-1 1 1 0 0m105 0c-6-5 5 0 0 0m2 0c0-4 4 0 0 0m199-1c-2-16 20-7 0 0M55 62c2-1 2 1 0 0m4 0c1-1 0 0 0 0m5 0c-2-2 3 1 0 0m-22-1c1-2 0 0 0 0m20 0c1-1 0 1 0 0m13 0c1-1 1 1 0 0m161 0c0-4 2 0 0 0m134 0c1-1 1 1 0 0m-204-1c1-1 1 2 0 0m202 1c1-2 0 1 0 0m62 0c2-8 5-4 0 0M60 60c0-2 1 1 0 0m17 0c2 0 0 1 0 0m3 0c-1-2 2 1 0 0m-41 0c1-3 3 2 0 0m9 0c0-2 4 2 0 0m123 0c1-1 1 1 0 0m142 0c0-1 0 1 0 0m184 0c2-4 2 0 0 0M61 60c1-2 2 1 0 0m108-1c-3-2-4 0-3-10 2-10 8-3 12-4 0-7 14-12 6-2 3 11-3 6-6 5 2 12-3 9-9 11m10-13c-1-1-1 1 0 0m-1-1c-1-1-1 1 0 0m255 14c5-11-1 6 0 0M46 59c0-2 3 2 0 0m302 0c1-1 1 1 0 0M69 59c1 0 0 1 0 0m122 0c1 0 0 1 0 0M23 58c-15-2-2-9 2-1l-1 1zm48 0c-2-3 2 1 0 0m140 0c0-1 0 1 0 0m49 0s0 1 0 0m91 0c1-1 1 1 0 0M44 58s0 1 0 0m190 0c2-5 2 2 0 0m11 0c0-1 0 1 0 0m122 0c3-12-7 3-1-7 5-1 7 5 1 7M47 57c-5-2 9 2 0 0m6 1c0-1 0 0 0 0m387 0c0-4 2-1 0 0m59-1c1-2 1 2 0 0M64 58c1-1 1 0 0 0m149-1c-3-5 8-2 1 1zm-2 0c1 0 1 1 0 0M56 56c-7-4 7 0 0 0m125 0c1-3 3 1 0 0m166 0c-1-7 3 2 0 0M45 56c1 0 1 1 0 0m74 0c1 0 0 1 0 0m68 0c1-1 1 1 0 0m178 0c1 0 1 1 0 0m87 0c1-3 2 1 0 0M43 56c1-1 1 0 0 0m26 0c0-1 0 0 0 0m168 0c0-2 1 0 0 0M60 55c-17-9 15 0 0 0m124 0c1-2 2 1 0 0m120 0c-1-3 2 2 0 0m24 0c1-1 1 2 0 0m-225 0c-3-9 6 0 0 0m-6 0c0-1 0 1 0 0m85 0c1-1 2 1 0 0m36 0c9-11 9 0 0 0m99 0c-1-6 4 2 0 0m31 0c1-1 1 1 0 0m-221 0c0-1 0 0 0 0m64 0c-1-2 1 0 0 0m94 0c1-1 1 0 0 0m72-1s0 1 0 0M51 54c1-2 4 2 0 0m41 0s0 1 0 0m14 0c1-1 1 1 0 0m4 0c1-2 2 1 0 0m83 0c0-1 0 1 0 0m113 0c1-6 2 2 0 0M34 54c1-1 1 1 0 0m65 0c-3-4 6 2 0 0m2 0c1-1 1 1 0 0m134 0c-1-5 6 1 0 0m117-1c0-9 6-1 0 0M50 54c0-2 1 1 0 0m41-1c-1-5 4 3 0 0m4 0c-1-2 3 1 0 0m28 1c1-2 1 1 0 0m1-1c2-1 2 2 0 0m231 0c1-1 1 2 0 0m154 1c1-2 1 1 0 0M65 53c1 0 0 1 0 0m247 0c1 0 1 1 0 0M52 53c1-3 4-1 0 0m127 0c1-1 1 1 0 0m170 0c1-1 1 1 0 0m-221 0c0-1 0 0 0 0m200-1c-5-5 1-34 1-11 1 3 4 13-1 11M50 52c1 0 1 1 0 0m18 0c0-1 1 1 0 0m29 0c0-1 0 1 0 0m9 0c0-1 1 1 0 0m17 0c0-3 3 1 0 0m56 0c1-1 1 1 0 0m170 0c0-1 0 1 0 0M67 52c1-1 1 0 0 0m144 0c1-1 1 1 0 0m70 0c1-1 1 0 0 0m110 0c-1-2 2 0 0 0M63 51c1 0 1 1 0 0m3 0c0-1 1 1 0 0m34 0c0-2 0 2 0 0m148 0s0 1 0 0m56 0c2-5 2 2 0 0m74 0c1 0 1 1 0 0m-191 0c1-1 1 1 0 0m48 0c1-3 1 1 0 0m84 0c1-5 3 2 0 0m109 0c2-3 2 0 0 0m13 0c0-2 2 1 0 0M95 50c-7-5 6 3 0 0m188 0c-3-5 8 0 0 0M55 50c1-1 1 1 0 0m8 0c-1-2 5 2 0 0m46 0c1-1 1 1 0 0m13 0c-1-1 2 1 0 0m72 0c0-1 0 1 0 0m5 0c1-1 1 1 0 0m152 0c1-6 2 3 0 0m102 0c0-2 0 2 0 0m-350 0c0-1 0 1 0 0m92 0c1 0 1 1 0 0m155 0s0 1 0 0m-187 0c1-3 3-1 0 0m17 0c-1-2 1 1 0 0m128 0c-8-12 5-13 0 0m5 0c1-1 1 1 0 0M58 50c0-1 0 0 0 0m133-1c-1-3 3 2 0 0m121 1c0-1 0 0 0 0m38-1s0 1 0 0m-160 0s0 1 0 0m31 0c0-3 2 2 0 0m119 0c0-6 2 1 0 0M64 49c0-1 0 1 0 0m169 0c0-4 2 0 0 0m99 0c-1-2 1-1 0 0m-231-1c1 0 0 1 0 0m86 0c1-1 1 2 0 0M68 48c-1-1 1 1 0 0m198 0c0-1 0 1 0 0m22 0c9-11 9 0 0 0m66 0c1 0 1 1 0 0m8 0c1-5 2 3 0 0M65 47c-2-3 4 3 0 0m35 1c1-1 0 0 0 0m253 0c-1-3 3 1 0 0M93 48c-1-3 3 0 0 0m183-1c-1-2 2 1 0 0m89 0c0-2 1 1 0 0m-258 0c0-1 0 1 0 0m245 0c0-1 0 1 0 0m42 0c0-2 0 2 0 0m52 0c0-1 2 0 0 0m-345 0c-1-2 2 1 0 0m103 0c0-1 0 1 0 0m24 0c1-1 1-1 0 0m151 0c1-1 1 1 0 0m-163-1c1-4 2 3 0 0m124 0c1-1 0 2 0 0m57 1c0-1 0 0 0 0m46-1c1-2 1 1 0 0M89 46c-1-2 2 2 0 0m233 0c0-1 0 1 0 0m26 0c1-2 1 2 0 0m-111 0c1-3 2 1 0 0m38 0c1-1 1 1 0 0m75 0c-1-4 1-1 0 0M97 45c3-5 3 4 0 0m100 1c0-2 0 1 0 0m134 0c0-4 3 0 0 0m9-1c-1-12 4 3 0 0m-238 0c-1-2 2 1 0 0m-15 0c0-2 2 1 0 0m194 0c1-1 1 1 0 0m81 0c1-3 1 1 0 0m85-1c3-8 2 1 0 0M93 44c-2-6 5 3 0 0m181 0c-11-7 8-14 0-1l1 1zM82 44c-2-7 6 1 0 0m43 0c1 0 0 1 0 0m39 0c0-1 0 1 0 0m10 0c-1-3 2 0 0 0m170 0c-2-20 7-2 0 0m4 0c1-1 1 1 0 0m-142-1c1-1 1 1 0 0m159 0c0-3 1 0 0 0M92 42s0 1 0 0m84 0c1-1 1 1 0 0m115 0c0-3 2 2 0 0m13 0c1 0 1 1 0 0m11 0c1-3 2-1 0 0m32 0c1-3 1 3 0 0m16 0c0-1 0 1 0 0m-60 0c0-3 2 0 0 0m88 0c2-3 2 2 0 0M70 42c0-1 0 1 0 0m154 0c1-1 0 0 0 0m-58-1c-1-4 2 2 0 0m28 0c1 0 0 1 0 0m144 0c0-1 0 2 0 0m34 0c1-4 2 1 0 0m60 0c1-4 2 1 0 0M97 41c0-1 1 1 0 0m126 0c0-1 0 1 0 0M93 41c2-3 1 1 0 0m75 0c0-1 0 1 0 0m7 0c-1-6 3 2 0 0m23-1c-2-2 2 2 0 0m132 0c0-13 4 4 0 0m3 0c-2-14 3 3 0 0M86 40c-1-1 3 2 0 0m37 0c0-1 2 1 0 0m78 0c1-1 1 2 0 0m199 0c1-4 6 0 0 0m-53 0c1-1 1 1 0 0m-46 0c0-1 0 0 0 0m36 0c0-1 0 1 0 0m-45-1c0-1 0 1 0 0m15 0c1-3 2 1 0 0M86 39c-9-2-8-8 1-7 4 1 4 9-1 7m162 0c1-1 0 0 0 0m39-1c1 0 0 2 0 0m113 0s0 1 0 0m-223 0c0-2 2 2 0 0m129 0c1-1 1 1 0 0m-109 0c1-1 1 0 0 0m140-1c0-1 0 2 0 0m33 0c2-7 2 1 0 0m-252 0c1-1 2 1 0 0m-53 0c-4-6-5-16 6-10 11 13-17-3-2 7 5 3-3 3-4 3m1 0c-1-1-1 0 0 0m28 0c0-1 0 1 0 0m172 0c1-3 1 2 0 0m134 0c1-1 1 1 0 0m-231-1c1-4 1 4 0 0m272 0c-4-16 10 1 0 0m2-1c0-3-5 2 0 0m-280 1c0-2 2 1 0 0m28 0c-1-3 2 2 0 0m152 0c1 0 1 1 0 0m-168 0c0-2 2 0 0 0m-17 0c1-2 1 1 0 0m14 0c1-1 0 0 0 0m226-1c1-4 0 3 0 0m-217 0c1-1 1 1 0 0m155 0c1-1 1 1 0 0m-164 0c-4 0-14-6-3-4-3-15 20 1 3 4m231 0c-4-5 7-7 1 0zM71 35c0-2 2 1 0 0m115 0c0-4 2 2 0 0m137-1c0-1 0 2 0 0m46 1c1-6 1 1 0 0M76 34c1-1 1 1 0 0m120 0c-1-1 2 0 0 0m34 0c1 0 1 1 0 0m201 0c1-1 1 1 0 0m-67 0c1-3 2 1 0 0m-159 0c1-2 1 1 0 0m-60-1c1-3 0 2 0 0m169 0s0 1 0 0m-47 0s0 1 0 0m78 0c-1-6 4 1 0 0m-152 0c1-1 0 1 0 0m139 0c0-1 0 1 0 0m-188-2c0-4 0 4 0 0m179 2c1-1 1 0 0 0m-170-2c0-1 1 3 0 0m2 1c0-2 2 0 0 0m140 0c1-1 1 0 0 0m-109-1c0-3 2 1 0 0M78 31c0-2 3 2 0 0m128 0s0 1 0 0m183 0c1-4 2 2 0 0m-42 0c0-12 7-4 0 0m-189-1c1-1 1 2 0 0m26 0c1 0 1 1 0 0m-70 0c0-1 2 0 0 0m75 0s0 1 0 0M77 30c-1-2 1 0 0 0m35 0c-6-11 3-4 0 0m42 0c0-1 0 1 0 0m149-1c-2-6 5 0 0 0M82 29c-2-3 5 2 0 0m6 0c1-1 0 1 0 0m54 0c1-1 1 1 0 0m14 0c-12-12 11-7 1 0zm165 0c0-1 0 1 0 0m60 0c0-2 1 1 0 0m-241 0c1-2 1 1 0 0m4-1c0-2 1 1 0 0m-56-1c-2-4 3 3 0 0m-8 1c1-2 1 1 0 0m6 0c1-1 1 1 0 0m110 0c0-2 1 0 0 0m86 0c0-2 0 1 0 0m54-1c0-11 6-1 1 1zm-174 0c-2-5 5 1 0 0m111 0s0 1 0 0m-76 0c1-1 1 1 0 0m31 0c1 0 1 1 0 0m162 0s0 1 0 0m-246-1c0-2 0 3 0 0m34 1c1-1 1 0 0 0m35 0c0-1 0 0 0 0m177-1s0 1 0 0M85 26c1 0 1 1 0 0m286 0c1-1 1 0 0 0m66 0c1-2 1 0 0 0M85 25c0-1 1 1 0 0m194 0c-1-2 3 1 0 0M80 25s0 1 0 0m55 0c-1-4 3 3 0 0m173 0c-1-2 1-1 0 0m89 0c1-1 1 1 0 0m-63 0c1-1 0 1 0 0M89 25c0-1 0 0 0 0m229-1c0-1 0 2 0 0m-204 0c-12-4 0-10 1 0zm5 0s0 1 0 0m290 0c0-2 2-1 0 0m-259 0c0-1 0 1 0 0m165 0c1-1 1 0 0 0m13 0c1-1 1 0 0 0m-203 0c1-1 0 0 0 0m3-1c-6-8 6 3 0 0m14 0c1-1 1 2 0 0m41 0c0-2 2 2 0 0m24 0c1 0 1 1 0 0m71 0c0-1 1 2 0 0m80 0s0 1 0 0M86 23c1 0 1 1 0 0m88 0c0-1 0 1 0 0m182 0c-1-6 2-3 0 0m38 0c0-1 0 1 0 0M86 21c-4-6 6 6 0 0m39 2c1-1 1 0 0 0m-18-1c1-1 1 1 0 0m269 0c1-1 1 1 0 0m20 0c1-1 1 1 0 0m-263-1c-7-7 6 1 0 0m3 0c-1-2 2 2 0 0m38 0c1 0 1 1 0 0m-55 0c0-2 2 1 0 0m2-1c-7-8 8-1 0 0m3 1c0-1 0 0 0 0m27 0c0-1 0 0 0 0m48 0c0-3 2 1 0 0m118-1c-1-4 1 2 0 0m9 0c0-1 0 2 0 0m58 0c0-2 2 1 0 0m-267 0c-2-4 4 3 0 0m50 0c1-1 1 1 0 0m194 0c0-1 0 1 0 0m-233 0c0-1 0 0 0 0m81 0c1-1 1 0 0 0m-108-1c-12-8 5 0 0 0m58 0c-3-5 4 2 0 0m130 0c0-1 0 1 0 0m11 0c1 0 1 1 0 0M96 19c1-1 0 1 0 0m86 0c0-1 0 0 0 0m-56-1c-2-2 2 2 0 0m6-1c-1-2 2 3 0 0m-20 1c0-1 0 0 0 0m293-1c2-6 1 2 0 0m-298 0c1-1 1 1 0 0m115 0c0-1 1 1 0 0m110 0c0-1 0 0 0 0m-217-1c1 0 1 1 0 0m103 0c-1-6 2 4 0 0m-109 0c-4-6 5 1 0 0m208 0c0-1 0 1 0 0m-186 0c1-1 1 1 0 0m299 0c0-1 0 1 0 0m-314-1c1 0 1 2 0 0m170 1c0-1 0 0 0 0m-185-1c1 0 1 1 0 0m178 0c0-1 0 1 0 0m-156 0c1-1 1 1 0 0m20-1c-1-7 8 2 0 0m69 0c1-1 1 2 0 0M94 14c-1-1 1 1 0 0m247 0c1-1 0 1 0 0M88 14c0-1 0 1 0 0m15 0c1-1 0 1 0 0m297 0c1-1 1 1 0 0m7 0c0-3 2-1 0 0m-291-1c0-1 1 1 0 0m103 0c2-2 2 1 0 0M85 12c1 0 0 1 0 0m122 0c1-1 1 1 0 0m111 0c2-4 2 1 0 0m104 0c1-3 1 2 0 0m69 0c2-4 4 0 0 0m-227-2s0 1 0 0M105 9c-3-3 4 4 0 0m279 1c0-1 0 0 0 0m-64 0c0-1 0 0 0 0m71-1c2-6 3 2 0 0m103 0c1-2 0 2 0 0M103 9s0 1 0 0m37 0c0-3 1 2 0 0m12 0c-3-5 4 0 0 0m43 0c0-2 2 1 0 0m64 0c1 0 1 1 0 0m8 0c1-1 1 0 0 0M99 8c1-1 1 1 0 0m286 0c1-1 1 0 0 0M107 7c1 0 1 1 0 0m15-1c0-1 3 2 0 0m216 0c0-1 0 2 0 0m66 0c1-1 0 2 0 0m2 0c2-4 1 4 0 0M215 6s0 1 0 0m85-1c0-2 2 1 0 0M96 5c0-1 0 1 0 0m11 0c1-1 1 1 0 0m238 0c1-2 0 1 0 0m79 0c1-2 1 1 0 0M107 3c-2-2 3 3 0 0m182 1c1-4 2 2 0 0M189 3s0 1 0 0m-78 0c4-1 4 0 0 0m132 0c0-1 0 1 0 0m34 0c0-1 0 0 0 0" style="fill:#86aecb;fill-opacity:1" transform="translate(-6 -3)"/></svg>