<?xml version="1.0" encoding="UTF-8" standalone="no"?>
<svg
   width="358.66666"
   height="358.52307"
   version="1.0"
   viewBox="0 0 268.99999 268.8923"
   id="svg1"
   sodipodi:docname="commentary.svg"
   xmlns:inkscape="http://www.inkscape.org/namespaces/inkscape"
   xmlns:sodipodi="http://sodipodi.sourceforge.net/DTD/sodipodi-0.dtd"
   xmlns="http://www.w3.org/2000/svg"
   xmlns:svg="http://www.w3.org/2000/svg">
  <defs
     id="defs1" />
  <sodipodi:namedview
     id="namedview1"
     pagecolor="#ffffff"
     bordercolor="#000000"
     borderopacity="0.25"
     inkscape:showpageshadow="2"
     inkscape:pageopacity="0.0"
     inkscape:pagecheckerboard="0"
     inkscape:deskcolor="#d1d1d1"
     showgrid="false" />
  <path
     d="m 88.5,0.39230442 c -33,1.99999998 -48,5.99999998 -62,15.99999958 -14,11 -21,25 -25,52 -2,19 -2,113.999996 0,131.999996 3,21 7,32 15,42 11,15 27,22 56,25 15,2 109,2 125,0 28,-3 44,-10 55,-25 8,-11 13,-23 15,-46 2,-17 2,-111.999996 0,-127.999996 -3,-21 -7,-31 -15,-42 -11,-14 -25,-20.9999996 -52,-23.9999996 -14,-1.99999998 -84,-2.99999998 -112,-1.99999998 z m 40,95.99999958 c 5,2 26,15.999996 32,20.999996 5,5 8,11 8,17 0,9 -4,14 -18,24 -25,18 -35,21 -44,12 -5,-5 -6,-10 -6,-36 0,-26 1,-30 6,-35.999996 6,-5 13,-6 22,-2 z"
     id="path1"
     style="fill:#a6c9e5;fill-opacity:1;stroke-width:1.00063;stroke-dasharray:none" />
</svg>
