<svg xmlns="http://www.w3.org/2000/svg" width="167.6" height="193.2"><path d="M86 191c0-2 2 0 0 0zm2-1c-1-1 2 0 0 0zm-12-1c0-2 1 0 0 0zm11 0c0-2 1 0 0 0zm3-1c0-2 2 1 0 0zm-37 0c-1-3 3-1 0 0zm35-1c0-2 2 1 0 0zm-6-1c1-2 3 1 0 0zm6 0c0-3 2 1 0 0zm25-1c-1-2 1 1 0 0zm1 0c-1-1 2 0 0 0zm-27-1c1-4 6 1 0 0zm28-1c0-1 1 1 0 0zm-31 0c1-1 2 1 0 0zm13 0c0-2 1 0 0 0zm-14-1c0-2 2 0 0 0zm13 0c0-2 1 1 0 0zm-9 0c-1-3 2 0 0 0zm28-1c0-1 1 1 0 0zm-24 0c0-3 2 2 0 0zm29 0c0-2 2 1 0 0zm-1 0c0-1 1 1 0 0zm-26 0c2-6 6-1 0 0zm15 0c-1-3 4-1 0 0zm-67-1c-1-4 3 0 0 0zm60 0c0-1 2 1 0 0zm13 0c0-2 5-1 0 0zm-27 0c0-4 5-3 0 0zm-40 0c0-3 2-1 0 0zm41-1c0-1 2 1 0 0zm32 0c0-1 2 1 0 0zm-30 0c0-3 2 1 0 0zm14 0c0-1 1 0 0 0zm42 0c0-2 1 1 0 0zm-28 0c-1-3 4 0 0 0zm-78 0c0-6 4-4 0 0zm61-1c0-2 3 1 0 0zm22 1c0-3 2-1 0 0zm-9-1c-1-2-2-6 1-6-2 2 2 5 0 6h-1zm0-5zm-4 5c-1-4 4 0 0 0zm-68 0c0-2 1 1 0 0zm106 0-3-6c1-3-3 1-1-3-1-1 4-1 1-1-1-1 1-3 2-1-1 2 1 5 3 5 2-2 0-6 1-8-2 3-4 0-6 2-2-1-4 7-4 2 1-3-2 3-3 2 1 2-4 2-4 4-1-3-3 2-2-3-1-2-3-1-2 1-1 2-6 1-4 0-3-1 4-6 0-5-2 0-2 3-4 4 1 2-3 1-2 2-1 3-2 2-3 0 1 0-4-5-3-2 0 4-4 1-4 4-2 1-1-2-4-2-2-1 2 7-1 2 0-2-6 2-8 3-1-4-5 2-7-1-4 1-5-1-1-3 0-3 1-3-3-3-2-2-3 1-7 1-2 2-7 0-4-2 2-3-2-4-2-1-3 3-6-1-8 0-5-1 1-1 3-1 2-2 3 0 2-2v-3l5-3c-1-1-2-3 2-1 3 0 2-2-1-2 1-2 2-1 0-3 1-1-5 1-5-2 3 0 6 2 8 0 1 1 3 5 4 2 0 3 1 1 1-1s4 1 3 2c-3 1 4-1 0-2l-5-3c-4 3-4-4-1-1 3 1-2-4 0-4 5 2 0-2 3-2-2-2-2-1-3 0-2-2 0 7-2 1-1-3-3 0-3-2 3 0-2-2-2-4 2-1 1 1 2-1 2-2-3-4-1-1-1 1-2 2-3-2 0-1 5-1 2-3-3 0-1-2 1-1-3-2-3-1-2-3 0-2 4-1 1-3 4-1-1-3 3-5 0-2-2 1-4 1 0 4-1-1-3 2-1-1-1 4-2 2-1 1-5-1-4-2 3 3 4-1 7-3 0-3 4-4 4-4 1 2 6-2 2 0-3-2 2-3 3-2 1-3 0-6-2-4 0-3 3-3 2-1 2 4 2 0 2 0 3-2-1-4 3-5-3-1 2-4-2-2 0 1 1 4-1 2-3 0 1-4 3-4 3-3-6-1 1-3-2 0-3-2-3-3s3-2 2-5c2-5 0-4-3-3 3-3 2-3 4-3 2-3-4-1-2-4-4-3-4 3-7 0 0-3-3-4-1-1-3 0-5-2-8-3-3-2-14-2-5-3-5 0-1-2-3-3 4-2 8 3 10 3 0 0 3 2 0 3 4 2 2-6-1-5 0-3 3-2 6-1-1-3-5-1-6-3-3-2-6-2-3-3-6-3-3-2 2-2 0 0-9-4-1-2 2 0-6-1 0-1l6-2c2-2 2-2-1-3 2 2 0 3-1 2l2-6c3 1 2-5 0-2-3 2-3 1-5 1 2 2-1 3-1 0-3 3 0-4-2-2-3-3-1 1-4 1-1-1-1-4-3-5-3 1-8 0-11-2s0-5 2-6c2-3-6-3-6-6 0-4 3 4 6 3 6 3 3-1 0-1-4-1 0-5 1-2 1-2-4-9-1-7 4 2 2 2 4 5l7 6c-1 6-2-5-5 0 1 4 2-1 2 3 0-2 4 0 3 1 2 3 1 0 1-1 2 0-1-3-1-6 1-3-1-12 2-5 2 1 5 1 6 4 2 4 2 8 2 13 0 3 2-1 2 2-1 1 1 2 2 3-2-3 2-4 0-5 2-1 4 2 4-1-2-1 0-4 1-3 0 3 3 0 1-1-2 0-2-2-2-4 1-2-1-2 2-2 6 0 0-2-3-3-2 0-6-4-2-2 3 2 8 2 10 4h4c2-1 2 2 3 1l-2-5c-2 0 0-4 1 1 2 0-3-4 1-4 3 2 3-5 1-2-2 0-3-3-1-3 2-2 3 1 1-3 3-2 4 1 2 2 0 4 1 5 2 3l2-10c-1 4 0 12 2 7 2 0 3 1 2-2 2-3 4 0 2 4-2 5 5-3 1 2 1 4-3-1-1 4 2-1 1 1 4-1-3 0 3-8 2-5 0 2 5 3 2 5 1 2 0 5 1 4 2-2 3-5 4-3 1-3 4-1 5-1l3 3c2-2 2-4 3-2 3-1 0-4 2-2 1 0-3-4 0-3-2-3 3-1 1-5 3 1 2-1 3-4-1 2 3 9 3 6 1-1 1 3 3 3 2 1 1 2 5 2-1 3 2-2 1 2 2-1 2 1 3 1 2 2-1-3 0-3-1-1 4-3 1-3 2 0 2-3 3-2-1 1 3-1 1 2 1-1 4 3 1 2 2 2-2 2-3 4-2 0-2 3 1 2l4-4c3-3 6-3 1 1l-3 5 6 2c5 0-1 1-1 1-2 0-4-1-5 1-2 0 0 3-2 3 0 2-4 3-4 5-4 0-5 2-3 3 2-2 0 4 3 2 2 1 1 7 0 3-2-4-2 1-1 2 2 0-2 2 0 4-1 1 1 3 3 1-1-3 0-2 2 0-1 3 3 1 3 2 3 0-2 4-2 3-2 3 2-1 1 2 2 0 0 1 0 3 1-1 2 2 4 1 3 0 2 2 0 4-3 0-1 2-4 2l-2 1c1 1 1 5-1 3-1 0-1 4 1 4-1-4 0 3 1 2 2 1-3 3-1 4 4-2 2 1 1 2 1 3 4 7 1 8 3 3-1 6 1 7 5 3-1 1 0 4-2 5 3-1 2 2s-2 3-3 1c-1 0-1-4-3-1-1-2 0-3 1-3s3 2 1-1c-3-3 1-3-1-5 0 3-3 3-4 3 2 1-2 3 0 5l2 8c0 4-7-1-3 1-3 2 2 1 3 0 1 2-2 2 1 4-3 0 2 2-1 3 4 0-1 3 1 3l1 4c-3-3-2 2 0 3 0 1-4 0-2 3-2 2 0 3 1 2v-3l3-4c0 4 3 0 2 3-2-1-2 5-1 3 2 2-3 1-1 3 1 1-3 5-1 4l8 1c4-1-7 4-7 1-2-2-3 0-2 2 0 2 2 3 3 5-2-1 0 0-2 1-1 2-6-2-3 0 0 2 3 3 0 3-2 3 0 2 0 4 0-1 5-2 4 1 0 0 7 1 2 2-4-2-3 2-1 3-2 2-3 3-2 6-2-5-5-1-3 2-2-2-3 3-4 3zm-57-2c2-2-2-4-1 0h1zm-2 0c-1 0 0 0 0 0zm5 0c-1-1-2 0 0 0zm53-1c1-5-2 0 0 0zm-55 0c-1 0 0 1 0 0zm2 0zm54-2c0-2 0 3 0 0zm-58 1c0-1-1 0 0 0zm28-1zm-6 0c3-3-2 0 0 0zm15-1s0 1 0 0zm22 0c-1 0 0 0 0 0zm-24 0zm3 0c-1-1 0 1 0 0zm-11-1s0 1 0 0zm3 0c-1 0 0 1 0 0zm1 0zm6 0zm2 0c-1-1-2 1 0 0zm-12 0c3 0 2-4 0-3-1 0-2 0-1 2l1 1zm-27-1c1-1-2 1 0 0zm31 0c-1 0-1 1 0 0zm31 0c0-1 0 0 0 0zm-31 0c1-2-3 0 0 0zm26 0c-1 0-1 0 0 0zm-2 0zm-60 0c0-1 0 0 0 0zm43 0c-1-1 0 0 0 0zm2 0s1 0 0 0zm6-1s0 1 0 0zm-2 0c1-2-4-2 0 0zm-2 0zm4 0zm3 0zm-4-1c1-2-1 1 0 0zm-16 0s0 1 0 0zm9 0s0 1 0 0zm11 0c-1-1 0 1 0 0zm-11 0c-1 0 0 1 0 0zm4 0c-1 0-1 0 0 0zm-12 0zm3 0c-1 0-1 0 0 0zm8 0c0-1 0 0 0 0zm11 0c0-1 0 0 0 0zm-66 0c0-1 0 0 0 0zm52 0c0-1 0 0 0 0zm12-1c-2 0-1 1 0 0zm-5 0c-1-1 0 0 0 0zm-5 0c2-4-2-1-1 0h1zm-57 0c1 0-1 0 0 0zm56 0zm3 0c-1-1-1 1 0 0zm0 0s1 0 0 0zm-60 0zm51 0c-1-1-1 0 0 0zm13 0c0-2-1 0 0 0zm2 0zm-21 0c0-1 0 0 0 0zm14 0c0-1 0 0 0 0zm-3-1c1-5-5 1-1-1 0 1 1 3 1 1zm-55 0s0 1 0 0zm40 0c0-1 0 0 0 0zm26 0c0-1 0 1 0 0zm-22 0zm34 0zm-17 0zm-16 0c-1-1 0 0 0 0zm35-1c-1-1-1 1 0 0zm-12 0c-1 0-1 1 0 0zm-28 0s0 1 0 0zm31 0c-1 0 0 1 0 0zm-4-1c-1-1-1 3 0 0zm-28 1c0-1 0 1 0 0zm30 0zm-18 0c0-2-3 0 0 0zm9 0zm12 0 4-5c0-2-4 0-2 1 1 2-3 1-2 2v2zm7 0zm-32-1s0 1 0 0zm13 0c-1 0 0 0 0 0zm-62 0c-1-1-1 0 0 0zm77 0c0-1 0-1 0 0zm4 0c1-2-1 0 0 0zm-80-1c-1 0 0 1 0 0zm79 0c1-2-2 1 0 0zm2 0c-2-1 0 0 0 0zm-81 0zm83-1c-1 1 0 1 0 0zm-1 0c0-1 1 1 0 0zm-2 0c-1-1-1 0 0 0zm-2 0c-1 0 0 0 0 0zm0-1s0 1 0 0zm5 0c-1-2-3 1 0 0zm-5-1zm-70-1c3-1-1-1 0 0zm67 0c0-1 0 0 0 0zm3 0c-1-1 0 1 0 0zm-62 0zm-8 0c-1-1-1 0 0 0zm67-1s-2 1 0 0zm-61 0s-1 1 0 0zm-1 0c0-2-1 0 0 0zm2 0zm-7 0zm-1 0c0-1-1-1 0 0zm66-1c1-3-2 1 0 0zm-60 1c0-1 0 0 0 0zm65-1s0 1 0 0zm-2 0s0 1 0 0zm-65 0zm64 0c2-3 1-3 0-2v2zm-61 0c-1 0-1 0 0 0zm-3 0c-1-1 0 0 0 0zm-4 0c0-1 0 0 0 0zm73-1c-1-2-2 1 0 0zm-63 0c-1 0 0 1 0 0zm64 0c-1 0-1 1 0 0zm-65 0c1-2-1 1 0 0zm1 0zm-10 0zm6 0c-1-1-1 0 0 0zm7 0zm54 0c1-3-2 0 0 0zm-56 0c0-2-1 0 0 0zm60-1s0 1 0 0zm-65 0zm4 0c-1-1 0 0 0 0zm-2-1c-1 0-1 0 0 0zm68-1c-1 1-1 1 0 0zm-62 1c0-1 0 0 0 0zm-8 0zm60 0c-1-1-1 0 0 0zm3 0c0-1 0 0 0 0zm-55-1s0 1 0 0zm54 0c0-1 0 1 0 0zm8 0zm-3 0c0-1 0 0 0 0zm-59 0c0-1 0 0 0 0zm60 0c2-2-3-2 0 0zm3 0c0-1 0 0 0 0zm-65-1s0 1 0 0zm1 0s0 1 0 0zm63 0c-1 1 0 0 0 0zm2 0c-1 0 0 0 0 0zm-10 0c0-2-2-3-2-1l2 1zm5 0zm-61 0zm1 0c-1 0-1 0 0 0zm57-1zm-57 0c0-1 0 0 0 0zm60 0zm2 0c0-1 0 0 0 0zm-62-1c-1-1-1 0 0 0zm-2 0c0-1 1 0 0 0zm64-1s0 1 0 0zm-64 0zm1 0c-1-1-2-4-3-2l3 2zm-5-1c4-3-3 0 0 0zm63 0c-1 0-1 1 0 0zm-62 0zm62 0c0-1 0-1 0 0zm-2 0zm-58 0c-1-1-1 0 0 0zm59-1zm-1 0zm2 0c0-1-1 0 0 0zm-54-1s0 1 0 0zm55 0s0 1 0 0zm-53 0c-1-3-2 1 0 0zm-4 0c0-3-4 0 0 0zm53 0c2 0-1-1 0 0zm2 0c3-1 4-5 2-4 1 0 4-3 1-2s-1 4-3 5v1zm-61-1c-1-2-2 1 0 0zm3 0c-1-2-1 1 0 0zm5 0c2-2-2 1 0 0zm-10 0c1-3-1 1 0 0zm6 0c0-2 3-3 2-4-3 1-2 0-2 3v1zm2-1s0 1 0 0zm54 0s0 1 0 0zm-53 0zm3 0zm54 0zm-62-1s0 1 0 0zm7 0c-1 0 0 1 0 0zm1 0c-1-1-1 1 0 0zm52 0c-1-1-1 1 0 0zm-54 0c-1-1-1 0 0 0zm58-1c0-1 0 1 0 0zm-57 0s0 1 0 0zm-12 0c0-1 0 0 0 0zm64 0c0-1 0 1 0 0zm-63 0c1-2 0 1 0 0zm-6 0c0-1 0 0 0 0zm6-1c-1 0 0 1 0 0zm5 0c2 0-3-1 0 0zm-9 0c-1 0 0 0 0 0zm6 0zm66 0zm-61-1c1-3-2-1-1 0h1zm-5 0c2-1-4-1 0 0zm67 0s0 1 0 0zm-65 0c-1 0-1 0 0 0zm1 0c-1-1 0 0 0 0zm-5 0c0-1 0 0 0 0zm-5-1s0 1 0 0zm75 0s0 1 0 0zm-72 0c-2 0 1-4-2-1l2 1zm7 0c-1-1 0 1 0 0zm60 0zm-62 0zm67 0c0-1-1 0 0 0zm-74 0c0-1-1 0 0 0zm8 0c0-1 0 0 0 0zm1 0c-1-1-1 0 0 0zm-6-1s0 1 0 0zm10 0s0 1 0 0zm56 0s0 1 0 0zm-65 0c-1 0 0 0 0 0zm3 0c-1-1 1 1 0 0zm5-1c4-1-2 1 0 0zm-6 1c-1-2 0-1 0 0zm67 0c0-1 0 0 0 0zm-3 0c0-1 0 0 0 0zm5 0c-1-1-1 0 0 0zm-70-1c-1 0-1 1 0 0zm4 0s0 1 0 0zm-6 0c0-1-1-1 0 0zm7 0c-1 0 0 1 0 0zm-6 0c-1-1-1 0 0 0zm65 0c0-1 0 0 0 0zm3 0zm-61 0c0-3-1 0 0 0zm-4 0c-1-1-1 0 0 0zm-4-1s0 1 0 0zm5 0s0 1 0 0zm67 0s0 1 0 0zm-71 0c-1 0 0 1 0 0zm8 0zm58 0c-1-2-1 1 0 0zm-58 0zm-16-1s0 1 0 0zm16 0s0 1 0 0zm-15 0c-1 0-1 0 0 0zm-4 0zm81 0c0-1 0 0 0 0zm-5-1s0 1 0 0zm6 0s0 1 0 0zm-83 0zm83-1s0 1 0 0zm-1 0s1 1 0 0zm-5 0zm2-1c-1-1-1 1 0 0zm-1-1zm0 0zm-75-1c0-1-1 1 0 0zm1-1c-2-1-3 0 0 0zm2 0c-1-1 0 1 0 0zm73-1zm-76-1c0-2-2 1 0 0zm0 0zm76-1s0 1 0 0zm-73-1c0-3-1 1 0 0zm73 0c0-1 0 0 0 0zm1-1zm-77 0c0-1 0 0 0 0zm76 0c-1-1-1 0 0 0zm-1-1zm1 0zm-1 0zm-71-1c-1 0 0 1 0 0zm70 0zm3 0c-1 0-1 0 0 0zm-72 0c-1-1 0 1 0 0zm13 0c-1 0-1 0 0 0zm58 0c-1-1-1 0 0 0zm1 0zm-1-1zm-76 0zm74 0zm1 0zm-70 0c-1-1 0 0 0 0zm-9-1c-1 0 0 0 0 0zm10-1c2-1-2-4-2-3-2 4 2 0 2 4v-1zm-4 1zm72 0c0-1 0 0 0 0zm1 0zm-72-1s0 1 0 0zm14 1c1-1-1-1 0 0zm-8-1zm10 0c3-1-1-3 0 0zm55 0s1 0 0 0zm-65-1c0-1-1 1 0 0zm6 1c0-1 0 0 0 0zm59 0c0-1 0 0 0 0zm-1-1s0 1 0 0zm-55 0c0-1-1 1 0 0zm51 0s0 1 0 0zm6 0c-1 0-1 1 0 0zm-3 0zm-55 0c1-2-2 0 0 0zm53-1c0-1 0 0 0 0zm3-1c-1 0 0 1 0 0zm-2 0c-1 0 0 0 0 0zm-50 0zm50 0c0-1-1 0 0 0zm-57-1c0-1 0 1 0 0zm58 0c-1-1-1 1 0 0zm-1 0c-1-1-1 0 0 0zm-58-3c-1-1-1 2 0 0zm2 1c0-1 0 0 0 0zm1-1s0 1 0 0zm-8 0c0-1 0 0 0 0zm4-1s0 1 0 0zm1 0s0 1 0 0zm-4 0c1-1-1 1 0 0zm-1 0c-1-1 0 1 0 0zm5 0zm-2 0c0-1 0 0 0 0zm-2-1c-1 0-1 1 0 0zm8 0s0 1 0 0zm63-1zm-77 0zm4 0c0-1 0 0 0 0zm73-2c-1-2 0 1 0 0zm-7-2zm-1 0zm9-1c-1 0-1 0 0 0zm-72-1c0-2-1 0 0 0zm70-1s0 1 0 0zm-69 0c0-1-1 1 0 0zm64 0zm-65-1s0 1 0 0zm65 0c0-2-1 0 0 0zm3-1c0 1 0 1 0 0zm2-1zm-1 0zm1-2c0-1 0 2 0 0zm-69-1zm1-1zm0 0c-1 0 0 0 0 0zm-1-1c1-1-1 0 0 0zm1 0c0-1 0 0 0 0zm1 0c2-1-2 0 0 0zm-3 0c0-1 0 0 0 0zm1-1c0-2-1 1 0 0zm-2 0c-1 0-1 0 0 0zm6-2s0 1 0 0zm0 0c0-1-1 0 0 0zm-5-1zm4 0c0-1 0 0 0 0zm3-2c0-1-1 2 0 0zm-3 0c-1 0-1 1 0 0zm-3-1zm1-1s0 1 0 0zm3 0c-1-3 0 2 0 0zm3 0c-1 0-1 0 0 0zm2-1c3-3 1-1 0-3-2 0 0 2-1 4v-1h1zm2 0c0-1 0 1 0 0zm-10-1c1-1-1 1 0 0zm9 0s0 1 0 0zm-3 0c-1-1-1 0 0 0zm-5-1zm-2 0c2-2-1 0 0 0zm6 0c0-4-2 0 0 0zm-5-1c0-1 0 1 0 0zm3-1c0-1 0 0 0 0zm1-1c-1-2-1 0 0 0zm-4 0c1-2-2-5-2-1l2 1zm0-1c2 0 0 0 0 0zm4 0s0 1 0 0zm-1-1c0-2-1 1 0 0zm56 0c-1 0-1 1 0 0zm-58 0zm59 0c0-1-1 1 0 0zm4 0s1 0 0 0zm-73-1c5-2-3 1 0 0zm9 0s0 1 0 0zm1 0c-1-1 0 1 0 0zm59 0c4-1-1-3 0-2v2zm-55 0c-1 0-1 0 0 0zm-9 0c4 0-1-1 1-3 3-2 0 0 0-3h-4c0-2 0-3-2-3s1 6 2 4c2-1-3 3 2 2 0 1-4 2 0 2 1-1 1 1 1 1zm-1-3c0-2 2 0 0 0zm1-1c0-1 2 1 0 0zm-1 0c-1-3 2 0 0 0zm-3-3c1-1 0 2 0 0zm10 7c-1-1 0 0 0 0zm1 0zm60 0c0-1 0 0 0 0zm2-1c-1 0 0 0 0 0zm-65 0-2-2c-2 1 2 2 2 2zm1 0c0-1-1 1 0 0zm63 0c-1 0-1 0 0 0zm-62 0zm61 0zm1 0zm-5 0c-1 0-1 0 0 0zm5 0c-1-1-1 0 0 0zm-78-1c-1 0 0 1 0 0zm16 0s0 1 0 0zm-12 0zm10 0zm-13 0c3-2-3-2 0 0zm78 0s0 1 0 0zm2 0zm-5 0zm-70 0c2-3-3 1 0 0zm72 0c1-2-2 0 0 0zm-2-1s0 1 0 0zm4 0c0-1 0 1 0 0zm-67 0c0-2-1 1 0 0zm66 0c0-1-1 0 0 0zm-1 0c-1 0-1 0 0 0zm2 0zm-74 0c0-1 0 0 0 0zm-4-1zm13 0c-1-1-1 1 0 0zm-2 0zm68 0c0-1 0 0 0 0zm-67 0c0-1-1 0 0 0zm-11-1c-1-2-1 2 0 0zm76 0c-1 0-1 1 0 0zm-64 0s0 1 0 0zm-3 0zm-8-1c-1-1-1 2 0 0zm8 1zm67 0zm-84 0c0-1 0 0 0 0zm-1 0c0-1 0 0 0 0zm18-1c-1 0 0 1 0 0zm1 0s0 1 0 0zm68 0zm-68 0c-1 0 0 0 0 0zm-13 0c-1 0-1 0 0 0zm10 0c2 0-1-4 0-1v1zm-10-1c-2 0 2 1 0 0zm81 0s0 1 0 0zm-77 0c0-1-2 1 0 0zm77 0zm-72-1c0-1-1 1 0 0zm76 0c0-1 0 0 0 0zm-78 0zm2-1c1-2-3 2 0 0zm1-1c0-1 0 1 0 0zm-3 0c2-2-1-1 0 0zm-1 0c0-1 0 0 0 0zm16-1zm-18 0c-1-2 1-3-1-4l-6-3c-2 1 2 4 4 5 2 0 1 3 3 2zm-3-3c0-3 3 1 0 0zm1 1c0-2 2-1 0 0zm-5-4c0-1 1 1 0 0zm8 6c2-4-1 0 0 0zm79 0zm-2-1zm1 0zm-77 0zm75-1c-1 0-1 0 0 0zm1-1c0-2-1 1 0 0zm-89-1zm89 0c0-1 0 0 0 0zm-59-1c0-1-2 1 0 0zm57 0zm-77 0c-1-1-1 0 0 0zm77-1c1-1-1 1 0 0zm-1-1c0-1 0 1 0 0zm-77 0c-3-2-2 1 0 0zm78 0c4-4-2 0 0 0zm1 0zm-82 0s1 0 0 0zm0 0c1-3 1-3-2-2l2 2zm79 0c0-1 0 0 0 0zm0-1s0 1 0 0zm1-1c-1-1-1 2 0 0zm-3 1zm2-1c-1 0 0 1 0 0zm-1 0zm-66 0s1 0 0 0zm2 0c0-1 0 0 0 0zm64-1s0 1 0 0zm0 0c-1 0 0 0 0 0zm0 0c0-2-1 1 0 0zm2 0zm-67 0c1-1-1 0 0 0zm2 0c0-1 0 0 0 0zm66-1c0-1 0 1 0 0zm-62 0c1-2 0 0 0 0zm-8 0c0-1 0 0 0 0zm6 0c0-1-1 0 0 0zm-5 0s1 0 0 0zm4 0c-1-1-1 0 0 0zm64 0c0-1 0 0 0 0zm-64-1c-1 0 0 0 0 0zm-4 0c-1-2 0 0 0 0zm6 0c-1 0-1 0 0 0zm1 0zm-8 0c-1-1 0 0 0 0zm7-1c0 1 0 1 0 0zm1 0s0 1 0 0zm-7 0zm-2 0s1 0 0 0zm1-1c-1 0-1 1 0 0zm-10 0c0-2-1 2 0 0zm2-1c-1 0-1 1 0 0zm0 0c1-2-1 0 0 0zm4-1zm-4-1c0-1 0 1 0 0zm-2 0c0-1 0 0 0 0zm0-1zm3-1zm1-1c-1 0 0 1 0 0zm-10 0c-1-1-1 1 0 0zm3 0c3-3-3-1 0 0zm-2 0zm9-1c0-1-2 1 0 0zm-9 0c0-1 0 1 0 0zm-6-1c-2-1 0 0 0 0zm85 0c0-1 0 0 0 0zm-82-1s0 1 0 0zm83 0s0 1 0 0zm-87 0zm87-1zm-78-1c-1 0 0 1 0 0zm76 0s0 1 0 0zm-69 0c-1 0-1 1 0 0zm1 0zm-9-1c-1-1 0 2 0 0zm77 0c-1-1-1 1 0 0zm-63 0c3-3-2-1 0 0zm-20-1c0-1 0 0 0 0zm16-1c-1 0 0 1 0 0zm16 0s0 1 0 0zm-5 0zm-6 0zm1 0c1-2-1 0 0 0zm4 0c-1-2-1 0 0 0zm-26 0zm-1-1s0 1 0 0zm31 0c0-2 0 1 0 0zm-10 0c0-1 1-5-1-1 1-1 0 1 1 1zm8 0c0-1-1 0 0 0zm-6-1s0 1 0 0zm4 0c-1 0 0 1 0 0zm-30 0c0-1 0 0 0 0zm33 0c0-3-3-1 0 0zm1 0zm1 0c0-1 0 0 0 0zm-36-1zm4-2zm24-1c0-1-1 1 0 0zm1 1zm1-1s0 1 0 0zm-1 0c-1 0 0 1 0 0zm0-1c-1 0 0 0 0 0zm0 0c-1-1-1 0 0 0zm3-1c1-3-3 0 0 0v1zm5-1-2-4c-1 1 1 4 2 4zm-7 0c-1 0-1 0 0 0zm68 0c1-1-1-1 0 0zm-40-1c-1-1-1 1 0 0zm9 0c0-1 0 1 0 0zm-13 0c1-6-3-1 0 0zm7 0zm-9-1s0 1 0 0zm7 1c0-1 0 0 0 0zm2-1s0 1 0 0zm-27 0s-1 1 0 0zm21 0s0 1 0 0zm1 0zm10 0c-1-1 0 1 0 0zm-11 0zm-9 0c1-2 2-3 0-4 0 1-2 5 0 4zm6 0c-1-1-1 0 0 0zm-4-1s0 1 0 0zm-54 0c0-2-2 1 0 0zm73 1c0-1 0 0 0 0zm-24-1c1-3-1 1 0 0zm11 0s0 1 0 0zm-2 0zm-2 0zm10 0s0 1 0 0zm-21 0c2-2 0-5 0-1v1zm12 0c0-3-1 1 0 0zm15 0c-1 0 0 0 0 0zm-8 0c0-1 0 0 0 0zm11 0zm-19 0c0-1 0 0 0 0zm-2-1s0 1 0 0zm-5 0c-1-1-1 1 0 0zm30 0zm-3 0c-1 0-1 0 0 0zm-9-1c0-1-1 2 0 0zm-18 0c-1-1-1 2 0 0zm11 0s0 1 0 0zm9 0c0-1 0 1 0 0zm-1 0c0-1 0 0 0 0zm11 0s0 1 0 0zm14 0s0 1 0 0zm-23 0zm-3 0zm-17 0c1-2-1 0 0 0zm29 0c0-1-1 0 0 0zm-23 0c-1-1 0 0 0 0zm-13 0zm11 0zm11 0zm28 0s1 0 0 0zm-24-1c1 0-1 1 0 0zm9 0c-1 0 0 1 0 0zm13 1c0-1-1 0 0 0zm5-1c2-1-4 1 0 0zm-24 0s0 1 0 0zm-11 0c-2-1-2 0 0 0zm-17 0c2-1 2-1 0-3-2 2-1 2 0 3zm-1-1c0-2 2 1 0 0zm48 1c-1 0 0 0 0 0zm0 0c1-2 0 0 0 0zm-35 0zm23 0zm14 0c0-1 0 0 0 0zm6 0zm-9 0c0-1 0 0 0 0zm-20-1s0 1 0 0zm25 1c-1-1-1 0 0 0zm2-1c-1 0-1 1 0 0zm-56 0s0 1 0 0zm18 0s0 1 0 0zm41 0c-1 0-1 1 0 0zm2 0s0 1 0 0zm-54 0zm2 0zm45 0c-1 0 0 0 0 0zm6 0zm-42 0c0-2 0 1 0 0zm30 0c0-1 0 0 0 0zm1 0c-1-1 0 0 0 0zm-30 0zm39 0zm1 0zm-1-1zm-56 0c0-2-1 1 0 0zm3 0c2-5-3-1 0 0zm47 0c1-2-1 1 0 0zm-3 0zm3 0zm-43 0s1 0 0 0zm39 0zm-40 0c0-2-1 0 0 0zm1-1c0-1-1 2 0 0zm1 1c0-1 0 0 0 0zm7-1s0 1 0 0zm46 0s0 1 0 0zm-13 0s0 1 0 0zm-39 0c0-1 0 1 0 0zm38 0c-1-2-1 0 0 0zm-43 0c4-4-2-2 0 0zm12 0c0-1 0 0 0 0zm40 0c0-1 0 0 0 0zm-49-1c-1 0-1 1 0 0zm0 0c2-2-1-2 0 0zm54 0c-1 0-1 1 0 0zm-43 0s0 1 0 0zm-12 0s0 1 0 0zm50 0zm-41 0zm30 0c0-1 0 0 0 0zm15-1s0 1 0 0zm-2 0c0-1-1 0 0 0zm-60-1c0-1 0 1 0 0zm1 0zm0 0zm10 0c-1-1-1 0 0 0zm49 0zm-59 0c0-1 0 0 0 0zm7 0c0-1 0 0 0 0zm2-1s0 1 0 0zm51 0c-1 0-1 1 0 0zm-62 0zm13-1c-1-2-1 1 0 0zm-11-1c0-1 0 0 0 0zm10-1c-1 0-1 1 0 0zm1 0c-1-1 0 0 0 0zm41 165c0-2 2 1 0 0zm-90-1c2-1 0 0 0 0zm61 0c0-1 1 1 0 0zm-16 0c0-1 1 0 0 0zm22 0c0-2 1 0 0 0zm-67 0c-1-3 1-1 0 0zm55-1c0-1 1 1 0 0zm-69 0c0-3 3-1 0 0zm111 0c0-1 1 1 0 0zm-37 0c0-2 1 0 0 0zm-8-1c0-1 1 1 0 0zm13 0c0-2 3 1 0 0zm-5 0c-1-2 2 0 0 0zm15 0c0-2 1 0 0 0zm-19 0c0-2 2 0 0 0zm-101-1c0-1 1 1 0 0zm62 0c0-2 3 1 0 0zm48 0c0-1 0 0 0 0zm-6 0c0-2 1 0 0 0zm8-1c0-1 1 1 0 0zm-79 0c-1-2 1 1 0 0zm93 0c0-2 1 1 0 0zm-52 0c1-2 2 0 0 0zm38 0c1-1 2 0 0 0zm-111-1c2-6 6-1 0 0zm126 0c0-1 1 1 0 0zm-109 0c2-5 4-3 0 0zm111-1c-1-1 2 1 0 0zm-96 0c-1-6 6-6 0 0zm7 0c0-1 1 1 0 0zm-10 0c1-3 2 0 0 0zm9 0c0-1 1 0 0 0zm-8 0c0-2 2 0 0 0zm-30-1c0-1 1 1 0 0zm38 0c-4-1 2-1 0 0-1-2 1 1 0 0zm99 0c0-1 1 1 0 0zm-2-1c1-1 1 0 0 0zm10-1c0-1 1 1 0 0zm-141 0c2-5 5 0 0 0zm51 0c-6-2 1-4-1-2 0 0 3 1 1 2zm91-1c-1-4 3 1 0 0zm-90 0c0-1 1 1 0 0zm92 0c0-1 1 1 0 0zm-120 0c-2-3 5-5 0 0zm-25 0c2-5 3-1 0 0zm133 0c0-2 1 0 0 0zm-85-1c1-1 0 2 0 0zm84 0c0-2 2 1 0 0zm-80 0c0-2 2 1 0 0zm1-1c0-1 1 1 0 0zm-7 0c-3-3 3-4 0 0zm96 0c0-1 1 1 0 0zm-112 0c1-5 2 0 0 0zm-36 0c0-2 1 0 0 0zm41 0c-1-3 3-2 0 0zm14-1c0-4 2 1 0 0zm3 0c1-2 2 0 0 0zm-24-1c2-7 5-1 0 0zm26 0c-3-2 4-1 0 0zm3-1c0-1 1 0 0 0zm-22 0c0-2 1 1 0 0zm106 0c1-2 3 1 0 0zm-88-1c-7-1 3-3 0 0zm88 0c0-2 1 1 0 0zm-96 0c-4-6 6-3 3-1-1-3-1 0-3 1zm11 0c2-2 1 2 0 0zm86 0c0-2 1 0 0 0zm-92-1c-1-2 1 0 0 0zm-33-1c0-4 4-1 0 0zm123 0c1-2 2 1 0 0zm-87 0c0-2 2 1 0 0zm92 0c0-2 1 1 0 0zm-115 0c-1-7 5-4 0 0zm113-1c0-1 1 1 0 0zm-89 0c0-2 3 0 0 0zm7 0c0-2 1 0 0 0zm79 0c0-1 1 0 0 0zm-90 0c-2-5 3-4 0 0zm92 0c1-2 2 0 0 0zm-114-1c0-2 1 1 0 0zm113 0c0-1 2 1 0 0zm-84 0c-5-2 6-2 1 0h-1zm0-1zm-6 1c-1-2 2 0 0 0zm-48-1c1-2 3 0 0 0zm8 1c0-3 3-1 0 0zm36-1c0-2 2 0 0 0zm7 0c0-2 2 0 0 0zm89 0c-2-2 2-2 0 0zm-1-1c0-2 1 0 0 0zm-122 0c0-3 2-8 4-5l-4 5zm127-1c0-1 0 1 0 0zm-120 0c0-2 1 1 0 0zm5 0c-1-5 5-2 0 0zm-7 0c1-6 3 0 0 0zm24-1c-1-1 1 0 0 0zm-34 0c1-3 4-2 0 0zm29 0c0-3 3-1 0 0zm100 0c0-2 2 1 0 0zm-130 0c0-2 1 0 0 0zm22-1c0-2 0-4 2-7-2-5 3-5 5-7 0-3-3-3-1-6 1-4-3 1-4 3-3 2-5 10-4 4-4 2-6 4-2-1-3-2-3-5-1-8l9-8c-1 4 2-1 0 0 1-3 7-5 4-1 3 2 0 4 4 3 2 1-4 0-1 3 0 3 1-5 2-1l-1 4c-1 3 2 2 3 5 2 2 4-4 7 0-2-1-3 2-4 4-4-2 1 7-5 5-5-1-4 2-7-3 1 1 0 3 2 5 0 4-4 1-3 0-3 1-2 5-5 6zm2-5s1 0 0 0zm1-1c1-2 1-1 0 0zm13-8s0 1 0 0zm0-1c2-2-2 1 0 0zm2-2c0-1 0 1 0 0zm-11 0c0-2-1 1 0 0zm0-2s0 1 0 0zm-1 0c0-1 0 0 0 0zm1-5c0-1-2 3 0 0zm1-3zm-2-2s0 1 0 0zm26 29c-3-2 3 0 0 0zm2 0c0-2 1 1 0 0zm-55-1c0-4 6-4 1 0h-1zm42 0c0-1 1 1 0 0zm84 0c-3-2 4 0 0 0zm-74 0c0-2 2 1 0 0zm-8 0c-4-3 5-5 2-1-5-2 3 2-2 1zm-14 0c-2-8 3-5 0 0zm-18-1c-2-4 6-7 2-1-1 0-1 2-2 1zm-2 0c0-1 1 1 0 0zm117 0c0-1 2 1 0 0zm-80 0c0-2 1 1 0 0zm-8 0c0-2 1 0 0 0zm8-1c0-1 2 0 0 0zm-10 0c0-2 1 1 0 0zm88 0c1-1 1 0 0 0zm-82-1c0-1 1 0 0 0zm-2-1c-1-1 1 1 0 0zm7 0c-1-2-4-3 0-2 2 0 1 2 0 2zm2 0c0-1 1 0 0 0zm-17-1c1-2 2 0 0 0zm-22 0c1-7 5-2 0 0zm10-1c0-6 3-1 0 0zm-11 0c1-5 4-2 0 0zm43 0c-1-2 2 0 0 0zm-2-1c0-1 1 0 0 0zm-7 0c0-2 1 1 0 0zm3 0c0-1 1 0 0 0zm-7-1c0-2 1 1 0 0zm-1 0c0-1 1 0 0 0zm5 0c0-2 2 0 0 0zm-58 0c0-3 3 0 0 0zm140 0c0-2 1 1 0 0zm-125-1c0-1 1 1 0 0zm41 0c0-1 1 1 0 0zm-33 0c0-2 2 1 0 0zm4 0c0-1 1 1 0 0zm27 0c0-2 2 1 0 0zm4-1c-2 0 2 0 0 0zm-39 0c0-2 2 0 0 0zm35-1c0-1 2 0 0 0zm87 0c-1-2 1 1 0 0zm-104 0c0-3 2 0 0 0zm20 0c-6-1 3-3 0 0zm-38-1c1-4 3-1 0 0zm129-1c0-2 2 0 0 0zm-111 0c-2-5 5-4 1 0h-1zm3 0c0-2 3-1 0 0zm15 0c0-2 2 1 0 0zm2-1c-1-2 1 0 0 0zm-2 0c-1-2 2 0 0 0zm86-1c0-2 1 1 0 0zm-124-1c0-2 1 0 0 0zm33-1c-1-2 4-5 5-3-2 1-3 4-5 3zm1-1s0 1 0 0zm-2 1c0-2 1 0 0 0zm-11-1c0-2 1 1 0 0zm20 0c-1-1 1 1 0 0zm-31 0c-3-2 4-4 1 0h-1zm110-1c1-4 4 0 0 0zm-80 0c0-2 1 0 0 0zm92 0c-1-2 1 0 0 0zm-101-1c0-2 1 0 0 0zm4-1c0-1 2 1 0 0zm3 0c0-1 1 0 0 0zm-8 0c0-2 1 1 0 0zm6 0c0-2 1 0 0 0zm1 0c0-2 1 0 0 0zm-26 0c0-3 3 0 0 0zm22-1c0-1 1 1 0 0zm-1 0c1-2 2 1 0 0zm-29 0c1-2 2 1 0 0zm31 0c0-1 1 1 0 0zm3 0c-4-2 7-3 0 0zm0-1zm85 0c0-1 1 1 0 0zm-83-1c0-1 1 1 0 0zm-26 0c0-3 2 0 0 0zm21 0c-1-4 3-1 0 0zm-25-1c0-2 1 1 0 0zm-32 0c0-2 2 0 0 0zm36 0c0-3 3-4 5-5 4-3-3-4 1-6-1-8-1 7-4 1l-2 7c-1-3 4-9 0-9-3 4-3 5-1 0 2-4-4 3-2 0 3-5-5 1-1-4-3-1-9 4-4-1 7-6-10 0-1-3 2-3-9-2-13-1-5 0-18 3-20 2l24-4c1 1 2-2 6-2 11-1-10 2 1 2 4 1 7-2 4-3 2-2-2-2 1-3 0-2-1-2 2-3-3-4 1-2-1-6 5 4 0-3 4 0-2-10 2 0 4 2 3-2 2-7 1-11-2-4 0-9-2-14 0-7 2 7 2 9 1 5 2 11 5 16 2-4 0-6 2-9 2 2-2 10 2 9-1-2 4-3 4-6 3-4-1 4-2 5 0 2-4 7 1 4 4-3-3 5 2 2l8-5c2-1 7-2 6-4 3-3-1-1-1-3 3 1 3-4 1-1-2-2-7 0-7 1-1 3-2-2-3 2-1-3-2-4 1-3 0-3-6 1-4-2 2-2 3-5 4-2-1-1 6-1 6 1-3 2 5 1 5 1 0-3 5 0 2 0 2 1-1 2-2 5s-4 4-6 5c0 1-5 2-5 4-1 0-5 1-6 4-5 1 2 2-1 3 3 0 6 3 10 3l-9-1c-2 1 8 3 1 3 2-1-5-2-2 1 0 4-2 1-3 5l3 6c3 0 4-2 2-1 4-3 1-4 2-5-3-1-1 4-3 1-1-2 2-1 3-3 3-2 4 2 2 4-2 0 2 3 0 5-1 1-4 4-5 1-1-2-1 4-1 1-4 1 2-4-1-3l-3-7c-3-3 0 2-4 1-2 1 0 6-1 9 2 4-6 3-7 5zm18-6c1-1-1 0 0 0zm0-1c1-1-2 1 0 0zm-14-4c-1-2-2 2 0 0zm17-1zm-11-3c-1 0-1 0 0 0zm-28-8zm52-19zm-1 0c0-1 0 0 0 0zm1-2zm0 0zm1-1c-1 0 0 0 0 0zm-10-1c-2 0 2 1 0 0zm-1 0s1 0 0 0zm-3 0c4-2-4-1 0 0zm15 0zm-1-1s0 1 0 0zm-12 0c-1 0-1 0 0 0zm1 0c0-1 0 0 0 0zm-26 46c1-2 2 1 0 0zm29 0c0-1 1 1 0 0zm-62 0c0-1 2 0 0 0zm60 0c-2-3 4-1 0 0zm-6 0c0-1 1 0 0 0zm-53-1c2-1 4 0 0 0zm33 0c0-2 1 0 0 0zm-31-1c1-1 5-1 0 0zm59 0c0-1 1 1 0 0zm-32 0c1-5 3-2 0 0zm1 0c0-2 1 1 0 0zm32 0c1-2 2 0 0 0zm-57-1c4-3 6-1 0 0zm27 0c-2-2 3 0 0 0zm4-1c0-3 2-1 0 0zm6 0c0-3 2 0 0 0zm-22 0c0-2 1 0 0 0zm121 0c0-2 1 0 0 0zm-112-1c0-1 1 1 0 0zm13 0c-1-1 1 1 0 0zm-3-1c-1-1 2 1 0 0zm-15 0c0-1 2 1 0 0zm6 0c0-2 2 1 0 0zm1 0c0-1 1 0 0 0zm27 0c0-2 1 1 0 0zm-18 0c0-2 1 0 0 0zm-25 0c1-3 2-1 0 0zm19-1c0-1 1 1 0 0zm-9 0c0-2 3 0 0 0zm4 0c-1-2 1 0 0 0zm15 0c-3-2-1-3 3-3 2 0-2 3-3 3zm0-2c-1 0 0 0 0 0zm-28 1c0-1 1 1 0 0zm125 0c0-1 2 1 0 0zm-84 0c0-2 2 1 0 0zm84-1c0-1 1 1 0 0zm-82 0c0-1 1 1 0 0zm-41 0c2-4 2 0 0 0zm123 0c0-2-2-5 1-5 1 0 5 2 1 2-2 1 0 2-2 3zm0-3zm1-1zm-92 3c-1-1 1 0 0 0zm-30 0c-1-2 4-2 0 0zm25 0c-1-1 1 1 0 0zm-18 0c1-3 2 0 0 0zm30-1c0-1 2 1 0 0zm6 0c0-1 1 1 0 0zm86 0c-2-2 0-1-1-4 2-1 4-7 3-3 0 1 0 2 2 1 2 2-4 1-2 3l-2 3zm0-1zm-1 0c0-1 0 0 0 0zm2-1c-1 0 0 0 0 0zm0-1zm0-1c0-1-1 1 0 0zm1-1zm-1 0c0-1 0 0 0 0zm-5 5c0-1 1 0 0 0zm-117 0c0-2 1 1 0 0zm33 0c0-2 1 1 0 0zm85-1c0-1 1 1 0 0zm-105 0c1-2 3 0 0 0zm-19 0c1-2 1 0 0 0zm28 0c0-1 1 0 0 0zm-27-1c0-1 1 1 0 0zm42 0c0-4 4 0 0 0zm-20 0c0-2 1 0 0 0zm14 0c0-2 1 1 0 0zm3 0c0-2 1 1 0 0zm82 0c0-2 1 1 0 0zm-77 0c-1-2 1 0 0 0zm-4-1c0-1 2 1 0 0zm89 0c0-1 1 1 0 0zm-103 0c0-1 1 0 0 0zm2 0c0-2 2 0 0 0zm13-1c0-1 2 1 0 0zm-5 0c3-3-3-1 0-3 6-1 1 2 0 3zm8 0c0-1 1 1 0 0zm-14-1c-4-2 7-3 1 0l-1 1v-1zm9 0c1-2 3 0 0 0zm-5 0c0-1 1 0 0 0zm92-1c-2-4 4-2 0 0zm-84 0c0-2 2 0 0 0zm-45 0c1-2 3 0 0 0zm38-1c0-1 2 0 0 0zm-47-1c0-1 1 1 0 0zm2 0c0-2 1 0 0 0zm7 0c0-2 1 1 0 0zm1 0c0-2 2 0 0 0zm119-1c-1-1 1 0 0 0zm-74 0c0-1 1 1 0 0zm82-1c0-2 2 1 0 0zm3 0c-4-3 2-5 0 0zm-85 0c0-1 2 0 0 0zm-1 0c0-2 2 0 0 0zm2 0c0-2 2 0 0 0zm86-1c-1-2 4 1 0 0zm-7-1c0-1 1 1 0 0zm-83 0c-5-2 4-2 0 0zm-69 0c0-2 2 0 0 0zm152-1c-1-2 2 1 0 0zm-94 0c0-1 1 1 0 0zm1-1c1-1 2 1 0 0zm17 0c-2-3 4 0 0 0zm78 0c0-2 2 1 0 0zm-85-1c-2-3 5 0 0 0zm2-1c0-1 1 1 0 0zm-10 0c0-1 2 1 0 0zm93 0c-5-3 1-5 0 0zM28 98c0-2 2 0 0 0zm45 0c0-2 1 1 0 0zm8 0c0-1 1 0 0 0zm1 0c0-2 1 1 0 0zM9 98c-1-2 2 0 0 0zm76-1c0-1 1 1 0 0zm-8 0c0-1 1 1 0 0zm-60 0c0-1 1 1 0 0zm1 0c0-1 1 1 0 0zm64-1c-5-1 5-1 0 0zm-12 0c0-3 3 0 0 0zm2 0c0-3 2 0 0 0zm8 0c0-3 2 1 0 0zm-64-1c-1-1 1 1 0 0zm145 0c0-1 1 1 0 0zm-83 0c2-1 0 0 0 0zm4 0c0-1 1 1 0 0zm-44 0c-6-2-1-3 0 0zm44 0c0-2 1 0 0 0zm80-1c0-1 1 1 0 0zm-84 0c0-1 1 1 0 0zm-4 0c0-1 0 1 0 0zm2 0c0-1 2 0 0 0zm4 0c0-2 3-1 0 0zm-41 0c-3-2 2 0 0 0zm41 0c-1-1-5-4-1-2 3-3 1 2 1 2zm-20-1c0-1 1 1 0 0zm11 0c1 0 1 0 0 0zm7 0c0-1 1 1 0 0zm3-1c0-1 2 1 0 0zm-48 0c0-1 1 1 0 0zm31 0c0-2 1 0 0 0zm-32 0c0-2 1 0 0 0zm50-1c1-1 1 1 0 0zm-7 0c0-1 1 1 0 0zm-11 0c3-5 5-2 1 0zm6 0c-1-3 1 1 0 0zm-31-1c-5-2 2 0 0 0zm23 0c0-1 1 1 0 0zm98 0c0-2 1 1 0 0zm-2 0c-1-3 2 0 0 0zm-1 0c0-2 1 0 0 0zm-79-1c1-4 3 1 0 0zm-41 0c-2-2 2 1 0 0zm28 0c1-3 2 0 0 0zm3-1c1-3 3 0 0 0zm11-1c0-1 1 1 0 0zm-12 0c0-2 1 1 0 0zm-31 0c1-2 2 0 0 0zm123 0c0-2 1 1 0 0zM43 87c0-2 1 0 0 0zm37 0c-1-3 5-2 0 0zm-43-1c0-2 2 1 0 0zm13 0c0-1 1 0 0 0zm-8-1c0-1 1 1 0 0zm16 0c0-1 1 1 0 0zm9 0c1-2 1 1 0 0zm-26 0c0-2 2 0 0 0zm0-1c0-2 1 1 0 0zm7-1c0-2 2 1 0 0zm116 0c-3-3-4-9-7-6-2 2-5 0-2-2 3-3 0 3 4 0 1-2-2-5 2-2-2-6 3 0 2 3-3 2 4 9 1 7zm-9 0c1-1 2 1 0 0zM40 83c0-1 1 1 0 0zm4-1c-3-4 2 1 0 0zm30 1c0-2 1 0 0 0zm86-2c-1-1 1 1 0 0zm-3 0c-3-4 5 1 0 0zm-97-1c1-1 1 2 0 0zm-4 0c0-1 1 1 0 0zm9 0c-2-4 2-1 0 0zm-46-1c1-1 3 1 0 0zm-2 0c1 0-1 0 0 0zm138 0c-1-2 1 1 0 0zm-72 0c0-1 1 0 0 0zm-21 0c1-2 2 0 0 0zm-25-1c-1-1 1 1 0 0zm29 0c0-2 1 0 0 0zm-4-1c0-1 1 1 0 0zm103 0c0-1 2 1 0 0zm-1-1c0-1 1 1 0 0zM55 76c0-2 3 1 0 0zm13 0c0-1 2 0 0 0zm2 0c0-2 1 1 0 0zm-7-1c0-2 1 1 0 0zm-16-1c0-1 1 1 0 0zm111 0c0-2 2-1 0 0zm-95 0c0-2 2 0 0 0zm93-1c0-2 1 1 0 0zm-99-1c0-2 3 4 0 0zm107 0c0-2 2 0 0 0zM23 71c1-2 2 1 0 0zm-2 0c0-2 1 0 0 0zm50 0c0-2 1 0 0 0zm95 0c-2-2 2-4 0 0zM18 70c1-1 1 1 0 0zm145 0c-1-2 1 1 0 0zM44 70c0-1 1 1 0 0zm119 0c0-1 1 1 0 0zM22 70c-3-1 2-1 0 0zm1 0c0-2 1 0 0 0zm35 0c0-2 2 0 0 0zm-28-1c0-4-4-1-4-4 3 0 6 0 3-2-1 1-4-2-3 0s-1 2-1 2c0 1-1 5-2 1l4-7c0-2 7-1 3 0-2 0 4 3 4 1 1 4-7-2-4 1l2 5c-1-1 0 2-1 1-2 0 0 3-1 2zm0-2zm0-1s0 1 0 0zm-1-6c-1-1-1 0 0 0zm134 9c0-3 3 2 0 0zM34 69c-6-4 3-1 0 0zm24 0c-1-2 3 0 0 0zm-22 0c0-2 3-1 0 0zm-14 0c-1-4 4 0 0 0zm46 0c-5-3 3-1 0 0zm98-1c-1-2 1 0 0 0zM52 68c0-2 1 0 0 0zm-17-1c-3-2 4-3 1-1 1 2-1 0-1 1zm34 0c0-2 1 0 0 0zm-4 0c0-2 1 0 0 0zm-28-2c-1-3 2 1 0 0zm-1-1c-1-3 4 0 0 0zm30 0c0-1 1 1 0 0zm-27 0c0-5 2 0 0 0zm2-1c-1-1 2 1 0 0zm-21 0c-2-2 3 0 0 0zm31 0c0-1 1 1 0 0zm106 0c0-2 2 0 0 0zM46 63c-1-3 2 0 0 0zm-8-1c0-1 1 1 0 0zm4 0c0-1 2 1 0 0zm116 0c0-1 1 1 0 0zM37 62c-1-2 1 0 0 0zm2 0c0-2 1 1 0 0zm1-1c1-1 1 1 0 0zm-23 0c-2-2 2 0 0 0zm5 0c0-2 1 0 0 0zm16 0c0-2 2 0 0 0zm16 0c0-2 1 1 0 0zm-17 0c-1-2 1 0 0 0zm121 0c0-3 3 0 0 0zM23 60l-2-3 3-3c3 1 1 4 0 6h-1zm0-3zm0-1zm1-2zm1 6c0-1 1 1 0 0zm7 0c0-1 0 1 0 0zm129 0c-1-2 1 1 0 0zM53 60c0-1 1 1 0 0zm3 0c0-2 1 0 0 0zm5 0c-1-2 3 0 0 0zm-20 0c0-2 1 1 0 0zm-4-1c-1-1 1 1 0 0zm-19 0c-5 0-1-3 1-1 1 1-1 2-1 1zm16 0c0-1 1 1 0 0zm-13 0c0-2 2 1 0 0zm42-1c0-1 1 1 0 0zm96 0c0-1 1 1 0 0zM35 58c-1-2 2 0 0 0zm-8-1c0-2 1 1 0 0zm21 0c0-1 1 1 0 0zm-15-1c-1-1 1 1 0 0zm30 0c1-2 2 1 0 0zm-2 0c0-1 1 0 0 0zm8 0c-1-2 2 0 0 0zm90 0c0-2 2 1 0 0zM57 56c-7-2 2-1 0 0zm100-1c1-1 1 1 0 0zm-92 0c0-1 1 0 0 0zm89 0c0-1 2 1 0 0zm-87 0c-1-3 4-1 0 0zm-38 0c-1-2 1 0 0 0zm-9 0c-5-5 4-1 0 0zm44 0c0-2 1 0 0 0zm-4-1c0-1 1 1 0 0zm10 0c0-1 2 1 0 0zm80 0c-1-2 3 0 0 0zm-85-1c1 0 0 0 0 0zm-50 0c-3-4 4 1 0 0zm21 0c-1-3 3 1 0 0zm26 0c0-1 1 1 0 0zm94 0c0-1 1 1 0 0zM22 53c0-1 1 1 0 0zm47 0c0-1 2 1 0 0zm81 0c0-2 1 1 0 0zm4 0c0-1 1 1 0 0zm-88 0c0-2 1 1 0 0zm-42 0c0-2 2 0 0 0zm46 0c1-1 0-1 0 0zm-35-1c-1-5 2 1 0 0zm30 0c-3-1 2-3 1-1-3 0 0 2-1 1zm89 0c0-3 2 1 0 0zm-88 0c1-1 1 1 0 0zm2 0c0-1 1 1 0 0zm81 0c0-2 3 0 0 0zm-93 0c0-1 1 1 0 0zm-8 0c0-1 1 0 0 0zm21 0c0-1 2 0 0 0zm89 0c-1-3 2 0 0 0zm-2 0c1-2 2 0 0 0zm-93 0c-3-3 2-1 0 0zm7 0c-1-3 2 0 0 0zm85-1c0-1 1 1 0 0zM54 51c0-1 1 1 0 0zm99 0c0-1 1 1 0 0zm-85 0c0-1 2 1 0 0zm-40 0c0-2 2 1 0 0zm22 0c-6-2 0-2 1 0h-1zm9 0c-1-2 2 0 0 0zm91 0c0-2 1 1 0 0zm7 0c-1-2 1 0 0 0zM22 51c-2-1-2-6 1-4 2 4-5-3 0 3l-1 1zm2-1c0-2 1 0 0 0zm39 0c0-2 1 1 0 0zm88 0c0-4 3-1 0 0zm-81 0c-1-3 2-2 0 0zm1-1c-1-2 1 0 0 0zm86 0c0-1 1 1 0 0zM16 49c0-1 1 1 0 0zm46 0c-1-3 3 0 0 0zm-34-1c0-1 1 1 0 0zm44 0c-4 0 1-2 0 0zm-12 0c0-2 1 0 0 0zm1-1c-3-3 3 0 0 0zm94 0c1-1 1 1 0 0zm-83 0c0-2 3 1 0 0zm-9 0c-1-2 3 0 0 0zm2 0c0-2 1 0 0 0zm-45-1c0-1 1 1 0 0zm131 0c0-1 2 1 0 0zM28 46c-4-4 4-4 0 0zm0-2zm45 2c0-1 2 1 0 0zm-14 0c-6-4 2-1 0 0zm4 0c1-2 3 1 0 0zm89 0c0-2 2 1 0 0zm-95-1c0-1 1 1 0 0zm-27 0c-2-5 4-2 0 0zM9 45c-3-4 3 0 0 0zm14 0c-2-2-3-6 0-3 0 1 4 0 2 2l-2 1zm9 0c-1-3 2 0 0 0zm126-1c0-1 1 1 0 0zM40 44c0-2 3 1 0 0zm-28 0c-4-4 3-1 0 0zm7 0c-1-2 1 1 0 0zm134 0c0-1 2 0 0 0zm-4-1c0-1 1 1 0 0zm1 0c0-2 1 1 0 0zm-93 0c0-2 2 1 0 0zm1 0c1-2 2 0 0 0zm-18-1c-1-1 1 1 0 0zm111 0c-3-1 1-2 0-3v3zm0-1c0-1 0 0 0 0zM40 42c0-3 3-1 0 0zm-21-1c0-2 1 1 0 0zM8 41c-1-3 2 1 0 0zm24-1c-2-2 0-7 1-2 1 1 0 4-1 2zm130 1c0-2 1 0 0 0zm-15 0c-2-3 3 0 0 0zm1-1c0-1 1 1 0 0zm-76 0c0-1 2 1 0 0zm-27 0c0-2 1 0 0 0zm29 0c-3-3 5-3 0 0zm2 0c0-2 2 0 0 0zm73 0c-1-3 1 0 0 0zM24 39c0-2 1 1 0 0zM9 39c0-1 1 1 0 0zm61-1c0-1 2 1 0 0zm82 0c1-2 4 0 0 0zm4 0c0-3 4-1 0 0zm-80-1c-1-1 2 1 0 0zm76 0c0-1 2 1 0 0zm3 0c0-2 2 1 0 0zm-85 0c-1-2 1 1 0 0zm88 0c0-3 2 0 0 0zm-82-1c0-1 2 1 0 0zm-3 0c-1-3 2 0 0 0zm1 0c-1-4 3 0 0 0zm2-1c-1-3 2 0 0 0zm78 0c0-2 2 0 0 0zm5 0c-1-2 2-1 0 0zm-83-1c0-5 3 1 0 0zm-3 0c-1-3 5 0 0 0zm89-1c0-1 1 1 0 0zM26 33c-2-4 2 1 0 0zm137 0c0-2 2 0 0 0zm-7-1c0-1 1 1 0 0zm-81-1c0-1 2 1 0 0zm-49 0c0-3 2 1 0 0zm45 0c0-2 1 1 0 0zm-57-1c-1-2 2 0 0 0zm58-1c0-1 1 1 0 0zm-13-1c0-1 1 1 0 0zm21 0c0-1 2 1 0 0zm-6 0c0-1 2 0 0 0zm3 0c0-1 1 0 0 0zm1 0c0-1 2 1 0 0zm-65 0c0-1 1 0 0 0zm63 0c0-2 1 0 0 0zm-7 0c0-2 2 0 0 0zm21-1c0-1 2 1 0 0zm-2 0c-1-3 4 0 0 0zm-41 0c-1-1 0 0 0 0zm110-1c0-1 1 1 0 0zM55 26c-4-7 3 1 0 0zm107 0c0-1 1 0 0 0zm0 0c-1-2 1 1 0 0zm-77 0c-1-3 2-1 0 0zm3-1c0-2 2 1 0 0zm-7 0c0-2 2 1 0 0zm80 0c0-2 2 0 0 0zm-93 0c-1-2 1 1 0 0zm18 0c-1-2 2-1 0 0zm73-1c0-2 2 0 0 0zm3 0c0-1 2 1 0 0zm-78 0c-1-2 2 0 0 0zm-2 0c0-2 2 1 0 0zm-20 0c0-2 1 0 0 0zm92 0c0-2 1 0 0 0zm-66-1c0-1 1 1 0 0zm73 0c-1-3 2-1 0 0zm-77 0c0-2 1 1 0 0zm-2 0c0-1 1 0 0 0zm73 0c-1-3 2 0 0 0zm-72-1c0-1 1 1 0 0zm33 0c0-2 2 0 0 0zm-27 0c-7-3 4-1 0 0zm-13-1c0-1 1 1 0 0zm-1 0c-1-2 2 1 0 0zm46 0c0-2 3 0 0 0zm8 0c0-2 2 1 0 0zm-11 0c0-2 2 0 0 0zm45 0c0-2 2 0 0 0zm-72 0c-2-3 1-1 0 0zm58-1c-1-1-3-3-1-2l1 2zm-20 0c0-1 1 1 0 0zm-47 0c-1-2 1 1 0 0zm10 0c0-2 1 1 0 0zm66 0c1-2 3 0 0 0zm-12 0c0-2 1 1 0 0zm-59 0c0-2 2 0 0 0zm37-1c0-1 1 1 0 0zm34 0c0-2 2 0 0 0zm-97 0c0-1 2 1 0 0zm89 0c0-4 2 0 0 0zm-5-1c0-1 1 1 0 0zm12 0c0-1 1 1 0 0zm-8 0c0-2 1 1 0 0zm-59 0c0-2 2 1 0 0zm37 0c0-2 1 1 0 0zm-47 0c0-2 1 0 0 0zm61 0c1-3 3 0 0 0zm16 0c0-2 1 1 0 0zm-49 0c1-4 4 0 0 0zm-22-1c-1-2 2 1 0 0zm60 0c0-1 3 0 0 0zm11 0c0-2 1 1 0 0zm-8 0c0-2 2 1 0 0zm-7-1c0-1 1 1 0 0zm14 0c0-1 1 1 0 0zm-85 0c0-2 1 0 0 0zm35 0c0-2 1 0 0 0zm33-1c0-3 2 0 0 0zm6 0c0-1 1 1 0 0zm-2 0c0-1 2 0 0 0zm-22 0c0-2 1 0 0 0zm19-1c0-1 1 1 0 0zm11 0c0-1 1 1 0 0zm6 0c0-1 1 1 0 0zm-1 0c0-2 2 0 0 0zm-1 0c0-2 1 1 0 0zm-14-1c0-2 1 1 0 0zm13-1c0-1 2 1 0 0zm-20 0c0-1 1 1 0 0zm14 0c0-1 1 1 0 0zm-55 0c0-2 2 0 0 0zm65 0c0-2 1 0 0 0zm-58 0c0-2 1 0 0 0zm2 0c1-3 3 0 0 0zm29 0c0-2 1 0 0 0zm-53-1c0-1 1 1 0 0zm7 0c0-1 1 1 0 0zm11 0c0-1 1 1 0 0zm-8 0c0-1 1 1 0 0zm39 0c0-1 1 1 0 0zm3 0c0-1 1 0 0 0zm16 0c0-2 1 1 0 0zm-6 0c-1-3 1 0 0 0zm18-1c-1-1 0 1 0 0zM68 9c0-2 1 0 0 0zm37 0c0-2 2 0 0 0zm49 0c-1-2 1 0 0 0zM88 6c-1-2 1 0 0 0zm41 0c0-1 1 0 0 0zM50 5c0-2 1 1 0 0zm34-1c0-1 1 1 0 0zm6 0c0-1 1 1 0 0zm23 0c0-2 1 0 0 0zM97 2c-1-2 1 1 0 0zm-8 0c0-2 1 0 0 0zM46 1c0-1 2 0 0 0z" style="fill:#a2e0dd;fill-opacity:1"/></svg>