<svg xmlns="http://www.w3.org/2000/svg" viewBox="0 0 476 1047"><path d="m336 43 1 3 3 1 2 2-1 6-2 1h2l3 5 2-1 1 2c2 3 2 3 6 4h3c3 2 3 2 4 5l4 1 1 2 5 1 3-3 2-1 1 3 2 2 1 6h-2l1 5h1v16h-2v2h2v3l1 21h2v-3h5v3l1 10-2 1 1 4 1-2 3-3h2l1 5-1 10 1-4h7l2 6-2 1-1 3 2 1v3l-2 1 2 4h2v2l6 1 1-8v-3h3l1-2 2-3 6-9h4l-1 6h-4v4h4v2l4 1v4l4-1v2l5-1 2 8h2l1-2h-2v-2h3c2 4 2 6 2 10l1-1c3-2 4-2 7-2v2h-3v2l-4 1 1 3 1 5 1-2h2v4l4 1v3l-8 2 1 2-1 5-5-1-1-3-1-4-3-1v3l2 1-1 2v2l2 2h3l2 4 1-4h2l2 5v3l1 5h-3v2l3 1-2 2v3l-6-3v2h-2l-1 4-7 1-1 4-2-1-2 5h2v-2l3 1 1-4 4 1-1 6h-2v5h-3l-6 1-1 2h4l-1 3-3-1-4 6 3 9-5 1v2l2-1 7 1v-3h-3l1-3h3v-2l4 3 1 2 5-1v2l1 2 2 1 1 8 5 1v4h-3v-2l-3 1c3 2 3 2 7 2v2l9-6-1-3a84 84 0 0 1 0-5l-1-6h3v3l2 9 10-3-2 8-8 3-1 2h-3v7l-4-1-2 4 1 3c0 4-1 6-4 9-1 2-3 4-6 5l-1 1h9l-1 3 1 6 2 1-3 3h-2v4l-5 2 11 1v4h4l1 3-1 2h-4l3 1v2c0 3 0 3 2 5l9 4 1 3-1 1a68 68 0 0 1-5 0l-2-1h-2l2 2 1 4h2l1 5-4 1v-4h-5v-3h-5v3h-3l-1 5 2 1v2l7-1v2l2 7h-2l-1 2h-3v2h4v2l6 1v-5h2v-2h2l-1 6h2v4h-2v-3h-2l1 5 5 2v2h-2l-3 1-1 2h-2l1 4h4v4h-2l-2 1-1 2 2 1v-3h2v2h3l-1 3-8 1v2h-2v4h-3l-3 4-7-2v8l5 1h16v3l4-1-3-1 3-3 6 3v3l-4 1v4l-6 1v3h-5v2a177 177 0 0 1-7 1l-1-4v-3h8v-2h-2v-3l-3 1-1 3h-3v2l-3 1-1-1-1 4h4l1 5-2 3h-6l-1-1 1-8-4 1v2h2l-1 7h3v11l3 1v-5l-2-1 1-5h2v2h2v9h2v3l2 1h-4l-1 6 6-2-1 7h3l-1 5 5 2v2h3l1 6-2 1v2l7-1v2h2l1 5-3 1v3h2c3 5 3 9 2 14l-1 4-6-1v2h-4l2 1-1 3-3-1-1-5h-3l1 7c2 2 3 2 6 2v-2l2 1 5-1v8h-3l-2-3c-4 1-6 3-9 7v2h-3l-4 1-1 2-3 1v8l5 1v-4h5l1 9-11 2-1 3-2-1v2l6-1v3h-3v4l8-3v-3h2v2l5 1v-3l2-5-5-1v-4h5v-4l4 1-1 5 3 2v2h-2l-1 3h-2v2l-3 6-3-1-6 2-3 6h-4l1 3-7 3 3 2v-2l6 1v5l8-1 1-3 2-1-5-2 1-3h14l1 5 4 1-5 7h-2l1-3-1-6-5 3 3 8 3-1 2 1v3l-4 3 1 3h2v5l-6-1 2 2 1 9 2 7v4l-7 2v3h-2v8c0 2-1 3-3 5l1 4 3 1 1 8-2 4h-3v-10h-3l-1 2-5-2v4h5c1 4 0 6-1 10h-2l-1-2-1 4-4 1v-4l-2-2h-2l-2 3-2 3h-3v3l-10-2 2-6c-2 2-2 5-3 8l3 2v2h2l1 3 3-1v-4h3v2h5v5h3l5 2 1 4-1 2 1 2 4 1v4l3 1 1 4 1 2-1 2h-3v6h2v4l-2 1 5 2v5h4l-1 5h2v4l-2 1-1 5h2v2h-2l1 3 2 1v2l2 1 5 3v3h-2v3h4v2l-4 2-2-1v-5l-5 2h4v4l-4-1-4 8-6-1 1-5 4 1 1-6h-3v2l-5 1-1-2-4 1v6l1-4 4 1-1 7h-2l1 3v5l10 1v3l3 6h4l-1 4h-2v7c-3-1-3-1-5-4l-1-7-3 2h-3l1 2 4 1v5h-2v3h-5l-2-2-1 3h2v10l-9 1 1 5 3 1 1 4 1 3v2h4a89 89 0 0 1 1 5l-4 1h-2v2l-1 6v3l-2 1-3 3h-2v2h-4l-2-3h-4l-1-3-5 4v4l-2 1a78 78 0 0 0-2 5h-1v6h1v-5h6l1 2 2-1a101 101 0 0 1 6 2l-1 4-2 1-1 4v2l-4 1v-6l-8 1v3l2 1v-2h2v9h-2v-4l-3-1 1 3v3l-2 2 3 5 4-1v2h2l1-2a90 90 0 0 1 4 4v2l-6 1 1 2 3-1 1 5-4 6 2 2 1 5-3 1v-3l-5-1-1-8h-4l1 4h-3l-1-1-1 5 4 1v2l-3 1-1 4 1 2 4-2v8l-3 1 3 2 1 7-3 1-1-3-4-1 1 3-5 1v-2h-2v2h-3l-1-4-6 2 3 7 4 1 1 2 7-2-1 2-1 10-2 1-1 2h-3v-5h-4v-3l4-1h-8l-5-1-1 2a85 85 0 0 1-7-2l1 8-6 1 1 5h-17l-4-1v3h-4v-3l-2-6a76 76 0 0 1 1-5l-5-1 3-1v-2h-2l-3-1-1-2-2 2 3 1v3l-5-1v2l-10 3v-2l5-1v-2l-2-1-2-2h-7l-1 1h-2v2h-4l-1-2h-2l-2 5 2 1h-2v4l-2 1 1 4h-2l1 3-4 3-3 1h-3l-2 1v2h-8l-5-1-3 1h-3l-4-4-3 3-2-1 3-10-6-2-2 3h-3v-2l-3-1-1-5 12-2 1 3v-4l-2-1 2-1-11 1v-3h2l4-1-4-1v-2l-7-1a104 104 0 0 1-5-2l2-1-1-4-11-1v2h-3v-3h2l-1-2-3 1c-4 0-5-1-8-3v2c-6 1-11 2-17 0l-1 4h-8v-2h2l-1-3h-4l2-9-2-1v-3h8l-3 1 1 2 4 1 3-5-3-2v2h-5l-1-3h2v-2h2v2h2l1-3 3-1-2-2 1-2h-5l1-3-1-3h-2l-6-4 3-4-5 1v-2l-2-1h7l1-2-6 1v-2h-2l1-4h-4v-2l7-2-1-5-7-1v-4l2-1-2-1v-3l3-2-4-3 3-3h6v-2h-4l-1-5-4-1-1-4 3-1v-3l4 1v-2h-5v-2l3-2-1-6 4-2-3-1v-2h-2l-2-5h9l-2-2 2-1-2-2 1-2-4-2 4-2-5-1v-4h2l-1-2v-7l-5-1 2-1-3-1-1-4h6l3 4 6-23-4-2-2-4c-2-3-3-3-6-4h-3v-3h-2v-2l5-2v-2l-5-2v-2h4v-8c-4-1-5 0-9 1l1 4-3 1 2 3 1 8a88 88 0 0 0 3 5v2l2 1-1 6v4l-3 6-5 1-2 1h-2l1 4h-4v2l-7-3v6h-2v3l-3 6-8 1 3-1-1-2 1-4-7 1c-3-4-2-7-2-12h2v-2l-6-2c5-3 5-3 8-3l3 3v3l5 1 2-6h-5l-1-2 10-1v-4l-11-1-1-4 13-3 3 5 3-1v-2l1-5a101 101 0 0 0-2-6l4-3-5-10h2v-6h-5l1 7h-2l-1 4 2 3v3l-5 2v3l-5 1-1-3-6 2v2l5 2v2c-4-1-6-1-9-4v2l-3 1 1 1v8c-2 3-4 4-8 4-2 0-3-1-5-3v-2l-4-1 4-1-1-4h-7l1-6 2-1v-2l-1 1c-5 4-5 4-9 4l-2-1v-2l3-1 6-4 5-2v-4l7 1v-2h-2l-2-5-2 1-5 1v4c-4-1-5-2-7-5l7-2 1-2-5 1H97l-1-2 1-2 7 2v-2l2-1-1-2 3-2-5 1-1 2-8 1v-2h-3v2c-4 3-4 3-7 3v2l-3 2 1 2-2-1-5 1-7 1h-2l-4-1-1 3h-2v2l-5 2-1-4h2v-3h-2l-7 1h-3l-4-1 1-5h2l1 3 3-1 2-6h-3l-4-1-1-2h2l-1-2 2-5 4 2v3h2v-4h2l2-5-2-1v-2h2l10-3 3-1 3 2v2l3-4 4-3 4-1c5 0 8-1 12-4h3v-10h-2l-3 1-3 1h-6v2H71l-8-4v-5l9-2v-3c3-3 5-4 9-4 5 1 9 2 13 5l1 4 5-4c3-3 7-4 12-6l-10-4v-2l-5-1v-2l4-1v-2l4 1-2 2 4-1 3-1 3-2-3-2 1-6c3-2 5-3 8-3l1-6h2l2-1h2l2-1 1-3 7-1c-7-2-13 0-20 2l-5 1-2 1-8-1 3 3 2 5-12 2c-3-3-3-5-4-9h-3c-25-1-25-1-32-7l-4-2-3-1v2H34c-6-1-6-1-11 2l-1 2c-5 1-9-1-14-2H0l1-4c3-2 4-3 8-3l-1-3h7l10 1 4-1h3v-1l-4-1-1-4 6-1h4l7 1-1-4-2-1v-2h-2v2l-5-1 2-3-2-1-2-1-2-2-5-4v-2h-2l1-7h2v-7l3 1h3l2-2 7-1v-2l-4-1-1-7 2-2h2l2-1 6 2 6 1 5-4 14-3h6l3-1h2c6-1 10 0 16 2v-2l-4-1 1-3v2l8 1 1-2 2 1 4 1 3 1 6 2 3 1v-3l6 2v2l2-1h8l4 1h2l-1-3-2-4-1-1-3-10c-1-3-1-3-4-5l-3-1 1-4 5 4-1-10-3 1 1-3 2 1v-2c0-11 2-22 7-32l2-6c1-3 2-4 5-6-1-3-1-3-4-5v-2h-2l-2-13h2l-2-3h-7l1 3c1 4 2 9 0 13l3 1h-3l2 5h-3l-6 2-4 1-2-1 3-2-5-1v-4h-3l-4-1-2-3h-2v5h-3v-8l2-2 2 1v-3l-3 1-6-3-2-6-2-1v-2h3v-4l6-4 2-5v-2l1-2-3-1 1-3h3v-2l3-7-3 1v-3l-3-2 2-11h-9l-1-4h-2v2h-2v4l-3 1-6 5c-3 2-4 2-8 2l-3-1h-2l-1 3-3 5 1 5h-2l-1-4h-3v2l-5 1v-2h-2l-1-7h-6l-6 16-5-2 3-15-1-1-1-2-4-3 2-4v-3h2l-1-7h-2v2l-3 1-1 4-5-1c-2-3-2-4-2-7l-4-1 2-2 4-6-4 1v-6h3a361 361 0 0 0 4-15h-3l1-3 3-1 3-1 2-7c3-3 4-3 8-3l3-1h3l1-3 3-1 2-1 1-5h2c3-1 4-3 5-6 3 1 6 1 8 4l1 8 9-2h5c4-1 7-1 10-4l3-5h3v-2l3-1 2-2 4-1a85 85 0 0 1-2 7h-3l1 4v4l-1 1h-3l-5 1-1 2c-3 2-4 2-7 2l1 4h-2l-2-6h-4c0 3 0 3 2 5l1 1h-4l-1 2-2 4v8l-1 4-4 1-1 3-5 9-2 3-2 1c-3 1-3 2-4 5a76 76 0 0 0 1 5l-1 2h-2l2 4h-3l1 4h5l2-2c2-3 2-3 5-4h3l2 7h3l1-4h2l3-9h3l1-3h2l1-3 2-2c2-2 3-4 3-7l-4 1v-3h3v-2l-2-1-4-3v-2c2-2 3-2 7-3h4l3 6 6-1c3-5 3-9 3-14l-2 2-5 1v-10c0-3 0-4 2-7h2v2c4 2 7 3 11 2a180 180 0 0 0 4-4l4 1v4l3-1 1-2 1-3 3-1v-8l-5-3 1-2v-3l1-2c2-5 2-10 2-15v-6h-3l1-3h2l2-10 1-3 1-14h-2l-14 1v1h-6l-2-2v-3l-1 9-5 1-2-2h4l-1-8h-2l-4-3h-2l-1-1c-2-2-3-3-6-3l-3 1v-5l-5-2v-2l-8 1 1 4h-4l-1-3h-7l1 3-5 1-1-3h-3l-5-1v1c-5 0-9-1-14-3v-6l12-5v-2l5-1 2 2 11-2v-2l5 2-1 1c-2 2-2 2-2 5h6l2-2h4l-2-6-3-1v-2h-2l-1 4a141 141 0 0 1-5-5v-2l-5 1-2-5h-2l-1 2v-2H56l-1-3 18-2-1-4-2-1v-3l13 1v2h9l1-3h6l7-2 3 1-1-7 2 1 1-1 2-2 5 1-1 3 2 1 3 2 1-3-3-2h2l7-3h-8l1-4 7-1-11-1v-3l-4 3-2-1 2-6h-2l-3-1-1-2-5-1v-2l3-1 5-3 4 1 2-2-1-4h-3l-1-2-3 1c-4-1-6-2-9-5l-3-1v-2h-2l-8-5-2 1-1-2h-3l-2-5h8l2-1 1-3 3-1v4l1-3h2l6-1 6 5v-3l1-4h3v2h7l2-2 4 1 1 6 1 3-1 4 2 1c2 3 2 5 1 9l-1 2h-2l-1 3 8 1 2-3 1-1-2-2 3-3h2v3l2 2 4-1h1l1-3-1-2 2 1 5 1 3-3 2 3-4 3 8-4-3-1 11 2h6v2l5-1v2l2-2-2-3-2 1-1-2c-1-3-1-3-4-4h-5v-3h-2l-2-1h-3l-4-2 1-3 7 2 1 2 4-1v-2h2l3 1 2 1h7l-2-1c-4-1-5-3-7-6v-2l5 1v2h4v3l11 3h5l1-2h3v3l7 1 1 10 1-4v-3l7 1v-2l4 1v-2l4 1v-2h-2l-5-3v-7l-3-1-9-4v5h-5l1 3-5 1-3-4 3-3c3-1 3-1 4-4l1-2h-2v2l-4-1v-4l-3-1a90 90 0 0 1-4-4l-1 3-7-6 2 3-1 6-12 1v-2l-3 1-1-1-1 2c-1 2-2 3-5 4l-3-2h-2l-2-2c-3-4-5-4-9-5l-4-1-3-1v-3l8 1-3-2 4-4-4-2v-2l8 1v2h3l-1-4c4 0 7 2 11 3 5 2 11 3 16 3l-1-2 4 1 1 3 6 3 1-4-10-4v-2l-3-1-4-3 7 1v-2l3 1v2c5 5 11 7 18 9l1-2h2v2l9 1 1-5-10-2c-3 0-5-1-7-3v-2l-7-2-2 3-1-2-3-3-2-4 2 1h6v3h2l6 2v-5l2 1v2l3-1 1 3h5l1-2-3-1-1-2-3-3-2-1c-4-1-7-2-11-5l-4 4-1 2-7 1-1 2-5-1-1-3h-2a199 199 0 0 1-3-5l-3-3-5 1v3l-3-1 3-4-2-1-1-3-4-2-2-2 1-4h6l4 6h8v2h10v2l2-1v-4l5-3 2 2h3a104 104 0 0 1 5 2v2h-2v4h2c4 0 5 1 8 3l1-2v2h2l3-1h5l2 2h16l4 2 3 1 8 5v2l3-1v2l1 2 3 1 1 5 1 2v2h5v4l-1-2-5 2 3 1 2 2v3l4-1 1-3 1 3-1 2 2 1 5 3-3 1h3v-6l2-1 3-3v-2h-2l-2-6h4v-2l-5-1 1-3h2l8 2 2-2-5-5c4 0 6 1 9 3l1-4h-4l-2-9h9c-1 5-1 5-3 7l2 1v2l5 1-2-6 9 5 1-3 7-1-3-1 1-3-3-1-1-3-3-1 2-4-7 1v4h-2l1-5-3-1-3 2-3-1v-2l-1 3-3-1v-4h-3l-1-7-5-1-1-4 3 1v-2l-3-1-1-7h-4l1-4h3v-2l-3-1v-5l-4-1v-5l-3-2-1-5 2-1 5 2-2-3v-3h-4v-3c-1-5-2-6-5-10l6 2 1 3h2c3 1 5 4 7 6l3 2 2-1v-3h5c2 2 2 2 2 6h8l1-2-1-2-2-5 1-2h2v-2l4 3h3c5 0 10 2 14 5l4 5 2-3c4 1 7 1 10 3l1 4 2 1 1 2-1 6h-3l-6-1h-3a22 22 0 0 0-6 4l-7 1v12l3-1v2h4l2-7h5l3-1h5v3l1-2 1-3 5-1v-4l3 1-1 6 4 2-7-1 1 4 2-2h4v3l-3 1h7v2h4v3l4-4-1-5h-2l-2-1-1-2-3-1v-2h2l-2-6-3 1c0-8 0-8 2-10-3-2-5-3-9-3l-1-2a107 107 0 0 0-7-2h-4l-3-1 1-4h-2l-1-4h-2l-2-7 1-2h7l2 1v-2l5-1m1 16v2l2-1zm-10 6v2l3-1zm-1 5v5l2-4zm30 3 1 2 1-2zm-1 5-1 2h3v-2zm5 12 2 2v-2zm-31 2-1 3 3 1zm19 6v2h-2l1 2 2-1zm11 2 2 4 2-1-2-3zm-8 1v2l2-1zm7 1 1 2zm-10 3 1 2zm3 0 1 2 2-1zm-11 1 1 2zm15 1 1 3zm10 0v6l4-2-1-4zm6 1 1 3zm-20 1 1 2zm8 0v2h2v-2zm-74 1v2l2-1zm62 0v2l2-1zm9 0 1 3 3-1zm-20 1-1 2h2zm-3 2 1 2zm35 1-2 5 4 4v-3l3-1-2-2 1 1 4-1v-3zm-3 1v3zm-170 1 1 2zm141 2v2l2-1zm-151 2 1 2zm156 3 1 3zm17 1 2 2v-2zm-27 5 2 1-1 3 5-2v-2zm-23 8v5h3v-5l2 2v-2l5 6 5 1 2-1-4-1-2-7c-6-1-6-1-11 2m60-2-1 2 5-1zm-46 2 1 2 4-1-1-3-4 2m-18 0-1 2h2zm75 2v9c2-3 2-5 2-9zm-88 1 1 2zm4 0-1 4 3-3zm18 0v2l-1 2-2 1 4 1 2-3-1-3zm38 0 1 2zm-144 4-1 2 3-1zm81 0 1 3 3 1 1-4zm16 0-2 2h2v2l4-1zm26 1 1 3zm9 1 2 6 1-3zm-181 2v2l4-1zm167 0-1 5h4l2 2v-4h-2l-1-2zm62 0 1 2zm-107 2v2l5 2 5-2h3l-1-3-12 1m39-1-1 2h2l1 3 1-3zm12 0 2 3v-3zm-112 2-1 3 6 1v-2zm87 0v2l3 1v-2zm-8 0-4 3 5-1zm16 1 1 2zm65 0v2l-2 1 3 1 1-4zm-183 1-1 3 9 2 1-2zm11 0-1 2h2zm-50 1 1 3h6l-1-2-6-1m99 0 1 2 3-1zm44 0v2l2-1zm-85 1 3 3 1-2zm15 0 1 2zm96 0 2 4v-4zm4 0-1 2h2zm65 1 1 2 1-2zm-243 1 4 2 2-2zm54 0 1 2 3-1zm108 0 2 3v-2l3-1zm-24 1 3 2v-2zm5 0v2h2v-2zm-13 0-2 2h3zm142 1-2 5h3v-5zm-145 1v2l2-1zm11 0 1 2zm11-1-2 2 2 1 2-2zm18 1-1 2 3-1zm76 0 1 4 1-4zm-196 1 3 3 3-1-2-2zm30 0v3h3zm77 1v2l2-1zm2 0 3 2v-2zm13 0v2l2-1zm3 0v2l2-1zm-117 5 2 2v-2zm187 1v2h2v-2zm19 0 1 5h5l-2-1-2-4zm-180 1 1 3h8l-1-2-4-1zm188 2 1 2h2v-2zm-21 1 1 2zm12 2 1 2zm-186 1v2l7 2 2-2c-4-3-5-3-9-2m-104 1v2h2v-2zm281 0-1 3h2l-1 2 1 4 4-2-1-8-4 1zm-221 2 1 2zm-70 2 1 4 4-1v-3zm7 1 2 3 1-3zm52 2 1 2zm-48 1-1 2 3-1zm65 0 4 3 2-2zm218 1v2l2-1zm-201 0-1 2-9-1 1 7 2-1-1-4h2v2c1 3 3 4 5 6l1-1 4-2 1-5h-2l-2-1zm200 3v2l2-1zm-190 4v2l3-1zm-15 1-1 2h2zm245 0 1 3h3v-2zm-259 1c2 2 2 2 5 2h2l1-2zm22 0v2l2-1zm202 0v4l2-1zm-224 2v2l-2 1h3zm226 0 4 2v-2zm-222 1v2l2-1zm-42 1 1 2zm27 0 1 2zm-16 2 1 2zm29 0 4 1zm-68 1 4 1zm42 0 1 2zm-2 1-2 2v2l6 1-1-3h-2zm-16 2 1 2zm-6 1-1 4 5 2v2l2-1-1-1-4-6zm3 0 1 2zm13 0 1 3zm-33 2-2 2h5l-1-2zm4 0 4 1zm39 1v2l4-1v-2l-4 1m-48 0v2l2-1zm30 0 1 2zm-36 1-1 2 4-2zm22 0 4 5v-5zm21 0 2 2 1-2zm7 0v4h5zm264 0v3h2l-1-3zm-276 1v2l3 1-1-3zm17 3-1 3h2zm-29 1v2l2-1zm15 0 1 2zm-8 1-1 3h2zm-26 1-1 2 5-1zm37 0 1 4zm-33 1 2 4 3-1v-2zm297 0 1 3zm-289 1-1 2 4-2zm4 1 1 2zm-3 1v3l4 1v-2zm23 0 1 2zm3 0v3l2-3zm-22 1v1h8v-1zm18 1-1 2h2zm-6 1 1 2zm8 0 1 4zm274 0v2l-2 1 1 5 2-1v-7zm4 1-1 4h3v-4zm6 0v2l2-1zm-309 1 2 3 4-2-6-1m9 5-2 4 3-1zm-25 5 1 2 3-1zm17 0 1 2zm14 0 1 2zm-31 3v5h10c-3-4-3-4-8-5zm310 0 1 2zm-312 2 1 2zm16 0-1 3 5 1 1-3zm-32 1-5 6h18l1-2-8 1v-2l-2 1-1-1h-2zm2 0 1 2zm36 0-1 2h2zm-27 1-1 2 3-1zm9 2v2h6l-6-2m9 0-1 2h7l-6-2m-39 1 1 2 3-1zm20 4-2 12v2l-2 1v1l-4 1v3l3 1 1 3h3v-3h2l2 1 3 1 4-1 1-4 7 1-2-4h-5l-1-4c2-4 4-4 8-5l5 1v2h2v-3l2-1h-3l-1-3-2 1h-4v-2h5v-1h-22m23 0 4 1zm-50 5v1l7 2 2-2-1-2 2 2 3 1 2-1v-4c-6 0-10 0-15 3m16-3-1 4 8 3 1-2-4-1v-3l2-1h-6m8 0 1 2zm-33 1 1 2 4-1v-1zm51 5-1 2-3 2h4l1 2v-4l4-1zm12 1 1 2zm3 1 1 2zm286 0 1 2zm-276 1 1 2zm-17 1v2l2-1zm26 0v2l2-1zm-19 3 1 2zm9-1-3 3 4-1zm-51 3 1 2 1-2zm33 1 4 1zm7 0-2 2h6l-1-2zm-63 1 2 2 2-2zm73 0 4 1zm-27 1-1 2h2zm21 0v1h6v-1zm-49 3h4l3 1 2-1v-2c-5-1-5-1-9 2m33-3-3 2h4zm301 2v3h4l3 7-5 2 2 2v5h3v7h2v-3h2l-1-5h3l1 3v-2h3v-2h2v3l-3 1 3 1v-2l1-2 2-1-5-1 1-4-5 4 1-4h-2v-2l-4-1 1-4-3-1 1-3c-3-2-3-2-7-1m3 5 1 2zm9 0v5l3-1 1 2 1-5zm-19 3 1 2zm33 5-1 2h2zm-26 1v2l2-1zm24 1-1 2h2zm-25 1 1 2zm12 7 2 2 1-2zm-6 1 1 2zm-6 0-2 1 1 2 2-1zm1 2 1 2zm6 1 1 2zm-3 7 1 2zm-5 11 1 2zm20 0 1 4zm7 0 1 2zm-8 6 1 4 3-1v-5l-4 2m6 1v3l3-1-1-2zm-7 4-1 3h3l-1-3zm3 6 1 2 1-2zm4 3 1 3zm-2 5-1 2 2 2 1-3zm-13 0-3 2 4 2zm5 5-1 4 4 2-1 3 4-1v-3h2l-2-5-4 2zm0 6 1 2zm10 2c-3 3-3 6-3 10l1 5-4 2 2 5h2l1 2 3-1v-2h-2l-1-4h2l-1-6 5-1-1-2h-2l1-8zm-8 4v2h-8v1h8l-1 7 3-2v-8zm-367 9 2 2v-2zm369 0 1 2zm-5 1v2h-2l-4 3 5 1v-2l4-2h-2zm-7 5 1 2zm-5 2 1 2zm-365 2 1 2zm16 0-1 5 5 2 1-5zm363 0 4 1zm12 0v3l-1 3-2 1v-2l-5 1v2h3v3l4-1 1 2v-4h3l1-3h-3v-3h2v-2zm-405 3c-2 4-2 7-2 12l3 1 7-11-2-1-2 1v2l-4-4m80 0 1 2zm304 3-1 1h6l-1-3-4 2m-358-1 1 2zm57 3 1 8h-2v2l-2 1c-2 1-4 2-5 5v6l3-2h4v-8h2v2l3 1 1 2-3-1 4 16-5 1-1 5h7l-1 3c0 4 0 6 2 10l2 2c2-6 2-11 0-17l2 2 4 1v-2c0-5 0-9 4-13l6-3-3-10-9 1 1-3h-2l-1-4c-2 3-2 3-2 7l-6-3v-3l-2-6h-2zm-5 4-1 5 2-2zm324 0v2h-2v4h-2v3h7l-1-4 2-1-3-1zm-12 4v2h2v2h-2v2l-2 1h10v-2h-3l1-8-6 3m19-2-3 4 3 3v-7m5 1 2 2v-2zm-420 2c-2 3-2 3-2 7h4l1-7zm420 3-1 3h5l1-3zm-413 1v9a57 57 0 0 0 7-4v-3h-2l-1-3-4 1m399 2 1 3 2-2zm-334 1 1 6 2-2v-4zm344 0v6h3l1 3v-8zm-28 3v6l2-1-1-5zm14 3v3h2v-3zm-7 1 1 3zm19 2-1 2-3 4 2 3h8l-1-5-4-1zm8 0-1 2h2zm-20 2v2h3v2l-3 1 4 1 3-5zm-9 2-1 2h2zm6 0v2l2-1zm-326 1-2 2 1 2-3-1v7l5-1-3-4 4 2 3-6-5-1m323 1 1 2zm13 3v4l2-1v-3zm-395 0-2 1 1 2 2-1zm382 9v3h2v-3zm-376 1 1 2zm-3 2 1 5 3-1v-3zm69 3 1 3 1-3zm336 1 1 2zm-13 1 2 2v-2zm18 1 1 3zm-335 4v3zm-4 7 1 3zm6 1c0 8 0 17 3 25l4 2 3-3-2-3-3-15-3-5zm-17 1-2 2h3zm11 2-1 11 2-1 1-4v-2l-2-4zm-11 2 1 3zm322 14 1 4zm5 3 1 2zm2 3-3 2 1 3h3l1-4zm-318 7-2 3 1 3-4 1 3 5 5-1v-2l5-1v-8h-6zm319 0 4 1v2l2 1 1 3-4 1h2v2h3v-10h-8zm-4 1 1 2 1-2zm2 7 1 3 4-1v-2zm11 2 1 3 1-3zm-16 1v3zm5 1-1 4 3-1zm-16 1 1 2zm21 0v4h2v-4zm3 0 1 2zm11 0 1 2zm-23 1 1 2zm-13 1v5h1v-5zm14 1 1 2zm5 2v3l2-3zm-6 0-2 2h3zm-5 2v5l3-1v-4zm34 3 2 2v-2zm-6 13v3h4l1 2 1-8c-3 0-4 1-6 3m-47 5-1 7 3 1v-7zm26 0 1 2zm-13 2-2 2h3zm23 1-1 6 2 2c2-3 2-4 2-8zm-3 9v7l-2 1 2 1 1 4h2l-1-4 2 1 4 1 2-1 1-3-5-1v2h-2l1-4 3-1-2-3-2 1-4-1m-6 7 1 2 3-1zm-14 4-2 2h3zm10 4-4 7h2l1 4-3 1v1l9 1-4 5h2v3h2v-2l3 1v-2h-3l1-6h-2v-2l-2-1c0-5 1-7 5-10l-1-2c-3 0-4 0-6 2m9-2-1 3h2zm-24 5 3 7v-3l2-1-1-4-4 1m19 4v4h2l-1-4zm-16 3 1 3zm5 2v2l-2 1h5l-2-1zm2 9-1 3h2l1 3 2-3zm-7 2v2h2v-2zm13 2-1 3h2zm-10 7v2h4v3l-5-1v3l-3-1-2 1 1 3 3-1 6-2 1 3h6v-2l-2-1-3-1-1-6zm13 1 2 2v-2zm-19 25 1 2zm10 6 1 2zm6 6-1 3h2zm-38 1 1 3 2-1v-2zm58 2 2 2v-2zm-57 2v2h2v-2zm14 0-5 2h6zm-2 5v5l4 1-2-6zm35 8v2l-2 1h4v-3zm-32 1 1 2zm-263 5-1 9 8 3 2-5h-5l2-1 5-3-4-1-2-1-5-1zm275 1 1 3h3l1-3zm24 0 1 2zm-284 4v3l3 1-2-4zm-31 2h3v4l4 1-1 3c5 4 7 4 13 4v2l-2 1 2 1 2-1v-2h2l1-3-3-1-1-2-5-1h-4l-1-4 2-3c-5-1-8-1-12 1m317-1 1 3zm-323 2v2l3-1zm298 1 1 3h3v-3zm26 0 1 2zm-362 1 4 5v-4zm75 2 1 2 2-1zm266 1 1 3zm-1 7-1 2h2v5l2-2 5-1v-1h-5l-1-3zm-5 3-1 1 2 3 3-2-1-4-3 2m-16-1 1 2zm-264 5h-2l-2 1v2l-3 1-2 1-1-3h-12v2l-3-1v2h-2l2 4 3 1-1 3c9 4 9 4 19 6v3c3 4 7 4 12 4l11 2 1-7h-3l-4 1h-3l-2 1h-3l-6-2-1-2 2-1 14-5-1-4h3v-3l-3-2-5-4v-2c-4 0-5 0-8 2m277 2-1 1 2 3h2v-6l-3 2m18-1 4 2v-2zm-8 1 1 2zm-20 1v2h2v-2zm-4 1 1 3zm5 5-3 5 4-1 1-4zm-253 4 4 4 7-2v-2zm246 9v3l3-2zm12 0-3 1 1 3 4-2zm6 1 2 3v-3zm10 2v2l2-1zm-12 1 3 2v-2zm15 1 1 2 3-1zm-23 11 4 1h2v-3l-6 2m7 2v2l2-1zm-270 2v2l-1 2-2 1a106 106 0 0 0 4 5h2l1 4 2-1c0-4 0-7-2-11l-4-2m273 1v3l2-1zm-324 7h-5v2l8 2v2h5l1-5-3-3-6 2m331 4 1 2zm11 0 1 4zm-291 2-1 2-4 1-1 5 4 4 2 2v-3l4 1-1-5h-2l1-2 5-1-1-4zm263 4 1 3zm27 0 2 4v-2h2v-2zm-20 1 1 4zm25 2 2 3 2-3zm-330 1-1 3 4 1 2-2-2-2zm-70 2-1 2 4 1v-2zm61 2h6v-2l-6 2m320-1v2l-3 1 4 3v-3h2l-1-3zm20 1-1 4-1-2-2-1-4 1 1 2 3 1v4h-2v5l-5-1 1-5-3 1v2l-3 1v5l-2 1h6v-2l2 1 1 3h6l1-2-1-2h7l1-3c-2-2-4-2-7-3v-3h5l1-3 3-1v-3zm4 7 1 4zm-31 1 1 2zm4 0 4 1zm-308 9 1 2zm6 3h4v2h2l1-3c-3-1-4-1-7 1m326-2v3l2-1v5h-2v2l5 1-2-4 5 3 1-7zm-327 2-2 2 4 1v2l3-1-1-2h-3zm303 1-1 7h2l1-4zm4 4 4 1zm8 0 1 3h3l-1-3zm-322 1-1 3-2 1h4zm8 0-3 2h5zm306 6 1 2 1-2zm5 0-1 2 4-1zm-13 9 3 1 1 3h2l-2-4zm12 5-2 6 4-2v-4zm5 0-1 2h2zm-13 6 2 3 1-3zm11 1v4l4 1 3-3-1-2zm11 0v8l1-5v-3zm-24 2 1 4v-2l2-1zm-9 2v6h3v-3h-2zm27 1 1 5h-3v-2l-4-1c2 5 2 5 6 8h2v-3l2-1h-2v-6zm-11 3-1 7 3 1-1 10 7-1-1-3-4 2v-3l2-1-1-1 4-2h-5l-1-6v-2zm-10 11v5h6l-1-3-4 1 1-3zm11 9 1 2zm-3 5 1 2 2-1zm-244 5 1 3 5-1v-2zm244 0 2 1 1 3v-4zm-241 2v2l2-1zm5 1 2 2 1-2zm-12 21 1 2 2-2zm221 21-1 4 4-1h-2v-2l2-1zm-219 4 2 2v-2zm232 22 1 2zm-5 1v2l-4 1v2l-3 5 2 1 5-3 2 1v-9zm-208 19v2l3 1 1-2zm198 4-1 2h2zm-17 10-4 6h6v-3l3-1h-4zm16 1-1 2 1 4v-3h5l-1-4-4 1m-202 1-1 2h3v-2zm27 0 1 2 2-1zm165 3v3h2v-3zm9 4v3h2l-1-3zm-149 4 1 2 1-2zm107 0 2 2v-2zm-3 2-2 2h2v5l1-2 2 1 1 3-3 1 3 1v2h-3v2l7-1v2l8-1-1-6 6-1v-3l-3-1-5-2v2l-2-1c-4-2-7-3-11-3zm-95 1 4 1zm119 1v2l-2 1h2v2h6v-2l2-1-8-2m-50 4-1 4 4-1-1-3zm22 6v2l2-1zm44 1 1 2zm-132 2-1 3 3-1v-2zm88 0v2l3-1zm-60 10 1 2z" fill="#86adca"/><g fill="#86aecb"><path d="m180 67 6 2v2h10l10 2 3 1 3 1v3l2 1c4 2 5 4 7 9 0 3-1 4-3 7l-3-1-5 2-1-3-8-1v3h2v2h3l3 4-1 3h-3l-6 2-6-1v2l-7-1-2-4-4-1-1-5-1-3 1-5 4-3-1-2-2-4h6l1-2-1-2h-4v-2l-2-6zm11 15-2 5 2 1 4 4 5-1-3-3-1-2-5-4zm43-8h4v2h2l2 1h3l4 3v3l2 1 1 3-1 2 3-1c4 0 7 1 11 3l-2 2 1 1c3 3 5 5 5 9v7c-7 2-13 3-19-1l-4-3-9-2-8-4-5-1v-3h5v2h4l1-2 5 2v-2h2V85l5 1 1-3-10-5-2-1zm7 26 2 2v-2zM36 152v2l4-1 2 3h3l1-1 11 4 4 1 4 3 1 2v2l1 2-3 1-1 3h6v2l6 2v5l-3 1-1 2-3-1v3h-5l-2-6-3-1a99 99 0 0 1 0-5l1-1-2-2-2 3h-2v-3h-2l-1 2a90 90 0 0 1-4-4v-2h-2v-2h-3l-1-2h-3l-2-1a76 76 0 0 0-5 1l-2-7c5-5 5-5 8-5m-5 9 1 2zm242 837 11 1v2l6-1-1 2-2 10 1 4c-4 3-7 3-11 4h-3c-4 0-5-1-8-3v-15l7-2zM94 835v3l12-1-1 2-3 1v3c0 4-1 5-4 8-3 2-4 2-8 2l-3-1-1-3-2-1v-7l4-5 6-1zm14-616 2 1 1 3 1 3 3 1-3 1-2 3-2-1-6 1 3 3c-4 2-8 2-13 3h-2l-1 2v-6l3-1-18-1v-3h3l5-1v2l2-1 9 1a93 93 0 0 0 4-1 195 195 0 0 1 7 0l4-9zM369 39v2h2c2 4 2 7 2 11l-3 3c-4 0-6-1-9-3-2-2-2-3-2-6l1-6c3-2 6-1 9-1zM111 846l4 3 2 1c3 2 4 4 5 7-2 3-3 4-6 5-4 0-5 0-8-2-2-5 0-8 1-13l2-1zm166-736 1 4 4 1-1 2 4 1-1 2h-4v2l4 2v5l-5 1v-2h-5l1-4-3 1-5-6 7-1 3 2v-3l-2-1zm-9 35 1 3h2v-3l4 1-1 2v3l4 4-3 4v3l-4-2-2-6h-2l-1-7zm20-107c5 1 5 1 7 3l3 1c4 1 6 2 8 5l-1 4h-6l-2-2v-2h-2l-1-2c-1-3-4-5-6-7zM17 315l3 1 1 3h5l1 3 2 2-7 1 1 1c2 2 3 3 3 6l-3-1v-2h-2l-1 3h-2l-2-5 2-2v-5l-1-3zm6 7 1 2zm130 676h8l2 2-1 5-5 3c-3-1-4-2-5-4v-4zM39 354l4 4 2-2 2 3-4 1v2l-4 4c-4-1-7-4-10-7v-2l4-1 3 2zm92-193 4 1-2 3h3l9 3v2c-2 2-4 2-7 2l-12-6v-2h5zm114-42 5 3-1 6-7 1-2-4v-6h5m7 897h4l2 5-3 4h-9l-1-4 3-2 4-3zm-56-59h9l2 8h-9l-2-8M74 781l12 1c-3 6-3 6-7 7h-5v-2l-2-1zM323 30l4 1 3 1 4 2-3 8-4-3-1-2-2-1-1-6m-75 20c5 0 7 1 10 4 2 3 3 5 3 8-6-3-10-6-13-12M68 502l10 1 1 4 1 2v2l-5-2c-3-3-5-3-8-4zm169 442 5 2-2 1-2 5h2v3c-6 0-6 0-8-3l-1-2h2v-3l2-1zM13 287l9 2v2h3c3 0 4 1 7 3l-1 2-3-2-2 1-6-2v-2l-6-1zm107 23h2l-1 5 3 1c-6 4-6 4-9 4v3h-3l-1-5 9-2zM349 47a45 45 0 0 1 13 7v2c-5 0-7 0-11-3l-2-6M103 568h4l3 1 5 2-1 3-12-1zm58 392-4 6-5-1-1-5c3-2 6-1 10 0m-44-638h6l2 4h-2v2l2 1-9-2a99 99 0 0 0-5 0l6-2zm11 644 2 3c-5 4-5 4-8 4v-2h-3v-2h2v-2l7-1M263 65h2l-1 3v6l3 5-1 2-2-2-4-3v-2l-2-2 2-3 2-2zm-84 870 4 1v3l3 1v2h-10l1-3h2zm-47-635 3 1v2l2 1h-2l1 3 2 1-2 4h-3l-1-5-1-3 1-4m49 485 4 2v6l-6-1-1-5zM84 485h4l1 1h3v2l-2 1 1 4-8-3-1 2 1-4h3v-2zm32 315 6 1 4 6c-4-1-7-1-10-3zm23 70 4 1v5l-5 1-2-4 3-3M99 487h2l1 3 3 2c-7 2-7 2-10 1v3l-3-1 1-5 6 1zm21 500h4l1 4-4 1h-2v3l-4-1 1-2h2v-2l2-3m198 6 5 1 1 4-4 1h-2l-1-5zm-91-23h5v2h2l3 1 1 2h-7l-4-2zm30-842c5 0 8 2 12 5v2l-8-3h-4zm-61 839 5 1-1 5-4 1-1-3 1-4M25 613v2c-4 2-7 0-11-1v-2c4-1 7-1 11 1M250 67h3l4 5 5 7-1 3-1-1-2-2-1-2-4-3v-4l-3-1v-2zM42 718l4 1 1 6h-5v-7m53-41 2 1-1 4-7 1v-3c2-2 3-3 6-3M225 78l3 3v3l7 1-1 4-9-5zm0 865-3 4-6 1 1-4 8-1m-78-79h6l1 2-2 3h-5l-1-3zm0-192 7 1-1 4-6-1-1-2zm-2-496-1 3h-7l-2-4c4-1 6 0 10 1m-41 801 5 1v4l-4 1-3-3zM366 4h3v2l4 3-1 3-5-2-2-5zM170 821l5 2v4l-5-1-1-4zm108-687 3 2-1 4-4 2h-2l-2 1v-2l5-3-1-3zM159 930h4v6l-5-2zM2 610l5 1 2 1h2v2H3l-2-3zM311 15h3l1 2 2 1 3 4-2 1-4-3v-2l-3-1zm-44 78 7 2 1 6-4-1v-5h-4zM101 996h5v4l-4 1zm207-868v5l-5-2-1-3h6m-31 895h8c-2 3-3 3-6 4h-3zM176 817l7 1-2 1-1 3-4-1z"/><path d="m132 170 6 2-4 1-1 4h-5l3-1v-2l1-4m-31 832 4 1-1 4h-4l-1-3zm75-30h5l1 4h-6l-1-2zm-23-38 5 1v2h-2v2l-4-1zm7-801h5v4l-7 1 2-1zm59 819 4 1 1 5-4-1-2-4zm-40-1h4l1 3-3 1-1 2h-2v-5zM49 687l3 1 1 3-6 1v-4z"/></g><path d="m333 78 5 1-1 2 1 4-4-1-2-5z" fill="#88adca"/><g fill="#86aecb"><path d="M165 936h9l-1 3-8-1zm0-8 5 1-2 4-3-1-1-3zm17-20h4l-1 4-5 1zM48 863l10 2v1H48zm17-97 5 1v4l-5-1-1-3zm128 184 4 1v2h-2v2h-4zm-92-633 2 1 1 6h-3l-1-6zm107-137 6 1-2 4-6-2 2-1zm23 782h5l-1 4h-4zm-18-11-1 4h-3l-2-4h6M92 802l6 1 1 3-7-2zm5-9 5 1v3h-5zM82 679l2 1v2l-6 1-1-2 5-2m21-336 5 1-1 3h-5zm74 545h4l1 4h-5l-1-2zM89 741l7 1 1 2h-7zM23 377l3 1 2 6c-3-1-3-1-5-4zm-5-23 1 2 2 1-6 2-1-4zm82-5 5 1v3l-5-1zM207 95l3 1v2h2v3l-5-2zM79 513h4l2 4h-4zm63 435-1 5-3-1v-3l4-1m46-34h4v3l2 1-6-1zm-52-3h10c-4 2-6 2-10 2zm1-339 2 4-5 1-1-2 4-3M77 442l5 1-1 3-4-1zM13 185v5l-3-1v-2l-2-1 5-1M342 75h2l1 5h-5zM185 962l4 1-1 3-4-1zm28-13h5l1 3-6-1zM93 753l5 1v3l-5-2zM57 573h2l1 6-3-1-1-4zM28 287l4 2-2 3-4-3zm82-21h4l-1 3-4 1 1-4m63-93 3 3-1 3h-3zm104 861h4l-1 4-3-1zm-33-63-2 4-3-1v-2l5-1M93 927h5l-1 3h-4zm81-33 5 1v2h-5zm4-62 5 1v3h-4zM97 536l4 2 1 3-4-1zm10-40 5 1-2 2h-3l-1 2zM58 310l3 1 1 5-3-1zM5 290l2 1-1 3-3 1v-2l-3-1zm250-176 5 2-1 2-5-2zm-21-47h2l4 5-1 3c-5-6-5-6-5-8m48 925h3l1 4-4-1zm-74-7h5l-1 3-4-1zm-44-39h3v5h-2zm-8-106 5 1v2h-5zm-3-24h3l1 4-4-1zM41 537h3l1 4-4-1zm95-32h3v3l-5 1zm-21-282h3v3h2v2l-4-1zm-8-9 7 2-6 2-2-1zm58 666h4v3l-5-1zm9-34h5l1 3-5-1zm-77-82 5 1-1 2-4-1zm59-87h4v3h-4zm-101-4c-2 2-2 2-5 2h-2l3-3 4 1m75-478h2v5h-3zm27-22 2 1 5 2-1 2-4-1-2-4zm-30-2 1 2h2v2l-6-1zm21-3 6 1v2l-6-1zm78-50 5 1v3l-5-3zm152-59h1v6l-3-1zm-171 977h4v3l-4-1zm-29-194h5l1 2h-6zm-90-13 7 1v1h-6zm65-31h5v2h-6zM8 624l4 1v2H8zm94-68h4l-1 3h-3zm-26-70 2 1-1 4h-2l-1-3zm-10-69 3 1-1 4h-2zm30-198h1v5l-3-1zm36-42 4 2v2l-5-1zm142-48 3 1-2 4-2-4zm-20-70 4 1 1 4-4-2zm-141-3 4 1v3l-4-1zM319 0l5 1v2l-4-1zM161 974l2 1-3 3h-2l1-3zm44-30h4l-1 3-3-1zM62 713l4 1-1 2h-3zm24-144 3 1 1 3h-3zm35-10 4 1-2 3-2-2zm-111-1c5 2 5 2 6 4l-4-1zm123-149h4l-1 3-3-1zm-79-45 4 1-1 2-4-2zm59-29 2 1-1 4-2-1zM54 223h6v2h-5zm82-38h7l-1 3-6-2zm-21-12 5 1v1h-7zm27-11h5v2h-5zm23-31 6 3h-5zm74-49 3 1-3 3zm108-55 4 4-3 1zM132 976h3l-1 3-3-1zm184-18h7v2l-7-1zm-70-3 4 1-4 1h-2zm-111-59h3l-1 3-3-1zm0-16h3v3h-3zm15-50h3v3h-3zM67 535l3 1v2l-4-1zm0-26 3 3-4 1zm68 0h3l1 3-4-1zM24 422l5 1v1h-6zm52-63h3v3h-3zm-61-30 2 2-4 1-1-2zm42-75h5l-2 4zm3-16 1 3-5 1v-2zm26-44 5 1-3 2zm107-27h5l-4 3-2-1zM93 157l5 2-4 1zm48-6 5 2v1h-5zM350 36l3 3-3 1-1-3zm21-2 3 1-1 3-2-1zm-50-23h2l-1 5h-2zm-37-7h4v2l-3 1zm35-1 5 2-2 2zm-114 997h4v2h-4zm-39-32 4 1-5 1zm60-7 3 1-1 2-3-1zm86-1h5v2l-5-1zM91 895v2h-6l6-2m53-1h4v2h-4zm25-29h3l1 3-4-1zm-13-110 5 1-4 1zm-22-79 5 1v1h-5zm19-30 3 1-2 3zM12 570l2 1-4 2-1-2zm122-30h2v4h-2l-1-3zm-68-9v2l-4 1v-2l4-1m14-38 1 3-4-1zm56-135 3 1-1 2-3-1zm-25-12 2 1-1 2h-3v-2zM7 293l3 1v2l-4-2zm-4-68h2v4H3zm131-36h3l-1 3-3-1zm20-6v3l-2 2v-4zm-51-9 4 2-2 1-3-2zm-87-12 5 1h-6zm106-16h5v2l-5-1zm43-3h3v3l-3-1zm7-10h3v3l-3-1zm33-15 1 3-4-1zm168-65h3v3l-3-1zm-89-5h3v3l-3-1zm19-7 4 3-1 2-3-3zm-52-15 4 1v2h-3zm55-9 4 2h-4zM188 972h3v2l-4-1zm124-9 3 1-5 1zm-130-44h5v2l-5-1zm-54-20 4 1-4 1zm25-31 4 1-4 1zm19-8h4v2l-4-1zm-9-41 4 1-4 1zM35 759l3 1v2l-3-1zm102-76 4 1-4 1zm-26-32 2 1-2 3-2-1zM0 555l4 1-4 1zm116-5 3 1-1 2h-2zm20-35h3l1 3-4-2zm-119-2h2l-1 3h-2zm45-2 3 2-1 2-3-3zm42-2 3 1-4 2zm34-8 3 3-4-1zM27 437h3v2l-4-1zm40-24 2 1-1 3-2-3zM9 357l3 2-4 1zm3-4 2 2-4 1v-2zm-4-22 4 1-3 2zm3-28 1 3h2l-1 2-2-1zm-1-6 3 1-4 2zm95-35 2 1-1 2-3-1zm7-10 3 1-2 3zm59-63 3 1v2h-3zm-16-3 2 1-3 3zm31-21 4 1-4 1zm-63-7 3 1v2l-4-2zm106-57 3 1v2l-3-1zm-1-8h3v3h-2zm91-9 3 1v2l-3-1zm-100-9h4l-1 3-1-2zm-20-8 3 1-1 2h-2zm158-3h2v3l-3-1zm-37-7 3 1v2l-3-1zm56-14 3 1-1 3v-2h-2zm-29-3h2l-1 3h-2zm-41-8h3v3h-2zm-28 0h3v3h-2zm18-19 3 1v2l-3-1zm-88 1007 3 1-4 1zm-6-3h3v2h-3zm165-17 2 1-1 2h-2zm-74-9h3v2h-3zm20-8h3v2h-3zm-145-3h3v2h-3zm-43-4h3v2h-3zm186-6h3v2h-3zm-92-1h3v2h-3zm-28-2h3v2h-3zm56-8h3v2h-3zm-5 0h3v2h-3zm4-8 2 1-5 1zm-106-34h3v2h-3zm-21-3h6v1h-6zm56-16h3v2h-3zm-85-28h6v1h-6zm87-13 4 2h-4zm-71-17h3v2h-3zm-46-1h3v2h-3zm17-11h3v2h-3zm92-10h3v2h-3zm-74-11h3v2h-3zm39-4 3 1-4 1zm39-54h3v2h-3zm-27-71h3v2h-3zM4 594h3v2H4zm126-20 2 1v2l-3-1zm-35-7h2v3h-2zm37-2 3 1v2l-3-1zm-15 0 3 1-3 2zm9-4 1 4-2-1zm2-2 3 1-3 2zm-72-18h3v2h-3zm12-26 2 3-4-2zm5-2v3h-2v-2zm52-8 3 1-3 2zm-55-12 3 1-1 2h-2zm28-16h3v2h-3zm-84-24h3v2h-3zm117-96 3 2-4 1zm-78-9h3v2h-3zm16-6h3v2h-3zm-5-1 3 1v2h-2zm53-6 3 3h-3zm-39-11h3v2h-3zm34-11h3v2h-3zm-42-23h4v2zm26-1h2l-1 3-2-1zm9-38h3l-1 3zm-42-12h3v3l-3-3m-31-1h3v2l-4-1zm73-7 2 1-1 4zm-1-32 4 1-2 2v-2zm88-28 3 1-4 1zm-5-3h2v3h-2zm-163-8 3 2-3 1zm82-2 3 1-4 1zm107-10 3 2-1 2zm56-11 4 1-1 2zm-6-11 3 1-1 2-2-1zm-36-4 4 2-4 1zm34-2 2 2-3 1zm-122-3h3v2h-3zm75-17h2l-1 3-2-2zm150-30 3 1-2 2zm-45-29h3v2h-3zm-16-5 2 1-1 2h-2zm-43-4h2v3h-2zm102-13 3 3h-3zm-208-4 2 1v2l-3-1zm63 1030 3 1-3 1zm77-16 3 1-3 1zm-9-5 3 1-3 1zm-87-19 3 1-3 1zm34-13h2v2l-3-1zm144-22 3 1-3 1zm-218-18 2 1-4 1zm5-47h3v2l-3-1zm2-10 3 1-3 1zm4-25h2v2l-3-1zm-30-13h2v2l-3-1zm27-20 3 1-3 1zm9-24h2v2l-3-1zm-71-11 3 1-3 1zm-5-17h3v2l-3-1zm15-2 3 1-3 1zm-14-15h3v2l-3-1zm-11-19 3 1-3 1zM2 720l3 1-3 1zm159-27 3 1-3 1zM10 590h3v2l-3-1zm42-10 2 1v2h-2zm29-9h2v2l-3-1zm35-13 4 1-2 1zM6 542l3 1-3 1zm109-36h3v2l-3-1z"/><path d="m71 496 3 2h-3zm21-30 3 1-3 1zm16-24 2 1v2h-2zm18-87h2l-1 3zM19 343l3 1-3 1zm104-6 1 3h-2zm-2-5 1 2-4-1zm-82-42 3 1-3 1zm-20-8 2 3-3-1zm17 0v3l-2-2zm49-2h5v1h-5zm-74-34 3 1-4 1zm-11-7 3 1-3 1zm83-1h2v2l-3-1zm-17-16 3 2-4-1zm25-6h3v2l-3-1zm6-8h3v2h-3zm11-4 3 1-4 1zm22-15 1 3h-2zm28-1 3 1-4 1zm-12-2 3 1-3 1zm22-7h2v2l-3-1zm-6-7 3 2h-3zm48 0 3 1-3 1zm-125-3 1 3h-2zm37-6h2l-1 3zm-24 0h2l1 3h-2zm13-1h2v2l-3-1zm-4-15 3 1-3 1zm-39-16 3 1-3 1zm233-6h3v2l-3-1zm-49-9 3 1-3 1zm-75-1 1 2-4-1zm-6-1h5v1h-5zm64-10h2v2l-3-1zm-60-12h2v2l-3-1zm171-7h5v1h-5zm-181-4 3 1-2 2zm67-11 3 1-3 1zm134-14h2l-1 3zm-49-21h3v2l-3-1zm-15-6h3v2l-3-1zm7 1010h2v2h-2zm-19-16h2v2h-2zm-95-19h2v2h-2zm138-6h2v2h-2zm24-45 4 1zm-229-2h2v2h-2zm17-1h2v2h-2zm-8-13h2v2h-2zm-6-19h2v2h-2zm60-9 4 1zm-10-7h2v2h-2zm0-7h2v2h-2zm1-13 3 1h-3zm-32-26h2v2h-2zm4-9h2v2h-2zm22-18h2v2h-2zm-69-10h2v2h-2zm-7-6 2 1-1 2zm84-19h2v2h-2zM19 784h2v2h-2zm65-81 4 1zM6 674h2v2H6zm100-4 4 1zm-71-19 3 1h-3zm-11-19h2v2h-2zm-10-23h2v2h-2zM0 597h2v2H0zm62-21 3 1h-3zm36-7h2v2h-2zM4 558h2v2H4zm36-6h2v2h-2zm-20-23h2v2h-2zm51-12 3 1h-3zm-18 0v3zm70-4 2 2-3-1zm-3-2 3 1h-3zm24-9 2 2-2 1zm-81 0 2 2-2 1zm13-4 1 2-3-1zm3-1 3 1h-3zm46-12 2 1-1 2zm-23 1 4 1zm-63-64h2v2h-2zm69-27h2v2h-2zm-11-11h2v2h-2zm-65-17 2 1-2 2zm-1-3h3l-1 2zm17-9 1 2-3-1zm10-5v3zm69-5 1 3-2-1zm-18-5h2v2h-2zm-10-3 4 1zm4-8h2v2h-2zm-38-4h2v2h-2zm-35-5 2 2-2 1zm102-2 2 2-3-1zm-26-5 3 2h-3zm32-9 1 2-3-1zM18 294l2 2-3-1zm-6 1 4 1zm34-3 3 1-3 1zm-14-1v3zm5-6v3zm-9-8h2v2h-2zm12-9h2v2h-2zm3-6 1 2-3-1zm73-22 3 2h-3zm-16-5h3l-1 2zm-14-10 3 1h-3zm-25 0h3l-1 2zm30-4 2 2-2 1zm-28-1h2v2h-2zm34-6 1 2-3-1zm-6-2h2v2h-2zm58-18 3 1h-3zm58-6v3zm-55-10 2 2-2 1zm66-3 3 1h-3zm-96-4h2v2h-2zm-41-7 2 3h-2zm112-1 2 1-1 2zm-58-10 2 2-2 1zm-32 0 3 1-3 1zm-6 0h2v2h-2zm34-1h2v2h-2zm-8 0h2v2h-2zm27-8h2v2h-2zm-1-6h2v2h-2zm135-8 2 2-3-1zm-130 1 4 1zm90-19 3 1h-3zm-10-1 2 1h-3zm36-7 2 2-3-1zm-88-27 4 1zm70-2h2v2h-2zm4-5h2v2h-2zm-34-2h2v2h-2zm150-3 2 1h-3zm-129-6h2v2h-2zm30-4h2v2h-2zm-150-4h2v2h-2zm177-12h2v2h-2zm-18-17h2v2h-2zm-114-6 3 1h-3zM54 10l3 1h-3zm305-2 2 1-1 2z"/></g><path d="M0 7h2v2H0z" fill="#81a8c3"/><path d="m271 992 3 1zm-79-7 3 1zm143-9 3 1zm-151-21 3 1zm-15-54 3 1zm2-4 3 1zm-69-37 3 1zm-29 0 3 1zm21-2 3 1zm-21-7 3 1zm45-3 3 1zm22-6 3 1zm-40-7 3 1zm66-10 3 1zm-49-12 3 1zm-30-4 3 1zm58-31 3 1zm-59-31 3 1zm-74-48 3 1zm23-21 3 1zm79-104h2l-1 2zm-31-4h2l-1 2zm-66-4 1 2-2-1zm86-2 2 2h-2zm-3 1h2l-1 2zm13-3 2 2h-2zm14-5 3 1zm2-3 1 2-2-1zm5-35 3 1zm-75 0 3 1zm47-6 2 2h-2zm-51 0 2 2h-2zm52-8 2 2h-2zm18-2 3 1zm-103 0 3 1zm112-3 2 1-2 1zm-50-1 2 1-2 1zm27-4 3 1zm-36-2 2 2h-2zm-67-4 2 2H8zm89 0 2 1-2 1zm-18-1 2 1-2 1zm-2-3h2l-1 2zm-4-23 3 1zm21-1 1 2-2-1zm-49-4 3 1zm57-20h2l-1 2zm-93-3 3 1zm55-5 3 1zm4-19 1 2-2-1zm-23-10 3 1zm-20-43 1 2-2-1zm5-3h2l-1 2zm30-5 2 2h-2zm57-3 2 1-2 1zm16-3 2 1-2 1zm-26-7 3 1zM6 331l2 2H6zm-3-1 2 2H3zm126-6 2 2h-2zm-36 1 2 1-2 1zm32-3 2 2h-2zm-10-15 2 1-2 1zm12-3 1 2-2-1zm-46-13h2l-1 2zm-32-2 3 1zm-47-4 2 2H2zm38 0 3 1zm-31-1 3 1zm46-20 2 1-2 1zm28-2 2 2h-2zm-36-4 1 2-2-1zm63-1h2l-1 2zm-100-5 1 2-2-1zm18-12 2 2h-2zm47-2 2 2h-2zm-9-3 3 1zm0-8 3 1zm37-3 2 2h-2zm-18-3 3 1zm16-2 2 1-2 1zm-40-29 3 1zm88-1h2l-1 2zm28-9 2 2h-2zm-94-2 2 2h-2zm99-4 2 1-2 1zm-82-3 3 1zm72-7 1 2-2-1zm-23-2 2 2h-2zm-32-1 1 2-2-1zm-4-4 2 2h-2zm-39 1 1 2-2-1zm204-4h2l-1 2zm-143-3 3 1zm52-1 2 1-2 1zm-11 0 3 1zm-71-4 2 1-2 1zm57-2 2 1-2 1zm103-4 3 1zm36-10 2 2h-2zm-102 1 1 2-2-1zm-47-5h2l-1 2zm88-11 3 1zm23-3 2 2h-2zm-41-20 3 1zm-4-12h2l-1 2zm9-3 2 2h-2zm23-3 1 2-2-1zm-6-9 2 2h-2zm-21 1h2l-1 2zm120-8 2 2h-2zM34 56l2 1-2 1zm76-1h2l-1 2zm53-4h2l-1 2zm90-8 2 2h-2zm25-1 3 1zm85-10h2l-1 2zm11-15 2 2h-2zM32 1016l2 1zm138-5 2 1zm66-4 2 1zm-49-14 2 1zm99-7 2 1zm-67-2 2 1zm-45-8 2 1zm131-1 2 1zm-94-1 2 1zm123-2 2 1zm-101-4 2 1zm-21-1 2 1zm107-1 2 1zm-10-4 2 1zm29-1 2 1zm-31 0 2 1zm12-1 2 1zm1-4 2 1zm-113 0 2 1zm156-1 2 1zm-256 0 2 1zm254-1 2 1zm-135-13 2 1zM94 931l2 1zm51-3 2 1zm39-2 2 1zm-59-8 2 1zm73-1 2 1zm-3-7 2 1zm-130-2 2 1zm109-2 2 1zm-103 0 2 1zm105-1 2 1zm8-2 2 1zm-37-1 2 1zm-31 0 2 1zm46-1 2 1zm28-4 2 1zm-4-11 2 1zm-2-1 2 1zm-82-3 2 1zm-45 0 2 1zm-4-4 2 1zm125-5 2 1zm-86-1 2 1zm-21-4 2 1zm-63-5 2 1zm174-1 2 1zm-24-1 2 1zm24-1 2 1zm0-2 2 1zm-38 0 2 1zm31-3 2 1zm-98-5 2 1zm93-5 2 1zm-15 0 2 1zm-53-4 2 1zm78-1 2 1zm-11 0 2 1zm10-2 2 1zm-67-6 2 1zm55-1 2 1zm-70 0 2 1zm-13-6 2 1zm16-1 2 1zm17-3 2 1zm31-5 2 1zm31-3 2 1zm-6-3 2 1zm-5-7 2 1zm-8-2 2 1zm-27 0 2 1zm-7-13 2 1zm-18 0 2 1zm-18 0 2 1zm-27-2 2 1zm126-8 2 1zm-8-1 2 1zm-78-4 2 1zm-59-16 2 1zm-29-4 2 1zm60-2 2 1zm-51-31 2 1zm31-2 2 1zm-32-2 2 1zm-16-5 2 1zm67-5 2 1zm-34-3 2 1zm15-10 2 1zm-20 0 2 1zm67-11 2 1zm29-5 2 1zm0-3 2 1zm-95-14 2 1zm72-2 2 1zm-72-3 2 1zM5 637l2 1zm43-57 2 1zm87-1 2 1zm-12-7 2 1zm-3-2 2 1zm-31-1 2 1zm17-6 2 1zm-69 0 2 1zm82-3 2 1zm-13 0 2 1zm28-25 2 1zm-73-12 2 1zm27-7 2 1zm-28-6 2 1zm-49-1 2 1zm117-2 2 1zm1-3 2 1zm-26-4 2 1zm-15-3 2 1zm17-4 2 1zm-40-5 2 1zm76-2 2 1zm-49-5 2 1zm-8-13 2 1zm-49-4 2 1zm0-3 2 1zm54-6 2 1zm-16-2 2 1zm30-7 2 1zm-69-3 2 1zm20-1 2 1zm74-23 2 1zm-84-16 2 1zm-7-8 2 1zm55-14 2 1zM4 366l2 1zm36-13 2 1zm81-8 2 1zm-6 0 2 1zm6-3 2 1zm10-7 2 1zM4 334l2 1zm132-2 2 1zm-115-1 2 1zm95-3 2 1zm-91-2 2 1zm4-2 2 1zm107-5 2 1zm-101 0 2 1zm-21-1 2 1zm89-3 2 1zm25-2 2 1zm-19-2 2 1zm-16-5 2 1zm39-8 2 1zM7 297l2 1zm95-8 2 1zm-24-2 2 1zm-9-2 2 1zm-13 0 2 1zm9-3 2 1zm-25-11 2 1zm40-1 2 1zm-2-1 2 1zm24-1 2 1zm-55-3 2 1zm2-1 2 1zm64-3 2 1zm-48 0 2 1zm-11-1 2 1zm4-1 2 1zm47-2 2 1zm-54 0 2 1zm59-2 2 1zm-15-3 2 1zm-7 0 2 1zm31-3 2 1zm-64-6 2 1zm-4 0 2 1zm-25-1 2 1zm41-1 2 1zm-6 0 2 1zm-15-2 2 1zm24-1 2 1zm24-1 2 1zm-66 0 2 1zm47-2 2 1zm-25 0 2 1zm33-2 2 1zm-14 0 2 1zm-16 0 2 1zm-18 0 2 1zm36-3 2 1zm-13-3 2 1zm-10-4 2 1zm23-1 2 1zm3-2 2 1zm4-1 2 1zm-1-6 2 1zm11-6 2 1zm10-1 2 1zm-14-3 2 1zm11-9 2 1zm76-1 2 1zm5-2 2 1zm-17 0 2 1zm-22 0 2 1zm-67-1 2 1zm16-2 2 1zm50-6 2 1zm-101 0 2 1zm162-5 2 1zm-101-2 2 1zm-9 0 2 1zm28-4 2 1zm-28-2 2 1zm-6 0 2 1zm-8 0 2 1zm-73-1 2 1zm86-1 2 1zm2-2 2 1zm-13 0 2 1zm-9-1 2 1zm48-1 2 1zm-39 0 2 1zm189-8 2 1zm-178-2 2 1zm28-2 2 1zm5-2 2 1zm-4 0 2 1zm26-3 2 1zm-107-1 2 1zm136-1 2 1zm143-1 2 1zm-143-2 2 1zm-10 0 2 1zm-8 0 2 1zm-118-4 2 1zm126-6 2 1zm-13-2 2 1zm-49-7 2 1zm126-1 2 1zm-58-5 2 1zm-30 0 2 1zm-40-2 2 1zm177-3 2 1zm-34 0 2 1zm-12 0 2 1zm-33-5 2 1zm-13 0 2 1zm-43 0 2 1zm76-9 2 1zm-84-15 2 1zm59-12 2 1zm179-2 2 1zm-55-12 2 1zm-34-2 2 1zM26 48l2 1zm316-21 2 1zm-48-15 2 1zm-1-7 2 1zm-22 0 2 1zm63-5 2 1z" fill="#86aecb"/></svg>