<?xml version="1.0" encoding="UTF-8"?>
<svg version="1.1" xmlns="http://www.w3.org/2000/svg" width="1024" height="1024">
<path d="M0 0 C337.92 0 675.84 0 1024 0 C1024 337.92 1024 675.84 1024 1024 C686.08 1024 348.16 1024 0 1024 C0 686.08 0 348.16 0 0 Z " fill="#197EDA" transform="translate(0,0)"/>
<path d="M0 0 C1.30170135 -0.0127597 2.60340271 -0.02551941 3.94454956 -0.03866577 C5.36293387 -0.04172348 6.78132018 -0.04395121 8.19970703 -0.04541016 C9.65935395 -0.05184012 11.11899957 -0.05856863 12.5786438 -0.06558228 C15.63676948 -0.07754845 18.69478225 -0.0812638 21.75292969 -0.08007812 C25.6625816 -0.07987501 29.57150603 -0.10717188 33.48098564 -0.14162254 C36.49568984 -0.16391239 39.51021956 -0.16791504 42.52499771 -0.16685867 C43.96584708 -0.1692117 45.40670147 -0.17801851 46.84746933 -0.19352341 C48.86696691 -0.21322107 50.8866787 -0.20481318 52.90625 -0.1953125 C54.05334442 -0.19816254 55.20043884 -0.20101257 56.3822937 -0.20394897 C60.35378983 0.40969859 62.49050077 1.75587835 65.58251953 4.29052734 C67.45091709 7.2738025 67.83085757 9.53176284 67.82302856 13.02349854 C67.82715256 14.4453244 67.82715256 14.4453244 67.83135986 15.89587402 C67.82416931 16.92877563 67.81697876 17.96167725 67.80957031 19.02587891 C67.80986237 20.11886292 67.81015442 21.21184692 67.81045532 22.33795166 C67.80906143 25.9524325 67.79349719 29.56670749 67.77783203 33.18115234 C67.77410212 35.68650195 67.77125504 38.19185301 67.76925659 40.69720459 C67.76239925 46.61865447 67.74663456 52.54003824 67.72655761 58.46145415 C67.70199959 65.86540289 67.6912656 73.2693608 67.68017578 80.67333984 C67.65872268 93.87910657 67.62496864 107.08481228 67.58251953 120.29052734 C68.20482232 120.28868376 68.82712511 120.28684017 69.46828556 120.28494072 C84.62561721 120.24072984 99.78292901 120.20765529 114.94030857 120.186903 C122.27036928 120.17660004 129.60038688 120.16255849 136.93041992 120.13964844 C143.32090676 120.1196845 149.71136238 120.10680378 156.10187954 120.10235035 C159.48412787 120.09974805 162.8662869 120.09365204 166.24850655 120.07906723 C170.02859924 120.0645489 173.80850695 120.06254958 177.58862305 120.06347656 C178.70424622 120.05628601 179.81986938 120.04909546 180.96929932 120.04168701 C193.86782987 120.07591209 193.86782987 120.07591209 198.95751953 124.22802734 C202.79667239 131.46335388 201.74099613 141.28548933 201.75048828 149.32958984 C201.75381668 150.33589447 201.75714508 151.3421991 201.76057434 152.3789978 C201.76559741 154.48817493 201.76798411 156.59735987 201.76782227 158.70654297 C201.77001873 161.91435832 201.7882511 165.12183463 201.80712891 168.32958984 C201.81006192 170.39208868 201.81204733 172.45458913 201.81298828 174.51708984 C201.8201738 175.4641983 201.82735931 176.41130676 201.83476257 177.38711548 C201.79455634 189.21116956 201.79455634 189.21116956 199.58251953 194.29052734 C196.48945187 197.16326972 194.41582031 197.66356646 190.24212646 197.65129089 C189.16186062 197.65542338 188.08159477 197.65955587 186.9685936 197.66381359 C185.78383564 197.65301927 184.59907768 197.64222494 183.37841797 197.63110352 C182.10917606 197.63146512 180.83993416 197.63182673 179.53223038 197.63219929 C176.10132364 197.6328761 172.67073129 197.61549885 169.23989868 197.59436798 C166.01964179 197.57727316 162.79939844 197.57647808 159.57910156 197.57434082 C150.16353264 197.55860378 140.74802211 197.51672025 131.33251953 197.47802734 C110.29501953 197.41615234 89.25751953 197.35427734 67.58251953 197.29052734 C68.07751953 310.64552734 68.07751953 310.64552734 68.58251953 426.29052734 C73.53251953 422.82552734 73.53251953 422.82552734 78.58251953 419.29052734 C81.15412349 417.71478963 83.70058975 416.18934369 86.33251953 414.72802734 C87.0137085 414.3487207 87.69489746 413.96941406 88.39672852 413.57861328 C94.94313676 409.99582794 101.61382916 406.97744065 108.58251953 404.29052734 C109.71560547 403.84966797 110.84869141 403.40880859 112.01611328 402.95458984 C124.01462522 398.6177783 137.74990553 395.03581034 150.58251953 395.29052734 C151.04658203 397.14677734 151.04658203 397.14677734 151.52001953 399.04052734 C156.66912195 414.34413871 172.27286223 427.40473733 184.05761719 437.92724609 C206.03967014 457.57946891 206.03967014 457.57946891 214.58251953 469.29052734 C218.41781351 468.69844279 220.5247163 466.95174436 223.45751953 464.47802734 C224.42431641 463.66462891 225.39111328 462.85123047 226.38720703 462.01318359 C226.90379883 461.57248535 227.42039062 461.13178711 227.95263672 460.67773438 C229.63578516 459.24519251 231.33097356 457.82788545 233.02783203 456.41162109 C250.82179139 441.47743302 250.82179139 441.47743302 263.58251953 422.29052734 C265.27015071 424.82197411 266.23210476 426.7472044 267.26806641 429.55102539 C267.59093124 430.41884644 267.91379608 431.28666748 268.2464447 432.18078613 C268.5945369 433.12836792 268.94262909 434.07594971 269.30126953 435.05224609 C269.6709938 436.04889282 270.04071808 437.04553955 270.42164612 438.0723877 C271.22379716 440.23597688 272.02418563 442.40022017 272.82302856 444.56503296 C274.53371302 449.2006807 276.25285296 453.83317804 277.97145081 458.46589661 C278.86108223 460.86432326 279.75026733 463.2629155 280.63902283 465.66166687 C284.58178255 476.30114035 288.55754036 486.92802891 292.54623413 497.550354 C293.64477684 500.4773807 294.74144436 503.40510383 295.83764648 506.33300781 C299.34934766 515.70789367 302.87647782 525.0764593 306.44075012 534.4315033 C308.14513836 538.90751651 309.84275449 543.38608373 311.5397644 547.86489868 C312.35514083 550.01103384 313.17388923 552.15589114 313.99612427 554.29940796 C315.13090398 557.25820371 316.25438536 560.22105906 317.37548828 563.18505859 C317.71718048 564.06698883 318.05887268 564.94891907 318.41091919 565.85757446 C318.71399994 566.66536346 319.01708069 567.47315247 319.3293457 568.30541992 C319.59704269 569.0066951 319.86473969 569.70797028 320.14054871 570.43049622 C320.58251953 572.29052734 320.58251953 572.29052734 319.58251953 575.29052734 C317.92542969 574.654375 317.92542969 574.654375 316.23486328 574.00537109 C288.32399258 563.42342579 260.27771185 556.47939284 230.58251953 553.29052734 C229.34759766 553.15775391 228.11267578 553.02498047 226.84033203 552.88818359 C165.48044922 547.51735452 98.1184615 563.83287076 50.01220703 603.35302734 C38.97234055 612.61271092 38.97234055 612.61271092 29.27783203 623.20458984 C28.43865234 624.23712891 28.43865234 624.23712891 27.58251953 625.29052734 C26.92251953 625.29052734 26.26251953 625.29052734 25.58251953 625.29052734 C24.24267578 623.89208984 24.24267578 623.89208984 22.64501953 621.91552734 C8.8888277 605.85257124 -9.22747327 593.75664763 -27.41748047 583.29052734 C-28.03768066 582.92620605 -28.65788086 582.56188477 -29.296875 582.18652344 C-87.72104599 548.04835278 -162.62008537 545.34275617 -226.76513672 561.63037109 C-240.04435886 565.15000119 -252.72389191 570.07226507 -265.41748047 575.29052734 C-264.84071902 571.36940936 -264.02392786 567.77913404 -262.70605469 564.04345703 C-262.35353134 563.03661362 -262.001008 562.0297702 -261.63780212 560.99241638 C-261.25314285 559.91001175 -260.86848358 558.82760712 -260.47216797 557.71240234 C-260.07063004 556.57041885 -259.6690921 555.42843536 -259.25538635 554.25184631 C-258.16591869 551.15690091 -257.07202468 548.06356622 -255.97596359 544.97095108 C-255.05746175 542.37674253 -254.14270361 539.78122088 -253.2280035 537.1856699 C-247.23396812 520.17734428 -241.19311312 503.18559602 -235.09960938 486.21264648 C-231.4782732 476.1165392 -227.91019697 466.00290373 -224.37451172 455.87646484 C-223.50221626 453.38191067 -222.62990184 450.88736314 -221.75756836 448.39282227 C-220.05665744 443.52789111 -218.36303568 438.66049934 -216.6730957 433.79174805 C-215.89544727 431.56598813 -215.11754622 429.34031646 -214.33935547 427.11474609 C-213.81067619 425.58187454 -213.81067619 425.58187454 -213.27131653 424.01803589 C-210.25336499 415.4199946 -208.14766065 411.10043539 -199.71313477 407.03344727 C-159.48720216 388.37337583 -111.52478217 386.04681256 -69.41748047 399.29052734 C-68.28246094 399.6455835 -68.28246094 399.6455835 -67.12451172 400.0078125 C-57.1376935 403.21876955 -47.79152919 407.40646199 -38.47998047 412.22802734 C-37.55733398 412.70570557 -36.6346875 413.18338379 -35.68408203 413.67553711 C-28.53772206 417.48186166 -22.23459596 421.74578368 -15.41748047 426.29052734 C-15.08748047 350.72052734 -14.75748047 275.15052734 -14.41748047 197.29052734 C-56.31736337 197.44889596 -56.31736337 197.44889596 -98.21704102 197.65087891 C-106.31945801 197.66894531 -106.31945801 197.66894531 -110.11213684 197.67230225 C-112.76222034 197.67844663 -115.41154284 197.69102317 -118.06147766 197.71282959 C-122.07441475 197.74541432 -126.08678454 197.74615318 -130.09985352 197.74462891 C-131.28101336 197.75902134 -132.46217321 197.77341377 -133.67912579 197.78824234 C-141.62080137 197.74778674 -141.62080137 197.74778674 -145.62483215 195.449646 C-148.57693678 191.89404387 -148.54992522 188.89135867 -148.57861328 184.4296875 C-148.58822083 183.22478668 -148.59782837 182.01988586 -148.60772705 180.7784729 C-148.61197693 179.47534149 -148.61622681 178.17221008 -148.62060547 176.82958984 C-148.62635978 175.47822061 -148.63211748 174.12685139 -148.63787842 172.77548218 C-148.6483781 169.94260275 -148.65422755 167.10975161 -148.65771484 164.27685547 C-148.6631982 160.65306732 -148.68722669 157.02965516 -148.7156868 153.40598488 C-148.73434236 150.61437905 -148.73952031 147.8228633 -148.74105072 145.03120041 C-148.74553652 143.04758096 -148.76416802 141.06400979 -148.78302002 139.08047485 C-148.78001892 137.86926971 -148.77701782 136.65806458 -148.77392578 135.41015625 C-148.77939423 133.81489609 -148.77939423 133.81489609 -148.78497314 132.18740845 C-148.25701909 128.02563813 -146.74055812 125.47118894 -143.62275791 122.68898869 C-141.05537143 121.06089842 -139.42283361 120.80821848 -136.40531921 120.61012268 C-135.43127829 120.54583635 -134.45723736 120.48155003 -133.45368004 120.41531563 C-128.50386008 120.21187724 -123.56568995 120.15980762 -118.61206055 120.17700195 C-117.48879364 120.17685593 -116.36552673 120.1767099 -115.20822144 120.17655945 C-111.53446449 120.17725024 -107.86075969 120.18500323 -104.18701172 120.19287109 C-101.62440519 120.19473824 -99.0617983 120.19616074 -96.49919128 120.19715881 C-90.46820812 120.20057308 -84.43724697 120.20843619 -78.40627259 120.2185083 C-71.53311578 120.22973465 -64.65995802 120.23519624 -57.7867943 120.24020374 C-43.66367956 120.25062084 -29.54058102 120.26817937 -15.41748047 120.29052734 C-15.41601391 119.71884008 -15.41454735 119.14715282 -15.41303635 118.55814171 C-15.37595547 104.63609387 -15.31667198 90.71429227 -15.23357773 76.79244041 C-15.19379885 70.05986516 -15.16140063 63.3274066 -15.14648438 56.59472656 C-15.13206941 50.09772228 -15.09694493 43.60102138 -15.04917145 37.10417557 C-15.03433043 34.62509936 -15.0264379 32.14597153 -15.02559662 29.66685104 C-15.02323352 26.19515135 -14.99620458 22.72445642 -14.96337891 19.25292969 C-14.97092445 17.7143631 -14.97092445 17.7143631 -14.97862244 16.14471436 C-14.89450871 10.39739953 -14.45374871 6.7347583 -10.41748047 2.29052734 C-7.13410311 -0.11901695 -3.99326215 0.02657611 0 0 Z " fill="#F9FAFB" transform="translate(485.41748046875,171.70947265625)"/>
<path d="M0 0 C0.85682373 0.58515381 0.85682373 0.58515381 1.73095703 1.18212891 C9.00634842 6.15728639 15.84189097 11.45685242 22.50561523 17.22363281 C29.97090158 23.63536454 36.11220892 27.42308278 46.09765625 27.265625 C54.25232095 26.51930306 59.13307212 22.17181185 64.90625 16.74609375 C108.42829102 -22.90895511 170.20685599 -41.83839444 228.359375 -39.78515625 C259.87818303 -38.30827042 320.18855486 -33.65386606 343.68774414 -9.24707031 C347.37809665 -4.22174213 348.60792362 -0.18055683 348 6 C346.17197319 10.29428712 343.99690612 13.29108898 340.1875 16 C331.24236355 18.80631732 325.02556919 15.66206021 316.875 11.9375 C297.45036064 3.42300121 277.9196485 -2.43635831 257 -6 C255.90848633 -6.18691406 254.81697266 -6.37382813 253.69238281 -6.56640625 C242.67487372 -8.24984557 231.7509319 -8.39845094 220.625 -8.375 C219.65367126 -8.37445618 218.68234253 -8.37391235 217.68157959 -8.37335205 C202.43270971 -8.33414381 187.89299699 -7.53493462 173 -4 C172.0615625 -3.78569336 171.123125 -3.57138672 170.15625 -3.35058594 C137.3551885 4.30373786 107.97688363 20.67027234 82.23046875 42.12890625 C67.69049023 54.18321362 54.04204974 59.66779503 35 58 C22.81321359 55.76342606 14.2629267 49.26155722 5.0625 41.375 C-8.19871289 30.25922233 -22.67964237 21.01531272 -38 13 C-39.15113281 12.39671875 -40.30226563 11.7934375 -41.48828125 11.171875 C-58.18602216 2.9251598 -76.63204968 -2.93563127 -95 -6 C-96.02818848 -6.17515137 -97.05637695 -6.35030273 -98.11572266 -6.53076172 C-109.16369917 -8.21829158 -120.09320712 -8.3985999 -131.25 -8.375 C-132.70315613 -8.37418427 -132.70315613 -8.37418427 -134.18566895 -8.37335205 C-150.11371132 -8.33234943 -165.38230567 -7.36144969 -181 -4 C-182.01852051 -3.78569336 -183.03704102 -3.57138672 -184.08642578 -3.35058594 C-203.04676215 0.74620635 -221.50496312 6.72391508 -238.7109375 15.75 C-243.29898177 17.49367478 -247.35492384 17.72311435 -252.171875 16.40625 C-256.96037937 13.65641581 -259.52973308 10.35936005 -261 5 C-261.48632199 0.8408582 -260.98843403 -2.49960505 -258.66040039 -6.03344727 C-254.35485665 -11.06021474 -250.34073021 -13.91948561 -244.25 -16.4375 C-243.39220947 -16.80528564 -242.53441895 -17.17307129 -241.65063477 -17.55200195 C-164.10931004 -49.9381607 -70.6374343 -49.06090891 0 0 Z " fill="#F8FAFB" transform="translate(468,792)"/>
<path d="M0 0 C0.66 0 1.32 0 2 0 C3.95361085 2.29191164 5.77077892 4.58524044 7.5625 7 C8.0989917 7.7226001 8.6354834 8.4452002 9.18823242 9.18969727 C33.78238973 42.95952201 45.28198275 88.61250505 38.8125 130 C33.90728641 158.26492415 19.63459498 184.55473608 -4.0703125 201.47802734 C-6.36242152 203.05582146 -8.67327281 204.59875458 -11 206.125 C-11.75474609 206.62314209 -12.50949219 207.12128418 -13.28710938 207.63452148 C-14.35155273 208.31430054 -14.35155273 208.31430054 -15.4375 209.0078125 C-16.07558594 209.41660645 -16.71367188 209.82540039 -17.37109375 210.24658203 C-18.17740234 210.61952393 -18.17740234 210.61952393 -19 211 C-19.66 210.67 -20.32 210.34 -21 210 C-19.87464844 208.45505859 -19.87464844 208.45505859 -18.7265625 206.87890625 C-1.95112673 183.62869253 12.29889608 159.65632557 12.0625 130.125 C12.05798828 129.05507813 12.05347656 127.98515625 12.04882812 126.8828125 C12.03709749 124.25515014 12.02068228 121.62760462 12 119 C11.52691406 119.60585938 11.05382812 120.21171875 10.56640625 120.8359375 C9.57447266 122.09277344 9.57447266 122.09277344 8.5625 123.375 C7.92441406 124.18710937 7.28632812 124.99921875 6.62890625 125.8359375 C0.60919544 133.20917798 -5.95013788 140.03524559 -12.7512207 146.68481445 C-28.39763826 161.98994871 -42.64350148 177.8419472 -47 200 C-47.226875 201.134375 -47.45375 202.26875 -47.6875 203.4375 C-48.6017269 213.85968666 -47.57453712 223.70927525 -46 234 C-48 234 -48 234 -49.4453125 232.56640625 C-49.99960937 231.90511719 -50.55390625 231.24382812 -51.125 230.5625 C-52.98825204 228.35036743 -54.83387622 226.17067992 -56.8515625 224.09765625 C-72.57532166 207.75918223 -82.45147671 185.26777081 -82.36669922 162.59228516 C-81.70398926 138.81299932 -67.63460154 119.71522841 -52 103 C-50.78120642 101.68884259 -49.56246017 100.37764119 -48.34375 99.06640625 C-37.90426587 87.86745286 -37.90426587 87.86745286 -33.44140625 83.515625 C-12.18915571 62.37369058 -0.04977746 34.9568562 0.125 5 C0.09396731 3.33310142 0.05680294 1.66621947 0 0 Z " fill="#F8FAFB" transform="translate(724,355)"/>
</svg>
