<?xml version="1.0" encoding="UTF-8" standalone="no"?>
<!-- Created with Inkscape (http://www.inkscape.org/) -->

<svg
   width="140.50542mm"
   height="194.18437mm"
   viewBox="0 0 140.50542 194.18437"
   version="1.1"
   id="svg1"
   xmlns:inkscape="http://www.inkscape.org/namespaces/inkscape"
   xmlns:sodipodi="http://sodipodi.sourceforge.net/DTD/sodipodi-0.dtd"
   xmlns="http://www.w3.org/2000/svg"
   xmlns:svg="http://www.w3.org/2000/svg">
  <sodipodi:namedview
     id="namedview1"
     pagecolor="#ffffff"
     bordercolor="#000000"
     borderopacity="0.25"
     inkscape:showpageshadow="2"
     inkscape:pageopacity="0.0"
     inkscape:pagecheckerboard="0"
     inkscape:deskcolor="#d1d1d1"
     inkscape:document-units="mm"
     showgrid="false" />
  <defs
     id="defs1" />
  <g
     inkscape:label="Layer 1"
     inkscape:groupmode="layer"
     id="layer1"
     transform="translate(-35.33944,-57.941107)">
    <rect
       style="opacity:0.98;fill:none;fill-opacity:1;stroke:#bce2e0;stroke-width:0;stroke-dasharray:none;stroke-opacity:1;paint-order:markers fill stroke"
       id="rect1"
       width="104.17955"
       height="150.79547"
       x="58.976215"
       y="73.455406"
       rx="18.150415"
       inkscape:export-filename="scroll.svg"
       inkscape:export-xdpi="96"
       inkscape:export-ydpi="96" />
    <rect
       style="opacity:1;fill:none;fill-opacity:1;stroke:#bce2e0;stroke-width:18.3152;stroke-dasharray:none;stroke-opacity:1;paint-order:markers fill stroke"
       id="rect3"
       width="122.19025"
       height="175.8692"
       x="44.497025"
       y="67.098686"
       rx="12.15" />
    <path
       style="opacity:1;fill:none;fill-opacity:1;stroke:#bce2e0;stroke-width:15.5628;stroke-dasharray:none;stroke-opacity:1;paint-order:markers fill stroke"
       id="path3"
       d="m 75.821412,100.78468 c 2.741992,-1.066902 5.676015,-1.152162 8.526005,-1.349592 2.229814,-0.11735 4.465037,-0.252539 6.694104,-0.0315 1.185079,0.11754 2.186751,0.31502 3.356795,0.5211 1.152684,0.155672 2.28292,0.555282 3.441155,0.661452 1.285922,0.11788 2.582199,-0.0253 3.862099,-0.15533 2.96474,-0.35465 5.93679,-0.601682 8.91263,-0.752222 1.77757,-0.0855 3.55663,-0.0918 5.33525,-0.0867 1.78734,0.21234 3.57108,0.1505 5.35885,0.007 1.50203,-0.0849 2.99531,-0.24527 4.48789,-0.46172 0.85647,-0.230118 1.70549,-0.414637 2.58239,-0.356931 0.72885,0.08397 1.45934,0.124033 2.1909,0.141845 0.64627,0.01564 1.29266,0.02277 1.93904,0.02723 0,0 -2.43385,-2.191723 -2.43385,-2.191723 v 0 c -0.64161,-0.0012 -1.28328,-0.0038 -1.9247,-0.02518 -0.73333,-0.03175 -1.46475,-0.09666 -2.19724,-0.147894 -0.87785,-0.0037 -1.72996,0.221198 -2.59037,0.418052 -1.47044,0.231223 -2.94424,0.397026 -4.42519,0.490632 -1.79871,0.134284 -3.58744,0.12001 -5.3846,-0.05686 -1.76545,0.01659 -3.53123,0.0441 -5.29512,0.142999 -2.96378,0.203807 -5.92214,0.501344 -8.881107,0.790945 -1.292321,0.101254 -2.580245,0.196556 -3.874143,0.05287 -0.371075,-0.04121 -1.715674,-0.304683 -2.065693,-0.368912 -0.437767,-0.08033 -0.875927,-0.157354 -1.313889,-0.236031 -1.163059,-0.186849 -2.172192,-0.3672 -3.348771,-0.476376 -2.234907,-0.207379 -4.474555,-0.103854 -6.708426,0.0648 -2.921252,0.217733 -5.900056,0.324549 -8.737476,1.282759 z" />
    <path
       style="opacity:1;fill:none;fill-opacity:1;stroke:#bce2e0;stroke-width:13.7705;stroke-dasharray:none;stroke-opacity:1;paint-order:markers fill stroke"
       id="path5"
       d="m 80.011825,133.55082 c 0.212505,-0.0471 0.423585,-0.10379 0.63751,-0.1414 0.995102,-0.17512 1.507465,-0.19994 2.575499,-0.30415 2.343416,-0.22865 4.67989,-0.40787 7.029534,-0.52759 3.238089,-0.10325 6.476527,0.0105 9.713369,0.10991 1.600193,-0.0578 3.158843,0.36325 4.734483,0.59904 2.10917,0.35067 4.23296,0.11199 6.34767,-0.0114 2.70695,-0.0823 5.41509,-0.023 8.12224,0.0129 1.61966,-0.0209 3.23278,0.0616 4.84741,0.19118 0.77945,0.10894 1.57141,0.0462 2.3516,0.12412 0.12701,0.0126 1.01145,0.17858 1.12809,0.2001 1.03384,0.24718 2.07075,0.47769 3.11987,0.61916 0.11687,0.012 0.23378,0.024 0.35065,0.036 0,0 -2.21521,-1.88879 -2.21521,-1.88879 v 0 c -0.11384,-0.0129 -0.22768,-0.0256 -0.34153,-0.0386 -1.03948,-0.14703 -2.0663,-0.37937 -3.09377,-0.61031 -1.15722,-0.20008 -2.32079,-0.21502 -3.48765,-0.2973 -1.59977,-0.12083 -3.19935,-0.15177 -4.80273,-0.13095 -2.70098,-0.0176 -5.40256,-0.0468 -8.10315,0.0233 -2.1267,0.0982 -4.26436,0.28989 -6.38056,-0.0852 -1.56991,-0.26048 -3.130755,-0.63303 -4.727824,-0.54912 -3.189967,-0.054 -6.38135,-0.0949 -9.570572,0.033 -3.500382,0.18403 -7.0166,0.33262 -10.495952,0.81604 z" />
    <path
       style="opacity:1;fill:none;fill-opacity:1;stroke:#bce2e0;stroke-width:16.754;stroke-dasharray:none;stroke-opacity:1;paint-order:markers fill stroke"
       id="path7"
       d="m 79.016491,174.46006 c 0.711837,-0.0338 0.958127,-0.0563 1.79491,-0.017 3.229589,0.15178 6.459274,0.46011 9.687655,0.67969 4.522042,0.35576 9.048327,0.42354 13.573994,0.47897 3.69035,0.0339 7.38076,0.0403 11.07114,0.057 2.50228,0.0166 5.00457,0.0225 7.50688,0.024 2.26129,0.0479 4.47664,-0.60615 6.6757,-1.45961 1.49208,-0.64919 2.99042,-1.18859 4.52274,-1.40768 1.15646,-0.0612 2.30878,-0.15977 3.46231,-0.31879 0.58015,0.0194 1.1028,-0.43583 1.64246,-0.74243 0,0 -2.2518,-2.69233 -2.2518,-2.69233 v 0 c -0.51498,0.31741 -1.02196,0.68804 -1.5791,0.67936 -1.14865,0.17338 -2.29844,0.23141 -3.44928,0.33933 -1.52282,0.26056 -3.00403,0.85727 -4.48527,1.52598 -2.203,0.84294 -4.38194,1.41387 -6.64409,1.3782 -2.48683,0.003 -4.97363,0.013 -7.46042,0.0356 -3.66947,0.0237 -7.33897,0.0405 -11.00844,0.0199 -4.504484,-0.0369 -9.00902,-0.13688 -13.511062,-0.41521 -3.921041,-0.26256 -7.836436,-0.68721 -11.755687,-0.99254 z" />
    <path
       style="opacity:1;fill:none;fill-opacity:1;stroke:#bce2e0;stroke-width:14.1628;stroke-dasharray:none;stroke-opacity:1;paint-order:markers fill stroke"
       id="path8"
       d="m 83.74135,212.25321 c 2.106242,0.60129 4.21338,1.15699 6.338077,1.55829 2.673516,0.50878 5.363104,0.62816 8.049193,0.80675 2.04799,0.10594 4.09024,0.39395 6.13554,0.58537 2.53633,0.25477 5.04231,0.97975 7.55995,1.51476 1.99754,0.52246 3.97851,1.18086 5.99384,1.48554 2.25355,0.33524 4.50565,-0.0889 6.75108,-0.37459 1.92173,-0.31724 3.85222,-0.101 5.77763,-0.16222 0.6514,-0.0904 1.31651,-0.17 1.95164,-0.44796 0.58226,-0.25482 1.14778,-0.67253 1.70836,-1.03266 0.61274,-0.45521 1.22312,-0.91853 1.84157,-1.35185 0.25238,-0.17368 0.51745,-0.27586 0.78315,-0.37294 0,0 -1.94679,-2.23071 -1.94679,-2.23071 v 0 c -0.2726,0.11819 -0.54433,0.24202 -0.80369,0.42832 -0.60976,0.43283 -1.20581,0.91931 -1.80962,1.3746 -1.20897,0.8023 -2.27268,1.36705 -3.59762,1.38634 -1.9104,0.0693 -3.82513,-0.0419 -5.73155,0.24275 -2.24614,0.2771 -4.50033,0.69715 -6.75217,0.2935 -1.99585,-0.33984 -3.96394,-0.96945 -5.94897,-1.44414 -2.54341,-0.53285 -5.07359,-1.25699 -7.63229,-1.56887 -2.03014,-0.16215 -4.05788,-0.39985 -6.089095,-0.52289 -2.66842,-0.17241 -5.341743,-0.25995 -7.997093,-0.7786 -2.177155,-0.44104 -4.331691,-1.05752 -6.484776,-1.74278 z" />
  </g>
</svg>
