<?xml version="1.0" encoding="UTF-8" standalone="no"?>
<svg
   width="733.33337"
   height="666.66663"
   fill="none"
   viewBox="0 0 22.000001 19.999999"
   version="1.1"
   id="svg2"
   sodipodi:docname="study.svg"
   xmlns:inkscape="http://www.inkscape.org/namespaces/inkscape"
   xmlns:sodipodi="http://sodipodi.sourceforge.net/DTD/sodipodi-0.dtd"
   xmlns="http://www.w3.org/2000/svg"
   xmlns:svg="http://www.w3.org/2000/svg">
  <defs
     id="defs2" />
  <sodipodi:namedview
     id="namedview2"
     pagecolor="#ffffff"
     bordercolor="#000000"
     borderopacity="0.25"
     inkscape:showpageshadow="2"
     inkscape:pageopacity="0.0"
     inkscape:pagecheckerboard="0"
     inkscape:deskcolor="#d1d1d1" />
  <path
     fill="#0F0F0F"
     fill-rule="evenodd"
     d="m 22,2.0000001 -2,-1 L 16,1.1920929e-7 12,1.0000001 h -1 v 1 -1 H 10 L 6.0000001,1.1920929e-7 2.0000001,1.0000001 5.9604645e-8,2.0000001 V 16 H 2.0000001 l 1,-1 h 3 l 3,1 L 11,17 l 2,-1 3,-1 a 12,12 0 0 1 4,1 h 2 z m -19.9999999,1 V 13 h 4 L 10,14 V 3.0000001 H 9.0000001 l -3,-1 z M 16,13 12,14 V 3.0000001 h 1 l 3,-1 4,1 V 13 Z"
     clip-rule="evenodd"
     id="path1"
     style="fill:#f8c6bb;fill-opacity:1" />
  <path
     fill="#0F0F0F"
     d="m 1.0000001,18 1,-1 a 14,14 0 0 1 4,-1 l 3,1 A 82,82 0 0 0 11,18 l 2,-1 3,-1 3,1 h 1 l 1,1 -1,1 a 13,13 0 0 0 -4,-1 l -2,1 -3,1 -2.9999999,-1 -2,-1 h -2 l -2,1 z"
     id="path2"
     style="fill:#f8c6bb;fill-opacity:1" />
</svg>
