<svg xmlns="http://www.w3.org/2000/svg" viewBox="0 0 520.2 498.1" preserveAspectRatio="none"><path fill="#8485b5" d="M183 498c1-1 0 1 0 0zm-16-1c10-11 9-3 0 0zm154-5c1-1 1 1 0 0zm-99-2c0-1 0 0 0 0zm13-2c-5-16 0-39-11-52-7-12-3 12-5-2h-7c2-11-9 8-7-1 1-5-5-6-4-3 2 1-5 2-4 4-2-2 10 1 2 3 3 12-10 5-12 3 4-3-6 14 0 5 11-6-2 13-7 15 2-5 0-10-4-4 3-10-23-13-18-3 2 4 7 18-2 3-3-10-14-8-15 3-2 6-9 5-10 11-1-12-12-4-15 5-6 6 3-23 5-30-7 5-7 3-17 5H90c-1 7-5-4-14-2-5 3-2-1-4-3-5-3 2 8-4 4 1 2-5 7-6 0 1-2-7-2-3 1 3 3-15 4-6-2 11-6-8-3-2-4-1 10-6-5-3-5-3-6-12 4-11-2-9 0 7 0 2-6-7 1-1-3-5-5 0-5-5-4-4-10-6 0-1-7 3-5-2-5-10-1-2-5 1-3-7-7-7 0-6-10 3-6 4-6 4-4 2-4 5-6-1-5 1-5 3-7-6 0-2-6-4-8 0-2 7-1 8-7-5-1-4-2-1-3-8-3 2-12 1-5 4 4 0 8 8 8-3-7 3-1 1-10 4-11-1-8 0-16-3-9-10 6-5 6-4 8-4-1-6-4 5-3-4 1-7 5-7 1-7 0-11-1-5 1 2-10-6-4-3 0 1-7-1-11 4-2 17-11 10-4 3 2-4 11 2 6 12-9-11 18 2 11 11 5 4-16 13-10 2-3 2 9 5-2-4 1-1-3-6-2 8-5-3-4 6-8 4-7-18-4-3-7 4-2 16-5 10-8-9-2 14 2-2-4 16-4 6 11 12 9 4-3-3-6 6-6-4 2-7-3-4-4l-8-1c4-2 3-5-8-4 12-1 6-2 13-4-5-1-16-4-5-4 0-1 11-3-1-3 10-1-3-2 13-3-20 0 15-4-3-3 7-1 3-4 7-7-3 2 6-9-4-1-3-5 6-7 3-11-6 4-6 7-13 10-5-4-9 20-7 7-4-4 6-13 1-10-10 9-4 2-2-4 0-4-20 4-10-6 1-7-18-3-4-9 0-11 21 0 8-6-3-2 16-1-4-3 2-4 27 1 5-3-11-2 4-2 3-2-7-2 22-5 2-5-10-1 26-2-1-2-13 5-10-13-16-11-3 1 12-13 2-22 0-14 15-20 17-23 2-9-5-11-12-24-5-10 0-6-4-11 7-5-3-9-11 1-20 12-3-3 8-7 6-9 9-19 25-16-5-9-32-30-8-12 10 7 7-4 5-11-14-2-30-9-8-4 17 7 2-16-1-23-6-12-4-6-4 0-9-4 1-8-2-17 2-12-3-2-10 0-11 3-4-1 3-5 3-8 4-9 9-9 2 6 0 11 10 16-2 0-5-9 4-7 6 2 11-7 6-12 0-10 6 16 14 12-9-11-1 1 8 0-5 3 1 1 9 3 14-7 6-35 13-49 3 12-13 40 1 46 7-9 11-20 4-2 7 10 16-33 10-4 4 15 18-9 18-18 12 7-22 24 2 24 12 2 16 4 12-9 11 12 13-14 18-6 9 2 5 19 11 13 5-8 7 2 10-8 0-15 1 21 8-1-9 4 4-6 5 1 8-4 39-21 34-16-11 7-30 10-25 19-12 13 0-13-14 1-5 3-20 17-16 14 17-4 37-11 55-14 5-5 14-12 16 0-7 9 13-5 16 0 2 9-21 8 0 9 25 2 4 0 4-11-6-9-1-11 6-6 0-6 14 0 6 7 3 3 11-3 15 8 10 5 0-10-3-13 3 0 13 2 18 1 2 0 12 12 18 7 6-1 17-1 16-9 14-5 4 12 8 8-15 7 9 1-4 7 7 2 14-8 15 1 9 0 23 1 19-7-14-2 13-22 2-2 4 2 2 5 11 2-12 10 5 3 9 4 17-5 27-11 38-6 10 3 40 4 37 4-18 4 22-3-2 3 13 3-25 6-1 8 14 1 28-5 21 1-8 5 31-1 8 4-15 11-24 1-39 4-15 0 14 4-6 2-7-1 1 1-3 2 12 2-13 3 8 6 3 0-3 5 0 5 8 2-11 0 2 5 0 1-4 1-4 3-12 1-2 3 0 3 11-1 11 3 11 7 16 1-14 5-1 4 7 0-14 8-8 8-10 3 1 2-3 5 2 4 10-2 7 5 7 1-4 5-6 8 3 3 3-2 5 0-12 3-1 8 8 6 9-5-10 4 1 7 15 9-8 1-10 3 8 1 10 5 12 9-3 8-15 1-19 11-6 9 10 2 7 8 11 1-8 2 0 3-10-1-9 3-14 5 2 5 14 13-1 10-7 1-5 5 2 5 16 0-6 5 13 3l10 4c10 0-7 3 9 4-10 1-11-1-17 6-11 15 14-2 19-1-11 7-24 6-16 18-1 5 0 10-8 19-7 7-9 9-6 10-11 2 2 4 1 8-2 4 3 7-9 6-10 5 1 3 2 3-9-1-22 6-7 4 11-2 25-2 40-5 12-3 38-4 11 0-15 3-42 3-50 11 7-4 9 4 12 1 3-1 9-3 8 3 4 1-5 4 4 2 1 4 13 1-1 7-6 3 0 2-7 6 2-1 1 3 3 3 12 4-2 3 9 6-13 1-3 3-11 7 6 2 3-2 6 0-5 5-14 1-9 5-6 1 23 4-2 3-9-2-19 7-6 4-10 4 11 1 14 5 5 1 7 2 3 4 16 1 14 3 0 1 0 3-9 2-12 7-1 4-15 1-9 5 12-1 3 6 18 3 0 4 7 2 10 5 5-2-8 4 6 3-6 1-14 3-16 6-10 2-6 4-7 9-5 4-5 7-6 11 7 1 11-3 11-10 2-5 6-1 10 1-1 8 0 11-3 16 12 3-4 2-2 6 12 4 20-6 23-6 12-2-4 5-4 6-12 8-16 4-15 10 7 2-8 6-15 5-19-5-9 10-15 10-3-10-3-5-10-4-14 3 18 3 4 4 14-2 1 6 9 7-1 10-11 0-15 4 2 6-3 3-10 6-5-6 1 4-4 1 1 11-3 0-2-1-11-3-1 4-10 1l-25-1c-14-7-7 7-10 10-5 5-1-14-7-6-5 5-19 8-10 2 12 5 10-22-1-6-4 15-9 2-9 3-6 5 2-10-7-6-6 0-12 3-21 2-11-1-4 2-1 2-4 2 10 2-5 3 0 6 7 14-4 0-11-10-11 10-18 9-6 12-4 2-11 0-7 9-17 23-9 3 5-11 2-23-10-20-13 1-19-7-2-3 4-4-13 0-10-4-4-3-28-9-19 2 8 2-5 12 1 24-2 7 6 23 1 25zm-53-31c0-1 0 1 0 0zm178-1c-1-1-1 1 0 0zm-64-1c5-10-8-1 0 0zm58-1s1 1 0 0zm-169-1c0-5-4 4 0 0zm104 0c5-9-15-4-3 0l2 1 1-1zm-4-1c-3-5 5 0 0 0zm4 0c1-1 0 1 0 0zm-7-2c1 0 0 1 0 0zm6 0c0-1 0 1 0 0zm-108 3c0-1 0 1 0 0zm175-2c-6 0-1 4 0 0zm-173 1c-1-1-1 2 0 0zm-1-2c6-5-7-1 0 0zm176 0c0-5-4 3 0 0zm-269 0c-1 0 0 1 0 0zm230 0c-5 0-4 1 0 0zm-253-1c0-9-5 2 0 0zm288 1c-1-1-1 1 0 0zm-177-1c-1 0 0 2 0 0zm123 0c5-3-6 1 0 0zm-114 0c-1-1-1 1 0 0zm169 0c-1-1-1 1 0 0zm-176-1c2-6-5 3 0 0zm0-1c1 0 1 1 0 0zm115 2c3-4-8 1 0 0zm-212 0c-2-2-1-1 0 0zm-18-1s0 1 0 0zm20 0c-1 0 0 1 0 0zm1 0c-1 0 0 1 0 0zm29-1c12-8-9 4 0 0zm33 1c0-1 0 1 0 0zm136 0c-1-1-1 1 0 0zm-214 0c0-1 0 0 0 0zm1-1s1 1 0 0zm227 1c0-1 0 0 0 0zm81-1c1-3-5 2 0 0zm-214 0c-8-2-14 2 0 0zm-3 0c1 0 0 1 0 0zm9 0s0 1 0 0zm184 0c6-7-6-1 0 0zm21-1c-3-2-1 4 0 0zm-198 0c-3-5-4 5 0 0zm-100 1c-2-1 0 0 0 0zm2 0c-2-1 0 0 0 0zm3 0c-2-1-1 0 0 0zm101 0c-1-1-1 0 0 0zm105 0c-1-1 0 0 0 0zm46 0c-2-1-2 0 0 0zm87 0c0-1 0 0 0 0zm-345-1c-1 0-1 1 0 0zm221 0c0-1-2 2 0 0zm2 0c-2 0-1 1 0 0zm-118 0c-2-2-1 1 0 0zm119 0c-1-1-1 1 0 0zm58 0c-1-1-1 1 0 0zm-280 0c3-1-5 0 0 0zm85 0c16-4-17-3 0 0zm189-1c0-5-4 2 0 0zm-270 0c-1 0-1 1 0 0zm75 0c-9-2-1 1 0 0zm15 0c0-3-8 0 0 0zm159 0c-1 0 0 1 0 0zm-178 0c-3 0 0 1 0 0zm224 0s0 1 0 0zm-257 0c0-1 0 0 0 0zm29 0c-1-1 0 1 0 0zm2 0c-2-1-1 1 0 0zm27 0c3-5-10-2 0 0zm3 0c-1-6-4 1 0 0zm5 0c0-1 0 0 0 0zm89 0c-1-2 1 1 0 0zm65 0c-1-1-1 0 0 0zm1 0c-1-1-1 0 0 0zm2 0c-1-1 0 0 0 0zm16 0c5-9-5 1 0 0zm-85-1c-3-2-3 1 0 0zm163 0c-2 0 0 1 0 0zm-88 0c-4-1-3 1 0 0zm-194 0c-3-1-3 1 0 0zm-99 0c0-1 0 0 0 0zm17-1c-3-1-2 2 0 0zm79 1c-1-1-1 0 0 0zm191 0c-1-1 0 0 0 0zm-289-1s0 1 0 0zm303 0c-2-1-1 1 0 0zm-307 0c-1-1-1 1 0 0zm144 0c0-1 0 0 0 0zm82 0c-1-1-1 0 0 0zm69 0c0-1 0 0 0 0zm1 0c0-1 0 0 0 0zm3 0c-2-1 0 0 0 0zm4 0c-1-1 0 1 0 0zm-170 0c-2-1-1 0 0 0zm184 0c-1-1 0 0 0 0zm-196-1c-1 0 0 1 0 0zm1 0c-1 0 0 1 0 0zm15 0c-1 0 0 1 0 0zm82 0c1-1-3 1 0 0zm3 0c-2-2-3 1 0 0zm80 0s1 1 0 0zm-167 0s1 1 0 0zm82 0c0-1 0 1 0 0zm83 0c-2-2-1 1 0 0zm-171 0c-1-1 0 0 0 0zm13-1s1 1 0 0zm81 0s0 1 0 0zm72 0c-1 0-1 1 0 0zm1 0c-1 0 0 1 0 0zm2 0c-1-1-1 1 0 0zm-76-1c-6-1-7 2 0 0zm80 1c0-2 0 1 0 0zm-170-1c-1 0 0 1 0 0zm92 0c-1 0 0 1 0 0zm5 0c-1 0 0 1 0 0zm82 0c-1-1-1 1 0 0zm-168 0c-1-1-1 1 0 0zm85 0c-1-1-1 1 0 0zm-83 0c-1-1 0 0 0 0zm148 0c-1-1 0 0 0 0zm5 0c0-1 0 0 0 0zm1 0c0-2 0 1 0 0zm4 0c-1-2-1 1 0 0zm1 0c0-1 0 0 0 0zm-87-1c13 0-5-1 0 0zm80 0s0 1 0 0zm-151 0c-1-2-2 2 0 0zm-7 0c0-2-1 1 0 0zm67-1s0 1 0 0zm197 0c-1 0-1 1 0 0zm-271 0c-1 0 0 1 0 0zm2 0c-1 0 0 1 0 0zm2 0c-1 0-1 1 0 0zm78 0c-1-1 0 1 0 0zm-68-1c-2-1-7 2 0 0zm149 1c-1-1-1 0 0 0zm3 0c-2-1 0 0 0 0zm-158-1c-1 0-1 1 0 0zm70 0c-11-3-7 0 1 1zm-78-1c-1 0 0 1 0 0zm7 0c-1-1-1 2 0 0zm6 0c-2-1-2 2 0 0zm4 0c3-3-13 1 0 0zm-12 0c-1 0-1 1 0 0zm5 0s0 1 0 0zm257-1c-6-1-1 2 0 0zm-404 0c-1-1 0 2 0 0zm147 1c0-1 0 0 0 0zm37-2c2 4 1 3 0 0zm-182 1c-1-2-2 1 0 0zm141 0c-2-1-2 0 0 0zm4 0c-1-2-1 0 0 0zm2 0c-1-1 0 0 0 0zm2 0c-1-1 0 0 0 0zm-5-1c-1-1-1 1 0 0zm66 0c-1 0 0 1 0 0zm-210 0c-1-1 0 0 0 0zm169-1c-1-1-1 2 0 0zm-23 0c-1-2-1 1 0 0zm4 0c-1-3-5 1 0 0zm44 0c-2-2-2 1 0 0zm-51-1s0 1 0 0zm4 0c-2-2-1 1 0 0zm45 0c-2 0 0 1 0 0zm12 0c-1 0-1 1 0 0zm-34 0c0-1 0 0 0 0zm-21-1c-3-1-3 1 0 0zm-157-1c0-1-2 3 0 0zm154 1c0-1 0 1 0 0zm41 0c0-1 0 0 0 0zm-20-1c-1-1 0 1 0 0zm-3 0c-1 0 0 1 0 0zm-19 0c0-1 0 0 0 0zm-1-1s0 1 0 0zm6 0c1-2-4 0 0 0zm10 0c-1 0 0 1 0 0zm-15 0c-1 0 0 1 0 0zm9 0c-1-2-1 1 0 0zm-162-1c-1-3 0 2 0 0zm153 0c-1-1-1 1 0 0zm10-1c-2-2 1 2 0 0zm-14 0c-1 0 0 1 0 0zm17 0c-1 0-1 1 0 0zm-9 0c-2-3 1 1 0 0zm8 0c-2-1-2 1 0 0zm-5-1c0-1 7-1-3-1-1-1 3 3 3 1zm-2-2c1 0 1 1 0 0zm-3 2c-2-5-6 3 0 0zm-2 0c2-1 0 1 0 0zm39 0s0 1 0 0zm-27 0c-1-1-2 1 0 0zm1 0c-1-1 0 1 0 0zm-15 0c0-1 0 0 0 0zm-4-1c-1-1-1 0 0 0zm17-1c-2-2 0 2 0 0zm2 1c-2-1-2 0 0 0zm-12-1c0-1-1 1 0 0zm14 0c-1 0 0 1 0 0zm-13 0c0-1-1 1 0 0zm7 0c0-1 0 0 0 0zm-163-1s0 1 0 0zm155 0s0 1 0 0zm-2 0c-2-2 0 2 0 0zm4 0c-1 0-1 1 0 0zm6 0c-2-1-3 1 0 0zm3 0c-1-1-2 1 0 0zm-17-1c0-1 0 0 0 0zm-2-1s0 1 0 0zm12 0c-2 0 0 1 0 0zm-162-3c0-2-1 1 0 0zm445-2c-1-1-1 0 0 0zm-445-3c-1-2-1 0 0 0zm437 0c0-1 0 0 0 0zm1 0c0-1 0 0 0 0zm5-1c-3-1-4 1 0 0zm-7 0c-2-1-3 1 0 0zm-435-1c-1-1-1 2 0 0zm446 0c1-2-5 2 0 0zm2-1c-1 0-1 1 0 0zm2 0c-1 0-1 1 0 0zm-452-1c1-2-2 2 0 0zm444 0c-1-1-1 2 0 0zm-2 0c-1 0 0 1 0 0zm-2-1c-6-9-5 5 0 0zm-5 0c-2-1 0 2 0 0zm-436 0c-1-1-1 1 0 0zm1 0c-1-1-1 0 0 0zm1-1c-1-2-2 2 0 0zm457 0c0-2-1 1 0 0zm-457-2c1-1-3 2 0 0zm440 0s0 1 0 0zm-441-1c-1-3-1 3 0 0zm2 0c0-2-1 1 0 0zm462-2c0-1 0 0 0 0zm-24-3c4 3 6-10 2-10 2 6-18 3-8 9 2 0 4 3 6 1zm-4-2c0-1 0 1 0 0zm6-1c1 0 1 1 0 0zm-3-2c2-2 1 1 0 0zm-13 2c-1-2-2 3 0 0zm3-1c0-1 0 0 0 0zm-2-3c-2-1 0 1 0 0zm13-1c-1-1-1 2 0 0zm-437 0c0-1 0 1 0 0zm-1-1c-1 0 1 1 0 0zm424-2c-1-1 0 0 0 0zm19-2s0 1 0 0zm-2-2c-2-2-1 5 0 0zm-440-2c-3-1 0 2 0 0zm1-1c-1 0 0 1 0 0zm-1-1c0-1 0 1 0 0zm1 0s0 1 0 0zm0-3c-1-1-1 2 0 0zm424 0c-1-1-1 1 0 0zm4-1c-1-2 0 2 0 0zm-424-1c-1-2-1 2 0 0zm21 0c-1 0 0 1 0 0zm1 0s0 1 0 0zm-23-1c-2-2-1 2 0 0zm2-1c0-1-1 2 0 0zm427 0c-2-1-1 1 0 0zm-2 0c-1-1-1 0 0 0zm5 0c0-2-4 1 0 0zm-420 0c-1-1-1 0 0 0zm11-1c-1-1-1 2 0 0zm2 0c-1 0 0 0 0 0zm408-1c-2 0-1 1 0 0zm1-1c0-1 0 1 0 0zm6-1c-3-2-2 1 0 0zm-440-2c-2-2 0 3 0 0zm441-3c-3-1-3 2 0 0zm-21-5c-1-2-2 1 0 0zm-435-7s0 1 0 0zm290-1c-1 0 0 1 0 0zm-295-1c0-1-1 1 0 0zm2-4c1-4-3 4 0 0zm-4 0c-1-1-1 1 0 0zm2-1c-1-1-1 2 0 0zm-1-2c5-6-7 0 0 0zm21-1c-3-2-1 4 0 0zm5 1c-1 0 0 1 0 0zm-23-1c0-1 0 1 0 0zm-6-1c2-6-5 3 0 0zm32 1c3-7-5 1 0 0zm427-1c-2-1-3 2 0 0zm-439-1c-1 0-1 1 0 0zm439 0s0 1 0 0zm-454-1c-1-1-1 2 0 0zm-2-1c0-12-5 8 0 0zm28 0c0-2-1 2 0 0zm-25 0c-1 0 0 1 0 0zm24 0c-1-1-1 1 0 0zm2-3c1-6-5 4 0 0zm407 1c-2-2-3 1 0 0zm-433-2c-1-5-1 5 0 0zm426-1c-1-1-1 0 0 0zm4-2c-1-2-1 2 0 0zm3-1c0-1-1 2 0 0zm-3 0s0 1 0 0zm10-3c-1 0-1 1 0 0zm-409-2c0-1 0 1 0 0zm409 0c-3-2-1 1 0 0zm-407-1c3-2 11-4 5-4 0-3-11 6-5 4zm411-3c0-1 0 0 0 0zm-394-1c-2-3-2 1 0 0zm-15-1c-1 0-1 1 0 0zm16 0s0 1 0 0zm396 0c-1 0-1 1 0 0zm-415-2c1-2-2 1 0 0zm416 0s0 1 0 0zm2-1c-3-1 0 2 0 0zm-2-1c-2-1-1 2 0 0zm5-3c-1 0-1 1 0 0zm-417-1c-2-2-1 1 0 0zm8 0s0 1 0 0zm4 0c-3-1-1 1 0 0zm3 0c-1 0-1 1 0 0zm401 0s0 1 0 0zm-407 0c-1-1 0 0 0 0zm402-2c-2-1-1 1 0 0zm-1 0c0-1 0 0 0 0zm1-1c-1-1-1 1 0 0zm-1 0c-1-1-1 0 0 0zm-401-1c-4-1-4 1 0 0zm400 0c-1-1-1 0 0 0zm-405-1c-3-1 0 0 0 0zm-2-3s0 1 0 0zm411-1c-1-1-1 1 0 0zm-414-5c-1 0 0 1 0 0zm424 0c0-1 0 0 0 0zm1-1c-1 0-1 1 0 0zm-6-1c0-1-1 2 0 0zm-412-4c-1-1-1 1 0 0zm398-2c0-1 0 1 0 0zm10 0c-1-1-1 1 0 0zm-15-1c3-2-7 0 0 0zm-392 0c-1 0-1 1 0 0zm406 0c-1-1-1 1 0 0zm-2 0c0-1 0 0 0 0zm-417-5c-1-1-1 0 0 0zm388-1c-1 0 0 1 0 0zm2 0c-1-1-2 1 0 0zm-360-1s0 1 0 0zm361 0c-1-1-1 0 0 0zm-366-1c-1-1-1 1 0 0zm2 0c-1-1-2 1 0 0zm-5-2c1-1-2 2 0 0zm8-1c-2-1 1 2 0 0zm-3-1c-1-2 3-6-6-2 5 2-1-4 6 2zm-2 0c1-1 1 0 0 0zm0-4c1-1 1 1 0 0zm5 4s0 1 0 0zm-1-1c-1 0-1 1 0 0zm-23-1c-1-1-1 1 0 0zm-1-1c2-5 6-4 5-9-3-7-7 0-7 3 7 1-6 6 2 6zm1-7c0-3 4 1 0 0zm1-2c1-1 1 1 0 0zm0-2c1 0 1 1 0 0zm4 10c0-1 0 2 0 0zm13 0c-1-2 0 1 0 0zm-13-1c-2-5-2 2 0 0zm2-1c2-6-4-1 0 0zm-1-1c2 0 0 1 0 0zm13 1c-1 0-1 1 0 0zm-5 0s0 1 0 0zm3 0c-1-1 0 0 0 0zm5-1c-4-3-1 0 0 0zm-3-1c1 0 1 1 0 0zm-4 0c-4 1 3 1 0 0zm0-1c-1-1-1 2 0 0zm-4 0c-2 0-1 1 0 0zm4-1c-4-5 0 1 0 0zm-5-1c-2-2-2 3 0 0zm6 1c-1-1 0 0 0 0zm-21-1c1-5-5 0 0 0zm13-1c-1 0-1 1 0 0zm3 0c-1-3-3 2 0 0zm-19-1c-1 0 0 2 0 0zm16 1c0-4-2 1 0 0zm-17-1c-1-4-1 2 0 0zm12-1c-1 0 0 2 0 0zm9 1s0 1 0 0zm4 0c-2-3-6 0 0 0zm-20-1c-3-3-3 1 0 0zm21 0c-1 0-1 1 0 0zm-13 0c10-2 1-3 0 0zm8-1c-4-3-2 2 0 0zm-20 0c-1-1-1 1 0 0zm-2-1c5-1 16-7 13-8-6 1-3-2-8-1 5 6-10 8-5 9zm7-2s0 1 0 0zm1-2c-3-4 2-3 0 0zm-2 0c2-1 0 0 0 0zm19 5c-2-1-1 1 0 0zm-13-1c0-1 0 0 0 0zm-1-1c-1 0-1 1 0 0zm2 0c-2-1-2 1 0 0zm4 0c-3-1-1 0 0 0zm-4-1c3-3-7 0 0 0zm-2-1c1-1 0 1 0 0zm6 1c-2-1-1 0 0 0zm-4-2c-4-1-3 0 0 0zm-10-1c-1 0 0 1 0 0zm-3-2s0 1 0 0zm1 0c-1-1-1 1 0 0zm-1-1c-1 1 0 1 0 0zm16 0c-2-1-2 1 0 0zm-21-1c-1-1 0 2 0 0zm13-3c-2-2-2 2 0 0zm2 0c-2-2-2 1 0 0zm-6-1c-1-2-1 1 0 0zm3-1c1-1-2 2 0 0zm1 1c0-1 0 0 0 0zm2 0c-1-1 0 0 0 0zm388-7c-1-1 0 0 0 0zm-388-1c-5 0-8 0 0 0zm390 0c-1 0-2 1 0 0zm-388 0c-2 0-1 1 0 0zm390-2c0-3-3 3 0 0zm0-2c-1 0-1 1 0 0zm-402-2c-2-1-2 2 0 0zm4 0c2-2-6 3 0 0zm2 0c-1-1-2 2 0 0zm3 0c-3-1-4 2 0 0zm-12 0c-1 0 0 1 0 0zm4 0c-1-1 0 0 0 0zm8-1s0 1 0 0zm389 0c-1 0-1 1 0 0zm4 0s0 1 0 0zm-3 0c-1-1 0 1 0 0zm4-1c10-6-9 2 0 0zm2-2c-3-1-3 1 0 0zm2-2c-1-1-2 2 0 0zm-1-1c19-10-1-5 1-1-1-1-7 4-1 1zm3-3c1-1 1 1 0 0zm8-5c0-1-3 1 0 0zm1 0c-1-1-1 0 0 0zm4-2c-2-1-3 2 0 0zm-3 0c-1-1 0 1 0 0zm6-2c-2-1-1 1 0 0zm-3-1s0 1 0 0zm14-8c-2-1-3 1 0 0zm-20-6c-2-1-3 1 0 0zm-14-7c-1-1-1 1 0 0zm10-1c5-6-12 0 0 0zm0-2s0 1 0 0zm-404-9c0-6-7 2 0 0zm414-6c-1 0 0 1 0 0zm0-1c-2-1-3 1 0 0zm12-18c0-1 0 0 0 0zm-5-10c-1 0 0 1 0 0zm-437-2c2-5-4 1 0 0zm428-9c-4-4-7 2 0 0zm1-4c1-4-3 1 0 0zm-4-1c-1 0-1 1 0 0zm3-1c-1-1-1 1 0 0zm0-4c0-1 0 1 0 0zm0-6c-2-1-1 1 0 0zm-1-1c-1 0-1 1 0 0zm1 0c-1-2-1 1 0 0zm-1-1c-1 0-1 1 0 0zm-413-4c-12-10 5 6 0 0zm416-1c-1-1-2 0 0 0zm10-6c-1 0-1 1 0 0zm0 0c0-1 0 1 0 0zm-5-1c-1-2-1 2 0 0zM63 94c-2-1-2 2 0 0zm397 0c-1-1 0 0 0 0zm2-1c-2 0-2 1 0 0zm3 0c-1-1-2 1 0 0zm-2 0c-1-1 0 1 0 0zM62 92c0-1 0 0 0 0zm-1-1c-1 0 0 1 0 0zm-1 0c0-1 0 0 0 0zm-1 0c-2-2-2 0 0 0zm6-1c-4-2-2 2 0 0zm398 0c-1-1 0 1 0 0zM62 89c3-3-5-5 1-5 2-5-4-6-10-1 4 0 1 7 9 6zm-4-3c0-2 1 1 0 0zm1-3c-7-1 7-4 0 0zm-1-2s0 1 0 0zm8 8c0-1 0 1 0 0zm-10-2s0 1 0 0zm412-1c-1-1 0 1 0 0zM65 84c-1 0 0 0 0 0zm402 0c0-1 0 0 0 0zM66 81c-3-1-2 2 0 0zm4-1c-4-1 0 3 0 0zm400 0c-1-1-1 1 0 0zM56 78c6 0-5 1 0 0zm6 0c-1-1-1 1 0 0zm401-3c-2 0-1 1 0 0zm-2 0c-1-1 0 1 0 0zm-318-1c-1-1 0 0 0 0zm318-1c-3-1-2 0 0 0zm6-1c-2-1-1 1 0 0zm-2 0c-1-1-1 1 0 0zM63 72c-1-2-2 1 0 0zm90-4c0-1 0 0 0 0zm1 0c0-1 0 0 0 0zm313-1c-1-1-1 1 0 0zm-318-1c-1-1-1 1 0 0zm322 0c-1-3-5 2 0 0zm-314 0c-12-4-21-2 0 0zm-14-1c-1-3-2 2 0 0zm1 0c-1-1-1 0 0 0zm325 0c-1-1 0 0 0 0zm3-2c2-2-4 3 0 0zm-315 1c-4-1-2 0 0 0zm313 0c-1-1 0 0 0 0zm-318-1c-3-1 0 1 0 0zm-2 0c-1-1 0 0 0 0zm-4-1c-1-1 0 1 0 0zm14 0c1-2-2 2 0 0zm-2 0c-1-1-1 0 0 0zm318-1c1-2-10 0 0 0zm-323 0c0-1 0 0 0 0zm4-1c-1 0 0 1 0 0zm-4 0c0-1 0 1 0 0zm1 0c0-1 0 0 0 0zm-2 0c-1-1-2 0 0 0zm8-1c-2-1-2 1 0 0zm-2-1c-3-1-2 1 0 0zm-2 0c-5-1-7 0 0 0zm1-1c0-1 0 1 0 0zM57 57c-4-3-5 1 0 0zm412-1c-1-1-2 1 0 0zm-2-1c-1 0-1 1 0 0zm-286-1c5-7 5-7-1-4-2 1 0 6 1 4zm37 1c-1-1-1 0 0 0zM95 54c-1 0-1 1 0 0zm121 0c-2 0 0 1 0 0zm4 0c-2-1-1 1 0 0zM96 53c-3-2 0-2 0 0zm121 1c0-1 0 0 0 0zm1 0c-1-1 0 0 0 0zM26 53s0 1 0 0zm196 0c-1 0 0 1 0 0zM61 53c-9-1-11 1 0 0zm163 0c-1-1-1 1 0 0zm135 0c-1 0-1 1 0 0zm-134-1c-4-1 2 2 0 0zm151 1c-1-1-1 0 0 0zm-9 0c-1-1-1 0 0 0zm10-1c-1 0-1 1 0 0zm0 0s0 1 0 0zm4 0c-1-1-2 2 0 0zM86 52c-1 0-1 1 0 0zm-25 0c-6-2-6 2 0 0zm3 0c-2-1-2 1 0 0zm14 0c-1-1 0 1 0 0zm13 0c-3-1-1 0 0 0zm-36-1c-2-1 0 2 0 0zm173 0c-2-1-1 2 0 0zM77 51c-4-2 1 1 0 0zm384 0c-1-1 0 1 0 0zM78 51c0-1 0 0 0 0zm388-1c3-3-9 1 0 0zm-60 0c0-2-2 2 0 0zm-170 0c-5-2 0 0 0 0zm-120-1c-2 0-2 2 0 0zm142 0c20 1-1-8-4 1l4-1zm-18 0c0-2-10-1 0 0zm104 0c0-1-1 1 0 0zm3 0c2-1-3 2 0 0zm136 0c-1 0 0 1 0 0zm-138 0c0-1 0 1 0 0zm115 0c-1-1 0 1 0 0zm-346 0c0-2-3 1 0 0zm133-1c13-5-21 2 0 0zm103 0c2-4-4 2 0 0zm7 1c0-2-1 1 0 0zm101 0c0-1 0 0 0 0zm-66-1c0-1-1 1 0 0zm-41 0c-1 0 0 1 0 0zm-232 0c0-1 0 0 0 0zm210 0c-1-2-1 1 0 0zm-141-1c-1-1-1 1 0 0zm158 0c0-1 0 0 0 0zm3 0c-1-1 0 0 0 0zm4-1c5-3-5 3 0 0zm-2 0c-1-1 0 1 0 0zm4 0c0-1-1 1 0 0zm-7 0c0-1 0 0 0 0zm-104-1c1-3-6 2 0 0zM41 43c-4-2-2 5 0 0zm313 2c-1-2-1 1 0 0zm-62-1c-1-4-1 2 0 0zm-40-1c-1-3-6 1 0 0zM36 41s0 1 0 0zm213 0c0-5-6 2 0 0zm56-1c-1-1-1 1 0 0zm56 447s0 1 0 0zm9 0c1-1 1 0 0 0zm-237-1c1 0 1 1 0 0zm71-4c-6-7 12-4 0 0zm209-1c-3-13 10-1 0 0zm-357 0c-3-13 10-1 0 0zm103 0c1-1 1 0 0 0zm258 0c1-2 1 1 0 0zm-357-1c1-1 1 1 0 0zm34-2c0-4 3 3 0 0zm109-2c-7-1 0-13-1-5 2 1 5 7 1 5zm49 0c0-4 3 3 0 0zm176-1c0-3 3 1 0 0zm-49 0c2-2 2 0 0 0zm-315-1s0 1 0 0zm7 0c0-2 3 1 0 0zm-25 0c0-1 0 0 0 0zm329-1c-7-2 0-13-1-5 2 0 5 6 1 5zm-335 0c1-1 1 1 0 0zm116-1c-16-9 3-23 4-3-5-3-1 7-4 3zm4 1c-1-3 3 0 0 0zm62-1s0 1 0 0zm-99 0c1-1 0 0 0 0zm-77-1s0 1 0 0zm159 0c1-2 2 1 0 0zm-18-1c2-14-4-8 5-19-1 19 4-11 10-4 3-2 3 7 5 12-6 10-3-5-7-5-3 4-14 8-13 16zm3-10c-1-1-1 0 0 0zm-2-1c-1 0-1 1 0 0zm2-1c-1 0 0 2 0 0zm8-7c0-1 0 0 0 0zm4-2c-3-2-1 4 0 0zm-4-2c-1 0-1 1 0 0zm116 23c-9-6-6-15-1-14 4 5 6 14 1 14zm0-11c0-3-3 1 0 0zm-111 12c1-1 1 0 0 0zm115 0c-1-3 3 0 0 0zm-37-1c1-1 0 0 0 0zm-146-1c1 0 1 1 0 0zm-74 0c1-1 1 0 0 0zm316-1c1-2 2 1 0 0zm-321 0c0-1 0 0 0 0zm154 0c-4-11 3-2 0 0zm165 0c1-1 1 0 0 0zm87-1c-2-2 3 1 0 0zm-249 0c-1-3 2 1 0 0zm81 0s0 1 0 0zm-200 0c1-1 1 1 0 0zm11 0c-2-3 3 0 0 0zm219 0c1-1 1 1 0 0zm65 0c0-4 3 0 0 0zm-357-1c-1-3 3-1 0 0zm10 0c-2-4 3 3 0 0zm13 0c-2-4 4 0 0 0zm6 0c1 0 1 1 0 0zm73 0s0 1 0 0zm-96-1c1-1 0 2 0 0zm166 0c1-1 1 2 0 0zm-34 0c1-1 1 1 0 0zm9 0c0-8 4 0 0 0zm73 0c1-1 1 1 0 0zm130-1c-4-10 4-1 0 0zm-332 0c0-1 0 1 0 0zm8 0c1 0 0 1 0 0zm107 0c0-2 1 1 0 0zm220 0c-1-3 2 1 0 0zm5 0c-1-4 4 2 0 0zm-359-1c0-2 2 2 0 0zm2 0c-4-10 5 1 0 0zm419 0c1-1 1 1 0 0zm-423 0c1-1 1 1 0 0zm79 0c1-1 1 1 0 0zm74 0s0 1 0 0zm275 0c-4-6 7 0 0 0zm-362 0c1-2 0 1 0 0zm46-1c2-5 3 3 0 0zm-41 0c-4-6 7 1 0 0zm69 0c1-1 1 1 0 0zm43 0c0-3 2 1 0 0zm164 0c1-1 1 1 0 0zm-201-1c-1-3 3 3 0 0zm148 1c0-2 1 1 0 0zm28-1c1-7 3 1 0 0zm87 1c-4-5 4-1 0 0zm-411-1c-2-5 5 2 0 0zm140 1c1-1 1 0 0 0zm-100-1s0 1 0 0zm13 0c-3-5 5 0 0 0zm84 0c0-1 0 1 0 0zm-107 0c-2-5 4 3 0 0zm13 0c-2-4 5 0 0 0zm196 0c1-1 1 1 0 0zm74 0c1 0 1 1 0 0zm-293 0c1-1 1 1 0 0zm252-1c2-5 3 3 0 0zm-246 0c1-1 1 2 0 0zm158-1c0-9 10 2 0 0zm116 1c1-1 1 2 0 0zm-225 0c1 0 0 1 0 0zm231 0c0-4 3 2 0 0zm55 0c1 0 1 1 0 0zm-340 0c1-1 1 1 0 0zm2 0c1-1 0 1 0 0zm41 0c0-1 0 0 0 0zm234 0c1-1 1 1 0 0zm-184-1c1-1 1 2 0 0zm176 1c1-1 0 0 0 0zm5-1s0 1 0 0zm124 0c-5-5 6-2 0 0zm-410 0c-1-1 1 0 0 0zm29 0c0-1 0 1 0 0zm9 0c1 0 0 1 0 0zm310 0c0-4 3 1 0 0zm-364 0c1-1 1 1 0 0zm30 0c1-2 2 1 0 0zm39 0c-5-6 6-3 0 0zm107 0c1-1 1 1 0 0zm-167-1c1-1 1 2 0 0zm296 1c-2-5 5 0 0 0zm103 0c2-1 1 0 0 0zm-385-1c2-2 2 1 0 0zm4 0c0-2 1 1 0 0zm128 0s0 1 0 0zm85 0c1 0 0 1 0 0zm42 0c1-1 1 1 0 0zm-275 0c1-2 0 1 0 0zm11-1c-6-2-5-9 1-5 3-5 8 10-1 5zm19 1c3-3 3 0 0 0zm6 0c1-1 1 1 0 0zm186 0c0-1 0 1 0 0zm59 0c1-2 0 1 0 0zm-8-1c0-1 0 2 0 0zm67 0c2-1-1 0 0 0zm-181 0s0 1 0 0zm117 0c1 0 1 1 0 0zm80-1c0-9 10 2 0 0zm-290 1c0-1 0 1 0 0zm56 0c2-3 2 1 0 0zm23 0c0-2 2 0 0 0zm217 0c2-1 1 1 0 0zm-342-1c0-6 6 3 0 0zm7 0c1-3 4 2 0 0zm20 1c1-2 1 1 0 0zm101 0c-1-2 1 0 0 0zm145 0c0-1 0 0 0 0zm8 0c1-1 1 0 0 0zm-296-1c2-1 1 1 0 0zm50 0c1 0 1 1 0 0zm79 0c2-1 0 0 0 0zm172 0s1 1 0 0zm59 0c-4-8 8 0 0 0zm-364 0c1 0 0 1 0 0zm30 0c1-2 0 1 0 0zm243 0c1-3 2 1 0 0zm80 0c1-2 1 1 0 0zm-37-1s0 1 0 0zm-320 0c0-1 0 1 0 0zm36 0c1-3 2 1 0 0zm55 0c1-2 1 1 0 0zm34 0c-2-2 3 1 0 0zm20 0c1-2 1 1 0 0zm82 0s0 1 0 0zm57 0c0-3 1 2 0 0zm22 0c1-2 2 1 0 0zm-265 0c1-2 1 1 0 0zm268 0c-1-2 1 0 0 0zm111-1c-7-9 11 0 0 0zm-385 0c-1-1 1 0 0 0zm154 0c2-1 2 1 0 0zm106 0c1-2 2 2 0 0zm-268 0c0-2 1 0 0 0zm3 0c-2-3 3 1 0 0zm248-1c0-5 6 3 0 0zm-282 1c0-2 2 0 0 0zm36 0c0-1 0 0 0 0zm9 0c1-2 2 1 0 0zm105 0c1-3 1 1 0 0zm167 0c0-1 0 0 0 0zm-293-1c1-1 1 2 0 0zm2 0c1-2 1 2 0 0zm-19 0c0-1 0 1 0 0zm30 0c1 0 1 1 0 0zm1 0c1-3 2 1 0 0zm17 0s0 1 0 0zm85 0c1-4 4 2 0 0zm113 0c1-2 1 2 0 0zm54 0c1-2 1 1 0 0zm-285 0c1-2 1 1 0 0zm30 0c4-3 4 0 0 0zm7 0c1-1 1 1 0 0zm227 0c1-1 1 1 0 0zm121 0c1-1 0 0 0 0zm-361-1c0-1 0 2 0 0zm322 0s0 1 0 0zm-373 0c1-1 1 1 0 0zm154 0c0-4 7 1 0 0zm4 0c1-3 3 2 0 0zm38 0c-2-4 5 0 0 0zm109 0c1-1 0 1 0 0zm107 0s0 1 0 0zm-397 0c1-1 1 1 0 0zm20 0c0-1 0 1 0 0zm100 0c-2-5 3-1 0 0zm38 0c1-1 1 1 0 0zm140 0c2-3 4 0 0 0zm7 0c1-5 2 2 0 0zm-265-1c0-3 3 2 0 0zm97 0c0-1 1 2 0 0zm27 0c1-1 1 2 0 0zm165 0c-1-2 3 0 0 0zm-297 0c0-1 0 1 0 0zm30 0c1 0 0 1 0 0zm23 0s0 1 0 0zm1 0c1-2 2 0 0 0zm312 0c0-1 0 1 0 0zm5 0c-1-3 3 1 0 0zm3 0s0 1 0 0zm-406 0c0-2 1 0 0 0zm8 0c1-2 0 1 0 0zm44 0c1-1 0 1 0 0zm107 0c1-1 1 1 0 0zm143 0c2-1 1 1 0 0zm-289-1c0-2 2 2 0 0zm30 0c1-1 1 2 0 0zm3 0c-1-5 3 3 0 0zm2 1c1-1 1 0 0 0zm-43-1c1-3 1 2 0 0zm14 0c1-1 1 1 0 0zm34 0c2-1 2 1 0 0zm23 0c3-1 2 1 0 0zm109 0s0 1 0 0zm88 0c1-1 2 1 0 0zm24 0c-1-6 9 1 0 0zm6 0c1-1 1 1 0 0zm105 0c1-3 3 2 0 0zm-246 0c1-1 1 1 0 0zm140 0c1-1 1 1 0 0zm139 0c-2-6 6 1 0 0zm-423 0c1-2 1 1 0 0zm149-1c1-1 0 2 0 0zm128 0c-2-5 4 1 0 0zm80 1c1-1 1 0 0 0zm25-1c2-4 3 1 0 0zm-393 0c1-2 1 2 0 0zm41 0c2 0 2 1 0 0zm195 0s0 1 0 0zm1 0c1-2 3 0 0 0zm116 0c1 0 0 1 0 0zm-358 0c-1-3 3 1 0 0zm389 0c1-1 0 1 0 0zm-228-1c0-1 0 2 0 0zm62 1c1-2 1 1 0 0zm78 0c1-1 1 0 0 0zm1 0c5-2 4 0 0 0zm86 0c1-1 0 0 0 0zm28 0c0-2 1 1 0 0zm-286-1s0 1 0 0zm176 0c11 0 11 1 0 0zm81 0c1 0 0 1 0 0zm-377 0c0-1 0 1 0 0zm230 0c-1-2 3 0 0 0zm50 0c1 0 0 1 0 0zm64 0c1 0 0 1 0 0zm-350-1c1-2 1 2 0 0zm393 1c1-1 0 0 0 0zm-236-1c0-2 2 0 0 0zm30 0s0 1 0 0zm-192 0c1-1 1 1 0 0zm21 0s0 1 0 0zm65 0c1 0 0 1 0 0zm339 0c1-1 1 1 0 0zm-414-1c-1-2 2 1 0 0zm163 0c2-4-9-5 0-7 4-1 5 9 1 7-1-1-2 3-1 0zm44 0c2-8 5 3 0 0zm120 0c1-1 0 1 0 0zm-317 0c1 0 1 1 0 0zm159 0c-1-3 3 2 0 0zm1 0c-1-1-1 0 0 0zm54-1c-1-3 6 3 0 0zm71 1s0 1 0 0zm8 0c-2-2 4 1 0 0zm-300 0c0-2 1 0 0 0zm8-1c1-1 1 2 0 0zm282 1c1-1 0 1 0 0zm105 0c1-1 1 0 0 0zm-246-1c0-1 0 1 0 0zm51 0c1-1 1 1 0 0zm225 0c-3-7 8 1 0 0zm-270 0c-2-3 2 0 0 0zm6 0c1-2 2 1 0 0zm64 0c0-1 0 0 0 0zm184 0c1-2 1 0 0 0zm-241-1c4-3 2 0 0 0zm47 0c-1-1 2 1 0 0zm199 0c0-1 0 1 0 0zm7 0c2-2 1 1 0 0zm-455 0c-6-4 3 0 0 0zm25-1c-1-6 4 3 0 0zm184 1c0-1 0 1 0 0zm26 0c1-3 2 2 0 0zm-214-1c-2-3 6 1 0 0zm9 0c-2-6 3 2 0 0zm399 0c1 0 0 1 0 0zm-230-1c3-6 4 2 0 0zm-165 0c1-1 0 1 0 0zm-1 0c0-1 0 1 0 0zm170 0c0-2 1 1 0 0zm33 0c1-1 0 0 0 0zm2 0c0-1 0 0 0 0zm-1-1c0-1 0 1 0 0zm191 0c1 0 0 1 0 0zm24 0s0 1 0 0zm-247 0c1-3 3 1 0 0zm4 0c2-2 2 1 0 0zm21 0c1-1 1 1 0 0zm-202-1c1-1 0 1 0 0zm176 0c-1-1 1 0 0 0zm31 0c-2-2 3 1 0 0zm2 0c2 0 1 1 0 0zm-212 0c0-1 0 1 0 0zm9 0c1-1 1 1 0 0zm165 0c-2-3 3 1 0 0zm33 0c0-2 1 1 0 0zm-214-1c0-2 1 2 0 0zm5 1c0-1 0 0 0 0zm229 0c0-1 0 0 0 0zm-236-1c1 0 1 1 0 0zm13 0c1-1 1 1 0 0zm174 0s0 1 0 0zm35 0c-1-2 2 2 0 0zm1 0c1 0 1 1 0 0zm207-1c-6-8 0-9 4-3 0 1-2 7-4 3zm3-2c1-4-5 1 0 0zm-260 3c1-1 1 0 0 0zm15 0c0-2 2 0 0 0zm260 0c1-2 1 1 0 0zm-445-1c0-1 0 1 0 0zm4 0s0 1 0 0zm176 0c0-4 3 2 0 0zm12 0c1-1 0 1 0 0zm30 0c1 0 1 1 0 0zm-46 0c1-2 1 1 0 0zm7 0c-3-5 8-1 0 0zm28 0c0-1 0 0 0 0zm-39-1c4 0 1 1 0 0zm6 0s0 1 0 0zm40 0c1-1 0 0 0 0zm-26-1c1-2 0 2 0 0zm18 0c-1-2 1-1 0 0zm2 1c1-1 1 0 0 0zm6-1c1 0 0 1 0 0zm2 0c1 0 1 1 0 0zm-46-1c1-2 1 2 0 0zm3 1c1-1 1 0 0 0zm-174-1s0 1 0 0zm185 0c1 0 1 1 0 0zm27 0s0 1 0 0zm-206 0c1-1 1 0 0 0zm163 0c0-1 0 1 0 0zm9 0c0-1 0 1 0 0zm263 0c0-1 0 0 0 0zm-454-1c1 0 1 2 0 0zm183 1c1-1 0 0 0 0zm4-1c2-1 3 2 0 0zm284 0c1-1 1 1 0 0zm-471-1c0-1 1 2 0 0zm12 0c1-1 1 2 0 0zm2 0c0-1 1 2 0 0zm3 1c1-4 2 2 0 0zm166 0c1-1 0 0 0 0zm-176-1c-1-3 3-1 0 0zm181 0c0-1 0 1 0 0zm-170-1s0 1 0 0zm415 0c1 0 0 1 0 0zm-421 0c-4-3 4 1 0 0zm168 0c0-1 0 1 0 0zm8 0c1-1 1 1 0 0zm272 0c1-4 4 1 0 0zm12 0c1-1 1 1 0 0zm-13 0c0-1 0 0 0 0zm-4-1c1-1 0 0 0 0zm-464-1c1-1 1 1 0 0zm14 0c1-1 1 1 0 0zm442 0c2-2 1 1 0 0zm-448-1c1-1 1 1 0 0zm440 0c0-3 2 1 0 0zm-427-1c0-1 0 0 0 0zm426-1c-1-10 9-1 0 0zm-423 0c1-1 0 1 0 0zm-19-1s0 1 0 0zm454 0c1-1 1 1 0 0zm-443-1c0-1 1 1 0 0zm-3-1c0-3 3 3 0 0zm5-2c1-1 0 1 0 0zm-13-1c0-1 0 1 0 0zm5-1c2-7 1 6 0 0zm7 0c-3-2 3 1 0 0zm-2-1c1-1 0 1 0 0zm3-1c1-3 2 2 0 0zm457 0c1-2 1 2 0 0zm3 0c1 0 1 2 0 0zm-4 0c0-1 0 1 0 0zm-473-1s0 1 0 0zm14 0c1-1 0 1 0 0zm0-1c1-1 1 0 0 0zm-7-1c2-4 1 2 0 0zm2-1c1-2 2 1 0 0zm4 0c1-4 1 2 0 0zm-2 0c0-2 2 0 0 0zm-17 0c0-1 0 0 0 0zm1-2c-1-2 2 2 0 0zm8 0c1 0 0 1 0 0zm5 0c1-1 1 1 0 0zm3 0c0-1 0 0 0 0zm1-1c1-2 2 2 0 0zm3 0c1-1 1 1 0 0zm4 0c0-1 0 0 0 0zm-9-1c0-3 1 2 0 0zm-22 0c1-2 2 0 0 0zm31 0c1-1 1 0 0 0zm-15-1c1-4 2-1 0 0zm9-1c0-1 0 0 0 0zm-16-1s0 1 0 0zm491 0s0 1 0 0zm-20-1c1-2 2 1 0 0zm-469 0c1-3 0 2 0 0zm2 0c0-2 1 1 0 0zm6 0s0 1 0 0zm458 0c2-2 2 2 0 0zm33 0s0 1 0 0zm-493 0s0 1 0 0zm1 0c1-1 0 1 0 0zm3-1c0-1 0 1 0 0zm478 0c1 0 1 1 0 0zm-483 0c0-1 0 1 0 0zm10 0c1-1 1 0 0 0zm-1 0c0-1 0 0 0 0zm458-1c0-10 5-4 0 0zm-1 0c1 0 0 1 0 0zm18 0c4-2 3 0 0 0zm4 0c1 0 1 1 0 0zm-13-1c2 0 1 1 0 0zm-474-1c-1-3 4 2 0 0zm486 1c0-1 0 0 0 0zm-488-1c1-3 2 2 0 0zm1 0c0-1 0 0 0 0zm471 1c0-3 3 0 0 0zm4-1c1 0 0 1 0 0zM9 401c1-2 1 2 0 0zm9-1c1-1 0 0 0 0zm-6-1c1-1 1 1 0 0zm-5 0c1-3 2 1 0 0zm-2-1c1-1 0 2 0 0zm482 0c-1-3 4 1 0 0zM2 397c3-2-1 2 0 0zm23 0c1-2 0 2 0 0zm-16 0c1-2 0 1 0 0zm8 0c1-2 1 1 0 0zm4 0c0-3 2 1 0 0zm-5 0c1-1 1 0 0 0zm469-1c-1-9 11-4 0 0zm-459-1c-1-5 3 3 0 0zm473 1c1-1 1 0 0 0zm-479-1c-1-2 1 0 0 0zm1 0c0-1 0 0 0 0zm2 0c-1-3 2 0 0 0zm4-1c1-9 6-3 0 0zm-8-1c1-2 1 1 0 0zm-1-1c0-1 0 1 0 0zm8 0c-9-9 6-11 0 0zm-22 0c0-2 2 1 0 0zm12-1c1-6 3 2 0 0zm464 0c-1-3 4 1 0 0zm-447-1c0-1 0 2 0 0zm-15-1c2-1-1 3 0 0zm4 1c1-1 1 0 0 0zm440-1s0 1 0 0zm19 0c0-1 0 0 0 0zm-452-1c1-2 0 1 0 0zm6-1c1-1 1 2 0 0zm476 1c1-1 1 0 0 0zm-41-2c1 0 1 1 0 0zm-435 0s0 1 0 0zm-23 0c0-1 0 1 0 0zm8 0c1-1 1 1 0 0zm9-1c1-1 0 2 0 0zm442 0c1-1 1 1 0 0zM0 384s0 1 0 0zm30 0c-1-4 2 2 0 0zm482-1c1 0 1 1 0 0zm-484-1c1-1 0 1 0 0zm440 0s0 1 0 0zm12-1c0-3-8-6 2-5 4 7-1 4-2 5zm-455 0c-4-7 2 2 0 0zm460 0c1-2 1 1 0 0zm-17 0c3-3 3 0 0 0zM9 380c1-4 2 2 0 0zm482 0c1 0 0 1 0 0zm-4 0c2-3 2 1 0 0zm-457-1c1-2 1 1 0 0zm482 0c1-1 1 1 0 0zm-492-1c0-3 2 1 0 0zm9 0c1-2 1 1 0 0zm-17-1c1-1 1 2 0 0zm474 0c0-5 2 1 0 0zm-462-1c0-2 4 3 0 0zm5 1c0-1 0 1 0 0zm6 0c0-1 0 1 0 0zm0-1c-2-4 2 2 0 0zm468 1c1-2 1 1 0 0zm-485-1s0 1 0 0zm457 0c-1-3 2 0 0 0zm-446 0c1-1 1 1 0 0zm0 0c1-1 0 0 0 0zm7-1c3-3 0 3 0 0zm434 0c1 0 0 1 0 0zm-438 0c4-3 3 0 0 0zm-13-1c-1-6 5 2 0 0zm-17 0c-1-2 3 2 0 0zm29 0c1-1 1 1 0 0zm4 0c1-4 2 3 0 0zm465 0c0-1 0 1 0 0zm10-1c-1-3 3 3 0 0zm-485 0c1 0 1 1 0 0zm3 0c1-1 0 1 0 0zm459 0c-1-4 5 0 0 0zM2 372c0-2 2 1 0 0zm476 0c-1-5 5 0 0 0zm-455-1c-9-8 4-1 0 0zm5 0c2-2 0 2 0 0zm2 0c1-1 1 1 0 0zm4 0c1-1 1 1 0 0zm-14 0c0-1 0 0 0 0zm23-1c1-1 1 2 0 0zm459 1c0-1 0 0 0 0zM2 369c-2-9 7 3 0 0zm16 1c1-2 1 1 0 0zm469 0c0-1 0 1 0 0zM8 369c1-1 1 2 0 0zm7 0c0-2 2 3 0 0zm29 0c2-4 2 4 0 0zm-10 0c1-1 1 1 0 0zm-3 0c1-1 1 1 0 0zm458-1c1-1 1 0 0 0zm-445-1c0-8 5 0 0 0zm-20 0c1-1 1 0 0 0zm6-1c1-2 1 2 0 0zm5 0c1 0 1 1 0 0zm453 0c1 0 0 1 0 0zm-4-1c1-1 1 1 0 0zm5 0c0-3 2 1 0 0zm-463 0c2-1 1-1 0 0zm-2-1c1-3 1 3 0 0zm19 0c-1-2 3 1 0 0zm4 0c1-4 3-1 0 0zm-6 0c0-1 0 0 0 0zm-32-1c1-4 3 2 0 0zm25 0c1 0 1 1 0 0zm15 1c0-1 0 0 0 0zm-18-1c1-1 1 1 0 0zm-1 0c0-1 0 0 0 0zm13-1c-5-3 5-2 0 0zm454 0c1-1 0 0 0 0zm-478-1c-1-4 4 3 0 0zm489 0c-3-2 8 2 0 0zm-478 0c2-1 1 1 0 0zm17 0c-3-11 4-1 0 0zm429 0c6-2 7-1 0 0zm-441-1c1-2 1 2 0 0zm1 0c1-2 2 2 0 0zm10 0c1-1 1 2 0 0zm-17-1c1-2 1 2 0 0zm11 0c1-5 5 2 0 0zm441 0c-6-6 9-6 2 0zm-464-1c1-8 3 1 0 0zm450 0c0-1 2 2 0 0zm3 0s0 1 0 0zm-1 0c1 0 0 1 0 0zm5 0c1-2 1 1 0 0zm19 0c1 0 1 1 0 0zm-466 0c1-2 1 1 0 0zm445 0c1-1 0 0 0 0zm-458-1c1-1 0 0 0 0zm24 0c2-2 2 1 0 0zm423 0c1-1 0 0 0 0zm2 0c0-1 0 0 0 0zm24-1s0 1 0 0zm-439 0c1 0 1 1 0 0zm-28 0c0-3 3 0 0 0zm17-2c1 0 1 1 0 0zm457-1c0-1 0 1 0 0zm-30-1c2 0 0 1 0 0zm25 0c-1-2 5 1 0 0zm-10-1c-2-7 6-1 0 0zm-432-1c2-1 1 1 0 0zm-12-1c1 0 1 1 0 0zm-26 0c0-1 0 0 0 0zm39-1c1-1 0 1 0 0zm-19-1c1-1 0 2 0 0zm16-1c1-1 1 1 0 0zm-15 0c0-1 0 0 0 0zm5-3c0-2 0 1 0 0zm-3-2c-1-2 1 0 0 0zm10 0c0-1 0 0 0 0zm433-2c1-1 0 0 0 0zm2 0c1-1 1 0 0 0zm27-1c1-1 1 1 0 0zm-33 0c5-2 7-1 0 0zm-436-1c1-1 1 1 0 0zm457 0c1 0 1 1 0 0zm-455 0c0-1 0 0 0 0zm441-1c1 0 0 1 0 0zm-443 0c0-2 1 1 0 0zm426-1c0-1 2 2 0 0zm3 0c1 0 1 1 0 0zm-1 0c1 0 1 1 0 0zm5 0c1-1 1 1 0 0zm-2 0c2-1 0 0 0 0zm-438-1c7-7-1 0 0 0zm427 0c1-1 1 0 0 0zm2 0c1-1 1 0 0 0zm24-1c1 0 0 1 0 0zm7 0c1-1 0 1 0 0zm-474 0c-1-3 3 0 0 0zm442 0c0-3 1 0 0 0zm39-1c1 0 0 1 0 0zm-469 0c1-1 0 1 0 0zm468 0s0 1 0 0zm-460 0c-5-1 7-3 0 0zm-16-2c1-3 0 3 0 0zm19 0c0-6 6-4 0 0zm-36 0c1-1 0 1 0 0zm4-2c-3-8 7 0 0 0zm471 0c2-1 2 1 0 0zm-438-2s0 1 0 0zm435 0c1 0 0 1 0 0zm15 0c1 0 1 1 0 0zm-452 0c1-1 0 1 0 0zm434 0c1-1 0 0 0 0zm4-1c-3-3 3 2 0 0zm-446 0c1-1 1 1 0 0zm13 0c1 0 0 1 0 0zm424 0s0 1 0 0zm-425 0c0-1 0 0 0 0zm-40-2c3-6 1 6 0 0zm41 2c0-1 0 0 0 0zm-8-2c-7-3 6-1 0 0zm443 0s0 1 0 0zm-447 0c1-1 1 1 0 0zm-9-1c1 0 1 1 0 0zm9-1c1-1 1 1 0 0zm442 0c6-5-1 2 0 0zm16 0c1-1 2 1 0 0zm-469-2c0-1 0 0 0 0zm21-1c1 0 0 1 0 0zm-5 0c2-1 2 1 0 0zm440-1c1-2 1 1 0 0zm27 0c1 0 1 1 0 0zm-460-1c1 0 0 1 0 0zm22 1c1-1 1 0 0 0zm-19-1c0-2 2 1 0 0zm-14-1c0-1 0 0 0 0zm-11-1s0 1 0 0zm12 0c1-1 1 1 0 0zm1 0c4-2 0 1 0 0zm17 0c1-1 1 1 0 0zm432 0c1-1 1 1 0 0zm8-1s0 1 0 0zm-469 0c-1-2 2 1 0 0zm467 0c1-1 1 1 0 0zm15-2c-9-4 11 0 0 0zm5 0c1 0 0 1 0 0zm-471-1c1-1 0 2 0 0zm456 0s0 1 0 0zm-431 0s0 1 0 0zm416 0c-7 0 2-1 0 0zm-3 0c0-1 0 0 0 0zm-450-1c1-1 1 1 0 0zm16 0c1-2 2 1 0 0zm17 0c1 0 0 1 0 0zm-21-1c-1-2 4 0 0 0zm453 0c2-4 0 3 0 0zm-466 0s0 1 0 0zm455 0c1 0 1 1 0 0zm-443 0c0-1 0 0 0 0zm440 0c0-1 0 0 0 0zm21-1c-1-5 6 3 0 0zm-447 0s0 1 0 0zm1 0s0 1 0 0zm4 0s0 1 0 0zm458 0s0 1 0 0zm-472 0c2-1 1 0 0 0zm-36 0c1-1 1 0 0 0zm32-1c-3-4 5 3 0 0zm9 0c1-1 0 1 0 0zm436 0s0 1 0 0zm-423 0c1-1 0 1 0 0zm417 0c0-1 0 1 0 0zm-437-1c-1-3 3 2 0 0zm446 0s0 1 0 0zm-5 0c0-1 0 1 0 0zm-430 0c0-2 0 1 0 0zm442 0c0-2 1 0 0 0zm-476-1c1-1 1 1 0 0zm467 0c0-1 0 1 0 0zm31-1c-17-3 10 0 0 0zm-469 0c1-1 1 1 0 0zm-36-2c-2-8 9 2 0 0zm24 1c1-1 1 0 0 0zm16-1c2 0 0 1 0 0zm3 0c9 0-7 1 0 0zm-48 0c1 0 1 1 0 0zm43 0c2-3 1 2 0 0zm-26-1c-3-2 4 1 0 0zm32 0c1 0 1 1 0 0zm2 0c1-2 2 1 0 0zm-36-1c0-1 1 2 0 0zm29 0c1-2 1 1 0 0zm6-1c-1-2 2 2 0 0zm434 0c1-1 1 1 0 0zM8 298c0-1 0 0 0 0zm496-1c0-1 1 2 0 0zm-492 0s0 1 0 0zm35 0c-7 0-10-12-13-10 2-3 12-6 4-10 10 0 4 0 7 6-5 4-3 15 5 6 4 2-1 8-3 8zm0-3c0-2-2 2 0 0zm-3-1c-1-1-1 2 0 0zm-3-6c-1-2-1 2 0 0zm-4-1s0 1 0 0zm6-1s0 1 0 0zM9 297c1-1 1 1 0 0zm24 0c2-4 2 2 0 0zm18-1c1 0 0 1 0 0zm-41 0c0-1 0 0 0 0zm17 0c2-1 0 0 0 0zm476 0c0-1 0 0 0 0zm-479-1c1 0 1 1 0 0zm456 0c1-2 1 1 0 0zM9 295c0-1 0 0 0 0zm470 0c1-1 1 1 0 0zM7 294c0-1 1 1 0 0zm476 0c1-1 1 1 0 0zm-3 0c1-1 1 1 0 0zm-1-1c2-1 1 2 0 0zm27 0c-2-6 5 1 0 0zm-31 0c4-3 2-1 0 0zm7 0c1-1 1 1 0 0zm-448 0c-1-6 3 1 0 0zm445-1c5-3-4 3 0 0zm4 1c2-1 1 0 0 0zM4 292c0-2 2 1 0 0zm24 0s0 1 0 0zm26 0s0 1 0 0zm422-1c1-1 0 1 0 0zm-422 0c3-1 0 0 0 0zm-20-1c2-2 2 1 0 0zm19 0c-1-2 3 1 0 0zm421 0c1-1 1 1 0 0zm3 0c1-1 0 1 0 0zm-1-1c0-1 0 2 0 0zm10 1c1-1 1 0 0 0zm-6-1c1 0 1 1 0 0zm11 0c1 0 0 1 0 0zm-17 0c4-3-1 2 0 0zm32 0c1-1 0 1 0 0zm-454 0c1-1 0 0 0 0zm2-1c2 0 0 1 0 0zm424 0c1-1 1 1 0 0zm-421 0c1-1 0 0 0 0zm3 0c2-1 0 0 0 0zm416 0c0-1 0 0 0 0zm-452-1c1 0 0 1 0 0zm30-1c1-5 2 2 0 0zm409 1c0-1 0 0 0 0zm12 0c4-4 3 0 0 0zm3 0c1-1 0 0 0 0zm-417-1c0-4 6 0 0 0zm-9 0c0-2 1 1 0 0zm404 0c4-2-2 2 0 0zm17 0c1-1 1 1 0 0zm-427 0c1-1 1 0 0 0zm422 0c0-1 0 0 0 0zm3 0c1-2 1 0 0 0zm8 0c1-1 1 0 0 0zm-446-1c1 0 0 1 0 0zm421 0s0 1 0 0zm1 0s0 1 0 0zm23-1c1-1 1 2 0 0zm-444 0c-1-4 3 0 0 0zm27 0c1 0 0 1 0 0zm6 0c1-1 1 0 0 0zm1 0c1-1 1 0 0 0zm-40-1c3 0 0 0 0 0zm26 0c1-2 1 1 0 0zm-37 0c1-1 1 0 0 0zm49-1c1-2 1 2 0 0zm415 0c2-1 2 1 0 0zm-419-1c-1-1 2 3 0 0zm-8 1c1-1 0 0 0 0zm12-1c1 0 1 1 0 0zm-2 0c0-1 0 1 0 0zm-63 0c0-1 0 0 0 0zm66 0c0-1 0 0 0 0zm377-1c2-2 1 2 0 0zm-412 0c2 0 0 1 0 0zm35 0c-5-4 5 2 0 0zm383 0c1-1 1 1 0 0zm-415 0c1-1 0 0 0 0zm3 0c0-1 0 0 0 0zm408 0c0-1 0 0 0 0zm-409-2c1-1 1 1 0 0zm26-1c1-1 1 1 0 0zm2 0c1-1 1 1 0 0zm-29-1c-2-3 4 3 0 0zm5 0c-1-2 3 3 0 0zm19 0c1-1 1 2 0 0zm-41 0s0 1 0 0zm461-1c-7-1 11 1 0 0zm-449 0c-1-5 6 0 0 0zm10 0c0-1 0 1 0 0zm-31-1c2-2 4 2 0 0zm58 0c0-1 0 1 0 0zm-39-1c2-1 1 1 0 0zm445 0c2-1 0 1 0 0zm-460 0c2-1 0 0 0 0zm17 0c0-1 0 0 0 0zm8 0c1-2 1 1 0 0zm428 0c1-1 1 0 0 0zm-433-1c-6-7 7-2 0 0zm34 0c1-1 1 1 0 0zm399 0c0-1 0 0 0 0zm-420-1c1-1 1 1 0 0zm-11 0c1-1 1 1 0 0zm33 0s0 1 0 0zm-2-1c-1-1 2 1 0 0zm-66-1c-2-6 6 1 0 0zm30 0c0-1 0 1 0 0zm437 0c1-1 2 1 0 0zm44-1c1 0 1 1 0 0zm-44 0c1-1 0 1 0 0zm-433-2c1-2 2 2 0 0zm430 0c1-1 1 0 0 0zm27-1c1-1 1 1 0 0zm-460-1c-1-1 2 2 0 0zm-31-1c2-3 1 3 0 0zm32 0s0 1 0 0zm-13 0c1-1 1 1 0 0zm-3-1c1-11 0-5 3 1h-1l-2-1zm1-6c-1-2-1 2 0 0zm14 6s0 1 0 0zm438 0s0 1 0 0zm-437-1c2-3 4 3 0 0zm441 0c0-2 1 1 0 0zm-461 0c0-1 0 0 0 0zm450 0c1-1 1 0 0 0zm44-1c6-1 5 1 0 0zM8 259c2-1 1 0 0 0zm472 0s0 1 0 0zm-454 0c-4-3 9 0 0 0zm437 0c1-1 1 0 0 0zm6-1c6-3 8 0 0 0zm15 0c3-3 6 1 0 0zm9-1c1-1 1 1 0 0zm-461-1c1-3 3 3 0 0zm-31-1c-1-4 4 3 0 0zm477 0c1 0 1 1 0 0zm-459-1c1-6 2 3 0 0zm0-1c0 1 1 1 0 0zm14 1c1 0 0 1 0 0zm444 0c1 0 0 1 0 0zm-449 0c2-1 2 1 0 0zm-16-1c1-1 1 0 0 0zm-3-1c1-1 1 1 0 0zm7 0c2-1 1 1 0 0zm7-1c1-2 1 3 0 0zm-1 0s0 1 0 0zm11 0c1 0 1 1 0 0zm-9 0c0-1 0 0 0 0zm23 0c1-1 1 1 0 0zm-44-1c1-1 2 1 0 0zm33 0c1-1 1 1 0 0zm-2-2c1-1 0 1 0 0zm7 0c1 0 0 1 0 0zm-2 0c0-2 1 1 0 0zm-38-1c1-2 0 2 0 0zm37-1c1-1 0 0 0 0zm478 0c2-2 1 1 0 0zm-482-1c0-2 2 2 0 0zm-29 0c-1-2 2 1 0 0zm14 0c1-1 1 1 0 0zm10-1c1-1 1 2 0 0zm23 0c2 0 0 1 0 0zm447 0c3-1 3 2 0 0zm-482 0c1 0 1 1 0 0zm459 0c7-3 9 0 0 0zm-452 0c1-3 3 1 0 0zm-3-1c-5-1 5-1 0 0zm455 0c1-1 0 0 0 0zm-452-1c1 0 1 1 0 0zm6 0c-1-3 4 2 0 0zm-10-1s0 1 0 0zm-11-1c1-1 1 1 0 0zm14 0c-1-2 3 1 0 0zm19-1c1 0 2 1 0 0zm462 0s0 1 0 0zm1 0c1-1 0 1 0 0zm-461 0c-1-1 1 1 0 0zm-6 0c1-1 1 1 0 0zm-13-1c1-7 12-10 4-1-1 2-3 2-4 1zm2-1c-1-1 0 2 0 0zm3-1c3-5-5 1 0 0zm10 2c-8-12 4-5 0 0zm2 0c2 0 0 1 0 0zm8 0s0 1 0 0zm-5 0c2-1 0 0 0 0zm459-1c1-1 1 0 0 0zm10 0c1-1 1 0 0 0zm-499-1c-4-2 3 1 0 0zm-3-1c1-1 1 2 0 0zm497 0c1-1 1 2 0 0zm-498-1c2 0 1 0 0 0zm477-2c1 0 0 1 0 0zm-463 0c2-1 1 1 0 0zm-16 0c1-1 0 0 0 0zm491-1s0 1 0 0zm-470-2c0-4 3 2 0 0zm-14 0s0 1 0 0zm5 0c1-1 0 1 0 0zm1-1s0 1 0 0zm495-1c4-1-2 3 0 0zm-494 0c1-7 6-3 0 0zm477 0c2-1 0 0 0 0zm-10-2c3-14 5 4 0 0zm-454 0c1 0 1 1 0 0zm-19-1s0 1 0 0zm1-1c1 0 0 1 0 0zm12 0c1-1 0 2 0 0zm450-1c2-2 0 2 0 0zm24-1c1 0 1 1 0 0zm1 0c1-2 0 2 0 0zm1 0c17-4 14-1 0 0zm-473-1c2-1 1 1 0 0zm451-1s0 1 0 0zm-10-1c1-3 2 1 0 0zm-446 0c0-3 2 1 0 0zm465 0c1 0 1 1 0 0zm22 0s0 1 0 0zm-502-1c-1-2 2 1 0 0zm-11 0c1-1 1 0 0 0zm20-2c2 0 0 1 0 0zm462-2s0 1 0 0zm-454-1c-2-3 4 3 0 0zm6 0c-2-2 3 3 0 0zm-23 0c1 0 1 1 0 0zm19-2c0-1 0 1 0 0zm459-1c1-1 0 2 0 0zM1 209c0-1 0 0 0 0zm14-1c3-2-1 2 0 0zm478 0s0 1 0 0zm-475-3c1-2 0 1 0 0zm7 0c0-1 0 1 0 0zm7 0c0-1 0 0 0 0zm-14-2c1-3 3 0 0 0zm476-1c0-2 0 1 0 0zm-14 0c5-3 7-1 0 0zm-461-1c1-1 0 1 0 0zm7-1c-1-1 3 2 0 0zm461 0c2-1 0 0 0 0zm-460-1c1 0 1 1 0 0zm444 0c-1-1 1 1 0 0zm3 0s0 1 0 0zm21 0c1-1-1 1 0 0zm-22 0c1-1 0 0 0 0zm4 0c1-2 1 1 0 0zm-2-1c2 0 1 1 0 0zm-442 0c0-2 2 1 0 0zm438 0s0 1 0 0zm13 0c-4-5 7-1 0 0zm-19-1s0 1 0 0zm25 0c1 0 0 1 0 0zm13 0c0-1 0 0 0 0zm-42-1c1-1 1 2 0 0zm-447 0c1-1 1 1 0 0zm14-1c-1-5 3 1 0 0zm441 0c1-1 0 1 0 0zm14-2c-4-6 8-1 0 0zm-454 0c2-2 2 1 0 0zm428 0c1-1 1 1 0 0zm15-1c1 0 0 1 0 0zm7 0c2-1 1 1 0 0zm-450-1c-7 0-10-11-13-9 2-4 12-7 4-11 7 2 8-2 6 6 1 2-6 15 5 8 4-4 0 8-2 6zm0-3c0-2-2 2 0 0zm-3 0c-1-2-1 2 0 0zm-3-7c-1-2-1 3 0 0zm-4 0c0-1 0 0 0 0zm6-1c0-1 0 0 0 0zm-9 11c1-2 1 2 0 0zm469-1c1 0 1 1 0 0zm-9-1c1 0 0 1 0 0zM6 189c1-1 1 0 0 0zm483-1c0-1 0 0 0 0zm-473-1c-1-5 4 2 0 0zm472 0c1-2 1 2 0 0zm-17 0c-8-9 3-10 2-2 0 1-1 3-2 2zm-6-1c2-2 1 1 0 0zm22 0c0-1 0 1 0 0zm-24 0c1-1 0 0 0 0zm-422-1c1 0 0 1 0 0zm427 0s0 1 0 0zm37 0c0-1 0 1 0 0zm-18-2c1-1 0 1 0 0zm-455 0c-3-10 8-18 1-3-1 0 0 4-1 3zm2-6c-1 0-1 1 0 0zm476 5s0 1 0 0zm-472 0c0-2 2 0 0 0zm2 0c-6-5 3 0 0 0zm427 0c1 0 0 1 0 0zm37 0c1-1 1 1 0 0zm-468-1c0-9 5-6 0 0zm444 0c2-2 1 1 0 0zm-446-1c1-1 1 1 0 0zm449 0c0-1 0 1 0 0zm22 0c1-1 1 1 0 0zm-11 0c0-3 3 1 0 0zm-2 0c1-1 0 0 0 0zm-4-1c1-1 1 1 0 0zm-472 0c-1-5 3 0 0 0zm450 0c1-1 0 0 0 0zm-417-1s0 1 0 0zm-8 0c-1-2 1 1 0 0zm6 0c-1-3 3 0 0 0zm432-2s0 1 0 0zm-430-1c-3-4 6 3 0 0zm434-1c1-1 1 0 0 0zm-466 0c1 0 0 1 0 0zm30-1c1-3 1 2 0 0zm-28 0c1-1 1 1 0 0zm19-1c3-12 9-4 0 0zm2-2c-1-1 0 1 0 0zm-19 1c0-1 0 0 0 0zm8-1c2-3 0 2 0 0zm448 0c1-1 1 1 0 0zm-11 0c5-3 7-1 0 0zm16-1c1-1 1 2 0 0zm-434 0c0-1 1 1 0 0zm-16 0c2-4 4-1 0 0zm13 0c1-1 1 0 0 0zm-8-2c1-2 1 2 0 0zm436 1c2-1 0 0 0 0zm25-1c1 0 0 1 0 0zm-482-1c-6-7 7-2 0 0zm17 0c2-2 0-1 0 0zm445 0c-1-5 5 1 0 0zm-468-1c1 0 1 1 0 0zm466 0c1 0 0 1 0 0zm-4 0c0-1 0 0 0 0zm-453-1c0-3-1-2 0 0zm472 0c1-1 1 0 0 0zM3 163c1-1 1 2 0 0zm31 0c-4-1 4-3 0 0zm10 0c2-3 1 2 0 0zm-33-1c1-1 0 1 0 0zm470 0c0-1 0 1 0 0zm-440-2c1-1 0 1 0 0zm-38-3c0-1 0 1 0 0zm487 0s0 1 0 0zM0 156c4 1 1 0 0 0zm15 0c2-3 2 2 0 0zm7-1c0-1 0 0 0 0zm468-1c0-2 3 0 0 0zm2 0c1 0 1 1 0 0zm-5-1c1-1 0 0 0 0zM0 151c2-5 1 4 0 0zm25 0c1-5 5-1 0 0zm9 0c0-2 0 1 0 0zm450-1s0 1 0 0zm26-1c1-1 1 1 0 0zm1 0s0 1 0 0zM1 149c1-7 2 3 0 0zm0-1s1 1 0 0zm511 1c1 0 0 1 0 0zm1 0c0-1 0 0 0 0zm0-1c5-2 4 0 0 0zm-483-1c1-1 1 1 0 0zm-25-1c1-2 1 2 0 0zm2 0c0-1 0 1 0 0zm-3 0c0-1 0 0 0 0zm486-1c-1-8 11-2 0 0zm-2-1s0 1 0 0zM3 140c1-1 1 0 0 0zm490-1c3-4 7-1 0 0zM5 139c0-1 0 0 0 0zm487-4c-7-5 7-9 1 0zm-23-1c1 0 0 1 0 0zm3 0c-2-3 4 1 0 0zm3-2c0-1 0 0 0 0zm24 0c0-1 0 1 0 0zm-3-1c1 0 1 1 0 0zm-470-2c3-2 3 0 0 0zm4-1c1-1 0 0 0 0zm459-2c-2-6 6-1 0 0zm-455-1c1-1 1 1 0 0zm-22-2c1-2 2 2 0 0zm468-1c1-1 1 2 0 0zm-459-1c2-4 3 3 0 0zm10 0c1-3 2 1 0 0zm468-1c1-1 0 0 0 0zm-446-1c1-1 1 1 0 0zm-19 0c1-1 1 0 0 0zm439-1s0 1 0 0zm11 0c0-1 2 2 0 0zm-448-1c1-1 1 1 0 0zm-18 0c1-1 1 1 0 0zm-6 0c0-1 0 0 0 0zm465 0c1-1 1 0 0 0zm-454-1c3-8-14-15 4-4 8 5-2-1-4 4zm450 0c1 0 1 1 0 0zm-1-1c0-1 0 0 0 0zm2 0c0-1 0 0 0 0zm13-1c1-1 1 1 0 0zm-10 0c1-1 1 0 0 0zm-467-1c0-4 2 0 0 0zm460 0c1-1 1 0 0 0zm-442-1c1-1 0 1 0 0zm473-1c1 0 1 1 0 0zm-458-1s0 1 0 0zm431 0c1-1 1 0 0 0zm-424-3c0-1 0 1 0 0zm2-1c5-2-1 0 0 0zm-22 0c0-2 1 0 0 0zm-16-2s0 1 0 0zm5 0c1-1 0 0 0 0zm467-2c0-1 0 0 0 0zm28-1c1-1 1 1 0 0zm-29-3c1 0 1 1 0 0zM48 97c0-1 0 1 0 0zm465-4c-2-3 3 1 0 0zm-29-1c1-1 1 2 0 0zM51 92c0-1 0 1 0 0zm420 0c0-1 0 1 0 0zm-6-1c1 0 0 1 0 0zm10 0c3-4 7 2 0 0zm-10 0c1-1 0 0 0 0zm1-1s0 1 0 0zM20 89c1-1 1 0 0 0zm450 0c1-1 0 0 0 0zM46 88c1-1 1 1 0 0zm-19 0c-1-3 2 1 0 0zm451-1c0-1 0 1 0 0zM44 86c1 0 1 1 0 0zm3-1c1-1 1 1 0 0zm449-1c6-4 4 2 0 0zm-23 0c0-1 0 0 0 0zM40 83c1-2 1 1 0 0zm435-1c1-1 1 1 0 0zM47 82c0-1 0 1 0 0zM8 81c0-1 0 1 0 0zm25-2c-10-8 8 4 0 0zm461 2c0-1 0 0 0 0zm-15-1c7-9 23 2 0 0zm16 0c-7-9 42-6 11-2-3 2-7 3-11 2zM37 78c0-1 0 1 0 0zm2 0c0-2 2 1 0 0zm-19-2c0-2 2 0 0 0zm451 0c1 0 0 1 0 0zm-1 0c0-1 1 1 0 0zm15 0c1-5 3 1 0 0zm-19 0c1-1-1-1 0 0zm53-2c0-2 3 1 0 0zm-9 0c0-1 0 1 0 0zm-44 0c2-1 0 0 0 0zm2 0c1-1 0 1 0 0zm36 0c-19-5 33-9 6-2l-6 2zm-39 0c1-1 0 0 0 0zm33-1s0 1 0 0zM18 73c2-9 5-1 0 0zm463-2c1 0 0 1 0 0zm-16 0c1-1 1 1 0 0zm15 0c1-1 0 0 0 0zm-4-1c-2-2 7 2 0 0zm23 0s0 1 0 0zm-19-1c1-1 0 0 0 0zm-5-1c1-1 1 1 0 0zm2 0s0 1 0 0zm-4 0c1-1 1 0 0 0zm8-1s0 1 0 0zM20 67c1-2 1 0 0 0zm22-2c0-1 0 1 0 0zm-24-6c0-8 3 1 0 0zm171-4c1-2 1 2 0 0zM19 54c0-3 0-10-4-4-4-3 0-9 1-12 4-4 14-12 8-2 3-1-5 11 2 4 11-9-4 13-7 14zm2-3c-1-1-1 2 0 0zm2-4c1-4-4 4 0 0zm-4 0c-1-1-1 1 0 0zm1-1c-1 0-1 2 0 0zm0-1c5-7-8-1 0 0zm3-2c-1-1-1 2 0 0zm-6 0c1-7-5 2 0 0zm5-2c-1-2-1 1 0 0zm-2-2c1-10-6 6 0 0zm3 0c-1 0 0 1 0 0zm0-4c-2-5-1 5 0 0zm174 17c-1-13 10 0 0 0zm293 0c2 0 0 1 0 0zm0 0c0-1 0 0 0 0zM84 51c2-1 1 0 0 0zm1 0c1-1 1 0 0 0zm8 0c1-1 0 1 0 0zm182 0c-2-3 4 0 0 0zm4 0c1-1 0 1 0 0zm80 0c0-1 0 0 0 0zm38 0c3-4 0 1 0 0zm101-1c2-2 2 1 0 0zm-193 0c1-1 1 1 0 0zm-111 0c-2-3 3-1 0 0zm13-1c3-3-2 3 0 0zm280 1c0-1 0 0 0 0zm-109-1c0-1 1 1 0 0zM87 49c0-1 0 1 0 0zm296-1c2-3 1 4 0 0zm16 1c1-1 1 1 0 0zM79 48c1 0 1 1 0 0zm2 0c-8-6-6-9 2 0h-2zm1 0c-4-4-4-2 0 0zm120 0c1-1 1 1 0 0zm202 0c3-6 2 2 0 0zm-253-1s0 2 0 0zm260 1c1-2-1 1 0 0zm-55-1c1 0 1 1 0 0zm-24 0c1-1 1 0 0 0zm27 0c0-2 0 1 0 0zm49-1c0-2 2 1 0 0zm63 0c1 0 1 1 0 0zm-98 0c-1-2-2 0 0 0zm-8 0c0-2 1 1 0 0zm145 0c0-1 0 0 0 0zm-402-1c0-2 1 1 0 0zm232 0c1 0 1 1 0 0zm73 0c-1-4 3 1 0 0zm-72 0c1-1 0 1 0 0zm22 0c1 0 0 1 0 0zm15 0c1-3 2 2 0 0zm32 0c0-2 1 0 0 0zm-75 0c0-1 0 0 0 0zm70 0c1-2 0 1 0 0zm11 0c0-3 2 1 0 0zM80 44c1 0 1 2 0 0zm41 0c0-2 2 2 0 0zm7 1c0-1 0 0 0 0zm125-1c1-1 1 2 0 0zm115 0c1-1 0 2 0 0zm53 0c3-1-2 2 0 0zm-193 0c-2-6 6-1 0 0zm247 0c3-2 1 1 0 0zM35 44c1-1 1 1 0 0zm51 0c0-1 0 0 0 0zm48 0c-1-3-2 0 0 0zm-48-1c1 0 1 1 0 0zm41 0c0-1 0 1 0 0zm57 0c1 0 0 1 0 0zm213 0c3-18 12 1 0 0zm82 0c-7-3 3-2-10-4 6-9 49-19 45-20-12 8-25 14-4 7-13 5 12 1-3 5-5 6 21-5 3 3-8 9-29 5-31 9zm5-6c2-3-6 3 0 0zm2-1c-1-1-1 1 0 0zm-65 7c3-3 3 1 0 0zM71 43c1-1 0 0 0 0zm7 0c0-1 0 0 0 0zm375 0c7-9 1-4-3-9 12-5 13 0 11 4-2 1-5 6-8 5zm39-1c1 0 1 1 0 0zm-123 0c-1-4 9-10 2-1-1 0-1 2-2 1zm-34-1c0-1 1 2 0 0zm106 1c1-1 1 0 0 0zm-262-1c-2-5 5-3 0 0zm7 0s0 1 0 0zm151 0s0 1 0 0zM43 40c1-3-8-6 3-5 5 8-3 3-3 5zm217 1c1-2 2 1 0 0zm132 0c1-1 1 1 0 0zm34 0c2-1 1 1 0 0zm75 0c4-3 3 0 0 0zm-393-1c0-1 2 1 0 0zm276 0c-1-2 1 2 0 0zM49 40c1-2 1 1 0 0zm100-1c2-4 2 3 0 0zm145 1c-1-2 1 0 0 0zm2 0c1-1 1 0 0 0zm82 0c0-2 0 1 0 0zm-119-1s0 1 0 0zm184 0c0-1 0 1 0 0zm-179 0c0-2 4 2 0 0zM51 39c1-3 2 1 0 0zm30-1c2-2 0 2 0 0zm48 1c1-1 0 0 0 0zm56-1c-1-8 5-2 0 0zm153 1c-16-17 15-1 0 0zM84 38c-2 0 9-8 0 0zm354 0c-5 0 7-8 7-4 5-2-6 6-7 4zm-293 0s0 1 0 0zm147-1c-1-8 6 4 0 0zm121 1c0-2 2 0 0 0zm-35-1c1-3 1 3 0 0zm-218 0c-4-8 2-33 2-9 1 2 3 11-2 9zm102 0c1 0 1 1 0 0zm82 0c-1-6 4 2 0 0zm-215 0c0-6 4-1 0 0zm250 0c1-1 1 0 0 0zm-156-1c0-1 2 2 0 0zm47 0c0-1 1 2 0 0zm56 0s0 1 0 0zM50 36c0-5 2 1 0 0zm262 0s0 1 0 0zM29 35c7-7-1 1 0 0zm155 0c1-4 1 2 0 0zm83 0s0 1 0 0zm50 0c-2-4 3 2 0 0zm44-1c1-1 0 2 0 0zm62 0c4-6 6 0 0 0zm43 0c1-1 1 1 0 0zm-294 0c0-3-1 0 0 0zm292 0c1-1 0 1 0 0zm-299 0c1-1 0 0 0 0zm130-1c-16-7 6-6 0 0zm29 1c0-2 1 0 0 0zM27 33c1-1 0 1 0 0zm283 0c-6-7 7 1 0 0zm55 0c0-1 2 0 0 0zM35 33c-2-3 10-7 2-1l-1 1h-1zm158-1c2-2 0 3 0 0zm2 1c1-4 0 1 0 0zm224 0c1-2 0 1 0 0zm49-1c9-6-1 3 0 0zm-360 0c0-2 2 2 0 0zm77 0c1-1 1 1 0 0zm83-1c-3-6 6 5 0 0zM51 32c-2-4 5 0 0 0zm175 0c1-1 1 1 0 0zm-29 0c1-1 1 0 0 0zm-24-1s0 1 0 0zm142 0c-3-5 5 3 0 0zm3 0c0-1 1 1 0 0zm-164 0c1 0 0 1 0 0zm306 0c1-1 0 0 0 0zm-341-1c1-4 1 3 0 0zm45 0c1-1 1 2 0 0zm9 0c-1-10 4 3 0 0zm9 0c0-3 1 2 0 0zm121 0c-4-8 8 1 0 0zm-4 0c0-3 2 2 0 0zM83 30c1-1 0 1 0 0zm112-1c1-1 0 2 0 0zm273 1c1-2 0 1 0 0zm-32-1c6-10 10-2 0 0zm15 0c5-13-12 5-1-8 12-17 16-6 9-3 7-5 0 4 11-2-13 8 5 4-12 13h-7zm10-16c-1-1-1 0 0 0zM282 29c-6-5 5 1 0 0zm59 0c-3-4 3 1 0 0zM50 29c1-1 1 1 0 0zm56 0c-1-3 3 1 0 0zm71 0c-4-12 8-7 0 0zm131-1c0-2 1 2 0 0zm6 1c0-1 0 0 0 0zm0-2c1 0 1 2 0 0zm82 0s0 1 0 0zm72 0c1-1 0 2 0 0zM85 27c-1-2 2 1 0 0zm49 0c1-2 2 0 0 0zm46 0c0-3 1 2 0 0zm15 0c1 0 1 1 0 0zm248 0c0-1 0 0 0 0zm31 0c2-2 0 2 0 0zM37 27c1-1 0 0 0 0zm12-1c1-2-1 2 0 0zm17 0c1-1 2 1 0 0zm104 0c1-1 1 1 0 0zm35 0c0-3 1 0 0 0zm75 0c-1-2 1 1 0 0zm232 0c3-1-1 1 0 0zm-220 0c-5-6 4-1 0 0zm222 0c1-1 0 1 0 0zm1 0c2-3 0 2 0 0zm-394-1s0 1 0 0zm42 0c0-11 3 1 0 0zm330 1c1-1 1 0 0 0zm-194-1s0 1 0 0zm-119 0c1-1 1 1 0 0zm145-1c-2-8 8 1 0 0zm119 0c1-1 1 1 0 0zM53 24c-1-3 2 1 0 0zm223 0c0-1 0 1 0 0zm-110 0c0-2 0 1 0 0zm-28-1c1-1 1 1 0 0zm27-1c0-6 4 4 0 0zm-31 0c0-2 1 0 0 0zm68 0c-1-7 3 3 0 0zm266 0c1-1 0 1 0 0zm-39 0c1-1 1 1 0 0zm16-1c1 0 1 1 0 0zm-77 0c1 0 1 1 0 0zm124-1c1 0 0 1 0 0zm-314 0c0-1 1 1 0 0zm252 0c1-1 0 1 0 0zm-142 0c-1-2 1 1 0 0zm-86-1c0-1 0 1 0 0zm1 0c1-2 1 1 0 0zm245 0c3-2-1 1 0 0zm-251 0c0-2 1 1 0 0zm125 0c1-2 0 1 0 0zm12 0c-2-5 4 0 0 0zm-48-1c1-1 1 2 0 0zm-108-1c0-6 3 3 0 0zm268 1c2-4 2 0 0 0zM92 16c2-3 1 3 0 0zm213 0c0-1 0 1 0 0zm134 0c0-1 0 1 0 0zm-315 0c1-2 1 1 0 0zm56 0c-1-12 6-3 0 0zm288-1c-4-3 12-7 0 0zm-339-1c0-3 1 0 0 0zm7 0c-3-3 4-2 0 0zm77 0c1-1 1 1 0 0zm76 0c-1-2 2 0 0 0zm4-2c-4-10 9 4 0 0zm-124 0c0-14 5 2 0 0zm298 0s0 1 0 0zm18 0c1 0 1 1 0 0zm-204-1c1-3 2 2 0 0zm234 1c0-1 0 0 0 0zm-42-1c1-1 0 2 0 0zm4 0s0 1 0 0zm-336-1c0-1 0 1 0 0zm26 0c0-1 0 0 0 0zm300-1c1 0 1 1 0 0zm13 0c1-1 0 1 0 0zM131 9c0-1 0 0 0 0zm-21-1c1-1 1 1 0 0zm78-1c2-3 0 3 0 0zm21 0c1-1 0 0 0 0zm254-1c4-5 6-1 0 0zm-87 0c1-1 1 0 0 0zM188 5c1-2 1 2 0 0zm-39-1c1-2 1 3 0 0zm68 1c0-1 0 1 0 0zm272-3c5-3-1 3 0 0zM238 2c2-4 0 2 0 0zm263-1c3-4 1 3 0 0z"/></svg>