<?xml version="1.0" encoding="UTF-8" standalone="no"?>
<!-- Created with Inkscape (http://www.inkscape.org/) -->

<svg
   version="1.1"
   id="svg1"
   viewBox="0 0 547.20001 224.64"
   preserveAspectRatio="none"
   xmlns="http://www.w3.org/2000/svg"
   xmlns:svg="http://www.w3.org/2000/svg">
  <defs
     id="defs1" />
  <g
     id="g1">
    <path
       style="fill:#b0c196;fill-opacity:1;stroke:#b0c196;stroke-opacity:1"
       d="m 309.35043,216.71069 c 0.92169,-0.60977 0.74675,1.09913 0,0 z m -17.216,-0.36511 c -1.50976,-5.20833 4.97073,1.06171 0,0 z m -210.944009,-7.936 c 0.817582,-1.14798 0.817582,1.14798 0,0 z M 227.7639,206.21913 c -3.71548,-9.54366 8.13647,3.61446 0,0 z m 219.00778,0.5322 c -6.74418,-9.73848 8.61817,0.52314 0,0 z M 89.084172,206.43784 c 0.951281,-5.20007 2.767481,2.15447 0,0 z m 151.466258,-1.84938 c 0.80193,-2.6125 1.54131,2.35393 0,0 z m 93.34203,0.41649 c 0.32309,-2.20922 1.4024,0.98759 0,0 z m 125.07582,-0.0865 c -0.42102,-3.73456 2.69542,1.44214 0,0 z m -209.57822,-1.16099 c 0.13781,-3.27978 4.33705,2.75417 0,0 z M 93.414421,203.22558 c -0.556445,-3.70661 5.091392,1.23739 0,0 z m 177.688379,0.0517 c 0.003,-2.19313 2.11545,0.27831 0,0 z m 154.4211,-0.89811 c -3.71547,-9.54366 8.13648,3.61447 0,0 z m -192.05429,-0.28959 c -1.03952,-1.59052 1.82035,2.02032 0,0 z m 218.28082,-0.0989 c 0.92169,-0.60977 0.74675,1.09913 0,0 z m -196.8,-1.10111 c 1.42472,-1.50643 1.25523,1.52193 0,0 z m 22.19142,-0.24 c -1.48927,-5.50642 4.7672,2.89777 0,0 z m 161.16858,0.0989 c 0.80193,-2.61251 1.54132,2.35393 0,0 z m -150.32667,-0.71889 c 1.16282,-1.67873 1.07588,1.4239 0,0 z m -184.44609,-0.79534 c -2.87396,-4.62951 4.67718,-0.32432 0,0 z m 133.17276,-0.26466 c 1.42472,-1.50643 1.25523,1.52193 0,0 z M 91.110421,198.62672 c 3.971119,-5.36971 5.98086,-4.19256 0,0 z m 219.854519,-0.18974 c -4.78649,-7.54465 8.4416,-0.75596 0,0 z m -122.81452,0.16067 c -2.11681,-4.51664 3.78437,0.53942 0,0 z m 134.90949,-1.0726 c 1.62403,-18.24292 11.24829,3.67394 0,0 z m 83.49052,0.9389 c -2.16662,-3.98298 3.74956,0.48814 0,0 z m 24.67918,-0.21437 c -1.03952,-1.59052 1.82035,2.02032 0,0 z m -325.23919,-0.08 c 1.14825,-1.2183 0.3974,1.26156 0,0 z m 76.7462,-0.82481 c 0.65344,-3.46083 3.0329,1.7591 0,0 z m 91.23604,-0.28387 c -2.82249,-7.73655 8.83016,0.19237 0,0 z m -73.10224,-0.0302 c 0.99398,-1.1605 0.6072,1.61133 0,0 z m 35.36001,0.17889 c 0.387,-1.16998 0.78922,1.13993 0,0 z m 24,0 c 0.0178,-2.54098 2.24232,1.14493 0,0 z m 159.22526,-0.18667 c 0.46191,-0.85224 0.14261,1.37967 0,0 z m -150.26526,-0.13333 c 0.387,-1.16998 0.78922,1.13993 0,0 z m -34,-0.53193 c -1.32512,-1.69225 1.59317,0.53839 0,0 z m -165.1162,-0.64903 c 3.626289,-1.26637 -2.047276,1.96126 0,0 z m 383.1162,0.22095 c 0.3974,-1.26156 1.14825,1.2183 0,0 z m -184.48,-0.30112 c 0.60725,-1.61132 0.99394,1.16052 0,0 z M 96.847797,194.9556 c -1.038763,-5.10255 5.538883,0.41926 0,0 z m 153.195963,0.12065 c -0.67029,-1.87255 1.87256,0.67028 0,0 z m 135.86667,-0.3186 c -2.11683,-4.51664 3.78437,0.53941 0,0 z m -189.40659,-0.34398 c -6.36742,-4.101 6.26123,-3.29121 0,0 z m 218.09006,-0.12293 c -4.83321,-6.35953 6.64501,-1.18921 0,0 z M 55.711436,193.86338 c -0.361506,-3.26854 3.019919,0.70966 0,0 z m 230.738384,-0.19657 c -1.24149,-4.97931 4.91342,0.52019 0,0 z m 112.18061,-0.47612 c 0.99398,-1.1605 0.6072,1.61133 0,0 z m 35.36,0.17889 c 0.38699,-1.16997 0.78922,1.13993 0,0 z m -247.78468,-1.17094 c 1.33626,-2.00665 1.32823,1.76711 0,0 z m 75.5338,-0.0215 c -6.7619,-5.55139 6.48557,-3.88775 0,0 z m 171.21088,0.34055 c -1.32512,-1.69225 1.59319,0.53841 0,0 z M 97.510421,191.84638 c -2.990783,-7.49009 6.142309,-0.26854 0,0 z m 134.556779,0.23798 c -1.61375,-4.68763 -3.82692,-6.83166 -6.80723,-9.26691 4.22563,-5.16565 0.53268,-8.86983 -1.87508,-6.32347 0.23394,8.83595 -10.47767,-4.38283 -14.93741,2.25299 -3.15955,-7.08357 -10.95196,-0.0541 -11.79831,0.32524 0.14979,-3.48817 0.5541,-5.26865 -3.0744,-1.61665 3.80747,-7.48712 -5.03348,1.81743 -1.3501,-5.47259 -5.66977,5.58903 -12.30331,2.24795 -16.63429,10.94029 3.96891,-6.70112 0.5877,-5.19787 0.14117,-6.9929 -4.24442,-5.35439 -2.29894,11.41104 -10.78553,2.72228 -8.72002,0.81247 2.05426,-10.60014 -5.35564,-3.91072 4.85617,-10.84135 -6.80915,2.03629 -5.99031,-0.003 -8.00752,5.4185 -4.68194,5.07099 -7.25112,2.93481 2.8159,-6.00761 -4.94961,1.95783 -2.29285,-3.61422 -4.48547,-4.62288 -6.36283,5.15487 -6.96889,-0.30679 0.22921,-5.79142 -14.07748,6.77608 -18.13678,12.0673 4.58555,-6.71278 0.42349,-5.13964 0.027,-6.92944 1.74893,-3.72909 -5.25859,1.11856 -4.20823,-3.02098 -6.32808,9.22346 2.003,-4.6629 -3.10271,-0.49986 2.80447,-4.78422 -11.40298,-3.06377 3.28401,-8.84627 -0.008,-1.82978 -6.96324,-2.97875 -6.56941,0.11496 -6.886,6.40531 -2.83964,0.76962 -7.1582,2.88025 -12.704674,11.845 -0.99749,-0.89427 -5.493927,1.44332 -6.303927,7.11416 -4.764455,4.14091 -3.018517,0.22257 -2.399325,3.9176 -5.202943,-8.43187 -8.46047,1.72684 -6.588567,6.69693 2.205245,-8.40356 -2.908218,-2.82972 0.985257,-4.5421 -2.034492,2.5506 -1.06347,-3.61104 -7.817021,4.83009 -10.248868,4.01229 -18.474605,14.44288 2.643254,-6.65969 2.323054,-6.04288 -1.871095,-8.14793 -3.201527,-1.79468 15.652739,-13.8009 0.721612,-6.02786 8.823298,-7.94776 1.778522,-6.51307 -1.835644,-10.14255 -7.026602,4.70989 -2.105801,-3.15077 -9.342757,-2.28043 2.797747,-7.8372 -12.688817,1.61192 -14.685799,-5.42518 9.854896,3.26561 -9.36894,-5.0618 -9.829083,-7.35706 -7.770495,-3.40441 -18.5825491,-16.46689 -11.776566,-16.0095 9.640794,5.32647 23.237567,6.60351 11.68607,0.13174 -7.264674,-3.891 -14.8997968,-10.28715 -22.0000007,-18.0082 -2.78322741,-9.132871 11.0925377,1.96152 18.6428677,1.40756 11.654585,-1.9496 4.717148,-1.84796 4.018541,-8.46299 1.907682,-1.877681 5.239078,-1.841781 5.792713,-5.381411 -0.741762,-1.41649 7.558871,-1.88344 0.262988,-6.80154 -3.000684,-10.33489 9.81062,4.37223 14.64567,-4.19221 6.307157,-4.55317 10.417746,-11.0166 9.581635,-12.28624 11.507512,2.9561 4.998692,-13.1198 7.278839,-14.20746 9.671625,5.40203 18.823064,0.0716 22.14141,-4.73426 -2.319434,2.05502 14.712185,-5.49128 10.970689,-5.24845 -0.573896,-0.91888 13.849987,-10.45419 12.216927,-10.41703 6.18987,-3.65692 -2.07523,-9.2082 8.4477,-4.62931 -5.3002,4.54097 0.92162,4.10106 -9.01038,8.68435 -14.75806,8.59171 18.02591,-7.15114 -0.68021,3.21883 8.58636,-2.57779 7.69454,1.53994 7.43707,3.18459 2.96195,-0.59523 0.12764,5.07045 7.3385,0.47493 6.55046,-2.65295 11.80611,1.67697 1.31505,3.40106 5.02222,0.95385 7.62695,0.0988 8.61325,5.27345 5.44966,0.38034 5.73939,-6.40052 14.5993,-5.94796 -7.47397,3.79092 4.89532,0.72651 -3.90019,4.4311 10.92478,-3.22324 3.86963,1.49198 5.28708,3.2094 5.06061,-8.99583 16.29053,-4.47143 12.40994,-1.76378 -3.53422,3.82864 5.13149,-0.31409 1.29722,3.01032 11.3389,-5.53577 5.37047,-3.12553 5.58546,-4.39963 9.47408,-3.06598 4.2039,-9.28881 -0.48133,-16.37787 6.12113,0.0149 9.48637,11.77942 16.86512,4.82393 0.90392,-2.90572 5.0604,1.39442 1.46251,2.17428 7.23436,-2.56924 -7.70314,8.49145 -4.76367,6.7857 2.96763,-0.6732 14.29797,-0.0136 9.59775,1.82249 -0.50313,0.77433 9.91552,-1.0867 10.01688,1.18434 -0.14204,-3.30845 5.06751,-6.85981 10.25072,-2.24071 5.21272,2.69855 -7.51772,-10.17648 -1.07758,-6.00303 -0.27931,-5.1249 -6.67644,-16.85 0.65067,-5.54928 6.74431,5.46268 15.17974,14.43584 18.42626,4.65102 -11.56512,-8.91999 -0.54636,-10.60495 5.00062,-3.3647 6.19821,-6.31488 1.28085,-13.99332 10.1564,-6.6749 3.34505,-2.02163 8.81649,-4.01011 3.6857,-0.002 8.44061,4.1132 -0.57769,11.76453 -1.11907,13.31034 5.87571,-3.34479 0.71865,-0.12056 3.57422,0.44904 4.97582,2.09037 4.04212,-0.39933 3.01053,-4.24343 5.28524,-3.4949 -0.0754,7.55939 4.77214,4.52284 -3.67496,5.07324 11.30757,-10.08543 4.97973,1.80487 8.29705,-8.4256 17.75864,-6.43611 13.59068,-13.9054 8.39446,1.65296 13.20585,-5.90989 17.63117,-12.94745 4.90017,-3.37887 5.35696,-30.5003204 7.31843,-12.32 -4.40281,9.57943 4.96836,31.40463 -11.37123,28.32 0.97908,1.67076 -8.86039,5.36631 2.05875,1.97128 -4.91317,1.93036 7.34508,2.10653 8.97475,-0.13927 2.17958,-5.33088 7.9,-11.52136 10.59469,-6.51565 2.07865,3.79727 6.10036,7.57263 8.81098,13.4948 10.28292,-7.42489 2.73214,8.27895 10.72471,1.49849 1.6004,0.54933 8.31654,-13.25731 6.29144,-3.64949 -3.19314,7.83792 -17.55217,13.06269 -2.53578,6.08094 9.78361,-6.03726 7.82632,-5.28595 10.94234,-7.94549 8.86585,-5.9503 7.96633,-8.6745 15.731,-10.3911 3.29799,-0.10793 -0.73809,4.17828 -4.31207,4.75087 -13.79774,8.31869 4.9044,-1.10666 6.49047,0.68456 4.31157,0.33462 2.79734,6.96856 7.0765,5.63421 -6.6096,2.9346 0.60363,-0.14001 1.48629,5.03368 -10.24693,4.57827 17.92826,-7.30297 5.4263,-3.18495 10.71067,-5.76987 10.68288,-11.58507 20.07721,-12.62337 0.78581,2.38075 -5.8845,4.17435 -11.74627,9.4968 8.61425,-5.22558 13.48884,-5.1755 4.17666,0.19329 6.20301,-3.5841 11.03428,1.84086 4.39414,0.40142 -2.52723,2.12755 -17.9859,11.04508 -2.82832,3.81245 -0.0583,2.00193 12.42733,-4.01586 2.98323,-1.09039 10.53394,-5.4469 11.5233,-9.37551 18.63433,-13.24339 4.27697,0.1147 4.54726,3.62671 -3.04,4.74574 -4.37442,4.26957 -8.39856,6.38606 2.56383,0.98449 5.91874,-0.89758 -11.83876,6.29444 1.89011,3.35177 5.6875,0.70822 -5.97374,2.6285 -6.52097,4.84173 -12.59338,5.91456 12.59089,-2.53865 10.12383,-1.20521 -8.8227,3.24182 11.47773,3.18368 0.48108,5.29587 9.48811,-0.91206 6.36351,-2.82584 10.51319,3.71579 1.01739,-5.42498 14.73039,-10.48005 12.538,-3.84 -5.91455,2.82706 -9.89302,0.17151 -8.46907,5.44004 0.23094,6.34361 11.15235,-6.18474 12.80006,-1.5336 -4.29096,7.77141 12.34687,3.30943 -2.24006,5.99955 1.4817,2.51718 15.80667,1.72246 11.63272,-4.40721 -9.47531,-5.35248 19.11016,-6.15114 3.02752,0.43353 1.22523,2.08739 12.27929,1.34114 6.3002,5.81121 2.19493,-2.66446 10.88797,2.67855 6.88004,4.04164 -6.04835,2.79781 10.53821,-3.54605 10.22051,2.30105 4.49164,6.95491 -5.43872,4.89018 -8.76947,8.58976 6.16616,0.62915 -3.11169,3.82777 2.2988,3.16889 10.1143,0.0827 3.61871,0.54492 9.37566,3.10639 5.75987,-6.38393 4.51234,3.17632 6.20599,3.68877 7.90467,7.20864 9.19093,-5.43623 16.10859,-0.35067 6.58379,-1.83163 -3.63999,4.08619 4.56,3.21492 8.5977,-0.53315 2.58747,6.39099 3.99999,5.16753 6.3592,-3.42321 12.14597,-0.10994 10.64,5.091151 6.88695,1.44181 -19.34752,3.13075 -2.8,7.88104 5.6241,2.26183 26.5374,2.44409 8.37419,4.56247 -13.56674,-2.60489 -13.08519,-0.11093 -0.37419,2.36853 7.90656,0.52745 18.88143,8.45201 3.3032,5.73301 14.62607,4.61558 -21.81787,3.54583 -8.42179,5.532 -6.23782,2.99715 -20.2955,0.72497 -17.28187,4.64 5.16826,-1.08944 14.78644,-0.86598 7.30726,1.76004 6.68475,1.83787 34.38576,6.38125 17.70681,11.30606 -7.2089,2.94227 -16.74047,0.87868 -11.98385,3.79201 -11.59461,1.5663 -15.09025,0.65759 -24.98001,6.53075 -1.6318,0.35118 6.71318,-7.32184 -3.82736,0.65362 -9.16112,1.12994 10.6482,11.14256 -3.5652,3.98612 -10.24492,1.39365 -13.13855,11.46021 -12.98518,14.17127 -3.90983,-1.23075 -13.07851,-4.26266 -7.84115,3.33799 5.86284,10.95838 -13.92225,-6.32937 -9.30372,4.63298 -17.623,0.43125 5.36248,-18.34876 -11.55783,-10.52721 -0.97903,2.69194 5.3672,10.33939 -4.68362,3.99957 -0.6775,5.8332 -13.95453,-1.54288 -10.57681,6.99419 -8.28681,-1.25816 -7.31331,8.4846 -7.49329,-2.99197 -9.38156,1.38192 3.07311,-4.37078 -7.13079,-6.93144 -8.88199,6.26022 -12.23204,18.07101 -17.86888,3.46357 8.64921,-4.83262 1.83171,-4.92409 1.08999,-7.7761 -3.41416,-1.568 -14.89874,-8.26522 -11.90644,1.45839 5.45652,-2.67573 9.05608,5.72749 1.02845,1.90021 1.63676,16.82171 -21.38645,-1.87758 -3.4258,-3.70886 1.30317,-2.00832 -4.30319,-4.94252 -7.98426,-5.6256 -2.62766,10.28146 -10.48875,1.54742 -10.65276,12.31555 -16.02774,-1.69312 0.40529,-10.80437 -1.03815,-13.16461 -2.3214,-0.16234 -0.40063,-4.22469 -6.98444,0.50182 5.92968,-13.22786 -16.15824,17.77611 -8.9584,2.44561 -3.2603,1.864 -1.16125,-2.2173 -7.18469,0.48457 -2.34362,1.55964 3.57066,14.3951 -4.6947,4.96166 -11.34111,0.81507 -12.64543,9.72604 -10.06323,16.34989 -6.05068,-0.60247 -19.07927,0.18935 -9.02201,-3.2056 6.36265,-2.59349 7.79011,-11.24241 0.83181,-10.11587 -5.26048,3.58882 -0.16328,-6.12263 -5.78368,-6.08819 -4.98831,3.65367 -9.0866,0.91735 -8.43557,5.12017 3.70865,13.95022 -5.17116,-6.61321 -7.86264,4.16609 -9.67705,13.08291 -2.3861,-0.88097 -12.10198,2.37605 -6.01266,-6.97709 -11.19608,12.54034 -7.06663,-1.2635 -6.08947,5.17945 -5.36459,-3.56324 -13.18941,1.70485 12.41798,1.4687 -11.21172,12.24981 -2.45192,0.52007 -13.2249,-5.49596 7.19874,2.82704 0.56987,-6.05364 0.0337,-2.46999 -3.41916,-3.41626 -2.65329,-6.75584 -1.16866,-3.89254 -3.25219,1.89955 -4.17006,6.39191 -1.32671,7.86496 -6.81368,0.57654 -5.24948,-1.93061 -8.55403,-0.26733 5.15258,17.37846 -8.20842,7.80437 -6.93211,-2.00807 -2.82381,5.80541 -11.15562,5.7236 0.47738,0.69821 -0.003,6.14767 -1.13633,5.04097 z m 2.49323,-8.63478 c -1.32368,-3.93576 -3.73838,5.53284 -5e-5,0 z m 192.41286,0.95208 c -2.38645,-3.58868 0.38003,2.79211 0,0 z m -19.42229,-1.8632 c 0.56748,-4.02292 -2.45921,4.69108 0,0 z m -175.1169,-0.0788 c 2.92115,-4.69624 -14.49924,0.0574 0,0 z m 192.75633,-1.429 c -0.98181,-1.13439 -0.18857,1.57696 0,0 z m -98.1179,-1.27773 c -0.31722,-1.17695 -0.6586,1.62909 0,0 z m -95.0021,-1.10335 c -0.228,-2.11271 -1.26254,3.75789 0,0 z m 46.44475,0.16123 c -1.70367,-1.32669 0.21061,2.52596 0,0 z m -1.40731,-1.29148 c -1.8588,-0.94608 0.58026,2.46312 0,0 z m -45.72295,-0.76842 c -1.53586,0.38579 -0.006,2.15667 0,0 z m 193.02887,0.1318 c -3.39642,-1.08033 2.08265,1.67745 0,0 z m -1.46336,-1.98425 c -2.00796,-3.01846 -1.20313,4.99155 0,0 z m -204.16001,0.51335 c -1.11059,-0.55164 -0.52803,1.494 0,0 z m -55.89866,-0.10046 c 3.73913,-3.32024 -2.72043,1.26075 0,0 z m 111.89867,-0.003 c -0.74681,-1.09913 -0.92164,0.60981 0,0 z m -102.40001,-1.47766 c -0.99398,-1.1605 -0.6072,1.61133 0,0 z m 46.88,0.33889 c -0.387,-1.16998 -0.78922,1.13993 0,0 z m 2.72,-0.16 c 0.57348,-1.66215 -1.70621,1.52446 0,0 z m 227.93617,-1.97098 c -1.49859,0.63455 -0.66082,0.18488 0,0 z m -314.16268,-0.77084 c 3.67,-3.25771 -2.7096,0.72962 0,0 z m 56.09758,-0.79857 c 0.54881,-2.35712 -1.73066,2.95657 0,0 z m 286.06761,-0.16361 c -1.08068,-1.24599 -1.08068,1.24599 0,0 z m -166.33867,-0.8215 c -1.85518,-0.66718 -1.09192,2.01584 0,0 z m -132.48001,-0.4658 c 1.27124,-4.07338 -4.71264,2.37203 0,0 z M 469.4437,168.4914 c -0.68292,-4.39848 -3.52704,3.34071 0,0 z m -289.05328,0.0439 c -0.57692,-0.74221 -2.37012,1.15295 0,0 z m 133.93634,-0.59544 c -3.11492,-0.70336 -1.10852,-0.41635 0,0 z m 55.18367,0.33639 c 12.12256,-7.56122 0.11573,-6.49797 0,0 z m 97.1871,-0.54633 c 14.44688,-13.58518 -6.21551,2.41243 0,0 z m 11.16451,-0.78331 c 1.86346,-6.28856 -4.63292,6.1501 0,0 z m -136.13681,0.93337 c 5.0389,-1.74921 -3.07589,0.0558 0,0 z m 26.01743,-1.15242 c 2.57099,-4.56748 -3.32076,3.72534 0,0 z m 18.72777,-0.23798 c -0.387,-1.16996 -0.78921,1.13993 0,0 z m 77.12674,0.08 c 11.06171,-9.67313 -4.80574,-4.63754 -0.82277,-0.10594 z m -384.806749,-0.4 c -0.386998,-1.16997 -0.789212,1.13993 0,0 z m 265.440009,-1.18204 c -0.67659,-1.10571 -1.22909,2.65725 0,0 z m -125.76001,0.36315 c -0.99398,-1.1605 -0.6072,1.61133 0,0 z m -102.16149,-0.56247 c 1.51107,-1.96603 -4.03891,1.93213 0,0 z m 254.1615,-0.29701 c -1.45015,0.0137 -0.67145,1.8031 0,0 z m -2.4,-0.24163 c -0.387,-1.16996 -0.78921,1.13993 0,0 z m -324.16001,-12.48 c -1.717169,-0.81675 -1.962553,0.21088 0,0 z m 468.16001,0 c -0.387,-1.16998 -0.78922,1.13993 0,0 z m 2.88,-20.8 c -0.387,-1.16998 -0.78922,1.13993 0,0 z m 10.63334,-29.63333 c -1.26713,-0.6725 -0.29904,0.72104 0,0 z M 505.67043,90.267699 c -2.74834,-0.85778 -3.09067,1.54007 0,0 z M 45.916025,87.209579 c 8.937968,-7.82115 -0.941767,-3.05473 -2.126854,1.52 z m 2.280795,0.12049 c 9.100507,-1.75536 9.011779,-5.57855 10.894715,-6.28049 -0.05029,-3.11256 -0.350265,-1.90486 -6.359348,2.48636 -6.288584,6.50442 11.487535,-12.82646 -1.467293,-0.7893 -0.317518,0.52718 -7.703011,6.47394 -3.068074,4.58343 z m 422.06303,-5.28246 c -0.85819,-1.45752 -1.72432,1.01782 0,0 z M 58.63042,77.529579 c -0.397394,-1.26156 -1.148255,1.21831 0,0 z m 421.60001,-2.56 c -0.78922,-1.13993 -0.387,1.16998 0,0 z m -411.799192,-1.84 c 1.194784,-1.46115 -2.155199,1.73866 0,0 z m 412.759192,0.24 c -2.26757,-0.97825 0.57191,1.13521 0,0 z M 76.735163,67.904839 c 5.070314,-2.44349 -5.396299,1.75914 0,0 z m 4.269086,-1.12949 c 2.213908,-3.02589 -3.486068,1.40499 0,0 z m -11.176094,-0.4421 c -0.809844,-0.58522 -1.273996,1.03084 0,0 z m 9.610733,-0.26187 c -1.391902,0.38011 -0.618597,0.90563 0,0 z m -10.173421,-0.55253 c 1.343707,-4.17003 -11.141413,-4.73015 -1.215023,0.41507 z m 134.741903,-1.33379 c -1.82047,-2.99087 -0.93111,2.57962 0,0 z M 80.550421,63.609579 c 2.854505,-2.99921 -4.575499,2.82289 0,0 z m 7.084549,-0.14935 c -3.650996,-2.66891 5.22793,-0.61414 1.864301,-5.45065 -3.907731,2.38798 -10.865988,6.41593 -1.864301,5.45065 z m -1.644549,-2.69641 c 0.145846,-0.85921 1.892276,0.28678 0,0 z m 122.124669,2.21319 c 2.81052,-4.07062 -5.64154,3.32676 0,0 z m -131.884669,0.47257 c -0.397394,-1.26156 -1.148255,1.21831 0,0 z m 66.881779,-0.32196 c 1.27956,-2.82418 -2.69072,2.14709 0,0 z m 25.43822,-1.02948 c -1.63885,-0.33724 -3.81233,3.9468 0,0 z m 291.84001,1.3814 c -1.69207,-0.5492 -1.68853,0.98561 0,0 z m 1.72939,-0.22559 c -1.54235,-1.77703 -1.05021,1.95177 0,0 z m -27.00939,-0.76437 c -1.23017,-1.14726 -0.8202,1.18525 0,0 z m 26.08,0.007 c 3.07182,-0.85945 -8.00287,0.69556 0,0 z m -254.40001,-0.3269 c -0.8202,-1.18525 -1.23018,1.14728 0,0 z m -47.36226,-0.63633 c -0.80985,-0.58522 -1.27399,1.03084 0,0 z m 272.56227,0.1044 c -1.76218,-0.51938 -0.31982,0.56007 0,0 z m -220.64277,-1.27259 c 0.7018,-7.92615 -1.31472,2.06041 -7.83725,-0.57082 -4.50879,0.65304 8.43735,2.6002 7.83725,0.57082 z m -9.67724,0.20442 c -1.06385,-1.25987 -2.36318,1.20648 0,0 z M 85.529259,59.459759 c 1.095378,-1.89356 -2.773775,1.65217 0,0 z m 50.221161,0.14982 c -0.387,-1.16997 -0.78922,1.13993 0,0 z m 67.14357,-1.57269 c 9.83253,-7.39615 -11.48898,4.4039 0,0 z m -56.64873,1.21953 c -1.88273,-0.47864 -1.01155,1.04861 0,0 z m 46.94516,0.0816 c -3.80615,-1.07781 -0.75543,0.87233 0,0 z m 16.23334,0.0783 c -1.2671,-0.67245 -0.29908,0.72108 0,0 z m -32.23334,-0.44666 c 13.33544,-6.47247 2.80296,-4.61627 -0.61857,0.3126 z m 9.92,-0.5113 c -2.76025,0.33887 -1.49251,1.10456 0,0 z m -41.44,0.1913 c 2.08226,-1.14997 -3.9598,1.03247 0,0 z m 35.52,0 c -0.3974,-1.26155 -1.14825,1.21831 0,0 z m -94.233919,-0.4874 c 0.814905,-1.51848 -1.807352,1.661 0,0 z m 4.6872,-0.92922 c -3.880527,-1.45522 -0.637578,2.54001 0,0 z m 46.362719,0.80117 c 4.8751,-3.92173 2.19954,-2.26706 0,0 z m 37.48029,-0.15334 c 9.74506,-4.0862 -1.57841,-2.00743 0,0 z m 14.41705,0.25538 c -1.2671,-0.67247 -0.29909,0.72106 0,0 z M 82.790421,57.187059 c -1.675832,0.28434 -1.750908,1.53768 0,0 z m 106.239999,0.18959 c -2.11504,-0.48901 -2.11931,1.28961 0,0 z m -6.08,-0.007 c -0.78922,-1.13993 -0.387,1.16998 0,0 z m -93.146666,-1.16334 c -2.027185,0.49422 -1.469863,1.09216 0,0 z m 100.675136,0.26514 c -1.39191,0.38011 -0.61858,0.90563 0,0 z m 6.39219,0.37367 c 0.69595,-1.76344 -2.5343,0.59619 0,0 z m 70.19739,-0.22491 c 8.33078,-2.1937 5.69046,-2.55077 3.45184,-4.00916 -1.6685,-0.31793 -7.98158,4.80079 -3.45184,4.00916 z m -79.77921,-0.68045 c 1.34116,-1.76952 -2.8764,1.85955 0,0 z m -91.288385,-1.21018 c 14.998235,-9.715 -10.194796,5.1272 0,0 z m 314.033995,0.8648 c 14.75582,-3.95808 0.49521,-4.39283 0,0 z m -282.35454,-0.63648 c -2.10412,-0.9561 1.23422,1.61934 0,0 z m 2.47009,0.33168 c -0.79338,-1.68607 -0.79338,1.68608 0,0 z m 143.85884,-0.30982 c 1.34119,-1.76952 -2.87642,1.85954 0,0 z m 70.76672,-1.01129 c -4.94655,1.30015 -0.42724,1.29109 0,0 z m -114.60009,0.27991 c -3.52387,0.56508 -0.32286,0.97936 0,0 z m 98.85454,0.5612 c -0.387,-1.16996 -0.78921,1.13993 0,0 z m 50.4,0 c -0.387,-1.16996 -0.78921,1.13993 0,0 z m -113.07142,-1.22513 c -3.0478,0.59093 0.54691,1.39104 0,0 z m 65.55142,0.90513 c -2.53079,-1.18754 -2.53079,1.18755 0,0 z m -172.13715,-0.45714 c 0.84623,-2.40921 -4.11366,1.63038 0,0 z m 28.2054,-0.30444 c -3.53815,-0.74484 -3.50363,1.13462 0,0 z m -46.31752,0.13408 c 1.33715,-1.61022 -2.89442,1.35413 0,0 z m 116.06786,-0.3925 c -0.616,0.13878 0.45839,1.40267 0,0 z m 18.02141,0.38 c -0.82022,-1.18523 -1.23015,1.14726 0,0 z m 107.11164,-1.04364 c 11.58358,-6.21036 5.47877,-6.02234 -1.82464,1.12876 l 1.82464,-1.12877 z m 27.76382,-0.50756 c -5.57172,1.37184 -0.78777,1.05906 0,0 z m -293.04213,0.71787 c -1.2671,-0.67247 -0.29909,0.72106 0,0 z m 7.01238,-0.28667 c -3.90445,-1.93238 1.52247,1.83553 0,0 z m 52.11428,-0.37 c 17.8992,-8.10635 -2.85548,-2.31391 0,0 z m 4.87334,0.65667 c -1.2671,-0.67247 -0.29909,0.72106 0,0 z m 50.96667,-0.11662 c -1.28255,-0.56805 -1.24932,1.04338 0,0 z m 2.56,-0.36782 c -1.11059,-0.55163 -0.52803,1.494 0,0 z m 22.14504,0.3108 c -3.86992,-0.33652 -2.49562,0.84509 0,0 z m 10.50104,-0.12035 c 0.8149,-1.51848 -1.80735,1.66101 0,0 z m 79.00786,0.0387 c 6.98587,-4.80084 -2.4213,0.70438 0,0 z m -245.41395,-0.1914 c -0.387,-1.16997 -0.78922,1.13993 0,0 z m 287.84001,0 c 0.91788,-0.9867 -2.36899,0.59036 0,0 z m -114.91623,-1.6 c 13.11644,-8.76878 -7.84192,3.71763 0,0 z m 133.47396,1.28367 c -0.80984,-0.58522 -1.27398,1.03083 0,0 z m 4.73244,-0.004 c -0.43108,-1.98235 -2.2901,1.47929 0,0 z m -308.04377,-1.27221 c 7.44663,-4.4676 -9.175525,4.12474 0,0 z m 11.91116,0.44498 c -3.10437,-0.58111 -2.91849,1.46518 0,0 z m 286.12244,0.18758 c 0.501,-2.22736 -2.04692,2.22592 0,0 z m -33.74684,-0.0213 c -0.92951,-1.3665 -3.96072,1.696 0,0 z m 40.96,0 c 0.31845,-1.71642 -1.49025,1.37588 0,0 z m -132.33316,-0.23061 c -0.3917,-1.02852 -2.45796,0.79732 0,0 z m 76,-0.3881 c -0.3974,-1.26155 -1.14825,1.21831 0,0 z m -250.81274,-0.64 c 9.96457,-4.82301 1.81592,-2.82346 -0.65534,0.4 z m 253.18607,-0.52334 c -2.02718,0.49422 -1.46986,1.09216 0,0 z m 8.78794,-0.17932 c 2.88713,-3.70778 -5.34392,2.66908 0,0 z m 41.88937,0.18186 c 9.79776,-7.35126 -10.01495,3.77466 0,0 z m -55.61064,0.2008 c -0.3974,-1.26155 -1.14825,1.21831 0,0 z m -225.76001,-0.32 c -0.387,-1.16997 -0.78922,1.13993 0,0 z m 0.8,-0.32 c -0.387,-1.16997 -0.78922,1.13993 0,0 z m 231.66495,-0.37136 c 9.3025,-4.89583 -3.88735,-0.53587 0,0 z m -65.57756,-0.77235 c 12.46244,-2.8709 -5.0252,-1.38433 0,0 z m -112.30852,-1.02409 c -3.10283,-0.041 -2.4323,2.01779 0,0 z m 174.05887,0.57147 c -0.80984,-0.58523 -1.27401,1.03084 0,0 z m -61.9143,-1.60367 c 1.14409,-1.77601 -7.79857,2.80177 0,0 z m 73.27657,0.64 c -0.387,-1.16996 -0.78921,1.13993 0,0 z m -251.52001,-0.32 c -0.8202,-1.18525 -1.23018,1.14728 0,0 z m 69.12,0 c -0.78796,-0.93936 -1.7246,1.57003 0,0 z m 176.80001,0 c -0.82022,-1.18523 -1.23015,1.14726 0,0 z m -248.64001,-0.32 c -1.59627,-1.16163 -0.84885,1.23415 0,0 z m 120.96001,-0.76637 c 0.35018,-2.05436 -3.71947,3.20919 0,0 z m 183.36,0.76637 c -0.81758,-1.14798 -0.81758,1.14799 0,0 z m -302.88001,-0.48 c -0.27693,-1.69027 -0.75953,1.67904 0,0 z m 2.15334,-0.35333 c -1.2671,-0.67247 -0.29909,0.72106 0,0 z m 241.40736,-0.3357 c 11.12276,-4.50219 -7.00543,1.24471 0,0 z m 9.69797,-0.4616 c 0.0476,-1.31285 -3.13121,1.97589 0,0 z m -77.57866,-1.95313 c 4.18708,-4.83633 -7.95769,4.40384 0,0 z m 75.84,1.34376 c -2.60911,-1.0529 0.16385,1.18158 0,0 z m -117.76,-3.95562 c -2.17057,-1.20963 -1.06142,1.25704 0,0 z m 43.48296,-1.02232 c 7.00811,-1.88549 -5.26415,0.60609 0,0 z m -3.69323,-0.36619 c 3.67381,-2.42194 -7.38147,3.03862 0,0 z m 4.9236,0.6708 c -1.26707,-0.67246 -0.29908,0.72108 0,0 z m 102.66551,-0.27649 c 1.34116,-1.76952 -2.8764,1.85955 0,0 z m 19.01866,-0.56332 c -2.09269,0.0612 -2.18428,1.88733 0,0 z m -167.70417,-0.1266 c -2.15081,0.11457 -2.49195,1.1713 0,0 z m 113.78667,0.19975 c -0.40593,-1.30482 -1.87092,1.52823 0,0 z m -247.34117,-0.46982 c 1.34116,-1.76952 -2.8764,1.85955 0,0 z m 178.70117,-1.28562 c 8.26382,-7.95218 -8.57289,3.53042 0,0 z M 449.94885,191.94865 c -5.33673,-5.39373 5.53949,1.60402 0,0 z M 87.225872,191.11893 c 3.286565,-2.15334 -1.469211,2.39509 0,0 z m 177.325568,0.17187 c -0.26385,-3.95904 4.08867,1.16769 0,0 z M 75.131315,190.9444 c 2.020014,-1.43023 -0.34833,1.30023 0,0 z m 319.132535,-0.37073 c -6.36744,-4.10098 6.26121,-3.29123 0,0 z M 75.750421,189.84958 c 7.460157,-5.8032 7.132871,1.33038 0,0 z m 175.408009,0.016 c 0.591,-1.34917 0.42498,1.04449 0,0 z m -8.208,-0.336 c 0.387,-1.16998 0.78922,1.13993 0,0 z m 218.24,0 c 0.3974,-1.26156 1.14825,1.2183 0,0 z M 218.8806,189.20337 c -5.73317,-8.56231 7.76805,-0.27318 0,0 z m 38.46843,0.004 c 1.29543,-2.70458 1.43844,1.69254 0,0 z m 180.00998,0.038 c -5.8409,-7.37757 7.64358,-1.08356 0,0 z m -163.52858,-0.35579 c 0.78922,-1.13993 0.387,1.16998 0,0 z m -85.12001,-0.32 c 0.81758,-1.14798 0.81758,1.14798 0,0 z m 50.89074,-0.69393 c -1.62707,-4.82833 5.73413,3.86023 0,0 z m 218.56747,0.2333 c -2.12564,-4.69482 5.38061,3.00153 0,0 z m -28.34143,0.13541 c -4.76683,-2.16528 2.29254,-2.10822 0,0 z m -247.91678,-0.44049 c -2.02016,-3.79347 2.53354,1.32529 0,0 z m 32.56,-0.19429 c 0.39739,-1.26156 1.14826,1.21832 0,0 z m 185.55043,-0.1738 c -0.17899,-2.85696 2.23347,2.08044 0,0 z m 33.00958,0.1738 c 0.38699,-1.16997 0.78922,1.13993 0,0 z m 16.81502,0.0161 c -11.47285,-3.71063 2.28237,-10.62253 0,0 z m -178.17519,-0.4161 c 2.03309,-1.55012 1.35249,1.50474 0,0 z m -62.77457,-0.35424 c -6.13491,-2.89484 0.4008,-4.04266 0,0 z m 86.84306,0.0953 c 0.50408,-2.37561 1.945,0.83279 0,0 z m -48.14832,-0.44223 c 0.60725,-1.61132 0.99394,1.16052 0,0 z m -82.56001,-0.33883 c 0.79338,-1.68607 0.79338,1.68607 0,0 z m 23.69018,0.24 c 1.25801,-3.47334 1.9727,1.42147 0,0 z m 12.61259,-0.10788 c 0.28619,-2.41404 1.85833,1.317 0,0 z m 21.7589,-0.10596 c -1.25306,-2.43725 2.89921,1.69036 0,0 z m 66.80815,0.0844 c 1.26595,-1.45894 1.08015,1.22891 0,0 z m 151.24564,-0.27785 c -2.64328,-2.72887 3.91711,2.05174 0,0 z m -337.87546,-0.31271 c 0.78921,-1.13993 0.387,1.16996 0,0 z m 151.43121,-0.17815 c -4.6621,-6.33389 3.77575,0.29142 0,0 z m 218.56,0 c -5.07406,-5.36633 4.12042,1.72093 0,0 z m -233.9912,-0.14185 c 0.81758,-1.14798 0.81758,1.14798 0,0 z m 40.16322,-0.005 c 1.29079,-0.61697 0.72497,1.11165 0,0 z m 137.20696,-9.9e-4 c -5.7332,-8.56231 7.76806,-0.27318 0,0 z M 80.230421,185.08382 c 2.122871,-2.14202 1.056509,1.29959 0,0 z m 105.027389,-0.19057 c -13.75448,-10.22548 10.15212,-9.71049 1.35671,0.31522 l -1.35671,-0.31518 z m 27.43073,-0.24845 c -6.71765,-6.69905 6.45722,2.53483 0,0 z m 33.30189,0.0848 c 0.81758,-1.14798 0.81758,1.14798 0,0 z m 67.84,0.094 c -7.07535,-6.45763 8.66578,-3.09466 0,0 z m 123.53073,-0.78794 c -1.62707,-4.82833 5.73414,3.86024 0,0 z m -14.41073,0.35504 c 0.92169,-0.60977 0.74675,1.09913 0,0 z m -43.28,-0.42682 c -2.02017,-3.79345 2.53352,1.32526 0,0 z m -105.94389,-0.0849 c 0.76487,-3.16243 1.81654,1.22685 0,0 z m 138.50389,-0.1094 c 0.3974,-1.26156 1.14825,1.2183 0,0 z M 95.302553,183.3283 c 4.621836,-12.04639 19.492597,2.37204 1.10028,0.30676 z m 31.410427,0.2302 c -0.40249,-2.94944 3.74334,0.11372 0,0 z m 46.1654,-0.096 c -0.43786,-1.62277 1.59927,0.0829 0,0 z m 113.243,-0.13316 c -0.45289,-2.22084 1.91598,0.81755 0,0 z m -28.14089,-0.21578 c -0.27203,-1.7207 1.59048,0.73707 0,0 z m -100.76352,-0.26098 c -0.5592,-1.54983 1.38777,0.12954 0,0 z m 87.19616,-0.17559 c -1.1207,-2.06808 1.95149,0.67063 0,0 z m -127.35058,-0.41281 c 1.81572,-2.01863 -1.08395,1.85053 0,0 z m 81.24787,0.2254 c 0.81758,-1.14798 0.81758,1.14798 0,0 z m 264.53334,0.10667 c -0.46627,-2.12591 1.54056,0.94752 0,0 z m -266.13334,-0.92556 c 0.99398,-1.1605 0.6072,1.61133 0,0 z m 8.78146,0.0988 c -4.07766,-4.06623 5.69944,-0.77258 0,0 z m -48.94146,-0.23991 c 1.23015,-1.14726 0.82022,1.18523 0,0 z m -2.72,-0.96 c 0.81758,-1.14798 0.81758,1.14798 0,0 z m 70.40001,-0.0189 c 0.92169,-0.60977 0.74675,1.09913 0,0 z m 86.89689,0.0462 c 0.10239,-1.56601 1.44647,0.60878 0,0 z m -146.7369,-0.3473 c 0.81758,-1.14798 0.81758,1.14798 0,0 z m 232.11796,0.0751 c -1.93276,-5.00579 4.69482,0.88585 0,0 z m -195.36703,-0.48301 c -5.56604,-5.64969 7.27988,-3.16283 0,0 z m 131.24908,-0.0721 c 2.15575,-1.55829 -0.38057,1.71798 0,0 z m 13.12,0.35424 c 1.24932,-1.04339 1.28255,0.56803 0,0 z m 149.93884,-0.36442 c -14.29009,1.95408 -10.01874,-15.26857 -0.6263,-1.66982 0.29191,0.21917 2.9583,3.17827 0.6263,1.66982 z M 85.262903,179.30243 c 7.715058,-3.38972 -2.195701,2.91006 0,0 z m 88.439647,0.0817 c 1.81571,-2.01864 -1.08393,1.85053 0,0 z m 142.10367,0.15325 c -0.25373,-5.09244 6.06971,1.46725 0,0 z m -182.4558,-0.2478 c 0.78921,-1.13993 0.387,1.16996 0,0 z m 56.58977,-0.009 c -1.4302,-4.76882 5.11289,0.17562 0,0 z m 165.03678,-0.26807 c -0.55919,-1.54984 1.38777,0.12956 0,0 z m -97.14654,-0.68293 c 0.81758,-1.14798 0.81758,1.14798 0,0 z m -127.36001,-0.96 c 0.81758,-1.14798 0.81758,1.14798 0,0 z m 5.13151,-0.22112 c 0.60828,-2.74782 3.25352,-2.23521 0,0 z m 51.68216,-0.39677 c 0.11683,-1.57603 1.02001,1.06459 0,0 z m 307.0332,-0.45005 c 3.34711,-2.90631 -14.16714,-9.02124 1.24741,-6.31156 3.21931,1.43907 0.9974,8.81271 -1.24741,6.31156 z m -118.65926,0.16322 c -0.74443,-4.97426 4.42994,1.07648 0,0 z M 88.230421,175.91069 c 0.993976,-1.1605 0.607203,1.61133 0,0 z m 20.716079,0.27755 c -3.0644,-4.312 6.19992,-1.28319 0,0 z m 241.68393,-0.0886 c 1.28255,-0.56803 1.24932,1.04339 0,0 z m -88.84716,-0.76308 c 1.7388,-3.61589 -0.10592,2.45883 0,0 z m 188.71929,0.0185 c -1.10835,-1.92306 1.83043,2.07525 0,0 z m -78.11213,-0.38548 c 0.75954,-1.67904 0.27692,1.69027 0,0 z m -26.53474,-0.66667 c 0.4619,-0.85224 0.14259,1.37968 0,0 z M 91.110421,173.38846 c 0.626976,-2.19507 0.305407,1.67282 0,0 z m 168.640009,0.14112 c 0.78922,-1.13993 0.387,1.16998 0,0 z m 55.04,-0.97889 c 0.92169,-0.60977 0.74675,1.09913 0,0 z m -2.24,-0.43444 c 1.13513,-1.70428 1.08029,1.42656 0,0 z m 2.88,-0.18667 c 0.78922,-1.13993 0.387,1.16998 0,0 z m 36.09116,-0.7504 c 0.51197,-2.47143 1.19193,2.06696 0,0 z m -91.7222,-0.80713 c -2.15677,-3.11768 5.03783,2.38435 0,0 z m 124.11104,-0.0236 c 0.60725,-1.61132 0.99394,1.16052 0,0 z m 1.28,-0.0189 c 0.81758,-1.14798 0.81758,1.14798 0,0 z m -40.56667,-0.7 c 1.16282,-1.67873 1.07588,1.4239 0,0 z m 45.07193,-0.12667 c 0.46191,-0.85224 0.14261,1.37967 0,0 z m -280.98527,-1.37553 c 0.52803,-1.494 1.11059,0.55164 0,0 z m 395.49295,-1.22474 c -7.50819,-2.79357 -14.02593,-9.603 -1.39101,-2.65303 0.50173,0.88538 4.74493,1.81888 1.39101,2.65303 z M 65.048756,166.35574 c 2.378747,-1.34873 -1.433001,1.50359 0,0 z m 298.406934,-0.0528 c 0.4619,-0.85224 0.14259,1.37968 0,0 z M 64.4226,164.76114 c 3.503183,-2.79475 -0.272373,1.95098 0,0 z m -12.99218,-5.95156 c 2.345089,-1.34172 -0.793427,1.26034 0,0 z m 4.067281,-0.32 c 0.750461,-2.17065 1.153556,2.19342 0,0 z m 453.532729,-2.88 c 0.81758,-1.14798 0.81758,1.14798 0,0 z m -466.56001,-1.92 c -0.910091,-1.09562 3.792954,1.17514 0,0 z m 500.18332,-0.99097 c -17.13463,-2.65944 -0.64733,-9.3426 1.43386,0.63439 l -1.43386,-0.63441 z m -8.98331,-12.12903 c 0.82022,-1.18523 1.23015,1.14726 0,0 z m -3.52,-11.52 c 1.24902,-1.169 1.24902,1.169 0,0 z m 6.4,-9.28 c 0.82022,-1.18523 1.23015,1.14726 0,0 z m -8.38,-22.938591 c 1.40269,-0.45839 0.13877,0.61599 0,0 z M 23.95837,93.849579 c -3.259094,-7.3285 9.879781,1.40288 0,0 z m 492.59206,-0.96 c 0.78921,-1.13993 0.387,1.16996 0,0 z m -24.48,-2.70111 c 0.60723,-1.61133 0.99395,1.16051 0,0 z M 20.245391,89.829739 c -15.8192659,-6.52223 8.449008,-5.51709 2.120687,0.3696 z m 470.631129,-1.00191 c 2.10908,-0.47358 0.40955,0.53063 0,0 z m 2.63391,-0.41825 c 1.23015,-1.14726 0.82022,1.18524 0,0 z m 10.08,-0.96 c -1.23649,-1.27425 2.57922,1.18005 0,0 z m 2.56,-1.28 c 0.82022,-1.18523 1.23015,1.14726 0,0 z m 0.16,-0.96 c 1.14825,-1.2183 0.3974,1.26156 0,0 z m -29.76,-2.56 c 1.14825,-1.2183 0.3974,1.26156 0,0 z m 9.12,-1.28 c 2.57916,-1.17997 -1.23646,1.27426 0,0 z m -11.33928,-0.60647 c 0.63578,-1.55819 1.34174,1.07067 0,0 z m 6.77928,-11.44546 c 1.76218,-0.51938 0.31982,0.56007 0,0 z m 2.48,-0.42807 c 1.23015,-1.14726 0.82022,1.18524 0,0 z m -11.36,-4.01888 c 0.9818,-1.13442 0.18858,1.57697 0,0 z m 2.78129,0.13 c -2.11201,-4.69063 8.51149,0.18273 0,0 z m -8.54129,-1.67688 c 1.24932,-1.04339 1.28255,0.56804 0,0 z m -4.86,-3.61283 c 1.40267,-0.45839 0.13876,0.61599 0,0 z m -26.02,-0.59296 c 4.6294,-1.52292 -2.65949,1.6252 0,0 z m 35.55718,0.23171 c 1.00901,-3.20689 6.02105,0.0316 0,0 z m -9.15718,-1.02016 c 0.8202,-1.18524 1.23017,1.14727 0,0 z m -12.48,-0.32 c 0.81758,-1.14798 0.81758,1.14799 0,0 z m -300.88534,-0.35971 c 1.71803,-0.95339 -0.77975,0.98346 0,0 z m 14.979,-0.25818 c 0.11682,-1.57604 1.02001,1.0646 0,0 z m 286.86634,-2.22177 c 1.32899,-2.0943 6.14409,-0.60061 0,0 z m -316.32001,-0.36034 c 1.14825,-1.2183 0.3974,1.26156 0,0 z m 33.12,-0.17888 c 0.99396,-1.16051 0.60722,1.61133 0,0 z m -35.00009,-1.69702 c -5.6239,-7.59621 7.13375,3.50108 0,0 z m 3.16009,0.2759 c 0.3974,-1.26155 1.14825,1.21831 0,0 z m 342.24001,-0.0725 c 1.03596,-2.8093 0.563,1.64341 0,0 z m -280.80001,-0.49022 c 2.30949,-1.49194 1.78026,0.40707 0,0 z m -48.16,-0.41962 c 3.34311,-2.36033 4.4053,0.7687 0,0 z m 9.92,0.18052 c 2.89542,-2.08188 3.93958,-0.40608 0,0 z m 35.52,-0.33706 c 0.99396,-1.16051 0.60722,1.61133 0,0 z m -55.8,-0.0764 c -0.0192,-2.26565 2.24599,0.51591 0,0 z m 47.68953,-0.46473 c 1.50527,-3.30027 5.53164,2.20485 0,0 z m 4.60736,0.11766 c -0.58614,-1.44897 4.26076,-0.33627 0,0 z m -33.45689,-0.35766 c 0.3974,-1.26155 1.14825,1.21831 0,0 z m 1.01334,-0.21333 c -1.73902,-4.52454 3.13273,1.35879 0,0 z m 263.46667,-0.12272 c -5.02661,-2.62322 4.92486,0.40222 0,0 z m 56.384,-1.00795 c 2.29692,-5.00891 8.07624,-0.0762 0,-2e-5 z m -291.90401,-0.0735 c 1.75091,-1.53768 1.67583,-0.28434 0,0 z m 70.30979,-0.31544 c -0.75557,-1.61512 3.46718,-0.528 0,0 z m 72.09022,0.13292 c 0.78922,-1.13993 0.387,1.16998 0,0 z m 83.84,-0.30874 c 3.11737,-3.21484 0.65658,1.66682 0,0 z m 44.69056,0.0926 c -0.66581,-1.50958 2.22457,-0.28667 0,0 z m -311.57057,-0.58389 c 4.63796,-1.36687 -3.10366,1.64496 0,0 z m 5.76,0.16 c 0.81758,-1.14798 0.81758,1.14799 0,0 z m 308.33669,-0.08 c -1.15044,-7.46876 7.17247,1.09504 0,0 z m -263.39362,-0.63033 c -9.62051,-12.30389 7.82625,-0.62764 0,0 z m 23.84049,0.38017 c -1.106,-6.50495 5.34175,0.77726 0,0 z m 111.37645,-0.009 c 0.92167,-0.60979 0.74678,1.09913 0,0 z m 89.6,-0.45107 c 1.31818,-1.13396 0.69495,1.59472 0,0 z m -48.32,-0.49007 c 0.81758,-1.14798 0.81758,1.14799 0,0 z m -252.64001,-0.32 c 0.84885,-1.23414 1.59627,1.16163 0,0 z m 8.96,-0.32 c 3.3286,-2.12243 -1.00445,2.15288 0,0 z m 62.33778,-0.4 c -3.55303,-4.17819 3.51274,-1.24284 1.21333,0.70509 z m 74.64079,0.43004 c -5.63277,-3.333 7.87405,-5.75147 0,0 z m 59.0481,-0.14253 c 2.37355,-1.53444 2.42094,0.28634 0,0 z m 145.65174,-0.28751 c 2.3191,-2.76818 0.7909,1.83007 0,0 z m 12.5616,0.08 c 0.78921,-1.13993 0.387,1.16996 0,0 z m -340.06528,-0.56 c -2.79382,-7.28758 7.24148,0.89791 0,0 z m 114.12116,-0.50746 c -11.22929,-15.40548 7.18732,-2.42918 0,0 z m -103.98455,0.4138 c 0.34939,-2.77597 1.93111,1.17959 0,0 z m 178.90298,-0.2609 c 1.47636,-8.97295 3.62245,1.52099 0,0 z m 39.63507,0.15053 c -0.18937,-2.78162 1.87066,0.85806 4e-5,0 z m 85.31062,-0.0356 c 1.82322,-5.68478 12.62331,-2.39593 0,0 z m -17.82053,-0.63834 c -3.023,-7.69226 7.05416,-0.0639 0,0 z m -238.36988,-0.56166 c -2.32301,-2.45515 2.78673,2.3223 0,0 z m -72.26801,0.11573 c 4.21237,-1.69528 1.15764,0.29 0,0 z m 133.45161,-0.22461 c -0.0988,-2.8674 1.39753,1.89695 0,0 z m 105.72681,0.26586 c 1.49888,-2.06503 2.93019,0.13833 0,0 z m 134.08,-0.55698 c 1.61066,-2.83612 1.61066,2.83613 0,0 z m -324.96001,-0.16 c -2.87118,-3.34731 3.68652,0.6954 0,0 z m 220.88665,0.0914 c -2.23781,-4.50957 4.62284,1.56902 0,0 z m 17.61441,-0.51736 c 1.27867,-3.98836 4.5843,2.97549 0,0 z m -299.85442,-0.44261 c -2.2378,-4.50958 4.62283,1.56902 0,0 z m 176.54472,-0.10542 c 0.64942,-1.93023 3.39264,0.34438 0,0 z m 2.39498,-0.20446 c 8.1623,-2.48781 -0.1536,1.42347 0,0 z m 155.21367,-0.0673 c 2.39623,-2.55173 1.16642,1.34745 0,0 z m -261.12001,-0.37312 c 0.92167,-0.60979 0.74678,1.09913 0,0 z m 275.52001,0.13044 c 1.34092,-2.45224 2.18318,-0.89669 0,0 z m -194.56,-0.6016 c 1.14818,-1.58309 1.33855,1.13275 0,0 z m 98.24,0.1477 c 2.28135,-1.35923 3.41385,0.14727 0,0 z m 28.8,0.20486 c 1.75091,-1.53768 1.67583,-0.28434 0,0 z M 189.5777,41.689599 c 1.0268,-2.2138 1.99812,2.47047 0,0 z m 226.01273,0.32 c 2.34509,-1.34172 -0.79343,1.26034 0,0 z m 72.48,0 c 1.59627,-1.16163 0.84885,1.23415 0,0 z m -313.21797,-0.20465 c 0.3231,-2.20923 1.40237,0.9876 0,0 z m 11.61796,-0.27537 c 5.13223,-1.4288 -3.13761,1.59145 0,0 z m 149.44001,-0.14111 c 1.47408,-3.83169 1.25527,3.30066 0,0 z m -221.44001,0.16363 c 1.75091,-1.53768 1.67583,-0.28434 0,0 z m 41.96916,-0.28329 c 0.4121,-3.25918 2.65339,1.11138 0,0 z m 218.52248,-0.0452 c -1.66189,-4.49146 5.38221,2.67102 0,0 z m -235.68165,-0.26782 c -0.33874,-2.82387 1.0652,1.68248 0,0 z m 300.46271,-0.032 c -1.80697,-4.67596 5.8024,-0.28813 0,0 z m 41.44731,-0.18297 c 1.42114,-3.95347 2.8652,3.11893 0,0 z m -329.52001,0.0968 c -2.11681,-4.51663 3.78436,0.53941 0,0 z m 39.44,-0.10807 c 0.387,-1.16996 0.78921,1.13993 0,0 z m 11.80575,0.007 c -9.78701,-11.81652 -2.07899,-10.59823 1.73017,-0.071 l -0.67463,0.34415 -1.05562,-0.2732 z m 131.71426,-0.18583 c 0.9818,-1.13442 0.18858,1.57697 0,0 z m 119.83335,-0.46847 c -0.45212,-4.59461 4.15385,1.62254 0,0 z m 12.00665,-0.11347 c 2.93868,-6.27151 1.68841,1.83824 0,0 z m -232.32,-0.19923 c 0.78922,-1.13993 0.387,1.16998 0,0 z m 80.05757,0.0424 c 0.83562,-6.94587 3.22684,1.84485 0,0 z m 37.64243,0.0591 c 1.40267,-0.45838 0.13876,0.616 0,0 z m 12.38,-0.0241 c 2.3095,-1.49195 1.78024,0.40707 0,0 z m 79.2,-0.62476 c 2.2291,-4.39163 7.60013,-6.57327 0,0 z m -114.5502,-1.21253 c 0.26069,-1.7875 1.12138,-0.43505 0,0 z m 2.5502,-0.61671 c 0.47053,-4.62571 2.42232,-0.76154 0.0875,0.62378 z m 22.76916,0.0359 c 0.4121,-3.25918 2.65338,1.11137 0,0 z m -190.81214,-0.0489 c -8.84118,-1.96492 3.68687,-7.32922 0,0 z m 94.16932,-0.25036 c -1.76196,-6.63678 3.83079,1.09693 0,0 z m 44.11366,-0.56 c 0.81758,-1.14798 0.81758,1.14799 0,0 z m 132.10451,-0.26259 c -0.71285,-4.84994 4.02867,1.49697 0,0 z m 56.37549,0.26259 c 0.78921,-1.13993 0.387,1.16996 0,0 z m -277.7688,-0.86145 c -10.53476,-3.35157 1.1161,-14.84328 -0.63121,-5.14104 0.30891,1.06359 4.08531,7.29094 0.63121,5.14104 z m 15.35734,-0.15114 c -0.98554,-2.03151 1.77762,2.08941 0,0 z m 204.17146,0.37259 c 0.78922,-1.13993 0.38699,1.16997 0,0 z m -325.28001,-0.32 c 0.3974,-1.26155 1.14825,1.21831 0,0 z m 208.80001,0.0189 c 0.60723,-1.61133 0.99395,1.16051 0,0 z m 148.22916,0.0306 c -0.16186,-4.11366 4.30885,1.34386 0,0 z m -245.8578,-1.03398 c -9.42579,-5.64257 -5.61288,-18.58743 1.49558,-3.85767 0.60572,1.07356 0.53747,4.48055 -1.49558,3.85767 z m 98.94666,-0.37553 c -0.71093,-14.12345 6.34682,-1.38415 0,0 z m 80.44198,-0.0916 c 4.6294,-1.52291 -2.65949,1.62521 0,0 z M 99.096832,33.664189 c -0.374602,-3.34898 2.242908,1.68692 0,0 z m 315.880268,0.5529 c 2.37353,-1.53444 2.42094,0.28633 0,0 z m -53.44001,-0.32 c 1.71257,-0.91117 3.33613,-0.54237 0,0 z m -111.32266,-0.91151 c -1.02316,-6.09727 3.84154,0.90445 0,0 z m 72.91129,-0.17927 c -1.94675,-13.59199 10.4152,-17.75904 4.14473,-3.62199 -0.0142,1.31199 -2.64357,5.51711 -4.14473,3.62199 z m 145.50133,0.20297 c -2.55591,-4.11648 4.62253,-1.25891 0,0 z m -307.48614,-0.85792 c -17.04464,-18.44606 8.57942,-2.30299 0,0 z m 145.67478,0.0716 c 0.4619,-0.85225 0.14259,1.37968 0,0 z m -72.52144,-1.58018 c -1.20361,-6.30949 2.6312,5.51069 0,0 z m 208.89618,1.23492 c -1.59682,-3.74045 5.62094,0.29937 0,0 z m -114.64,-0.78291 c 0.68878,-4.56907 1.54865,1.60916 0,0 z m -27.28,0.13425 c -1.91612,-2.1143 4.44642,0.18941 0,0 z m -44.18667,-0.95275 c -0.98557,-1.4492 1.40794,0.27371 0,0 z m 1.86667,-1.06667 c 0.78922,-1.13993 0.387,1.16998 0,0 z m 189.024,-0.064 c -1.02313,-6.09729 3.84153,0.90446 0,0 z m -118.464,-1.376 c 0.86747,-1.48635 0.86747,1.48635 0,0 z m -63.28,-0.55056 c -2.84357,-10.11093 7.22463,0.38616 0,0 z m 46.79133,-0.58346 c 0.37173,-2.76814 1.79525,1.10947 0,0 z m -6.27587,-3.85264 c -2.71096,-11.71466 5.30553,-10.7453 0,0 z m -4.33489,0.58666 c -1.22568,-8.55796 6.74295,-9.95994 0.82766,0.4 z m -46.82057,-3.6122 c 1.71726,-2.45907 0.59467,2.28302 0,0 z m 57.6,-3.8278 c 0.79338,-1.68607 0.79338,1.68608 0,0 z m 15.39285,-0.56 c -2.58519,-8.0084104 8.21023,-0.43553 0,0 z m 4.21248,-2.72711 c 1.4162,-17.2863304 11.92851,-6.9581104 0,0 z m -26.30284,-2.55289 c 0.2014,-2.3528504 0.62852,3.04771 0,0 z"
       id="path1" />
  </g>
</svg>
