<svg xmlns="http://www.w3.org/2000/svg" viewBox="0 0 519.9 419.3" preserveAspectRatio="none"><path fill="#8485b5" d="M171 419c-1-16 13-45 0-54-5 4 0 19-5 12 4 16-6 8-9 7-10 21 10-26 0-16-5-7-9 12-13 15-10 21 1-6-3-1-2 13-4-9-11 0-7 11-13 17-6 1 1-14 7-20-4-18-9 2-11 1-17 5-9 9-17 8-1-1 0-5-6 3-9 0-10 1 10-11-2-11 3-1-7-2-13 0-8 4-42 23-37 18 16-4 0-8 8-15 0 11 8 10 17 2 16-7 6-4 4-9-1-3-6-6-1-7-4-2 2-6-4-8-9-5-11 3-13-1 3-3-9-2-13 1-1 4-13 20-11 12 3-9-8 3-5-6 6-8-21-3-2-7 5-1 19-12 12-5-1 8 17-1 24 0 14 0-2-3 7-3-13-3-7-5-4-9 7-1-15-5-13-7 14-4-44 7-25 1l35-6c-6-6 9-6-9-6 8-1 13-2 4-5-3-4 4-3 9-4l-4-3c3-2 20-1 4-2 8-4-4-3 1-5 6-9 2 5 7 0-1 3 6-7 1-4 8-4-2-7-2 0-5 2 0-8 3-9 2-7-7 0-7 2-8 4-10 4-13 13-6 8 2-5-2-5 9-11 1-8-3-2 0-3 8-8 1-10-8 3-13 0-7-7-4-3-16-2-4-7 0-11 15-1 10-6-12-2 17-1-6-3 2-4 28 2 5-3-11-2 4-1 3-2-7-3 22-4 2-5-13-1 25-1 1-2-11 2-16-4-15-12-12 6 12-10-1-19-5-13 17-22 15-24 6-10-2-5-4-16-14-7-4-21-11-18 1-2 7-10-1-7-6 4-31 18-13 5 17-6 18-25 36-23-11-12-28-26-6-11 9 9 8-15-3-13-11-1-21-7-4-3 19 11 7-13 1-21-1-10-7-10-2-2-7 1-6-6-3-12 0-12 0-10-8-5-6 4-14 1-3-1 9-2 3-14 12-12 0 5 4 4 3 11 6 2 10 9 5 1 5-6 14 2 14-9 3 2-6-18 2-4 2 7 15 15 6 5-1 4 18 5 11 7-4 0 14 0 10 1 15-4 6-33 13-46 4-2-9 35-2 43 10 2 15-26 9-4 2 17 14-27 10-7-5 22 18 0 17-12 9 6-10 11-7 22 14 1 26 6 22-8 10 12 12-15 17-6 8 1 5 19 10 13 6-9 7 2 11-7 2-16-3 12 7 3 5-10-9-1 1-7 6 7 25-10 37-14 14-3-26 13-25 16 10 0-12 16-3 0-11 4-20 14-26 20l42-12c14 1 19-9 24-10 17 2-9 13 11 9 6-10 19 6 2 6-2 1 37 4 15-3-3-7-5-13-5-17 11 9 9-5 18 5-10 10 3 5 6 7 8 13 11 8 8-1-11-7-1-7 5-3 9-4 8 2 17 5 7 3 17 4 20-4 7 5 5-14 15 0-4 5-8 7-6 8 11 0-10 7 7 4 7-13 3 7 15 0 9 2 18-5 7-7 2-12 13-15 8-1 1 2 5 2 9 2-13 8 10 4 10 3 10-2 28-13 29-6 17 0 34 7 49 3-16 3-6 3 4 1-14-1-2 6-7 5-25 5 7 10 20 4 0 1-11 7 6 5 21-4-18 10-23 9 0-8-19-2-20-2 15 2-16 0-3 2-9 0 11 4-3 3 0 5 17 3 7 7 11 4-5 2 2 5 0 3-3 1 2 4-6-2-7 1-10 3 6 0 0 2 14 1 4 3-1 8 8 7-7 5-13 4-3 4-5 3-15 7-11 8-11 3 1 2-3 5 1 4 10-2 7 5 6 1-3 4-5 7-3 2 3 3 3 0-1 6-10 4 2 8 9 2 11-6 5 1-1 2 4 11 9 8-5 5-28-4-9 2-2 1 9 5 3 11-7-1-20 2-18 11 5 0 8 4 11 4-1 4-5 2-7 3-3 0-10 4-8 5-2 7 12 11 0 11-5-4-12 3-5 3 10 1 7 3 12 4 8-2 8 3 15 3 10 1-8 4 9 5-10 0-12 1-17 5-11 13 9 5 19-2-3 8-29 9-15 16-3 10 0 11-8 21-2 6-17 13-5 11-10 3-7 4 1 8-8 2 2 7-6 7-12 1-5 4-4 4-8-2-20 5-7 3 12-2 25-2 39-5 9-2 41-4 15 0-18 3-37 3-54 10 10 0 7 1 14 3-2-4 12-1 8-1 2 0 2 4-1 6 7-3 3 4 11 1-5 2-9 9-13 9-6 5 5 0-1 5 10 0 6 4 9 5 3 2-8 4-13 9-4 6-33 10-15 11 8-2-9 5 9 2 3-1 6 3 10 3 11 1-7 3 9 4-11 0-12 3-18 6 1 10-6 3-11 8 4 9-9 1-12 2 4 6 2 6 7 11 0 5 2 5-5 4 9 15-4 2-3 2 0 5 4 16-2 4-1-9-15 1-13-9-7-7-1 17-7 7-8-4 9-13 0-16-13-7-7 14-10 4-6-3-17-5-20 4 7 5-7 9-1-3-5 4-11 4-16 9-10-5 17-5 8-14-8-6-15 22-16 5-2 3-7 0-3-4-4-1-9-3-17 1-7-2-20 0-14 1-3 0 9 2 3 2 7 0-13 2-1 11-4-9-21-18-21-2-7 1-9 15-11 3-6-7-16 20-16 10 3-10 11-25-2-29-6 2-22 0-17-3 19 0 6 0-1-2 7 0-11-7-15-5-15-1 10 14-3 10-3 14 5 32 2 45-6-16 0-39-11-52-8-12-2 11-5-1-1-3-6-3-5-2-3 1-7-7-7 6 9 11-1 6-1 6-1-1-4-1-4-5-2-7-11 9-4 6 7 0 5-1 6 4 5 1-2 10 2 16 3 18-5-16-11-8-9 1-9 23-6 3-13 6 10-20 2-3 8-4 4-13-2-18-2-2-5 7 2 4 1 2-11 21-11 13 4-8-6 1-5-5-7-8-4 24-8 30-2 6-1 18-4 20zm245-40c0-1 0 1 0 0zm26-1c-3-3-5 2 0 0zm-6 0c-2-1 0 0 0 0zm-271-4c-11-11 1 11 0 0zm32 3c0-1 0 0 0 0zm-2-1c0-1 0 1 0 0zm3-1c-1 0-1 2 0 0zm218 1c0-1 0 0 0 0zm14-1c-1-1 0 0 0 0zm-221-2c-1 0 1 3 0 0zm229 1c-1-1-1 1 0 0zm-248 0c0-1-1 1 0 0zm244-1c-2-2-1 2 0 0zm-339 0s0 1 0 0zm328 0c6-3 16 0 13-6-2 0-19-7-13-3 3 4-3 9 0 9zm8-4c0-1 0 1 0 0zm-2-1c-7-6 3 0 0 0zm-261 1c-2-14-3 11 0 0zm42 3c0-6-5 3 0 0zm157 1c0-1 0 0 0 0zm72-1c-3-6-2 4 0 0zm-136 0c6-10-7-1 0 0zm-126-2c0-4 0 4 0 0zm185 1c0-1-1 1 0 0zm-170-1c1-5-3 3 0 0zm105 0c5-10-16-4-3 0h3zm-4-1c-3-5 5-1 0 0zm3 0c1-1 1 1 0 0zm-6-2c1 0 0 1 0 0zm5 0c1-1 1 1 0 0zm-107 3c-1-1-1 1 0 0zm174-2c-5 0 0 4 0 0zm-172 1c-1-1-1 2 0 0zm-98 0c-1-1-1 1 0 0zm348-1c0-3-2 2 0 0zm-346-1c4-5-4 1 0 0zm95 0c5-5-7-1 0 0zm21-1c-3-2-1 4 0 0zm154 0c1-4-3 4 0 0zm58 1c-1 0-1 1 0 0zm-244-1c0-4-2 4 0 0zm148 1c-5 0-5 1 0 0zm-121-1c-2-3 1 3 0 0zm155 1c0-2 0 1 0 0zm63 0c-2-3-5-1 0 0zm-239-1c-2 0 0 1 0 0zm123 0c5-3-6 1 0 0zm-115 0c0-1 0 1 0 0zm170 0c-1-1-1 1 0 0zm-176-1c2-7-5 3 0 0zm0-1c1-1 0 1 0 0zm115 1c0-4-5 2 0 0zm-182-1c-2 0-2 2 0 0zm35 1c-1-1-1 0 0 0zm39 0c8-7-2-1 0 0zm97 0c-1-1-1 0 0 0zm14 0c0-1 0 0 0 0zm81-2c-3-1-2 3 0 0zm-214 1c-2-1 1 1 0 0zm190 0c6-7-6-1 0 0zm21-1c-3-1-1 3 0 0zm-258 1c-1-1-1 0 0 0zm42 0c-2-1-1 0 0 0zm18-1c1-3-1-8-2-1-4 1 2 3 2 1zm21 1c0-1 0 0 0 0zm-16 0c0-1 0 0 0 0zm106 0c-1-1 0 0 0 0zm46 0c-2-1-2 0 0 0zm44 0c0-1 0 0 0 0zm-81-1c-1-1-2 2 0 0zm1 0c-1-1 0 1 0 0zm83 0c-3-2 0 2 0 0zm-200 0c-2-2-1 1 0 0zm119 0c-2-1-1 1 0 0zm57 0c0-1 0 1 0 0zm-6-1c1-5-4 1 0 0zm27 1c-1-1 0 0 0 0zm-47-1c-1 0 0 1 0 0zm-244 0c0-1 0 1 0 0zm66 0c0-1 0 1 0 0zm224 0c-1-1-1 1 0 0zm49 0c-1-1-1 1 0 0zm-277 0c-1-1 0 0 0 0zm1 0c-1-1 0 0 0 0zm31-1c-1-5-4 2 0 0zm5 1c0-1 0 0 0 0zm89-1c-2-1 1 2 0 0zm66 1c-1-1-1 0 0 0zm18-1c4-5-6 3 0 0zm-86 0c-2-2-2 1 0 0zm76 0c-4-1-3 1 0 0zm-185-1c-1 0-1 1 0 0zm3 0c-2 0 0 1 0 0zm176 0c-1 0 0 1 0 0zm26 0c-1 0-1 1 0 0zm-13 0c-1-1-1 1 0 0zm-81 0c0-1 0 0 0 0zm70 0c0-1 0 0 0 0zm1 0c0-1 0 0 0 0zm3 0c-3-1-1 0 0 0zm4 0c-1-1 0 0 0 0zm-171-1c-2 0 0 1 0 0zm183 0c-1 0 0 1 0 0zm2 0c-1 0 0 1 0 0zm-188 0s0 1 0 0zm8 0c-1-1-1 1 0 0zm82 0c1-2-4 0 0 0zm2-1c-2-1-2 2 0 0zm81 1c-1 0 0 1 0 0zm78 0c-3-1 0 1 0 0zm-245-1c-1 0 0 1 0 0zm82 1c-1-1-1 0 0 0zm82 0c-1-2-1 1 0 0zm90 0c3-11-5 1 0 0zm-166-1c-1 0-1 1 0 0zm71 0s0 1 0 0zm2 0c-1 0 0 1 0 0zm1 0c0-1 0 0 0 0zm-75-1c-6-1-7 2 0 0zm80 0c-1 0 0 1 0 0zm-78 0c-1-1 0 1 0 0zm4 0c-1 0 0 1 0 0zm-1 0c0-1 0 0 0 0zm158 0c-1-1 0 1 0 0zm-240-1c-1 0 0 1 0 0zm12 0c-2-2-1 2 0 0zm60 0c13 0-5-1 0 0zm82 0c-1 0-1 1 0 0zm87 0s0 1 0 0zm-241 0c-1-3-2 1 0 0zm-6-1c1-1-2 2 0 0zm17 0c-1-4-4 3 0 0zm50 0c-1 0-1 1 0 0zm-74 0c0-1 0 0 0 0zm1 0c-1-1 0 1 0 0zm2 0c-1-1 0 1 0 0zm79 0c-1-1-1 0 0 0zm173 0c-1-1 0 1 0 0zm1 0c-1-1 0 1 0 0zm-243-1c2-1-5 1 0 0zm-6 0s0 1 0 0zm71 0c-11-3-7 0 1 0zm-58 0c-1 0 0 1 0 0zm3 0c-1-8-8 1 0 0zm-2-2c0-1 0 0 0 0zm240 2c0-1 0 1 0 0zm4 0c-1-2-3 1 0 0zm3 0c0-6-6 1 0 0zm-1-1c0-1 0 1 0 0zm2 0s1 1 0 0zm-263 0c0-1 0 1 0 0zm6 0c-2-1-2 1 0 0zm5 0c0-4-12 1 0 0zm-13 0c0-1 0 1 0 0zm260 0c-2-1 0 0 0 0zm-217-2c-4-7 0 5 0 0zm216 1c0-1 0 0 0 0zm-259-1s0 1 0 0zm8 0c-2 0-1 1 0 0zm2 0c-2 0 0 1 0 0zm10-1c-3-9-2 2 0 0zm-183 1c-1-1-1 1 0 0zm176 0c-7-1-1 1 0 0zm2 0c5-5-7-4 0 0zm-1-2c1-1 1 0 0 0zm57 2c-1 0 0 1 0 0zm194 0c1-1-1 1 0 0zm-253-1c-1-2 0 1 0 0zm-1-1c-2-2-3 2 0 0zm44 0c-2-1-2 2 0 0zm-48 0c0-1 0 1 0 0zm46 0c-2 0 0 1 0 0zm11 0s0 1 0 0zm-33 0c-1-1-1 0 0 0zm-192-2c1-5-4 3 0 0zm209 1c-1-1 0 0 0 0zm-20-1c-2-1-1 1 0 0zm-193 0c-1-1-1 1 0 0zm189 0c0-1 0 1 0 0zm-188-1c-1-1-1 2 0 0zm176 0c-1 0 0 1 0 0zm9 0c-1 0 0 1 0 0zm-186-2c6-7-7 0 0 0zm41 0c-1-1-1 0 0 0zm-37-1c-1-1-1 1 0 0zm-6-1c1-7-5 3 0 0zm7 0c6-11-5 3 0 0zm437-1c-3-1-4 1 0 0zm-439-1c-2-1-1 1 0 0zm-3-1c-4-1-1 2 0 0zm4 0c-1 0 0 0 0 0zm32-1c-8 0 6 1 0 0zm-35-1c-1-5-6 3 0 0zm27-1c15 1 0-3 0 0zm-24-1c-2-5-1 4 0 0zm417 0c-2-1-3 1 0 0zm-386-1c-1-1-1 1 0 0zm3-3c0-1 0 0 0 0zm400-10c-1-1-1 0 0 0zm2-2s0 1 0 0zm-405 0c-1-2 1 1 0 0zm-3-1c-2-1-1 1 0 0zm410-1c-1 0-1 1 0 0zm2-1c-4-1 0 2 0 0zm-3-1c-1-1 0 2 0 0zm5-4s0 1 0 0zm-5-2c-2-1-1 1 0 0zm-1 0c-1-1-1 0 0 0zm1-1c-1-1-1 1 0 0zm-1 0c-1-1-1 0 0 0zm-2-1c0-1 0 0 0 0zm-408-2s0 1 0 0zm2-2c-1 0 0 1 0 0zm410-1c-1 0 0 1 0 0zm11-5c-1-1-1 0 0 0zm0-1s0 1 0 0zm-5-1c-1-1-1 2 0 0zm-413-4c-1-1 0 1 0 0zm399-2c0-1 0 1 0 0zm10 0c-1-1-1 1 0 0zm-16-1c3-2-6 0 0 0zm-392 0c0-1 0 1 0 0zm406 0c0-1 0 1 0 0zm-1 0c0-1 0 0 0 0zm-399-2c-1-2-9 2 0 0zm-19-3c0-1 0 1 0 0zm388-1s1 1 0 0zm-374 0c-1-2-1 1 0 0zm17-1c-1 0-1 1 0 0zm-6-1c0-1 0 1 0 0zm2 0c0-1-1 1 0 0zm-12-1s0 1 0 0zm7-1c1-1-1 2 0 0zm9-1c-3-1 1 1 0 0zm-4-1c0-2 4-5-4-3 1 3 0-2 4 3zm-1 0c1-1 1 0 0 0zm0-4c1-1 1 1 0 0zm5 4c-1 0-1 1 0 0zm-2-1c-1 0 0 1 0 0zm-23-1c0-1 0 1 0 0zm0-1c1-5 6-4 4-9-4-7-4-1-7 2 8 1-5 7 3 7zm1-7c0-3 3 1 0 0zm1-2c0-1 0 1 0 0zm0-2s0 1 0 0zm4 10c-1-1-1 2 0 0zm12 0c-1-2 1 1 0 0zm-13-1c-1-5-2 2 0 0zm2-1c3-6-3-1 0 0zm0-1c1 0 0 1 0 0zm12 1c-1 0-1 1 0 0zm-4 0c-1 0-1 1 0 0zm3 0c-1-1 0 0 0 0zm5-1c-5-3-1 0 0 0zm-7 0c-1-2-1 1 0 0zm0-2c-1-1-1 2 0 0zm-4 0c-2 0-1 1 0 0zm3-2c2-4-5 2 0 0zm-4 0c-2-2-3 3 0 0zm5 1c0-1 0 0 0 0zm-20-1c1-5-5 0 0 0zm12-1s0 1 0 0zm4 0c-1-3-4 2 0 0zm-19-1c-1 0 0 2 0 0zm16 1c0-3-3 1 0 0zm-17-1c-1-4-1 2 0 0zm12-1c-1 0-1 2 0 0zm9 1s0 1 0 0zm4 0c1-2-9-2 0 0zm-20-1c-3-3-4 2 0 0zm8 0c9-2 1-3 0 0zm8-1c-4-3-3 2 0 0zm-20 0c-1-1-2 1 0 0zm-2-1c5-1 16-7 12-8-5 1-3-2-7-1 4 6-10 7-5 9zm6-2c1 0 1 1 0 0zm1-2c-2-4 3-3 0 0zm-1 0c1-1 0 0 0 0zm19 5c-2-1-1 1 0 0zm-13-1c0-1 0 0 0 0zm-1-1c-1-1-2 1 0 0zm1 0c-2-1-2 1 0 0zm5 0c-3-1-1 0 0 0zm-4-1c3-3-7 0 0 0zm-3-1c1-1 1 1 0 0zm6 1c-1-1 0 0 0 0zm-3-2c-4-1-3 0 0 0zm-11-1s0 1 0 0zm-2-2c-1 0-1 1 0 0zm1 0c-1-1-1 1 0 0zm-1-1c-1 1 0 1 0 0zm15 0c-1-1-1 1 0 0zm-20-1c-1-1-1 2 0 0zm12-3c-2-2-1 2 0 0zm3 0c-2-2-3 2 0 0zm-6-1c-2-2-1 1 0 0zm3-1c0-1-3 2 0 0zm1 1c-1-1-1 0 0 0zm2 0c-1-1 0 0 0 0zm388-7c-1-1 0 0 0 0zm-389-1c-7-1-6 0 0 0zm391 0c-1-1-2 1 0 0zm-389 0c-1 0 0 1 0 0zm390-2c1-3-2 3 0 0zm0-2s0 1 0 0zm-401-2c-2-1-2 2 0 0zm4 0c2-2-7 3 0 0zm1 0c-1-1-1 2 0 0zm4 0c-3-1-5 2 0 0zm-12 0c-1 0 0 1 0 0zm4 0c-1-1 0 0 0 0zm8-1c-1 0 0 1 0 0zm388 0s0 1 0 0zm5 0c-1 0-1 1 0 0zm-1 0c7-5 2-4-2 0zm6-5c-2-3-3 3 0 0zm-1-1c20-10 0-7 2-2-2 1-8 4-2 2zm3-3c1-1 1 1 0 0zm8-5c0-1 0 0 0 0zm5-2c-2-1-3 2 0 0zm-3 0c-1-1 0 1 0 0zm6-2c-3-1-2 1 0 0zm-3-1s0 1 0 0zm14-8c-2-1-3 1 0 0zm-20-6c-2-1-3 1 0 0zm-14-7c-1-1-1 1 0 0zm9-1c7-6-13-1 0 0zm1-2s0 1 0 0zm-405-9c0-6-6 2 0 0zm415-6c-1 0 0 1 0 0zm0-1c-2-1-3 1 0 0zm12-18c0-1 0 0 0 0zm-5-10c-1 0 0 1 0 0zm-438-2c3-5-3 2 0 0zm428-9c-3-4-6 2 0 0zm2-4c0-4-3 1 0 0zm-5-1s0 1 0 0zm3-1c0-1 0 1 0 0zm1-4c-1-1-1 1 0 0zm0-6c-2-1-1 1 0 0zm-1-1c-1 0-1 1 0 0zm1 0c-1-1-2 1 0 0zm-2-1s0 1 0 0zm-412-4c-12-10 4 6 0 0zm415-1c-1-1-1 0 0 0zm10-6s0 1 0 0zm1 0c0-1 0 1 0 0zm-5-1c-1-2-1 2 0 0zM62 94c-2-1-1 2 0 0zm398 0c-1-1 0 0 0 0zm2-1c4-1-5 2 0 0zm2 0c0-1-1 1 0 0zM62 92c-1-1-1 0 0 0zm-1-1c-1 0 0 1 0 0zm-1 0c0-1 0 1 0 0zm-1-1c-5-1 3 2 0 0zm5 0c-4-2-1 2 0 0zm-3 0c0-1 0 1 0 0zm402 0c-1-1 0 1 0 0zM62 89c1-3-2-4-1-5 6-2-2-8-8-2 2 3 1 6 9 7zm-5-3c1-2 1 1 0 0zm2-3c-6-2 6-3 0 0zm-1-2s0 1 0 0zm8 8c-1-1-1 1 0 0zm402-3c-1-1 0 1 0 0zM65 84c-1 0 0 0 0 0zm402 0c-1-1-1 0 0 0zM65 81c-3-1-1 2 0 0zm5 0c-1-2-4 1 0 0zm399-1c0-1 0 1 0 0zM56 78c6 0-5 1 0 0zm6 0c-1-1-1 1 0 0zm400-3c-2 0 0 1 0 0zm-1 0c-1-1 0 1 0 0zm-318-1c-1-1 0 0 0 0zm318-1c-5-1-1 1 0 0zm6-1c-2-1-2 1 0 0zm-3 0c0-1 0 1 0 0zM63 72c-2-2-2 1 0 0zm90-4c-1-1-1 0 0 0zm1 0c0-1-1 1 0 0zm312-1c-1-1-1 1 0 0zm-317-1c-2-1-1 1 0 0zm321 0c-3-2 0-1 0 0zm-313 0c-12-3-19-2-2 0h2zm-15-1c-1-3-1 2 0 0zm2 0c-1-1-1 0 0 0zm324 0c-1-1 0 0 0 0zm4-2c1-2-4 3 0 0zm-315 1c-3-1-3 0 0 0zm313 0c-1-1 0 0 0 0zm-318-1c-4-1 0 1 0 0zm-3 0c-1-1 0 0 0 0zm-1-1c-1 0-1 1 0 0zm-2 0c-1-1 0 1 0 0zm14 0c1-2-2 2 0 0zm-3 0c0-1 0 0 0 0zm318-1c1-2-9 0 0 0zm-322 0c0-1 0 0 0 0zm3-1c-1 0 0 1 0 0zm-3 0c-1-1 0 1 0 0zm1 0c0-1 0 0 0 0zm-2 0c-1-1-2 0 0 0zm8-1c-2-1-2 1 0 0zm-2-1c-3-1-2 1 0 0zm-2 0c-6-1-8 0 0 0zm1-1c0-1 0 1 0 0zM57 57c-5-3-5 1 0 0zm412-1c-1-1-2 1 0 0zm-3-1s0 1 0 0zm-285-1c6-8 4-7-2-3 0 1 1 5 2 3zm36 1c0-1 0 0 0 0zM95 54c-2 0-1 1 0 0zm121 0c-2 0-1 1 0 0zm3 0c-1-1 0 1 0 0zM96 53c-3-2 0 2 0 0zm121 1c-1-1-1 0 0 0zm1 0c-2-1 0 0 0 0zM26 53c-1 0-1 1 0 0zm196 0c-1 0 0 1 0 0zM61 53c-9-1-11 1 0 0zm162 0c0-1 0 1 0 0zm136 0c-1 0 0 1 0 0zm-134-1c-4-1 1 2 0 0zm150 1c0-1-1 0 0 0zm-9 0c0-1 0 0 0 0zm10-1c-1 0 0 1 0 0zm1 0c-1 0 0 1 0 0zm3 0c0-1-1 2 0 0zM85 52s0 1 0 0zm-24 0c-6-2-8 2 0 0zm3 0c-2-1-2 1 0 0zm14 0c-1-1 0 1 0 0zm-23-1c-3-1 1 2 0 0zm173 0c-2-1-1 2 0 0zM76 51c-3-2 1 1 0 0zm384 0c-1-1 0 1 0 0zM78 51c-1-1 0 0 0 0zm388-1c2-3-10 1 0 0zm-60 0c-2-1-1 2 0 0zm-171 0c-4-2 1 0 0 0zm-119-1c-2 0-2 2 0 0zm141 0c17 2 5-8-4 0h4zm-17 0c-2-2-9 0 0 0zm104 0c-1 0 0 1 0 0zm3 0c1-1-3 2 0 0zm136 0c-1 0 0 1 0 0zm-23 0c-1-1 0 1 0 0zm-346 0c0-2-3 1 0 0zm133-1c12-5-21 2 0 0zm102 0c3-3-3 2 0 0zm8 1c-1-2-2 1 0 0zm101 0c0-1 0 0 0 0zm-66-1c-1-1-1 1 0 0zm-41 0c-1 0 0 1 0 0zm-232 0c-1-1-1 0 0 0zm210 0c-1-2-1 1 0 0zm-141-1c-2-1-1 1 0 0zm158 0c0-1 0 0 0 0zm3 0c-1-1 0 0 0 0zm4-1c5-3-6 3 0 0zm-101 0s0 1 0 0zm99 0c-2-1 0 1 0 0zm4 0c-1-1-1 1 0 0zm-7 0c-1-1-1 0 0 0zm-104-1c1-4-6 2 0 0zM40 43c-3-2-1 4 0 0zm313 2c0-2-1 1 0 0zm-61-1c-2-4-1 2 0 0zm-40-1c-2-3-7 1 0 0zM36 41c-1 0-1 1 0 0zm212 0c1-5-5 2 0 0zm56-1c0-1 0 1 0 0zM191 415c1-1 0 0 0 0zm-17-1c11-11 10-3 0 0zm-28 0c1-1 1 0 0 0zm-41-4c1-1 0 0 0 0zm43-1c1-4 0 2 0 0zm181 0c1-2 1 1 0 0zm-234-3c0-5 8 0 0 0zm273-2c1 0 1 1 0 0zm10-1s0 1 0 0zm-237 0c1-1 1 0 0 0zm-107-1c16-10 35-18 52-28 1-2-21 16-31 18-7 3-14 8-21 10zm108-1c1-2 2-1 0 0zm-76-1c-2-6 6 2 0 0zm-17 0c-1-2 3 1 0 0zm162-1c-6-7 13-4 0 0zm-162-1c0-2 2 1 0 0zm118-1s0 1 0 0zm-11 0c1-1 1 1 0 0zm-14-1c0-2 1 0 0 0zm-40-1c0-4 2 3 0 0zm-48 0c2-2 2 1 0 0zm103-2c1-4 1 2 0 0zm53 0c-6-1 0-13-1-5 4 0 5 7 1 5zm50 0c0-4 3 3 0 0zm154 0c0-7 6 0 0 0zm-7 0c0-1 0 0 0 0zm-357-1c-1-4 2 2 0 0zm53-1c-4-3-1-12 6-10 6 4 3 10-1 10 0 2-4 1-5 0zm5-9c-1-1-1 2 0 0zm279 9c1-1 1 1 0 0zm19 0c-3-4 6-1 0 0zm49 0c1-1 1 1 0 0zm-382-1c2 0 1 0 0 0zm309 0c-6-1 0-14 0-5 3 0 4 7 0 5zm-233 0c1-1 1 1 0 0zm248 0c-1-4 4 2 0 0zm-304 0c1-1 1 1 0 0zm-4-1c2-1 2 1 0 0zm79 0c-1-3 3 1 0 0zm-113 0c2-4 3 1 0 0zm175 0s0 1 0 0zm225 0c-1-1 3 1 0 0zm-61 0c0-2 5 1 0 0zm-264-1c1 0 0 1 0 0zm17-1c2-6 0 3 0 0zm262 1c-13-6 13 0 0 0zm-87-1c-10-6-6-15-2-14 5 2 6 14 2 14zm-1-11c1-3-2 1 0 0zm92 12c-5-4 6-2 0 0zm-316-1c1-3 3 3 0 0zm114 1c0-1 0 0 0 0zm115-1c-1-2 3 1 0 0zm-213 0s0 1 0 0zm175 0c1-1 1 0 0 0zm-145-1c1-1 0 1 0 0zm8-1c1-3 0 3 0 0zm299 1c-14-10 0-8 1-1-1 0 0 2-1 1zm-16-1c1 0 0 1 0 0zm-49 0c1-2 2 0 0 0zm67 0c1-3-1-2 0 0zm-235-1c-3-10 4-1 0 0zm193 0c-4-7 10-6 0 1zm-27 0s0 1 0 0zm-162 0c-1-3 2 1 0 0zm80 0c1 0 0 1 0 0zm156 0c1-8 7-1 0 0zm-345 0c-2-3 4 0 0 0zm220 0c0-2 0 1 0 0zm65 0c-1-4 3-1 0 0zm-323-1c0-1 0 1 0 0zm67 0c1 0 1 1 0 0zm260 0c1 0 1 1 0 0zm-340-1c1 0 0 1 0 0zm108 0c0-2 0 1 0 0zm18 0c-1-7 4-1 0 0zm73 0c1-1 0 1 0 0zm130-1c-4-10 3-1 0 0zm-218 0c1-2 1 1 0 0zm221 0c-1-3 2 0 0 0zm5 0c-1-4 4 2 0 0zm-291-1s0 1 0 0zm8 0c1-2 1 1 0 0zm75 0c0-1 0 0 0 0zm-87-1c1-1 0 2 0 0zm7 0c2-1 2 2 0 0zm39 0c0-4 4 1 0 0zm301 0c1-1 1 2 0 0zm-343 0c-3-6 8 1 0 0zm113 0c0-4 2 1 0 0zm164 0c1-1 1 1 0 0zm-201-1c-1-3 3 3 0 0zm148 1c0-2 1 1 0 0zm28-1c0-7 3 0 0 0zm93 1c-10-7 13 0 0 0zm0-3c0-1 0 1 0 0zm-277 2s0 1 0 0zm280-1c-6-6 2-11 4-18 0-9 5 18 0 12-1-11 2 6-4 4 1 0 8 6 0 2zm5-7c-1-1-1 1 0 0zm-395 8c2-2 1 2 0 0zm107 0c0-1 0 1 0 0zm101 0c1-1 1 1 0 0zm75 0c0-1 0 1 0 0zm-179-1c0-2 1 2 0 0zm138 0c1-5 3 2 0 0zm-88 0c-1-10 9-1 0 0zm116 0c1-1 1 1 0 0zm63 0c-1-1 1 1 0 0zm-288 0c1-1 0 1 0 0zm231-1c-1-3 3 3 0 0zm55 1c1-1 1 1 0 0zm47 0c0-2 1 1 0 0zm-345 0c0-3 2 1 0 0zm235 0c0-1 0 0 0 0zm148 0c0-1 0 0 0 0zm-412-1c0-2 3 1 0 0zm80 0c0-1 0 1 0 0zm175 0c1 0 0 1 0 0zm6 0c0-1 0 1 0 0zm62 0c0-4 2 1 0 0zm67 0c1-1 1 1 0 0zm22 0c1 0 0 1 0 0zm-277 0c1-1 1 0 0 0zm129-1c-3-4 4 0 0 0zm149 0c-1-3 3 2 0 0zm-393 0c1-3 3 1 0 0zm93 0c1-1 1 1 0 0zm86 0c1 0 0 1 0 0zm42 0c1-1 1 1 0 0zm87 0c3-1 2 0 0 0zm-140 0c0-1 0 0 0 0zm58-1c2-1 1 2 0 0zm-8 0c1-1 1 1 0 0zm67 0c0-3 3 2 0 0zm-181 0c1 0 1 1 0 0zm118 0c1-1 0 1 0 0zm80 0c-1-10 10-2 0 0zm-291 0c1-1 1 0 0 0zm57-1c2-2 2 2 0 0zm23 1c0-2 1 0 0 0zm217 0c1-2 1 1 0 0zm-308-1s0 1 0 0zm94 0c-1-1 1 0 0 0zm144 0c1-1 1 1 0 0zm9 0c1 0 0 1 0 0zm143 0s0 1 0 0zm-139 0c1-1 1 1 0 0zm60 0c-4-7 6 0 0 0zm9 0c1-1 0 0 0 0zm-325 0c1-1 1 0 0 0zm129-1c1-1 1 1 0 0zm96 0c0-2 2 2 0 0zm79 0c1-1 1 2 0 0zm-37 0c1 0 1 1 0 0zm-228 0c0-2 0 1 0 0zm32 0c1-1 1 0 0 0zm1 0c-2-2 4 1 0 0zm103 0c0-1 0 0 0 0zm56 0c1-3 2 1 0 0zm23 0c0-2 2 0 0 0zm-284 0c2-2 2 0 0 0zm33 0c0-3 3 1 0 0zm254-1c-1-1 1 1 0 0zm65 0c0-1 1 2 0 0zm-185 0c1-1 1 1 0 0zm106 0c0-2 2 2 0 0zm-18-1c0-6 7 3 0 0zm136 1c1-1 0 1 0 0zm-289-1c1-3 1 1 0 0zm323 0c1-1 1 1 0 0zm-198 0c0-2 0 1 0 0zm54 0c1-2 1 1 0 0zm-21-1c1-1 1 2 0 0zm81 0c1-1 1 1 0 0zm82-1c0-4 1 4 0 0zm-296 1c1-3 3 2 0 0zm38 0c-3-4 4 0 0 0zm-23 0c1-2 1 1 0 0zm132 0c1-1 0 0 0 0zm8 0c2-3 4 0 0 0zm6 0c1-5 3 1 0 0zm-168-1c1-1 1 1 0 0zm27 0c2-2 1 2 0 0zm166 0c-3-2 4 0 0 0zm-267 0c0-1 0 1 0 0zm23 0c0-1 0 1 0 0zm1 0c1-3-1-1 0 0zm344 0c-5-8 2-10 3-8-4 7 8 4-1 7v1h-2zm-271 0c1-1 1 1 0 0zm143 0c3-1-2 1 0 0zm154-1c4-3-4 3 0 0zm-380 0c2-2 1 0 0 0zm108 0c1 0 0 1 0 0zm89 0c1-1 2 1 0 0zm23 0c1-5 10 0 0 0zm7 0c1-1 1 1 0 0zm-1 0c1-2 1 1 0 0zm136 0c1-1 1 0 0 0zm-276-1s0 1 0 0zm132 0c-1-6 4 2 0 0zm-51 0s0 1 0 0zm1 0c1-3-1-1 0 0zm115 0c1 0 1 1 0 0zm-197-1c1-1 0 2 0 0zm62 0c1-1 1 1 0 0zm79 0s0 1 0 0zm1 0c2-1 1 1 0 0zm-290 0c2-2 2 1 0 0zm292 0c2 0 0 1 0 0zm1 0c12-1 12 1 0 0zm-65 0c-1-2 2 0 0 0zm49 0c1-1 0 0 0 0zm6-1c1-2 1 2 0 0zm158 1c1-1 1 1 0 0zm-442 0c0-1 0 0 0 0zm38-1c1 0 0 1 0 0zm112 0c0-2 1 0 0 0zm56-1c2-8 5 3 0 0zm194 0c1-7 1 4 0 0zm1 1c1-1 0 0 0 0zm2-1c1 0 1 1 0 0zm9 0c-2-5 3-1 0 0zm-373 0c1-1 1 1 0 0zm287 0c0-1 0 1 0 0zm-304 0c1-1 0 1 0 0zm201-1c-2-3 6 3 0 0zm79 1c-3-2 4 1 0 0zm147 0c1-1 0 1 0 0zm-157-1c0-1 0 2 0 0zm-91 0c1-1 1 1 0 0zm123 0s0 1 0 0zm82-1c0-8 2 1 0 0zm4 1c1-2 1 2 0 0zm-404-1c-3-10 4-1 0 0zm150 0c-1-2 3 1 0 0zm17 0c-10-2 8-2 0 0zm53 1c1-1 1 0 0 0zm-9-1c-2-1 2 1 0 0zm-208 0c-1-3 2 0 0 0zm32 0c2-1 0 0 0 0zm135 0c1-2 1 1 0 0zm27 0c0-3 2 1 0 0zm-166-1c2 0 0 1 0 0zm-2 0c0-1 0 1 0 0zm-35-1c1-1 1 1 0 0zm167 0c2-6 3 2 0 0zm-191 0c0-8 3 0 0 0zm434 0c0-1 2 2 0 0zm-239 0c0-2 1 1 0 0zm-161-1c-2-3 3 1 0 0zm194 0s0 1 0 0zm2 0s0 1 0 0zm224 0c0-1 0 1 0 0zm-391 0c-2-1 2 1 0 0zm165 0c1-1 1 1 0 0zm208 0c-2-6 7-7 0 0zm-239 0c1-3 2 1 0 0zm4-1c1-1 2 2 0 0zm21 1c1-1 1 1 0 0zm203 0c0-1 0 0 0 0zm-402-1c-2-9 1-12-7-5-7 4-16 2-5-1 9-2 3-14 13-12-1 4 6 8 1 15 0 1 1 4-2 3zm-15-4c-1-1-1 1 0 0zm14-10c-3-2-1 4 0 0zm-4-2c0-1 0 0 0 0zm209 16c-2-2 3 1 0 0zm2 0c2 0 0 1 0 0zm-39 0c-1-3 4 1 0 0zm5 0c1-1 1 1 0 0zm28 0c0-2 2 1 0 0zm20-1c1 0 0 1 0 0zm-210 0c-1-4 2 1 0 0zm4 0c1-3 1 2 0 0zm192 0c0-2 3 2 0 0zm2 0c1 0 1 1 0 0zm-37 0c1-1 1 0 0 0zm-13 0c0-1 0 0 0 0zm15-1c-1-2 1 1 0 0zm-6 0c0-4 4 2 0 0zm13 0c0-1 0 1 0 0zm247 0c1-1 1 1 0 0zm-217 0c0-1 0 1 0 0zm-40 0c-2-5 9-1 0 0zm29 0c0-1 0 0 0 0zm-191-1c0-10 9-1 0 0zm157 0c1-1 1 1 0 0zm40 0c1-1 1 0 0 0zm-25-1c1-2 0 2 0 0zm18 0c-1-2 1-1 0 0zm2 0s0 1 0 0zm6 0c1-1 0 1 0 0zm2 0c0-1 0 1 0 0zm-43-1s0 1 0 0zm248 0c1-1 1 2 0 0zm-237 0c0-1 0 1 0 0zm26 0c1-1 1 1 0 0zm-34 0c1-2 1 1 0 0zm-4-1c2-1 3 1 0 0zm252 0s0 1 0 0zm7 0c1-2 1 2 0 0zm-10 0c1-2 0 1 0 0zm-247-1c0-1 0 0 0 0zm246 0c0-1 0 0 0 0zm3-1c0-1 1 1 0 0zm-249 0c0-1 0 1 0 0zm255 0c0-5 2 2 0 0zm-406-5s0 1 0 0zm413 0c0-1 0 1 0 0zm-434-1c1-1 1 1 0 0zm18-2c1-1 1 1 0 0zm4-1c0-1 0 0 0 0zm-8-1c1-1 1 1 0 0zm407-2c6-2 7-1 0 0zm8-2c1 0 0 1 0 0zm-435 0c7-7-1 0 0 0zm418 0c-1-2 2 1 0 0zm3 0c0-1 0 0 0 0zm10-1c2-2 2 3 0 0zm-11 0c1 0 0 1 0 0zm5 0c0-1 0 1 0 0zm2 0c1 0 1 1 0 0zm12 0c-4-6 3 2 0 0zm-16 0c1 0 0 1 0 0zm-11-1s0 1 0 0zm2 0s0 1 0 0zm5 0c-2-13 8 2 0 0zm-421 0c0-1 0 1 0 0zm439 0c1-1 0 0 0 0zm-431-1c-2-2 9-6 3-2-1 1-2 3-3 2zm-43-2c1-1 0 1 0 0zm468-2c1-2 1 1 0 0zm-8-1c1 0 1 1 0 0zm-415-1s0 1 0 0zm-46-3c1-6 0 6 0 0zm53 0c1-1 1 2 0 0zm2 0s0 1 0 0zm3 0c1-1 1 1 0 0zm-2-1c0-1 0 2 0 0zm-36 0s0 1 0 0zm2 0c-1-5 5 1 0 0zm37 0c1-1 1 1 0 0zm-2-1s0 1 0 0zm-28 0c1-1 1 1 0 0zm26-1c1 0 1 1 0 0zm-1 0c0-1 0 1 0 0zm-36-1c0-1 0 0 0 0zm456-1c1-1 0 1 0 0zm-440 0c2-1 2 1 0 0zm17 0c0-2 1 1 0 0zm423-1c1-2 1 1 0 0zm27 0s0 1 0 0zm-463-2c1-1 1 2 0 0zm-19-1s0 1 0 0zm462 0c1-1 1 1 0 0zm-432 0c1-1 0 0 0 0zm-30-1c0-2 2 1 0 0zm11 0c0-4 2 2 0 0zm457 0c1-1 0 1 0 0zm15-2c-8-1 5-2 2 1zm5 0c1 0 0 1 0 0zm-472-1c1-1 1 2 0 0zm457 0s0 1 0 0zm-15 0c-7 0 2-1 0 0zm-447 0c-1-4 3 1 0 0zm444 0c0-1 0 0 0 0zm-450-1c1-1 1 1 0 0zm16 0c1-2 1 1 0 0zm-4-1c-1-2 4 0 0 0zm452 0c2-4 0 3 0 0zm-465 0s0 1 0 0zm9 0c-3-5 7 1 0 0zm24 0s0 1 0 0zm422 0s0 1 0 0zm-4 0c1-1 1 0 0 0zm21-1c-1-5 7 3 0 0zm-446 0s0 1 0 0zm1 0s0 1 0 0zm4 0s0 1 0 0zm458 0s0 1 0 0zm-476-1c-4-4 5 3 0 0zm4 1c2-1 0 0 0 0zm-36 0c1-1 1 0 0 0zm40-1c1-1 1 1 0 0zm436 0c1 0 1 1 0 0zm-5 0c0-1 0 1 0 0zm-437-1c-1-3 3 2 0 0zm446 0s0 1 0 0zm-6 0c1-1 1 1 0 0zm-430 0c1-2 1 1 0 0zm442 0c1-2 1 0 0 0zm-476-1c2-1 1 1 0 0zm468 0c0-1 0 1 0 0zm31-1c-17-3 10 0 0 0zm-469 0c1-1 1 1 0 0zm-36-2c-3-8 8 2 0 0zm24 1c0-1 0 0 0 0zm15-1c3 0 1 1 0 0zm4 0c8 0-5 1 0 0zm-6 0c2-2 2 1 0 0zm-3-1c1-2 1 2 0 0zm-22 0c-3-2 3 1 0 0zm32 0c1 0 0 1 0 0zm2 0c1-2 2 0 0 0zm-36-1c0-1 1 2 0 0zm29 0c1-2 1 1 0 0zm-21-1c-1-4 5 1 0 0zm461 0c0-1 0 1 0 0zM8 298c0-1 0 0 0 0zm495-1c1-1 2 2 0 0zm-492 0c1 0 1 1 0 0zm36 0c-8 0-10-12-13-10 5-3-4-8 6-5 2-6-7-4 6-5-5 3-1 12-3 14 5 2 13-4 4 6zm0-3c0-2-2 2 0 0zm-3-1c-1-1-1 2 0 0zm-3-6c-1-2-1 2 0 0zm-4-1c-1 0-1 1 0 0zm6-1c-1 0-1 1 0 0zM9 297c1-1 0 1 0 0zm24 0c1-4 2 2 0 0zm18-1c1 0 0 1 0 0zm-41 0c0-1 0 0 0 0zm17 0c1-1 0 0 0 0zm476 0c0-1 0 0 0 0zm-479-1s0 1 0 0zm456 0c1-2 1 1 0 0zM8 295c1-1 1 0 0 0zm471 0c1-1 0 1 0 0zM7 294c0-1 0 1 0 0zm476 0c1-1 1 1 0 0zm-3 0c1-1 1 1 0 0zm-1-1c2-1-1 1 0 0zm26 0c-1-5 6 1 0 0zm-30 0c4-3 1-1 0 0zm6 0c2-1 1 1 0 0zm-447 0c-2-6 3 1 0 0zm444-1c6-3-3 3 0 0zm5 1c1-1 0 0 0 0zM4 292c0-2 1 1 0 0zm23 0c1 0 1 1 0 0zm26 0c1 0 0 1 0 0zm447 0c-5-10 3 2 0 0zm-24-1c1-1 0 1 0 0zm-423 0c4-1 1 0 0 0zm-20-1c3-2 2 1 0 0zm19 0c0-2 4 1 0 0zm425 0c1-1 0 1 0 0zm-2-1c1-1 1 2 0 0zm11 1c0-1 0 0 0 0zm-6-1s0 1 0 0zm11 0c1 0 0 1 0 0zm15 0c1-1 0 1 0 0zm-454 0c1-1 1 0 0 0zm1-1c3 0 1 1 0 0zm425 0c1-1 0 1 0 0zm-421 0c1-1 0 0 0 0zm3 0c2-1 0 0 0 0zm416 0c0-1 0 0 0 0zm-453-1c1 0 1 1 0 0zm463 0c0-6 4-1 0 0zm14 0c0-4 3 1 0 0zm-447-1c2-5 3 2 0 0zm409 1c1-1 1 0 0 0zm13 0c4-4 2 0 0 0zm3 0c0-1 0 0 0 0zm-418-1s0 1 0 0zm-8 0c0-2 1 1 0 0zm404 0c3-2-2 2 0 0zm17 0c0-1 0 1 0 0zm-427 0c0-1 0 0 0 0zm422 0c0-1 0 0 0 0zm3 0c0-2 1 0 0 0zm8 0c0-1 0 0 0 0zm-446-1c1 0 0 1 0 0zm420 0c1 0 0 1 0 0zm2 0s0 1 0 0zm23-1c1-1 0 2 0 0zm23 1c1-1 1 0 0 0zm-441-1c1 0 0 1 0 0zm8 0c0-1 0 0 0 0zm-40-1c3 0 0 0 0 0zm25 0c2-2 2 1 0 0zm-36 0c0-1 0 0 0 0zm464-1c2-1 2 1 0 0zm-420-1c0-1 3 3 0 0zm-7 1c0-1 0 0 0 0zm-54-1c1-1 1 0 0 0zm486 0c1-2 1 1 0 0zm-454-1c1 0 0 1 0 0zm418 0c1-1 1 1 0 0zm-413 0c1-1 1 0 0 0zm409 0c0-1 0 0 0 0zm-410-2c1-1 1 1 0 0zm27-1c0-2 1 2 0 0zm7 0c1-2 0 2 0 0zm-5 0c1-1 0 1 0 0zm-30-1c-1-3 4 3 0 0zm6 0c-1-2 3 3 0 0zm19 0c1-1 1 2 0 0zm-41 0s0 1 0 0zm461-1c-7-1 11 1 0 0zm-450 0c0-5 7 0 0 0zm11 0c0-1 0 1 0 0zm-31-1c2-2 4 2 0 0zm57 0c1-1 1 1 0 0zm-38-1c2-1-1 1 0 0zm445 0c2-1 0 1 0 0zm-460 0c1-1 0 0 0 0zm17 0c0-1 0 0 0 0zm8 0c1-2 1 1 0 0zm428 0c0-1 0 0 0 0zm-433-1c-6-7 7-2 0 0zm34 0c0-1 0 1 0 0zm399 0c0-1 0 0 0 0zm-420-1c0-1 1 1 0 0zm-11 0c0-1 0 1 0 0zm32 0c1 0 1 1 0 0zm423 0c-1-8 5-2 0 0zm-424-1c-1-1 2 1 0 0zm-66-1c-2-6 6 1 0 0zm29 0c1-1 1 1 0 0zm438 0c1-1 1 1 0 0zm44-1c1 0 0 1 0 0zm-44 0c1-1 0 1 0 0zm-433-2c1-2 2 2 0 0zm430 0c0-1 0 0 0 0zm27-1c0-1 0 1 0 0zm-460-1c-1-1 2 2 0 0zm-31-1c2-3 1 2 0 0zm32 0s0 1 0 0zm-13 0c1-1 1 1 0 0zm-3-1c-1-9 1-8 2 0h-2zm1-6c-1-2-1 2 0 0zm14 6s0 1 0 0zm1-1c2-3 3 3 0 0zm441 0c0-2 1 1 0 0zm-462 0c1-1 1 0 0 0zm451 0c0-1 0 0 0 0zm43-1c7-1 6 1 0 0zM8 259c2-1 1 0 0 0zm472 0s0 1 0 0zm-454 0c-4-3 9 0 0 0zm437 0c1-1 0 0 0 0zm5-1c7-3 9 0 0 0zm16 0c3-3 6 1 0 0zm9-1c1-1 1 1 0 0zm-461-1c1-3 3 3 0 0zm-32-1c0-4 4 3 0 0zm478 0s0 1 0 0zm-460-1c1-6 3 3 0 0zm1-1c-1 1 1 1 0 0zm14 1c1 0 0 1 0 0zm443 0c1 0 0 1 0 0zm-448 0c2-1 2 1 0 0zm-19-2c0-1 0 1 0 0zm7 0c1-1 1 1 0 0zm7-1c1-2 0 3 0 0zm-2 0c1 0 1 1 0 0zm12 0s0 1 0 0zm-9 0c0-1 0 1 0 0zm23 0c1-1 0 1 0 0zm-44-1c0-1 1 1 0 0zm33 0c1-1 1 1 0 0zm467 0c0-1 0 1 0 0zm-470-2c2-1 1 1 0 0zm8 0c1 0 0 1 0 0zm-3 0c1-2 1 1 0 0zm470 0c1-1 1 0 0 0zM0 247c2-2 1 2 0 0zm38-1c1-1 0 0 0 0zm477 0c2-2 2 1 0 0zm-481-1c-1-2 1 2 0 0zm-30 0c0-2 3 1 0 0zm14 0c1-1 1 1 0 0zm473 0c-1-5 3-1 0 0zm-462-1c1-1 1 2 0 0zm23 0c1 0 0 1 0 0zm447 0c3-1 3 2 0 0zm-482 0s0 1 0 0zm459 0c7-3 8 0 0 0zm-452 0c1-3 3 1 0 0zm-3-1c-6-1 5-1 0 0zm455 0c1-1 0 0 0 0zm-452-1s0 1 0 0zm5 0c-1-3 5 2 0 0zm-10-1c1 0 1 1 0 0zm-10-1c1-1 0 1 0 0zm13 0c0-2 3 1 0 0zm20-1c1 0 1 1 0 0zm461 0c1 0 1 1 0 0zm1 0c2-1 1 1 0 0zm-460 0c-1-1 1 1 0 0zm-6 0c1-1 1 1 0 0zm-14-1c2-6 13-10 4-1 0 2-2 2-4 1zm3-1c-1-1-1 2 0 0zm2-1c4-5-4 1 0 0zm11 2c-9-12 3-5 0 0zm2 0c2 0 0 1 0 0zm7 0c1 0 1 1 0 0zm-4 0c1-1 0 0 0 0zm459-1c0-1 0 0 0 0zm10 0c0-1 0 0 0 0zm-500-1c-3-2 3 1 0 0zm-2-1c0-1 1 2 0 0zm497 0c1-1 1 2 0 0zm-498-1c2 0 0 0 0 0zm483 0c1-1 1 0 0 0zm-7-2c1 0 1 1 0 0zm-462 0c1-1 1 1 0 0zm-17 0c1-1 1 0 0 0zm492-1s0 1 0 0zm-470-2c0-4 2 2 0 0zm-14 0s0 1 0 0zm5 0c0-1 0 1 0 0zm0-1c1 0 1 1 0 0zm496-1c4-1-2 3 0 0zm-494 0c0-7 5-3 0 0zm477 0c1-1 0 0 0 0zm-10-2c2-14 4 4 0 0zm-454 0s0 1 0 0zm-20-1c1 0 1 1 0 0zm2-1c1 0 0 1 0 0zm12 0c1-1 0 2 0 0zm450-1c1-2 0 2 0 0zm25-1c1-2 0 2 0 0zm1 0c21-4 13-1 0 0zm-473-1c1-1 1 1 0 0zm450-1c1 0 1 1 0 0zm-10-1c2-3 2 1 0 0zm-446 0c0-3 3 1 0 0zm466 0s0 1 0 0zm21 0c1 0 1 1 0 0zm-501-1c-1-2 2 1 0 0zm17 0s0 1 0 0zm-28 0c0-1 0 0 0 0zm20-2c1 0 0 1 0 0zm462-2s0 1 0 0zm-454-1c-2-3 3 3 0 0zm5 0c-1-2 3 3 0 0zm-22 0s0 1 0 0zm19-2c0-1 0 1 0 0zm458-1c1-1 1 2 0 0zM1 209c0-1 0 0 0 0zm13-1c4-2-1 2 0 0zm478 0c1 0 1 1 0 0zm-475-3c2-2 1 1 0 0zm8 0c0-1 0 1 0 0zm7 0c0-1 0 0 0 0zm-14-2c1-3 2 0 0 0zm475-1c1-2 1 1 0 0zm-13 0c5-3 7-1 0 0zm-461-1c1-1 0 1 0 0zm7-1c-1-1 2 2 0 0zm461 0c1-1 0 0 0 0zm-460-1s0 1 0 0zm443 0c0-1 2 1 0 0zm3 0c1 0 1 1 0 0zm21 0c1-1 0 1 0 0zm-22 0c1-1 1 0 0 0zm5 0c1-2 0 1 0 0zm-2-1c2 0 0 1 0 0zm-442 0c-1-1 2 1 0 0zm437 0c1 0 1 1 0 0zm14 0c-5-5 7-1 0 0zm-20-1c1 0 1 1 0 0zm2 0c1 0 1 1 0 0zm24 0c1 0 0 1 0 0zm12 0c1-1 0 0 0 0zm-488-1c0-1 0 1 0 0zm14-1c-1-5 3 1 0 0zm441 0c1-1 0 1 0 0zm14-2c-5-6 8-1 0 0zm-454 0c1-2 1 1 0 0zm428 0c1-1 0 1 0 0zm14-1c1 0 1 1 0 0zm8 0c1-1 1 1 0 0zm-450-1c-8 0-10-11-13-9 2-4 12-7 4-11 2 3 12-2 4 5 7 2-7 12 4 11 7-9 4 5 1 4zm0-3c0-2-2 2 0 0zm-3 0c-1-2-1 2 0 0zm-3-7c-1-2-1 3 0 0zm-4 0c-1-1-1 0 0 0zm6-1c0-1 0 0 0 0zm-10 11c1-2 1 2 0 0zm470-1c1 0 1 1 0 0zm-9-1c1 0 0 1 0 0zm12-1c1-1 1 0 0 0zm-472-1c-2-5 3 2 0 0zm472 0c0-2 0 2 0 0zm-17 0c-8-9 3-10 2-1 0 0-1 2-2 1zm-6-1c1-2 1 1 0 0zm22 0c0-1 0 1 0 0zm-24 0c1-1 0 0 0 0zm-422-1c1 0 0 1 0 0zm427 0s0 1 0 0zm36 0c1-1 1 1 0 0zm-17-2c-1-3 2 2 0 0zm-455 0c-3-10 8-18 1-3-1 0 0 4-1 3zm1-6s0 1 0 0zm476 5c1 0 1 1 0 0zm-472 0c1-2 2 0 0 0zm3 0c-5-4 3 0 0 0zm427 0c1 0 0 1 0 0zm37 0c1-1 0 1 0 0zm-17-1c1-1 1 1 0 0zm-451-1c0-9 5-5 0 0zm444 1c3-1-1 1 0 0zm-446-1c0-1 1 1 0 0zm448 0c1-1 1 1 0 0zm23 0c1-1 0 1 0 0zm-12 0c1-3 4 1 0 0zm-1 0c1-1 0 0 0 0zm-4-1c1-1 0 1 0 0zm-472 0c-1-5 3 0 0 0zm450 0c1-1 0 0 0 0zm-417-1s0 1 0 0zm-9 0c0-2 2 1 0 0zm7 0c-1-3 3 0 0 0zm445 0c1-1 1 1 0 0zm-14-2c1 0 1 1 0 0zm-429-1c-3-4 6 3 0 0zm434-1c0-1 1 0 0 0zm-466 0c1 0 0 1 0 0zm30-1c0-3 1 2 0 0zm-28 0c0-1 0 1 0 0zm19-2c2-10 9-5 1 1h-1v-1zm2-1c-1-1-1 1 0 0zm-20 1c1-1 1 1 0 0zm9-1c2-3 0 2 0 0zm448 0c0-1 0 1 0 0zm-12 0c6-3 8-1 0 0zm17-1c1-1 1 2 0 0zm-435 0c1-1 1 1 0 0zm-16 0c2-4 4-1 0 0zm14 0c0-1 0 0 0 0zm-8-2c1-2 1 2 0 0zm436 1c1-1 0 0 0 0zm25-1c1 0 0 1 0 0zm-482-1c-6-7 7-2 0 0zm16 0c0-3 5 0 0 0zm445 0c0-5 5 1 0 0zm-467-1s0 1 0 0zm466 0c1 0 0 1 0 0zm-4 0c0-1 0 0 0 0zm-453-1c0-3 1 1 0 0zm472 0c0-1 0 0 0 0zM2 163c1-1 1 2 0 0zm32 0c-4-1 3-3 0 0zm10 0c2-2 0 2 0 0zm-33-1c1-1 0 1 0 0zm469 0c1-1 1 1 0 0zm-440-2c1-1 1 1 0 0zm-38-3c1-1 1 1 0 0zm488 0s0 1 0 0zM0 156c2-1 3 2 0 0zm15 0c2-3 2 2 0 0zm6-1c1-1 1 0 0 0zm469-1c0-2 3 0 0 0zm2 0s0 1 0 0zm-5-1c0-1 0 0 0 0zM0 151c1-5 0 4 0 0zm25 0c1-5 4 0 0 0zm8 0c1-2 1 1 0 0zm451-1s0 1 0 0zm25-1c1-1 1 1 0 0zm2 0s0 1 0 0zM0 149c1-7 3 3 0 0zm1-1c-1 0 1 1 0 0zm510 1c1 0 1 1 0 0zm1 0c1-1 1 0 0 0zm1-1c5-2 3 0 0 0zm-483-1c1-1 1 1 0 0zm-25-1c1-2 0 2 0 0zm1 0c1-1 1 1 0 0zm-2 0c0-1 0 0 0 0zm486-1c-1-8 11-2 0 0zm-2-1s0 1 0 0zM3 140c0-1 0 0 0 0zm490-1c2-4 7-1 0 0zM4 139c1-1 1 0 0 0zm487-4c-6-5 8-9 2 0zm-23-1c2 0 1 1 0 0zm4 0c-2-3 4 1 0 0zm2-2c1-1 1 0 0 0zm24 0c1-1 1 1 0 0zm-2-1s0 1 0 0zm-470-2c3-2 3 0 0 0zm4-1c1-1 0 0 0 0zm459-2c-2-6 6-1 0 0zm-455-1c0-1 0 1 0 0zm-22-2c1-1 1 2 0 0zm468-1c0-1 1 2 0 0zm-459-1c1-4 3 3 0 0zm10 0c1-3 2 1 0 0zm468-1c1-1 0 0 0 0zm-446-1c1-1 0 1 0 0zm-19 0c0-1 0 0 0 0zm438-1c1 0 1 1 0 0zm12 0c0-1 2 2 0 0zm-448-1c0-1 0 1 0 0zm-18 0c1-1 0 1 0 0zm-6 0c0-1 0 0 0 0zm465 0c0-1 0 0 0 0zm-454-1c4-6-14-15 1-5 10 8 2-2-1 5zm450 0s0 1 0 0zm0-1c1-1 1 0 0 0zm14-1c0-1 0 1 0 0zm-10 0c1-1 1 0 0 0zM9 113c0-4 3 0 0 0zm461 0c0-1 0 0 0 0zm-443-1c1-1 1 1 0 0zm474-1s0 1 0 0zm-459-1c1 0 1 1 0 0zm432 0c0-1 0 0 0 0zm-425-3c1-1 1 1 0 0zm2-1c6-2 0 0 0 0zm-22 0c1-2 2 0 0 0zm-15-2s0 1 0 0zm5 0c1-1 0 0 0 0zm495-3c0-1 0 1 0 0zm-29-3s0 1 0 0zm27-5c-1-3 3 1 0 0zm-28-1c1-1 0 2 0 0zM51 92c0-1 0 1 0 0zm419 0c1-1 1 1 0 0zm-6-1c1 0 1 1 0 0zm11 0c3-4 6 2 0 0zm-11 0c2-1 0 0 0 0zM20 89c0-1 0 0 0 0zm450 0c1-1 0 0 0 0zM46 88c0-1 1 1 0 0zm-20 0c0-3 2 1 0 0zm452-1c0-1 0 1 0 0zM44 86c1 0 1 1 0 0zm3-1c1-1 1 1 0 0zm449-1c5-4 4 2 0 0zm-23 0c0-1 0 0 0 0zM40 83c0-2 1 1 0 0zm435-1c0-1 0 1 0 0zM47 82c0-1 0 1 0 0zM7 81c1-1 1 1 0 0zm26-2c-11-8 7 4 0 0zm461 2c0-1 0 0 0 0zm-15-1c6-9 23 2 0 0zm16 0c-7-9 42-6 11-2-4 2-7 3-11 2zM36 78c1-1 1 1 0 0zm3 0c-1-2 1 1 0 0zm-20-2c1-2 2 0 0 0zm452 0c1 0 0 1 0 0zm-2 0c1-1 1 1 0 0zm15 0c2-5 3 1 0 0zm-19 0c2-1 0-1 0 0zm53-2c0-2 4 1 0 0zm-8 0c0-1 0 1 0 0zm-44 0c2-1 0 0 0 0zm2 0c1-1 0 1 0 0zm35 0c-19-5 32-9 8-2l-8 2zm-38 0c1-1 0 0 0 0zm32-1c1 0 1 1 0 0zM18 73c2-9 4-1 0 0zm463-2c1 0 0 1 0 0zm-16 0c1-1 1 1 0 0zm14 0c2-1 0 0 0 0zm-3-1c-3-2 7 2 0 0zm23 0s0 1 0 0zm-20-1c1-1 1 0 0 0zm-4-1c1-1 1 1 0 0zm1 0c1 0 1 1 0 0zm-3 0c0-1 0 0 0 0zm8-1s0 1 0 0zM20 66c1-1 0 2 0 0zm21-1c1-1 1 1 0 0zm-24-6c1-8 4 0 0 0zm171-4c1-2 1 2 0 0zM19 54c0-3-1-10-4-4-4-3-1-9 0-12 5-4 15-12 9-2 3-1-6 11 1 4 11-9-3 13-6 14zm1-3c0-1 0 2 0 0zm3-4c0-4-4 4 0 0zm-4 0c-1-1-1 1 0 0zm1-1c-1-1-1 2 0 0zm-1-1c6-7-7-1 0 0zm4-2c-1-1-1 2 0 0zm-6 0c1-7-6 2 0 0zm4-2c-1-2 0 1 0 0zm-2-2c1-10-6 6 0 0zm3 0s1 1 0 0zm0-4c-1-5 0 5 0 0zm175 17c-2-13 10 0 0 0zm293 0c1 0 0 1 0 0zm0 0c0-1 0 0 0 0zM84 51c1-1 0 0 0 0zm1 0c1-1 1 1 0 0zm8 0c1-1 0 1 0 0zm182 0c-2-3 3 0 0 0zm4 0c0-1 0 1 0 0zm80 0c0-1 0 1 0 0zm37 0c3-4 0 1 0 0zm101-1c2-1 2 1 0 0zm-192 0c0-1 0 1 0 0zm-112 0c-1-3 4-1 0 0zm14-1c2-3-2 3 0 0zm280 1c0-1 0 0 0 0zm-110-1c1-1 1 1 0 0zM86 49c1-1 0 1 0 0zm297-1c2-3 1 4 0 0zm16 1c0-1 0 1 0 0zM80 48c-10-7-2-8 1 0h-1zm2 0c-5-4-4-2 0 0zm120 0c0-1 0 1 0 0zm202 0c3-6 2 2 0 0zm-254-1c1 0 1 2 0 0zm260 1c1-2 0 1 0 0zm-54-1c1 0 1 1 0 0zm-24 0c1-1 1 0 0 0zm26 0c1-2 1 1 0 0zm50-1c0-2 1 1 0 0zm63 0s0 1 0 0zm-99 0c-1-2-1 0 0 0zm-8 0c1-2 2 1 0 0zm145 0c1-1 1 0 0 0zm-402-1c1-2 1 1 0 0zm233 0c1 0 1 1 0 0zm72 0c-1-4 3 1 0 0zm-71 0c1-1 0 1 0 0zm22 0c1 0 1 1 0 0zm15 0c1-3 2 2 0 0zm31 0c1-2 2 0 0 0zm-75 0c1-1 0 0 0 0zm70 0c3-2-1 1 0 0zm12 0c-1-3 1 1 0 0zM80 44s0 2 0 0zm41 0c-1-2 2 2 0 0zm6 1c1-1 1 0 0 0zm125-1c1-1 1 2 0 0zm115 0c1-1 1 2 0 0zm54 0c3-1-2 2 0 0zm-194 0c-1-6 7-1 0 0zm247 0c3-2 1 1 0 0zM35 44c1-1 0 1 0 0zm51 0c0-1 0 0 0 0zm47 0c-1-3-1 0 0 0zm-47-1s0 1 0 0zm97 0c1 0 1 1 0 0zm214 0c3-18 12 1 0 0zm82 0c-7-3 2-2-10-4 7-10 43-17 44-20-8 6-26 15-6 8 8-2-11 5 5 2-5-2-12 9 3 2 1 6-30 10-35 11 3 0-2 3-1 1zm4-6c2-3-6 4 0 0zm3-1c-2-1-2 1 0 0zm-360 7c1-1 1 1 0 0zm294 0c4-3 3 1 0 0zM71 43c1-1 0 0 0 0zm6 0c1-1 1 0 0 0zm376 0c6-9 0-4-3-9 12-5 13 0 11 4-2 2-5 5-8 5zm39-1s0 1 0 0zm-123 0c-2-4 9-10 2-1-1 0-1 2-2 1zm-34-1c0-1 1 2 0 0zm106 1c0-1 0 0 0 0zm-262-1c-2-5 5-2 0 0zm7 0s0 1 0 0zm151 0s0 1 0 0zM43 40c1-3-8-6 3-5 6 11-4 1-3 5zm217 1c-1-1 3 1 0 0zm132 0c0-1 0 1 0 0zm34 0c2-1 1 1 0 0zm74 0c4-3 4 0 0 0zm-392-1c1-2 0 2 0 0zm276 0c0-1 0 1 0 0zM49 40c1-2 1 1 0 0zm100-1c2-4 2 3 0 0zm144 1c-1-2 2 0 0 0zm3 0c0-1 0 0 0 0zm81 0c1-2 1 1 0 0zm-119-1c1 0 1 1 0 0zm184 0c1-1 1 1 0 0zm-178 0c-1-2 3 2 0 0zM51 38c1-2 1 2 0 0zm30 0c1-2 0 2 0 0zm47 1c1-1 1 0 0 0zm57-1c-2-8 5-2 0 0zm153 1c-16-17 15-1 0 0zM84 38c-2-2 7-6 0 0zm354 0c-5 0 6-8 7-4 5-2-6 6-7 4zm-293 0s0 1 0 0zm146 0c0-9 7 3 0 0zm122 0c0-2 1 0 0 0zm-36-1c1-3 2 3 0 0zm-217 0c-5-8 1-33 2-9 1 2 3 11-2 9zm101 0c1 0 1 1 0 0zm82 0c0-6 5 2 0 0zm-214 0c0-6 3-1 0 0zm250 0c0-1 0 0 0 0zm-156-1c0-1 2 2 0 0zm46 0c0-1 2 2 0 0zm56 0c1 0 1 1 0 0zM49 36c1-5 3 1 0 0zm262 0c1 0 1 1 0 0zM28 35c7-7 0 1 0 0zm155 0c1-4 2 2 0 0zm84 0s0 1 0 0zm50 0c-2-4 3 2 0 0zm106-1c3-6 6 0 0 0zm43 0c1-1 1 1 0 0zm-294 0c0-3-2 0 0 0zm189 0c1-1 0 1 0 0zm102 0c1-1 1 1 0 0zm-299 0c1-1 0 0 0 0zm131-1c-13-4 4-6 0 0zm29 1c0-2 1 0 0 0zM26 33c1-1 1 1 0 0zm284 0c-6-7 6 1 0 0zm55 0c-1-1 1 0 0 0zM35 33c-2-3 9-7 3-2l-3 2zm157-1c3-2 1 3 0 0zm3 1c1-4 0 1 0 0zm224 0c1-2 0 1 0 0zm49-1c8-6-1 3 0 0zm-360 0c0-2 2 2 0 0zm77 0c1-1 1 1 0 0zm83-1c-4-5 5 5 0 0zM51 32c-2-4 5 0 0 0zm175 0c0-1 0 1 0 0zm-54-1c1 0 1 1 0 0zm142 0c-2-5 5 3 0 0zm4 0c0-1 0 1 0 0zm-164 0c1 0 0 1 0 0zm306 0c1-1 0 0 0 0zm-341-1c1-4 0 3 0 0zm44 0c1-1 1 2 0 0zm10 0c-2-10 3 3 0 0zm9 0c0-3 1 2 0 0zm120 0c-5-10 10 1 0 0zm-3 0c0-3 2 2 0 0zM83 30c0-1 0 1 0 0zm111-1c1-1 1 2 0 0zm273 1c2-2 1 1 0 0zm-32-1c7-10 10-2 0 0zm15 0c6-13-12 6-1-8 14-18 15-5 10-3 1 1 16-4 5 3 6-2-2 8-10 8h-4zm10-16c0-1 0 0 0 0zM282 29c-6-6 5 1 0 0zm58 0c-2-4 3 1 0 0zM50 29c1-1 0 1 0 0zm56 0c-1-3 2 1 0 0zm70 0c-3-12 9-7 0 0zm132-1c0-2 1 2 0 0zm5 1c1-1 1 0 0 0zm1-2c1 0 1 2 0 0zm82 0s0 1 0 0zm71 0c2-1 1 2 0 0zM84 27c0-2 2 1 0 0zm50 0c1-2 2 0 0 0zm45 0c0-3 1 2 0 0zm16 0s0 1 0 0zm279 0c2-2 0 2 0 0zM36 27c1-1 0 0 0 0zm30-1c0-1 2 1 0 0zm-18 0c1-1 1 1 0 0zm122 0c0-1 0 1 0 0zm34 0c1-3 2 0 0 0zm75 0c0-2 2 1 0 0zm233 0c3-1-1 1 0 0zm-221 0c-5-6 4-1 0 0zm222 0c1-1 0 1 0 0zm2 0c2-3 0 2 0 0zm-395-1c1 0 1 1 0 0zm43 0c0-11 3 1 0 0zm330 1c1-1 1 0 0 0zm-195-1c1 0 1 1 0 0zm-118 0c0-1 0 1 0 0zm145-1c-2-8 8 1 0 0zm119 0c1-1 0 1 0 0zM52 24c0-3 2 1 0 0zm224 0c0-1 0 1 0 0zm-111 0c1-2 1 1 0 0zm-27-1c1-1 1 1 0 0zm27-1c-1-6 3 4 0 0zm-32 0c1-2 2 0 0 0zm69 0c-1-7 2 3 0 0zm266 0c1-1-1 1 0 0zm-39 0c1-1 0 1 0 0zm16-1c1 0 1 1 0 0zm-77 0s0 1 0 0zm123-1c1 0 0 1 0 0zm-314 0c1-1 1 1 0 0zm253 0c1-1 0 1 0 0zm-143 0c0-2 2 1 0 0zm-86-1c1-1 1 1 0 0zm2 0c1-2 1 1 0 0zm245 0c2-2-1 1 0 0zm-252 0c1-2 1 1 0 0zm125 0c1-2 1 1 0 0zm13 0c-2-5 3 0 0 0zm-48-1c0-1 1 2 0 0zm-109-1c1-6 4 3 0 0zm269 0c2-3 2 1 0 0zM92 16c1-3 0 3 0 0zm212 0c1-1 1 1 0 0zm135 0c0-1 0 1 0 0zm-315 0c0-2 0 1 0 0zm55 0c0-12 7-3 0 0zm288-1c-3-3 13-7 0 0zm-339-1c1-3 2 0 0 0zm8 0c-4-3 4-2 0 0zm77 0c1-1 1 1 0 0zm76 0c-1-2 1 0 0 0zm4-2c-4-10 9 4 0 0zm-124 0c-1-13 5 2 0 0zm298 0s0 1 0 0zm18 0c1 0 1 1 0 0zm-204-1c1-3 2 2 0 0zm233 1c1-1 1 0 0 0zm-41-1c1-1 0 2 0 0zm3 0c1 0 1 1 0 0zm-336-1c1-1 0 1 0 0zm26 0c1-1 0 0 0 0zm301-1s0 1 0 0zm13 0c1-1 0 1 0 0zM130 9c1-1 1 0 0 0zm-20-1c0-1 0 1 0 0zm78-1c0-3 1 3 0 0zm21 0c1-1 0 0 0 0zm253-1c4-5 7-1 0 0zm-86 0c1-1 1 0 0 0zM188 5c1-2 1 2 0 0zm-39-1c1-2 1 3 0 0zm68 1c0-1 0 1 0 0zm272-3c4-3-1 3 0 0zM237 2c2-4 0 2 0 0zm263-1c3-3 2 2 0 0z"/></svg>