<svg xmlns="http://www.w3.org/2000/svg" viewBox="0 0 521 613.1" preserveAspectRatio="none"><path fill="#8485b5" d="M153 606c3-2 0 2 0 0zm-32-3c7-8 11-6 0 0zm308 0c5-16-1-31 0-46 2-10-12-13-12-8 3 8 1 9-3 17-5 7-12 28-5 5 0-5 8-18 0-19-9 3-8-1-5 5-5 19-8-20-12-2 0 14-8 0-5-5-13-3-12 2-23-1-10 5-20 2-29 3-15-9-18 1-28 2 10-10 8-5-2-7-9 10-40-5-28 4 1 6 18 23 0 5-19-17 18 21-2 1-13-12 28 30 4 7-7-17-32-10-38-4-9 3 20-1-3 2-6 6 8 4-5 7-5-2-19 10-9-2-8 3 5-9-5-5 1-5-3-15-5-12 3 12-2-9-6 6-14 10-18 15-31 29 9-13 19-25 1-9-12 7 16-14-4-2 16-11-4-1-2-3 9-13 7-15 21-18-2-10-3-5-5-7 3-2 5-15 7-12 8-7-9 3-12 3-7 4-18 12-11 3-13 4-20 9-29 5 5 3 2 2-4 3-4 1 8 2 0 2 5-1-20 9-7 0-17 6-5-5-15 0 0 5-3-7-14-4-8-4-8-4-9-7 0 15 3 31-4 46 5-13-1-31 0-39-1-13-15-3-16 3-4 13-11 23-4 2 0-11 5-11-1-13 2-3-5-3-16-1-1 17-4-7-7-4 3-4 3-5 1-7 7-5-4-7-6-12 4-10-1-15-11-13-12-7 31 2 5-8 13 1-9-4 5-4-6-9-3 2 0-9-2 1-16-1-5-6-5-4-4-6-11-10-10-4 10-5 7 2 7 3-1-8-3-11 4 0 1-7 2-6-3-6 10-4 0-11-5-3 7-7 3-10-1-4-5-5-2-7-1-9 8-1 2-7 8 3-4-11 4-5 5 5 1-4-3-6 3 4 6-5 1-3 0 1-5-6-1-7 2-4 8-3 5-6-8 0 8-2-3-7 1-3 14-6 8-2-1 4-1 13 3 6-3-2 9-15 3-15 3-16-8-7-5-1-3 9-3-3-6-4l-5 3c-8 5-11 2-16-1 8-6-6 1-3-6-2-7 5-13 13-15-4 6-5 12 3 8-9 8-7 19 2 11 4-10 4-6 9-13-11 6 1-2 2-7 8-6-6 1-9 3 2-6 18-10-2-9 9 1 15-4 23-7 0 0-9-6-3-3 11 1-8-5 4-4 1-2-20 0 0-2 2-5-18-2 0-4-22-2 5-2-4-3-3-2-5-1-11-5-3-12-5-2-7-7 4-3 11-8 5-11 6 6 17-7 9-8-6 3-15 2-10-3 9-6-12-3 0-5-21-2-2 0 4-11 18 4-9-2 4-2 12 0-11-2-2-2 6-2 11 1-4-4 9 2-7-8 2-9-9 5-1-17-10-8-1-5 13-10 4-19-5-19 17-23 15-30-6-1 10-3-2-3 3-13-7-10-9-1-3 9 3 13-4 9 3-14-4 10-4-1-1-14 6-1 10-14 3-7-7-23-7-21 3-1 6-7 0-7-10 8-31 17-9 3 14-6 14-22 32-20-9-9-29-28-8-12 11 9 6-6 4-3 17-11-39-13-11-13 25 11 3-18 0-28-3 0 4 9-6 3 4-4 5-24 1-17-4 3-16 7-17 3-5 1 1-6-3-6-7 7-4-9-1-12 10-6 11-5 7 5 12-8-1 7 2 12 9 3 8-14 12-11 2-4 8-14 10-1-4-1-7-5-4 4-1 5 3 11 11 4 13 4 9-17 8-14 1 7 18 22 9 9 16 13-4-7 9 1-1 1 8 8 12 7 9 2 6-23 10-33 7-37-1 19-2 30 12 6 19-26 11-2 4 14 13-25 11-10-10 15 12 13 13-2 8-19 5 3-1 9-12 4 31 15 18-1 6 4 15-5 15-11 4 3 12 8 12 16 7-7 8-1 12-7 3-21-2 10 7 2 2-6-6-4 4-7 2 11 25-12 35-13 16-4-34 15-22 16-4 13-10 5-8 1-12 5-13 9-21 16 16-2 39-10 57-14-3-12 20-1 9 4 6 0 23-9 17 3-25 4 33 8 7-2-3-6-2-16-4-15 10 9 11-8 18 6-11 11 8-2 9 10 11 11 4-7-1-10 3-2 13 0 19 1-1 1 8 2 10 7 8 2 11-2 16-1 5-2 6-13 16-7 2 7-11 11-1 9-5 13 9-6 10 4h21c-9-3-2-20 3-15-6 17 9 5 8 13 11 1 14-2 28-5 19-9 8 2 29 1 11 5 42-1 25 4 16-3 7-1 3 2 11 2-28 7 0 8 13-1 28-5 16 2 10 1 29-1 8 3-15 12-24 1-39 4 11 4-13 1-3 4-1 3-8 3 2 6 10-2-4 4 5 5-4 1-3 3-1 6-11 8 14-3 2 5 11 0 1 7 11 7-3 4-16 3-4 4-9 4-9 8-13 8-4 4 1 3 2 6 3-2 10 5 4 6-13 9 6 3-5 9-2 7 24-2 11 5-1 0 3 11 8 7-8 5-14-1-4 7 2 9-9 6-15 9-15 11 17 3-5 9 9-1 7 5 15 5-13 0-8 2-7 10-9-2-4-12-11-5 1-1-3 7 4 9 4 7-15-1-11 6 11 2 6 3 14 2-13 7 36-1 10 5 13 1 1 4 14 5-6 1-11 2-17 5-6 6-1 13 13 1 16-2-27 8-10 15 1 5-4 13-3 15 15-4-14 7-11 13-10 6 26-5-3 5-5 1 4 3 4 6 0 5-1 8-9 7-14 7 15-1-5 5-14 2 4 2 6 0 16 1 36-5 53-6 10 2-36 6-46 8-6 0-17 7-9 4 3 0 4 4 13 1 9 1 0 4 8 5 6 0-11 3 2 2-5 4 12 1-2 6-7 4-1 3-10 6l10 7c-7 2 12 3-4 4 2 3-8 4 3 5-7 5-16 2-9 5-6 2 21 5-1 3-10-1-21 7-6 4-12 6 12 1 15 7 10-1-10 4 7 3 18 3-20 0-6 3-12 0-5 2-15 7-14 1 4 5 2 4 4-2-9 6 7 2 2 1 10 4 15 4 0 3 4 5-9 6-1 5-13 5-11 9 10 0-4 6-5 10-2 7 7 7 7 0 8-2 3-13 9-6-5-14 12-2 5-3-4 6-1-10-4 7 5-3 4 11 0 12-4-6 1-11-6-7-5 3-14 10-12 11 7 3 8 1 6 6 10 2 8-10 12-1 12-1 17-8 21-7 13-2-5 4-3 6-11 3-24 11-5 12-15-5-23 10-4 8-4 2-17 1-18 4-3 2 7 6 2 8 12 0 5 0-1 6-10 3 9 2-7 5 13-2-1 3 2 2-1 2 11 10 7 13 0 7 8 15 13 22s11 34-1 12c-1 3-10-3-3-4-17-16-4 3-9 0 5 3 8 11 1 4-14-11-6-3-6 5 14 12 33 15 48 24-12-2-27-9-40-14-13-10-10 23 8 20-25-10 7 6 3 6-5-1-34-12-21 1-12-8-21 0-23 3 2-20-21-8-9 9 1 11-1 25-5 35zm-208-30c-2 1-1 2 0 0zm7-6c-4-2-4 2 0 0zm-3 0c-1-1-1 2 0 0zm4-3c2-4-4 5 0 0zm-3 0c4-4-5 3 0 0zm5-3c2-4-4 4 0 0zm7-3c-1-3-2 2 0 0zm3-1c-2 0-3 2 0 0zm11-3c23 1 8-8-4-15-1-2-9-3-7-1-6 6 1 12 6 4-17 16 21 5 1 11-8 1-1 3 4 1zm2-2c0-1 1 0 0 0zm5-1c1-1 2 2 0 0zm3 0c2-2 4 0 0 0zm-2-1c0-2 2 2 0 0zm-5-2c0-1 0 1 0 0zm0-1c1-2 0 1 0 0zm-15-3c3-1 1 2 0 0zm11-2c2-2 1 1 0 0zm-2-1c0-2 0 1 0 0zm1-1c0-1 0 1 0 0zm-8-1c1-2 0 1 0 0zm1 0c1-1 1 1 0 0zm0-1c1-1 1 1 0 0zm-42 15c1-4-4 3 0 0zm41 1c-2-1 0 0 0 0zm35-1c-1-1-1 2 0 0zm-7-1c-1-1-2 0 0 0zm-29 0c2-2-7 2 0 0zm217 0c-1-2-1 0 0 0zm3-1c-1-5-11 0 0 0zm-49-1c-13-9-13-2 0 0zm-3-1c-1-2 2 0 0 0zm-140 2c-1-1-1 1 0 0zm7 0c-1-1 0 1 0 0zm-50 0c11-7-8-2-2-1 2-3 1 2 2 1zm230 0c-4-3-7-3 0 0zm-257-2c4-7-4 4 0 0zm43 1c-1-3-2 2 0 0zm-2-1c-1-1-1 2 0 0zm149 0c-2-2-2 2 0 0zm-182-3c7-1 10 3 4-5-6-4-20 5-9 6 6-6-3 7 5-1zm-6-2c-2-6 8 3 0 0zm5 0c0-2 0 1 0 0zm1-1c1-2 1 2 0 0zm2 0c1-3 2 2 0 0zm196 5c-1-1 0 1 0 0zm46 0c-1-1 0 1 0 0zm-333 0c-1-1-3 1 0 0zm295-1c-3-3-8 1 0 0zm-276 1c-2-3-4 1 0 0zm79 0c-1-1-1 1 0 0zm259 0c-1-1-1 1 0 0zm-234-1c-1-1-1 2 0 0zm69 0c0-1-1 1 0 0zm-170 0c1-3-7 0 0 0zm80-1c2-4-2 1 0 0zm-78 0c-2-1-1 1 0 0zm55-1c-2-3-5 4 0 0zm62 1c-2-4-4-2 0 0zm214-1c-6-5-4 3 0 0zm-67 0c-1-1 0 1 0 0zm-248-2c9-4 2-7 1-3-6 1-11 5-1 3zm-4 1c0-2 2 0 0 0zm121 0c-1-1-2 1 0 0zm-80 0c-2-2-1 1 0 0zm-47-1c0-1-1 1 0 0zm108 0c-1-2-3-1 0 0zm-106 0c-1-2-1 1 0 0zm125-1c-3 0 2 2 0 0zm-173 0c-3 0-2 1 0 0zm96-1c-3 1 0 1 0 0zm36 0c-2-1 0 2 0 0zm3 1c-1-2-1 1 0 0zm-159-1c0-1-1 1 0 0zm3-1c0-1-3 1 0 0zm23 0c-4-1-6-1 0 0zm67-1c1-3-5 3 0 0zm38 0c-1 0 2 2 0 0zm18 1c0-2-1 1 0 0zm-140-1c8-5-10 3 0 0zm13 0c-4-2-1 2 0 0zm-18 0c-2 0 0 1 0 0zm15 0c-1-1 0 1 0 0zm61 0c-2 0 0 1 0 0zm304-1c-1-4-6 1 0 0zm-384 0c3-2-3 0 0 0zm169-1c-1-1-1 2 0 0zm-174 0c-1-1-1 1 0 0zm385 0c-4-3-1 0 0 0zm-213-2c-2-2 1 2 0 0zm212 1c0-2-1 0 0 0zm4-1c0-7-16-16-6-7-4-1-2 4 6 8v-1zm-3-2c0-1 2 2 0 0zm-396 2c17-5-25-1 0 0zm1-2c1-1 1 1 0 0zm5 1c-1-2-1 1 0 0zm-4-2c8-7-28 1-3 0h1zm4-1c0-2-3 2 0 0zm130 0c-1-2-2 0 0 0zm-1-3c0-1-1 1 0 0zm-130-1c20-9-16 4-11-4-8 0-2 3-4 4h15zm-14 0c4-1 6 1 0 0zm1-1c2 0 0 1 0 0zm8-1c3 0 1 1 0 0zm7 0c1-1 0 0 0 0zm-16-1c2 0 0 1 0 0zm15-1c23-4-24 1 0 0zm-8-2c-14-1-12 1 0 0zm391 0c-1-1-1 2 0 0zm-382 0c-2-5-9 3 0 0zm380 0c0-2-3 1 0 0zm-396-1c0-1-2 1 0 0zm4 0c2-3-6 2 0 0zm3 0c-1-1 0 0 0 0zm1-1c-1 0 0 1 0 0zm6 0c-2-1 0 1 0 0zm406-11c-1-2-1 0 0 0zM36 469c-1-1 0 2 0 0zm433-17c-1-1 0 1 0 0zm-437-5c-1-3-2 1 0 0zm7-12c-1-3-1 3 0 0zm-4-2c-1-1 0 2 0 0zm448-5c1-1-5 1 0 0zm-447-1c2-5-2 4 0 0zm442 0c-3 0-3 2 0 0zm-8 0c-1-1 0 2 0 0zm12 0c1-2-3 1 0 0zm4-1c-1-1-1 1 0 0zm-8-1c0-1-1 1 0 0zm-443-1c4 0-1 2-1 1zm457-1c0-1 0 1 0 0zm6-6c3-1-4 1 0 0zm-37-4c-3-1 1 2 0 0zm0-1c-1-2-5 2 0 0zm0-1c-2-1-2 1 0 0zm1-3c-2-1-1 0 0 0zm12-1c-1-1 0 0 0 0zm4-7c-3-1-1 4 0 0zm-437 0c-1-3-1 3 0 0zm-2 0c-1-1 0 1 0 0zm-2-2c0-1-1 1 0 0zm28-3c-1 0 0 1 0 0zm0-1c-1-1-1 2 0 0zm-28-1c1-6-1 0 0 0zm429-1c0-1-1 1 0 0zm-412-3c0-5-3 3 0 0zm416 0c-1-1 0 0 0 0zm3-1c0-1-3 1 0 0zm-424-1c-2-2 0 3 0 0zm425 0c-1 0 0 1 0 0zm-427-2c0-1-1 2 0 0zm434-1c-4-1-1 1 0 0zm-440-1c-1-1 0 2 0 0zm7 0c5-7 1-3 0 0zm2 0c-2-1 1 2 0 0zm436-2c-4-2-6 2 0 0zm-4-1c-5-1-1 1 0 0zm-2-2c-1-1-2 1 0 0zm-18-4c-1-1-4 1 0 0zm-432-6c-2-1-1 0 0 0zm-6-7c-1-2-2 4 0 0zm-3 0c0-1-1 1 0 0zm-1-2c6-6-7-1 0 0zm23 0c7-9-1-2 1-8 0 0-3 10-1 8zm-2 0c1-5-4 2 0 0zm-23-2c0-6-4 3 0 0zm31-1c0-4-2 5 0 0zm427 1c-5-1-1 1 0 0zm-452 0c0-1-3 0 0 0zm-2-2c0-1 0 1 0 0zm452 0c-1-2-1 1 0 0zm-455 0c-2-1 0 0 0 0zm2-2c0-7-6 3 0 0zm28-2c1-7-5 1 0 0zm407 0c-1-1-4 1 0 0zm-433-1c-1-3 1 3 0 0zm21-2c-2-2 1 2 0 0zm413-1c0-1-1 2 0 0zm-4 0c-1-1-1 1 0 0zm-396-9c-2-1 0 3 0 0zm419 0c-2-2-1 2 0 0zm-2 0c-1-1-1 1 0 0zm-416-1c11-1-5 0 0 0zm6-1c-2-1 0 0 0 0zm-3-1c0-1-2 1 0 0zm1-2c-3 3-1 1 0 0zm-6 0c-1-2-1 1 0 0zm8-1c-2-1 0 0 0 0zm410 0c-3-1-2 1 0 0zm-413-1c-2-1 0 1 0 0zm4 0c-1-1-7 1 0 0zm-3-1c-3-1-1 1 0 0zm1 0c-1-1-1 1 0 0zm-1-1c-1-2-1 2 0 0zm4-1c-1-1 0 1 0 0zm-1 0c-1-2-5-1 0 0zm-6-2c-1-1-1 1 0 0zm2-1c8-2-8 0 0 0zm410-1c-1-1-1 1 0 0zm-408-1c-4 0-1 1 0 0zm-4-2c-1 0 0 1 0 0zm413-3c-1-1-1 0 0 0zm-413-3c-6-2 2 1 0 0zm-3-1c-2-2-1 0 0 0zm-4-2c-4-2 15-3 4-4-3-2-10 7-4 4zm426-1c-1-1-1 1 0 0zm-3-2c-1-1-2 2 0 0zm-429 0c-2-1-2 2 0 0zm427 0c0-1-1 1 0 0zm-425-1c5-7 2-16 6-18-3-2-11 7-8 11-3 5-4 8 2 7zm-1-7c1-1 1 1 0 0zm8 6c-3-2-4 3 0 0zm422 1c-1-1-1 0 0 0zm-421-1c-2-1 0 2 0 0zm4 0c-2-1 0 0 0 0zm-6-1c2-1 17-1 6-2-1-1-14 2-6 2zm413-1c0-2-2 2 0 0zm7-1c-1-1-1 2 0 0zm-418 0c14 0-8-4 1-4 9 5 3-9 10-1-5-5 6 1 1-3 2-3-4-11-9-2-3-4-6 9-5 8-4 1 0 2 2 2zm1-2c1 0 0 1 0 0zm0-4c1-1 1 1 0 0zm9-2c2-1 0 0 0 0zm-1-1c0-1 1 1 0 0zm0-2c-5-3 6 1 0 0zm-4-1c2-2 2 1 0 0zm5-2c1 0 0 1 0 0zm392 14c3-2-5 1 0 0zm-416-1c1-2-1 0 0 0zm22 0c-2-1-1 1 0 0zm6-1c-11-1-5 1 0 0zm384 0c-2-1-1 0 0 0zm-388-1c-1-1-1 1 0 0zm2 0c-2-1-2 1 0 0zm2-2c-2-1 0 0 0 0zm2-3c-1-4-5 1 0 0zm3 0c0-2-2 1 0 0zm-2-2c5-7-8 1 0 0zm6-3c-1-2-1 2 0 0zm-11-1c3-3-1-1 0 0zm8 0c-2-2-1 0 0 0zm-18-2c6-7 3-6 3-9-11 0 3 5-4 8-4 1 2 2 1 1zm22 0c-1-1-1 2 0 0zm-11 0c2-3-5-3 0 0zm11 0c-1-2-1 1 0 0zm-17-2c2-2-3 1 0 0zm3-1c-3-2-1 2 0 0zm6 1c1-4-7-2 0 0zm-6-2c0-3-1 3 0 0zm-3-1c-4-2 0 2 0 0zm-8-3c-1-3-4 1 0 0zm18 0c-3-1 0 1 0 0zm-22-2c-1-2-1 2 0 0zm5 0c-2-3-4 0 0 0zm5 0c-3-1 2 0 0 0zm-10-1c0-1 0 1 0 0zm9-1c0-2-2 3 0 0zm-10 0c-3-1-1 2 0 0zm15 0c1-2-3 2 0 0zm-14-1c6 0 8-6-1-2 0 1-1 3 1 2zm3-3c1-1 1 1 0 0zm9 1c-6-1-1 1 0 0zm-4-1c3-3-4 2 0 0zm-3-2c8 0 0-3 0 0zm6 0c-2-1-1 0 0 0zm2-1c-2-1-1 1 0 0zm-6-3c-1 0 0 1 0 0zm-1-2c-1-1-1 1 0 0zm2-1c-1-1-1 2 0 0zm-6-1c-1 0-1 1 0 0zm2-1c-1-1-4 1 0 0zm0-1c-2-1 0 0 0 0zm-8-3c-1-1-1 0 0 0zm0-2c-6-4 19 0 0-4 20 2-11-5-3 3h2l1 1zm404-3c-1 0 0 1 0 0zm-392-1c2-2-9 0 0 0zm-10-2c-1-1 0 1 0 0zm3 0c-4 0 0 1 0 0zm6 0c-3-1-1 0 0 0zm-5-1c-2 0 0 1 0 0zm400-1c8-5-6 0 0 0zm3-4c0-1-1 1 0 0zm1-2c6-3-10 3 0 0zm2-2c15-9-8 0 0 0zm13-7c-2-1-3 2 0 0zm2-3c-2 0 0 1 0 0zm11-8c0-1-3 1 0 0zm-5-4c3-2-5 1 0 0zm-2 0c-2-1-1 1 0 0zm-11-2c-2 0-1 1 0 0zm-2 0c-1-1-4 1 0 0zm-3-9c11-3-16 0 0 0zM57 196c-5-5-3 2 0 0zm415-3c-3-1 0 0 0 0zm-1-4c-1-1 0 0 0 0zm-4-4c-1-1-1 1 0 0zm12-23c-7-1-5 0 0 0zm-438-4c0-3-2 2 0 0zm428-9c1-5-6 3 0 0zm6-3c-2-2-1 3 0 0zm-2 0c-1 0-1 1 0 0zm-2-1c0-4-4 2 0 0zm-2-13c0-1 0 1 0 0zm-412-3c-6-6-6-3 0 0zm420-10c-2 0-1 2 0 0zm-413-9c-2-1-1 1 0 0zm-3-4c-2-1-2 0 0 0zm3 0c-1-1-1 1 0 0zm-1-1c-7-8 7-5-5-7 6-5-7 2-1 1 2 2 0 7 6 6zm-3-1c-1-4 2 0 0 0zm-1-3c1-1 1 1 0 0zm412 3c-2 0 0 1 0 0zm1-2c-4-1 0 1 0 0zM63 98c0-1 0 1 0 0zm411 0c-2-1-1 0 0 0zM63 97c-2-1 1 1 0 0zm-6-3c-1-2 0 2 0 0zm2 0c-1-1 0 1 0 0zm403-6c-2 0-1 1 0 0zm6 0c0-1-2 1 0 0zm-2-4c-2 0-1 1 0 0zm4 0c0-3-2-1 0 0zm2-3c-1-1-3 2 0 0zm-320-1c-5-3-4 2 0 0zm321-1c2-2-4 2 0 0zM44 79c-1-1-1 1 0 0zm433-2c-3-1-1 0 0 0zm-3-1c0-1-3 1 0 0zm29-1c0-2-1 1 0 0zm-316-4c-3-1-2 4 0 0zM58 72c-1-1-4 1 0 0zm412 0c-2-1 0 0 0 0zM51 70c-2-2-3 1 0 0zm132-2c11-12-9 3 0 0zm34 2c-1-1 0 1 0 0zM30 69c-1-1 0 1 0 0zm29 0c-3-1 0 0 0 0zm168-1c-1-1 0 1 0 0zM62 67c-1-1-9 1 0 0zm21 0c-3-3 2 2 0 0zm274 0c0-1-1 1 0 0zm-128 0c-1-1 0 1 0 0zM87 66c-5-1-1 0 0 0zm380 0c7-2-9 1 0 0zm-230-1c-3-1-3 1 0 0zm21 0c25-1-8-5 0 0zm143 0c-2 0-1 1 0 0zm-160 0c-1-2-3 0 0 0zm222 0c0-1-1 1 0 0zM82 65c0-2-2 1 0 0zm99-1c-1-2-1 2 0 0zm219 0c1-1-2 2 0 0zM86 64c0-1-2 1 0 0zm161-1c15-3-19 1 0 0zM24 62c-1-2-1 5 0 0zm334 1c-1-1 0 2 0 0zM22 62c-1-1-1 1 0 0zm53 0c-1-1 1 2 0 0zm280 0c2-2-3 2 0 0zm-110-1c2-4-5 1 0 0zM21 60c4-4-5-3 0 0zm20 0c1-5-3 2 0 0zm253-1c-1-2-1 2 0 0zm-41 0c-1-3-5 1 0 0zM18 58c1-6-4 3 0 0zm7 0c-2-2-2 1 0 0zm225-1c-1-5-4 2 0 0zM23 56c-1-1-1 1 0 0zm-2-2c1-8-6 5 0 0zm3-3c-2-3 1 3 0 0zm174 550c2-5 0 3 0 0zM6 599c1-1 1 2 0 0zm133-1c-1-1 2 0 0 0zm2-1c-1-6 3 2 0 0zm-79 0c1-1 1 1 0 0zm260 0c1-1 1 1 0 0zm82 0c0-3 1 2 0 0zm-286-2c1-1 1 2 0 0zm36 0c3-4 2 0 0 0zm140-1c1-1 1 1 0 0zm15 0c1-1 0 2 0 0zm-267 0c-1-8 3 3 0 0zm401 0c-1-3 2 1 0 0zm-141-2c3-6 2 4 0 0zm-145 1c4-7 2 1 0 0zm-143-2c1-1 1 1 0 0zm193-1c5-6-1 4 0 0zm66 0c0-3 2-1 0 0zm-109 0c1-2 1 1 0 0zm142-1c0-4 6 2 0 0zm109 0c-4-16 3 4 0 0zm-254-1c1-2 1 1 0 0zm-41-1c1-2 2 1 0 0zm144 0c0-1 1 0 0 0zm-107-1c2-4 3 1 0 0zm9 0c3-5 3 0 0 0zm-44-1c1-2 2 0 0 0zm194 0c-2-4 6 1 0 0zm-228 0c1-2 1 1 0 0zm15 0c1-1 0 1 0 0zm201 0c6-10 5-2 0 0zm93-1c1-1 1 2 0 0zm27 1c-1-5 4 0 0 0zm-105-1c1-2 1 1 0 0zm-78 0c0-5 3-2 0 0zm-29-1c2-3-1 3 0 0zm184 1c0-4 4 0 0 0zm-300-1c1-7 4 3 0 0zm165 0c1-1 1 1 0 0zm-118-1c1-2 2 0 0 0zm140 0c3-2-1 2 0 0zm27-1c-1-14 7-3 0 0zm-96-1c-1-1 3-3 0 0zm55-1c1-4 3 4 0 0zm-169 0c0-4 5 2 0 0zm116 1c1-3 2 0 0 0zm257-1c-3-6-1-2 0 0zm-412 0c2-2 0 2 0 0zm4 0c0-3 1 2 0 0zm164-1c5-12 0 5 0 0zm171 1c-4-5 5 3 0 0zm-268 0c4-5 4-1 0 0zm163-1c1-1 1 1 0 0zm5-1c1-2 3 1 0 0zm-12 0c4-9-14-19 2-5 8 4 5 5-2 5zm202 0c1-1 1 1 0 0zm-265 0c1-1 1 1 0 0zm101-1c0-1 0 2 0 0zm-110 0c0-2 1 0 0 0zm-113 0c0-3 3 1 0 0zm267 0c1-2 1 1 0 0zm-260-1c-2-4 5 1 0 0zm108 1c0-2 1 0 0 0zm-120-1c6-9 4-1 0 0zm127-1c2-4 0 4 0 0zm-112 1c1-2 1 1 0 0zm289-1c1-1 1 2 0 0zm-212 0c0-5 4 1 0 0zm-136 0c2-2 2 1 0 0zm99-1c1-1 1 2 0 0zm45 0c1-3 2 1 0 0zm-121-1c3-2-1 2 0 0zm301 0c0-2 2 1 0 0zm24 0c1-3 2 2 0 0zm12 0c1-2 3 1 0 0zm46 0c0-2 1 2 0 0zm-144 0c1-2 1 0 0 0zm-240-1c-4-16 3 4 0 0zm329 0c-1-4 3 1 0 0zm-301 0c-1-14 7-3 0 0zm139 0c1-1 1 1 0 0zm50 0c1-2 3 1 0 0zm126 0c1-2 1 1 0 0zm-356-1c0-5 3 3 0 0zm179 0c4-4 12-3 0 0zm4 0c4-3 3 1 0 0zm62-1c5-13 22 3 0 0zm32 1c-3-3 5-2 0 0zm46 0c-1-3 2 0 0 0zm62-1c0-1 1 1 0 0zm-206 0c1-1 0 0 0 0zm-1-1c0-1 0 1 0 0zm160 0c-9-3 4-8 0 0zm49 0c-1-2 2 0 0 0zm-368 0c7-8 9-2 0 0zm287-1c2-1 1 2 0 0zm102 0c-7-8 6 2 0 0zm-53 0c0-5 5 3 0 0zm38 0c-1-2 2 1 0 0zm-336 0c0-1 0 1 0 0zm276 0c0-3 1 2 0 0zm-338 0c1-2 0 1 0 0zm309-1c1-1 1 2 0 0zm23 0c0-1 0 2 0 0zm77 0c-3-6 4 4 0 0zm-303 0c1-2 1 1 0 0zm77 0c-3-1 6-1 0 0zm12 0c2-1 8 1 0 0zm125 0c-1-2 1 1 0 0zm77 0c-1-2 2 1 0 0zm-157 0c3-5 4 1 0 0zm40 0c1-4 2 0 0 0zm8-1c1-2 1 2 0 0zm33 0c1-1 1 1 0 0zm102 0c1 0 1 1 0 0zm-235 0c1-3 9-2 0 0zm157 0c-1-5 6 1 0 0zm-305-1c1-12 25-10 8-3-3 0-5 5-8 3zm286 0c2-6 2 3 0 0zm62 1c0-2 2 0 0 0zm3 0c-1-3 2 0 0 0zm2-1c1 0 0 2 0 0zm6 0c-2-5 4 2 0 0zm5 0c-1-4 4 2 0 0zm-221 0c6-3 1 2 0 0zm135 0c1-1 1 1 0 0zm77 0c-1-3 3 2 0 0zm3 0c-2-2 0-2 0 0zm-62 0c1-3 1 2 0 0zm41 0c1-2 1 2 0 0zm10 0c0-1 0 1 0 0zm-9-1c-1-3 3 3 0 0zm-228 0c-1-6 3 3 0 0zm136 0c1-1 1 2 0 0zm104 0c-2-5 4 2 0 0zm-99 0c1-4 3 0 0 0zm7 0c0-5 4 2 0 0zm104 0c0-2 2 1 0 0zm-288 0c0-2 2 0 0 0zm319 0c-1-2 1 1 0 0zm-381-1c1-1 1 1 0 0zm191 0c0-2 2 0 0 0zm21 0c-2-5 6 1 0 0zm-235-1c1-2 3 1 0 0zm46 0c-5-5 6-2 0 0zm80 0c1-1 1 2 0 0zm94 0c0-7 7 3 0 0zm19 0c7-15 23-3 4 0zm134 0c1-1 1 2 0 0zm2 1c0-4 2 0 0 0zm-401-1c0-1 2 1 0 0zm150 0c-1-4 2-2 0 0zm182 0c0-2 3 1 0 0zm60 0c-3-3 5 1 0 0zm-215 0c2-1 4 0 0 0zm124 0c0-2 1 0 0 0zm5 0c-2-6 2 1 0 0zm-74 0c2-5 10 1 0 0zm164-1c0-2 1 2 0 0zm-187 0c0-1 1 1 0 0zm136 0c0-2 2 0 0 0zm-255-1c1-1 1 1 0 0zm93 0c11-3 18-2 0 0zm166 0c1-4 0 2 0 0zm-143-2c-5-7 7 5 0 0zm92 2c1-1 1 1 0 0zm1 0c1-1 1 1 0 0zm51 0c1-2 1 1 0 0zm47-1c1-2 1 2 0 0zm6 1c1-2 0 1 0 0zm-301-1c2-1 1 1 0 0zm-47-1c-2-3 4 3 0 0zm36 1c1-2 1 1 0 0zm60-1c0-5 5 4 0 0zm4 0c3-4 1 3 0 0zm180 0c1-1 1 2 0 0zm-89 0c1-1 2 1 0 0zm51 0c-4-7 6 0 0 0zm97 0c-1-1 1 0 0 0zm2 0c-7-7 5-1 0 0zm-296 0c1-2 1 1 0 0zm10-1c-1-2 3 2 0 0zm238 0c2-6 2 5 0 0zm-278 0c1-3 3 1 0 0zm309 0c0-3 2 1 0 0zm12 0c-1-2 2 1 0 0zm-312 0c1-2 1 1 0 0zm33 0c1-1 1 1 0 0zm265-1c0-1 0 2 0 0zm-260-1c2-6 1 4 0 0zm189 1c1-2 1 1 0 0zm87 0c2-1 1 1 0 0zm-284 0c1-1 1 1 0 0zm144 0c2-3 1 2 0 0zm-193-1c0-3 1 2 0 0zm146 0c1 0 0 1 0 0zm51 0c1-7 9 3 0 0zm-181 0c1-2 2 0 0 0zm-71-1c-1-3 3 1 0 0zm77 0c1-4 1 2 0 0zm7 1c1-5 4 0 0 0zm210-1c1-1 1 1 0 0zm-10 0c0-3 1 1 0 0zm15 0c1-1 1 1 0 0zm54 0c1 3 1 2 0 0zm51 0c0-1 0 1 0 0zm-375 0c0-2 2 0 0 0zm94-1c0-1 0 1 0 0zm113 0c1-1 1 1 0 0zm-201-1c0-6 7 3 0 0zm213 1c1-1 1 1 0 0zm-165 0c1-1 0 0 0 0zm38-1c-1-1 3 2 0 0zm240 0c-1-2 1 2 0 0zm-314 0c-1-1 4 1 0 0zm43 0c0-2 2 1 0 0zm4 0c0-6 3 2 0 0zm262 0c0-1 0 1 0 0zm-313 0c0-1 1 1 0 0zm31 0c0-2 0 1 0 0zm40-1c-6-8 12-4 0 0zm-69 0c-1-2 2 0 0 0zm2 0c-1-2 4 1 0 0zm266 0c-1-4 3 0 0 0zm-226-1c1-1 1 2 0 0zm270 1c1-2 1 1 0 0zm-269-1c1-1 1 1 0 0zm-43-1c2-1 2 1 0 0zm33 0c-2-3 3 1 0 0zm10 0c1 0 0 1 0 0zm-53 0c1-2 2 0 0 0zm41-1c1-1 1 2 0 0zm5 0c1-2 0 2 0 0zm18 0c1-1 0 1 0 0zm320 0c0-2 3 1 0 0zm-328 0c2-1 1 0 0 0zm5 0c1-1 0 1 0 0zm-65-2c-1-3 3 3 0 0zm64 0c1-1 1 2 0 0zm-16 0c2 0 0 1 0 0zm38-1c2-5 3 0 0 0zm3-2c1-1 1 1 0 0zm284 0c0-1 1 1 0 0zm-281-2c1-1-1 2 0 0zm281 0c1-1 1 1 0 0zm-1 0c1-1 0 1 0 0zm8 0c0-1 1 1 0 0zm-291-2c3-4 5 3 0 0zm4-1c0-1 0 1 0 0zm300 0c1-1 1 1 0 0zm-10 0c1-1 1 1 0 0zm-6-1c1-1 1 1 0 0zm6-1c1-2 0 1 0 0zm-437-1c3-1 1 1 0 0zm428-1c-3-3 4 1 0 0zm-428-1c2-1 0 1 0 0zm458-2c5-2 1 0 0 0zm-1-5c-8-3 8 1 0 0zm-13 0c-16-7 3-2 0 0zm-440-2c0-1 1 1 0 0zm-40 0c2-1 1 1 0 0zm471-1c0-1 0 1 0 0zm-6-1c-3-3 5 2 0 0zm29 0c-12-1 3-4 0 0zm-16-1c1-1 2 1 0 0zm36 0c1-1 1 1 0 0zm-488-1c1-1 1 1 0 0zm434-1c1-2 1 1 0 0zm0-2c1-1 1 1 0 0zm29 0c-7-4 7 1 0 0zm16-1c0-2 3 2 0 0zm-45 0c-2-2 4-1 0 0zm42 0c-1-3 6 2 0 0zm-7-2c-9-2 3-1 0 0zm-23-2c-2-2 3 0 0 0zm-465-3c0-3 0 2 0 0zm14 0c1-1 0 1 0 0zm462-3c0-2 2 2 0 0zm-450-8c1-1 1 2 0 0zm-20-3c1-2 1 2 0 0zm9-2c7-3 3 1 0 0zm-6-2c2-2 1 3 0 0zm5-3c1-1 1 1 0 0zm0-3c1-1 0 1 0 0zm11 0c1-1 1 1 0 0zm-7-1c2-1 1 1 0 0zm-9-7c1-2 2 0 0 0zm459-1c0-1 0 2 0 0zm-464 0c13-8 15 1 0 0zm-4-1c1-2 1 1 0 0zm-10 0c0-1 0 1 0 0zm27 0c2-1 1 1 0 0zm452-2c1-2 0 2 0 0zm-462 0c0-3 1 1 0 0zm-3-1c1-3 1 1 0 0zm3-1c2-3 0 2 0 0zm-14-1c9-9 10 0 0 0zm14-2c0-3 2 1 0 0zm493 0c2-3 0 1 0 0zm-496-1c2-2 2 1 0 0zm15-2c1-1 1 2 0 0zm456 0c1-1 1 2 0 0zm15 0c1-1 1 1 0 0zM2 460c0-4 3-4 0 0zm473 1c1-2 0 1 0 0zm-455-1c-1-3 2 0 0 0zm457-1c0-1 0 1 0 0zm-455-2c0-2 1 1 0 0zm3 0s4-2 0 0zm462-1c-1-2 3 2 0 0zm-466 0c0-4 6-3 0 0zm464-1c1-2 1 2 0 0zm4 0c0-4 4 2 0 0zM7 454c-1-2 2 1 0 0zm2-1c1-1 1 1 0 0zm17 0c0-5 2 1 0 0zm-14 0c1-1 1 1 0 0zm12 0c1-2 1 1 0 0zm474-1c1-2 1 1 0 0zm22-1c0-2 2 1 0 0zm-505-1c1-5 2-2 0 0zm479-1c-1-3 3 0 0 0zm-471-2c0-4 2 1 0 0zm-2-1c-2-3 3 1 0 0zm7-1c0-3 1 2 0 0zm445 0c2 0 0 1 0 0zm4 0c0-2 7 1 0 0zm-450-1c0-2 1 1 0 0zm4 0c1-3 1 2 0 0zm452-1c0-1 1 1 0 0zM2 443c1-2 0 2 0 0zm8 0c1-2 2 0 0 0zm20-1c0-1 0 1 0 0zm-2 0c1-1 1 1 0 0zm463-1c2-1 1 2 0 0zm-471-1c0-1 1 1 0 0zm8 0c9-11 0 3 0 0zm464 0c2 0 1 1 0 0zm-476 0c3-7 5 2 0 0zm6-4c1-8 2 4 0 0zm-12 2c1-2 1 1 0 0zm7-1c1-2 0 1 0 0zm14-3c2-6 1 4 0 0zm-18-1c0-1 0 1 0 0zm16 0c-3-10 6 0 0 0zm-1-1c0-2 0 1 0 0zm-3-1c1-1 1 1 0 0zm-18-2c1-1 1 1 0 0zm15 0c0-1 1 1 0 0zm5 0c-1-3 1 1 0 0zm-6-1c0-2 3 1 0 0zm3-1c1 0 1 1 0 0zm1 0c2-2 2 2 0 0zm2 0c0-2 1 1 0 0zm1 0c1-2 2 1 0 0zm4-1c1-1 1 2 0 0zm-18 0c1-1 0 1 0 0zm9-1c1-2 1 3 0 0zm-6 0c1-5 2 0 0 0zm9-2c0-2 1 2 0 0zm455-1c2-2 0 2 0 0zm-469 0c2-4 0 2 0 0zm6 0c1-2 1 1 0 0zm1-1c1-1 1 2 0 0zm9-1c0-1 0 2 0 0zm442 0c2-1 0 1 0 0zm15 0c-2-11 4-3 0 0zm-2 0c1-1 0 1 0 0zm19 0c7-5 1 0 0 0zm-34-1c1 0 0 1 0 0zm11 0c1-1 1 1 0 0zm-451 0c-2-4 4 0 0 0zm461-1c-1-3 2 1 0 0zm-16 0c2-1 1 1 0 0zm19 0c2-1 1 0 0 0zm-29-1c2-2 2 2 0 0zm-446 0c1-1 1 1 0 0zm458 0c0-1 1 1 0 0zm-452-1c1-6 3 2 0 0zm457 0c0-1 1 2 0 0zm-453-1c-1-5 5 0 0 0zm2 1c0-2 1 1 0 0zm1 0c0-1 0 1 0 0zm446 0c0-4 3 1 0 0zm-9-1c2-3 1 2 0 0zm7-1c2-1 0 2 0 0zM6 414c1-1 1 1 0 0zm482-1c-3-7 2-5 2 1h-1l-1-1zm-473 0c0-1 0 1 0 0zm16-1c-1-5 6 2 0 0zm-28 1c2-3 2 2 0 0zm7-1c1-1 1 2 0 0zm8 1c-2-2 3-1 0 0zm4-1c1-2 3 2 0 0zm4 1c1-2 1 1 0 0zm2-2c2-3 1 2 0 0zm472 0c2-2 1 1 0 0zm-473-1c1-3 2 3 0 0zm-6 0c3-2 0 3 0 0zm452 0c0-2 4 0 0 0zm-444-1c0-15 6 0 0 0zm-9-1c1-1 1 2 0 0zm-1 0c0-1 0 1 0 0zm15-2c-1-3 2 1 0 0zm-6 0c0-2 0 1 0 0zm-10 0c1-4 5 0 0 0zm8-1c1-1 1 1 0 0zm437 0c1-1 1 1 0 0zm19-1c1-1 1 1 0 0zm-457-1c1-2 3 1 0 0zm488 0c0-1 1 1 0 0zm-41-1c1-1 0 1 0 0zm23 0c1-1 1 1 0 0zm-473 0c0-2 1 0 0 0zm14 0c1-1 1 1 0 0zm-11-1c1-1 1 1 0 0zm5 0c1-1 1 1 0 0zm7 0c1-1 1 1 0 0zm436-1c1-1 0 2 0 0zm9-1c1-2 0 1 0 0zm-452-1c0-1 0 1 0 0zm3-1c0-1 0 1 0 0zm-7-1c-1-3 2 3 0 0zm461 1c1-2 1 1 0 0zm-476-1c-1-3 2 1 0 0zm482 0c0-1 0 1 0 0zm-4-1c2-4 1 2 0 0zm25 0c1-1 1 1 0 0zm-484-1c1-2 2 0 0 0zm-9 0c0-3 2 1 0 0zm466-1c1-4 2 0 0 0zm-461-1c1-2 2 2 0 0zm4 0c1 0 1 2 0 0zm474 0c1-1 1 1 0 0zm-28-1c2-3 0 4 0 0zM2 392c1-2 1 1 0 0zm28-1c2-1 1 2 0 0zm442 1c-1-2 1 0 0 0zm-439-1c3-3 3 0 0 0zm-13-1c-2-6 7 1 0 0zm-17 0c2-2 2 1 0 0zm498 0c1-2 1 1 0 0zm-474-1c-1-1 1 2 0 0zm484 0c0-2 3 2 0 0zm-482 0c1-2 1 1 0 0zm459 0c-1-4 6 0 0 0zm-469-1c1-1 0 1 0 0zm-15 0c1-2 1 2 0 0zm475-1c3-5 3 4 0 0zm-454 0c-12-7 1-4 0 0zm5 0c0-2 1 1 0 0zm1 0c1-2 1 2 0 0zm472 0c-1-2 1 0 0 0zm-484-1c1-2 1 1 0 0zm469-1c1-1 1 2 0 0zM9 385c2-2 2 2 0 0zm7 0c-1-3 3 1 0 0zm17-1c1-1 1 2 0 0zm1 0c1-2 1 1 0 0zm-8-1c1-1 0 1 0 0zm-22-1c1-3 2 1 0 0zm28 0c-1-2 3 1 0 0zm4 0c1-1 1 1 0 0zm-1 0c0-2 0 1 0 0zm454 0c1-1 0 1 0 0zm1-1c0-3 1 1 0 0zm-465-1c0-3 2 1 0 0zm3 0c-1-2 3 1 0 0zm16 0c0-3 3 1 0 0zm-2-1c1-1 1 2 0 0zm-32 0c-1-3 4 0 0 0zm25 0c1-2 1 1 0 0zm-3 0c-2-2 3 1 0 0zm466-2c1-1 1 1 0 0zm-478 0c0-5 4 2 0 0zm490 0c-6-3 8 1 0 0zm-479 0c2-2 1 1 0 0zm18 0c-1-10 0-1 0 0zm-13 0c-1-4 2-1 0 0zm442 0c3-5 10-10 5-2l-5 2zm-440-1c-1-3 2 0 0 0zm-7-1c-1-3 2 1 0 0zm10 0c-1-5 6 0 0 0zm-22-1c0-11 3 1 0 0zm449 0c-1-1 3 1 0 0zm26 0c1-1 1 1 0 0zm-19-1c3-1-1 2 0 0zm-447 0c1-1 1 1 0 0zm445 0c2 0 0 1 0 0zm-458 0c1-2 1 1 0 0zm25-1c1-1 1 2 0 0zm-18-1c2-5 1 3 0 0zm10 0c-1-1 1 0 0 0zm429 0c1-1 1 1 0 0zm-414-1c1-1 1 2 0 0zm425 0c1-1 0 2 0 0zm-434 0c1-1 1 1 0 0zm423 0c1-1 1 1 0 0zm34-2c1-1 1 2 0 0zm-29 0c1-1 0 1 0 0zm25 0c-4-3 6 1 0 0zm-11-2c0-8 6 1 0 0zm-431 0c1-2 1 1 0 0zm-39-2c1-1 1 1 0 0zm39-1c1-1 1 2 0 0zm-19 0c0-2 2 1 0 0zm1-2c1-1 1 2 0 0zm15 0c1-1 1 2 0 0zm-13-5c1-1 1 2 0 0zm443-2c0-1 2 1 0 0zm2 0c1-1 1 1 0 0zm28 0c1-1 0 1 0 0zm-34-1c7-2 6 0 0 0zm7-1c2-1 1 0 0 0zm-443-1c1-1 1 2 0 0zm-9 0c1-1 1 1 0 0zm436 0c-1-1 1 0 0 0zm6 0c1-2 1 1 0 0zm-2-1c2 0 1 1 0 0zm-438 0c-3-6 8 0 0 0zm460-1c1-1 1 1 0 0zm-474-1c1-3 2 2 0 0zm480 0c-2-2 5 2 0 0zm-23-1c1-1 2 1 0 0zm-453-1c1-3 0 2 0 0zm3 0c1-1 1 1 0 0zm-19 0c0-1 0 1 0 0zm24-2c1 0 1 1 0 0zm-21 0c-4-11 9 1 0 0zm472 0c1-1 1 1 0 0zm-3-2c0-1 0 1 0 0zm-437 0c-12 1 4-3 0 0zm433 0c1-2 1 1 0 0zm12 0c0-2 1 0 0 0zm-8-1c-3-3 4 0 0 0zm-445 0c0-2 0 1 0 0zm6-1c1-2 1 2 0 0zm-34-1c1-6 1 5 0 0zm37 1c3-1 1 0 0 0zm-13-1c1 0 0 1 0 0zm3 0c3 0 1 1 0 0zm1 0c2-2 3 0 0 0zm-9-1c1-1 1 1 0 0zm10-1c-1-2 1 0 0 0zm441-1c2-5 5 3 0 0zm16 0c2-1 3 2 0 0zm-449 0c1 0 0 1 0 0zm-37-1c1-1 1 1 0 0zm474 0c1-2 1 1 0 0zm-436-1c4-1 1 0 0 0zm-5-1c4-1 1 2 0 0zm7-1c2-1 2 1 0 0zm3 0c2-3 1 1 0 0zm-4-1c1-1 1 2 0 0zm11 0c1 0 0 1 0 0zm-21-1c1-1 0 2 0 0zm-11 0c0-1 1 1 0 0zm30 0c4 0 1 1 0 0zm-18 0c5-3 3 1 0 0zm18-1c0-1 4 2 0 0zm433 0c0-1 1 2 0 0zm-462-1c0-2 2 2 0 0zm467 0c2-1 1 2 0 0zm18-1c-14-1 4-4 0 0zm2 0c0-1 2 1 0 0zm-471-1c1-2 1 1 0 0zm14 0c1 0 0 1 0 0zm442 0c1-1 1 1 0 0zm-459 0c-1-1 3 1 0 0zm445 0c-8-1 4-1 0 0zm27-1c2 0 0 1 0 0zm-480 0c0-2 2 1 0 0zm16 0c1-3 1 1 0 0zm448-1c2-5 1 2 0 0zm-452 0c-2-3 5 1 0 0zm-2-1c1 0 0 1 0 0zm440 0c1-1 0 2 0 0zm21 0c-1-6 6 3 0 0zm-456 0c8-1 1 0 0 0zm-35-1c1 0 0 1 0 0zm31 0c-3-3 5 1 0 0zm9 0c2-1 1 1 0 0zm436 0c1-1 0 1 0 0zm-430-1c5-1-1 2 0 0zm422 0c1-1 1 2 0 0zm2 1c2-1 0 0 0 0zm-437-1c2-3 0 0 0 0zm446 0c1-1 1 1 0 0zm-434-1c1 0 1 2 0 0zm441 0c2-3 0 2 0 0zm-442 0c1-1 1 1 0 0zm4 0c1-1 1 1 0 0zm-38 0c1-2 1 1 0 0zm12 0c1-2 2 1 0 0zm20-1c0-1 0 1 0 0zm466 0c-20-4 13 0 0 0zm-469-1c1-1 2 1 0 0zm-36-1c-3-10 9 2 0 0zm25 0c1-1 0 2 0 0zm-29 0c0-1 1 1 0 0zm16-1c-5-3 6 1 0 0zm30-1c1-1 1 1 0 0zm451-2c1-1 1 2 0 0zm3 1c-1-2 3 0 0 0zm-495-1c0-2 2 0 0 0zm25-1c-4-2 5 1 0 0zm-9-1c-4-1 8 1 0 0zm-18 0c0-4 2 2 0 0zm473 0c-1-2 1 0 0 0zm0 0c1-2 3 0 0 0zm3-1c2-2 1 1 0 0zm23-1c-1-7 5 2 0 0zm-471 0c-2-4 3-1 0 0zm447 0c2-1 0 1 0 0zm2-1c1-1 0 1 0 0zm-456 0c0-1 2 1 0 0zm-24 0c0-2 2 0 0 0zm472-2s3 1 0 0zm-2 0c1-2 2 1 0 0zm4-1c1-1 0 2 0 0zm3 0c-1-2 1 2 0 0zm-5 0c1-1 1 1 0 0zm16 0c1-1 0 1 0 0zm15 0c1-1 0 0 0 0zm-28-1c1-1 1 1 0 0zm-455-1c1-1 1 1 0 0zm451 0c3-4 4-1 0 0zm-11-1c1-1 1 1 0 0zm9 0c1-2 1 1 0 0zm-440-1c0-1 2 1 0 0zm438 0c1-1 2 1 0 0zm-6 0c0-1 0 1 0 0zm-428-1c0-1 0 1 0 0zm442 0c0-2 1 1 0 0zm-445-1c0-3 3 3 0 0zm-5 0c-2-2 3 1 0 0zm-12-1c1-1 2 1 0 0zm465 0c1-2 3 1 0 0zm-447-1c1-1 1 2 0 0zm-34 0c0-2 2 0 0 0zm32-1c-2-1 2 1 0 0zm5 0c1-2 1 1 0 0zm419-1c1-1 1 1 0 0zm-420-1c2-1 1 1 0 0zm429-1c0-1 2 1 0 0zm-431-2c-3-3 6 4 0 0zm7 1c-2-2 4 2 0 0zm-23-1c-1-1 2 2 0 0zm442 1c3-2 1 0 0 0zm-1-1c1-1 0 1 0 0zm19 0c-16-1 21 0 0 0zm-467-1c-5-1 5 0 0 0zm19 0c-1-3 3-2 0 0zm10 0c1-2 2 0 0 0zm432 0c1-2 1 1 0 0zm2-1c-4-1 5 0 0 0zm-460-1c0-1 2 1 0 0zm25 0c1-1 1 2 0 0zm-6 0c-6-7 8-3 0 0zm13-1c1-1 2 1 0 0zm422-2c-3-2 3 1 0 0zM2 284c-2-5 8 2 0 0zm30 1c1-1 0 1 0 0zm18 0c1-2 1 1 0 0zm464-1c2-1-1 2 0 0zm-481-2c1-1 1 1 0 0zm460-1c2-1 1 0 0 0zm-460-1c-1-2 3 2 0 0zm-31-1c1-4 3 1 0 0zm32 0c1-1 1 1 0 0zm443 0c0-1 0 1 0 0zm-456-1c-8 0 1-15 0-6-5 3 3 8 0 6zm-1-6c-1-2-1 1 0 0zm14 6c0-1 0 1 0 0zm433 0c4-1 0 1 0 0zm3 0c2-1 2 1 0 0zm7 0c1 0 0 1 0 0zm-2-1c-1-4 3 0 0 0zm-8 0c0-3 3 1 0 0zm42-1c-6-1 8 1 0 0zm-38-1c5-3 3 2 0 0zm-461 0c-1-2 3 0 0 0zm476-2c1-2 8 2 0 0zm8 0c1-1 4 1 0 0zm-460-1c-2-2 4-1 0 0zm-32-1c1-7 3 5 0 0zm476-1c1-1 1 0 0 0zm-444 0c4-1 1 0 0 0zm-4-1c3-1 0 2 0 0zm-16-1c0-1 0 1 0 0zm-4 0c1-2 1 1 0 0zm15 0c-2-2 3-2 0 0zm-7-1c1-1 1 2 0 0zm-13-1c-2-2 4 1 0 0zm32 0c-1-3 3 2 0 0zm-2-2c1-2 1 1 0 0zm441 0c1-1 0 0 0 0zm-436-1c2-1 0 2 0 0zm-38-1c2-1 1 2 0 0zm37-1c2-1 1 1 0 0zm440 0c4-2 4 1 0 0zm38 0c2-1 2 1 0 0zm-482 0c1-3 1 2 0 0zm-29 0c-1-2 3 1 0 0zm14 0c0-2 2 1 0 0zm11-1c1-1 1 1 0 0zm469 0c4-1 4 1 0 0zm-474-1c2-3 2 2 0 0zm-3 0c-6-3 5-1 0 0zm455-1c1-1 0 2 0 0zm-452 0c1-1 1 1 0 0zm5 0c-2-4 5 2 0 0zm-4 0c1-1 0 0 0 0zm-6-1c1-1 0 1 0 0zm3-1c0-3 3 0 0 0zm-14 0c2-2 1 1 0 0zm495-1c5-1-2 1 0 0zm-478-1c0-3 7-15 6-5 0 3-3 6-6 5zm5-4c-1-3-4 5 0 0zm7 4c2-1 2 1 0 0zm466-2c1-1 1 2 0 0zm10 0c2-1 1 1 0 0zm-499 0c-3-2 4 0 0 0zm495-1c0-3 1 1 0 0zm-497 0c1-1 1 1 0 0zm-1-1c1-2 1 2 0 0zm476-2c1-1 0 1 0 0zm-462 0c-1-2 2 0 0 0zm-17-1c1-1 1 2 0 0zm7-2c-2-2 3 1 0 0zm5-1c4-1 0 2 0 0zm496-1c2-2 3 1 0 0zm-493 0c1-10 5-2 0 0zm476 0c0-2 2 1 0 0zm-9-2c5-18 1 8 0 0zm-474-1c0-1 1 1 0 0zm1-1c1-1 1 1 0 0zm12 0c2-1 0 1 0 0zm450-1c3-3 0 2 0 0zm24-1c15-4 24-2 0 0zm-474 0c2-1 1 0 0 0zm454-2c0-1 1 1 0 0zm9-1c1-1 1 2 0 0zm-19 0c2-3 3 0 0 0zm-446 0c1-5 1 2 0 0zm487 0c1-1 0 1 0 0zm-485-1c0-1 0 2 0 0zm-17 0c-1-2 3 0 0 0zm-11-1c1-1 1 1 0 0zm21-1c-3-1 3 1 0 0zm6-4c-2-3 6 4 0 0zm7 1c-2-2 4 2 0 0zm-23 0c0-2 1 1 0 0zm469-2c1 0 1 1 0 0zm9-1c1-1 0 1 0 0zM2 224c1-1 1 2 0 0zm13 0c4-2 2 1 0 0zm479 0c2-1 0 1 0 0zm-475-3c1-2 1 1 0 0zm7 0c1-1 0 1 0 0zm471-2c0-1 3 1 0 0zm-477-1c0-2 2 2 0 0zm475 0c0-3 1 1 0 0zm-475-2c2-1 1 2 0 0zm7 0c-1-2 3 2 0 0zm445-1c1-3 11 0 0 0zm-444 0c1-1 1 1 0 0zm468 0c1-2 1 1 0 0zm-18-1c6 0 1 1 0 0zm-444 0c1-3 3 1 0 0zm452 0c-4-6 6 0 0 0zm5-1c1-1 2 0 0 0zm3-1c1 0 0 1 0 0zm-21 0c0-2 1 1 0 0zm-457 0c1-2 0 1 0 0zm452 0c2-1 0 0 0 0zm-439-1c0-7 6 0 0 0zm438 0c1 0 0 1 0 0zm3 0c0-2 2 1 0 0zm-12-1c1-1 1 2 0 0zm24 1c2-1 0 0 0 0zm2-2c-2-8 8 2 0 0zm-11-1c2-2 0 2 0 0zm8 0c1-2 2-1 0 0zm-10 0c1-2 1 1 0 0zm-440-1c-6 3-10-13-13-8-4-3 14-8 3-12 13 0 4-1 8 6-1 2-8 13 2 8 6-6 2 8 0 6zm-1-3c-1 0 1 1 0 0zm-2-1c-2-1-2 2 0 0zm-3-6c-1-2-1 2 0 0zm-8 10c0-3 2 1 0 0zm470-1c0-2 2 1 0 0zm-10-1c1-1 1 1 0 0zM8 204c1-1 1 1 0 0zm481-1c0-4 3 3 0 0zm-471 0c-2-6 3 1 0 0zm448-1c2-2 2 1 0 0zm3-1c0-1 1 1 0 0zm19-2c1-2 1 1 0 0zm-20-1c1-1 1 1 0 0zm37 0c2-3 2 1 0 0zm-23-1c2-3 1 1 0 0zm2-1c1-1 1 1 0 0zm22 0c2-2 1 1 0 0zm-11-1c2-2 1 2 0 0zm-2 0c1-1 0 1 0 0zm-4-1c1-1 1 2 0 0zm-472 0c0-4 3 2 0 0zm33 0c-7-2 6 0 0 0zm-8-1c-2-3 3 2 0 0zm438-1c2-1 0 1 0 0zm4-2c2-2 0 2 0 0zm-435-1c-1-2 2-1 0 0zm-29-1c2-1 1 2 0 0zm463-1c0-1 3 1 0 0zm-452-2c2-3-1 3 0 0zm452 0c-1-2 4 0 0 0zm-434-1c1-1 1 2 0 0zm-16 0c3-4 3 1 0 0zm13 0c1 0 1 1 0 0zm-8-1c1-3 2 1 0 0zm462 0c0-1 1 1 0 0zm-483-1c-6-7 9-3 0 0zm455 0c0-2 0 1 0 0zm-438-1c0-2 4 0 0 0zm445 0c-1-3 6 0 0 0zm-468 0c-1-2 3 1 0 0zm466 0c1-1 2 0 0 0zm-4-1c1-1 1 1 0 0zm-1 0c1-1 0 1 0 0zm-451 0c-1-2 1 1 0 0zm471 0c1-1 1 1 0 0zM4 179c1-2 1 2 0 0zm31 0c0-6 4 1 0 0zm-22-1c-1-1 1 0 0 0zm469-1c1-1 0 2 0 0zm23 0c1-1 1 2 0 0zm-463-1c1-2 1 1 0 0zm-8-1c1-3 1 0 0 0zm-30-2c-6-2 4 0 0 0zm13-1c0-3 3 0 0 0zm474-2c2-3 4 2 0 0zM2 167c1-9 2 1 0 0zm25-1c2-5 3 0 0 0zm8 0c1-1 1 1 0 0zm476-1c1-1 1 1 0 0zm2 0c6-4 7-1 0 0zm-482-3c1-1 1 2 0 0zm-25-1c1-2 1 3 0 0zm2 1c1-1 0 1 0 0zm481-2c1-1 1 1 0 0zm3 0c1-9 9 1 0 0zm11-4c1-1 1 1 0 0zM5 155c0-1 0 2 0 0zm489 0c2-5 8-1 0 0zm-2-5c1-14 10 4 0 0zm9 0c1-1 0 1 0 0zm-27 0c-4-3 4 0 0 0zm26-3c0-1 0 2 0 0zm-2 0c0-1 0 1 0 0zm-16-1c1-2 0 1 0 0zm-455-1c5-3 8-1 0 0zm448-2c1-1 1 2 0 0zm15-2c0-8 6 2 0 0zm-455 0c0-2 2 1 0 0zm-22-2c1-2 3 1 0 0zm469-1c0-1 0 1 0 0zm-460 0c0-5 7-2 0 0zm11-2c0-3 2 2 0 0zm22-1c-1-2 2 0 0 0zm-20-1c1-1 1 1 0 0zm451 0c-1-2 1 0 0 0zm-449-1c1-1 1 1 0 0zm-24 0c1-2 0 1 0 0zm7 0c0-2 1 1 0 0zm5-1c-1-10-9-11 5-4 4 5-3-3-5 4zm449 0c2-1 1 1 0 0zm-421 0c1-1 1 1 0 0zm420-2c0-1 1 1 0 0zm2 0c1 0 0 1 0 0zm14-1c1-1 0 2 0 0zm-478-1c2-5 1 2 0 0zm33-2c1-1 0 1 0 0zm431-1c1-1 1 1 0 0zm-424-3c1-1 0 2 0 0zm-20-1c1-2 1 2 0 0zm-10-2c1-1 0 1 0 0zm472-2c0-1 1 0 0 0zm23-1c-1-1 1 1 0 0zm-2-8c-2-1 4 0 0 0zm-462 0c1-2 1 1 0 0zm434 0c1-1 0 1 0 0zm-13-2c3-3 1 1 0 0zm3-1c1-1 0 0 0 0zm-448-1c-1-3 3-1 0 0zm19 0c1-2 1 1 0 0zm430-1c1 0 0 1 0 0zm2 0c1-2 1 1 0 0zm-433-1c1-1 0 0 0 0zm431-1c1-1 1 1 0 0zm-428 0c1-1 1 1 0 0zm449-1c3-3 6 0 0 0zM42 98c0-2 0 3 0 0zm6-1c1-1 1 2 0 0zM9 97c0-1 1 1 0 0zm473-1c1-10 22-2 37-6 4 1-24 7-29 5l-2 1h-6zM35 95c-11-9 7 5 0 0zm460 1c1 0 1 1 0 0zM40 93c-2-2 3 2 0 0zm-19-1c2-4 1 2 0 0zm450 0c-1-2 3 1 0 0zM22 90c0-1 0 2 0 0zm489 0c1-1 1 1 0 0zm-42 0c2-1 1 0 0 0zm33-1c-5-8 37-6 7 0l-3 1-4-1zM20 88c1-10 5 0 0 0zm461-1c-1-2 4 0 0 0zm-3-1c-4-2 7 1 0 0zm22 0c1-2 1 1 0 0zm-24-2c1-2 2 1 0 0zm2 0c2-1 0 0 0 0zM22 82c1-2 0 2 0 0zm-3-7c1-11 3 2 0 0zm171-4c2-4 0 2 0 0zm9-3c-2-13 9-1 0 0zm292-1c1-1 1 2 0 0zm-211 0c1-1 1 1 0 0zm80 0c1-1 1 1 0 0zm23 0c-1-2 2 1 0 0zm-178-1c2-2 0 2 0 0zm71 1c-1-4 4 0 0 0zm-6-1c0-1 1 1 0 0zm37 0c1-2 0 1 0 0zm192 0c3-2 3 0 0 0zm-291 0c2-6 2 0 0 0zm280-1c1-1 1 1 0 0zm-109 0c1-2 1 1 0 0zm6-1c0-4 2 2 0 0zm18 0c1-2 1 0 0 0zm-200 0c1-2 1 1 0 0zm202 0c4-8 3 2 0 0zm-253-1c-1-2 1 1 0 0zm356 0c0-1 1 1 0 0zm-206 0c1-1 1 1 0 0zm106-1c7-7 8-4 0 0zm112 0c0-1 0 1 0 0zm-146-1c1-2 1 3 0 0zm-265 0c0-3 1 2 0 0zm257 0c-1-1 3 1 0 0zm118 0c1-1 0 1 0 0zm27 0c1-1 1 1 0 0zm-146 0c-1-2 1 0 0 0zm15 0c-3-5 4 0 0 0zm34-1c-1-3 4 0 0 0zm-14 1c1-2 0 1 0 0zm6-1c3-2-1 3 0 0zm-277 0c1-2-1 2 0 0zm125 0c0-2 2 1 0 0zm163 0c1-4 2 2 0 0zm5 0c2-3 0 2 0 0zm-77 0c-1-1 1 0 0 0zm24 0c0-2 2 1 0 0zm40 0c1-1 1 1 0 0zM87 60c1-3 1 0 0 0zm95 0c1-1 1 1 0 0zm47-1c0-7 6 2 0 0zm247 1c3-2 1 1 0 0zm-65-1c1-1 1 1 0 0zM75 59c1-1 1 1 0 0zm53 0c1-2 1 1 0 0zm57 0c1-1 1 1 0 0zm214-1c5-20 11 4 0 0zm23 1c2-3 7-2 0 0zm58-1c-6-2 4-3-10-3 4-9 44-17 44-19-7 5-25 13-6 7 23-5-15 4 8 1-25 8 19-2-7 8-5 9-28 0-28 7l-1-1zm24-3c-2 0-2 1 0 0zm-20-2c4-3-6 2 0 0zM73 58c-1-1 1 1 0 0zm381 0c12-8-14-7 5-11l7 4c-4 1-7 9-12 7zm17 0c1-1 0 1 0 0zm22 0c1-1 1 1 0 0zm-123-1c0-11 13-4 0 0zm73 0c0-1 0 2 0 0zm-107 0c1-1 1 2 0 0zm2 0c1-1 1 1 0 0zm-157 0c-3-6 5-2 0 0zm146 0c1-1 0 1 0 0zm100 0c2-4 2 1 0 0zm-165-1c-1-1 3 2 0 0zm132 0c1-1 1 2 0 0zm-284 0c0-3 1 2 0 0zm275 0c-1-3 2 1 0 0zM50 56c1-3 2 1 0 0zm245-1c-5-11 3-1 0 0zm3 0c1-1 0 2 0 0zm-147 0c0-5 3 2 0 0zm109 0c1-1 1 2 0 0zm119 0c1-1 1 1 0 0zm-113-1c-2-2 4 3 0 0zM52 55c2-6 3 1 0 0zm78-1c1-1 1 2 0 0zm209 1c-12-13 13-4 0 0zm68 0c1-2 0 1 0 0zM83 54c2-3 0 2 0 0zm103 0c-1-8 6-4 0 0zm3 0c1-2 0 2 0 0zM86 54c-1-5 7-5 0 0zm238 0c0-1 0 1 0 0zm115 0c-4-5 21-10 3 0h-3zm-112-1c1 0 0 2 0 0zm52 0c2-4 0 4 0 0zm35 1c1-3 2 1 0 0zm-252-1c-5-8 1-34 1-9 4 0 3 10-1 9zm101 0c1-1 1 1 0 0zm8-1c-1-3 2 2 0 0zm74 0c0-4 4 2 0 0zm36 0s0 2 0 0zm-251 0c4-8 2 4 0 0zm197 0c0-2 1 2 0 0zm-102 0c-1-2 1 0 0 0zM51 51c2-5 2 3 0 0zm-21 0c-1-6 9-1 0 0zm155 0c0-6 2 2 0 0zm246 0c1-1 2 0 0 0zm-163 0c1-1 1 1 0 0zm50-1c-1-3 4 3 0 0zm44 0c0-2 2 0 0 0zm63 0c0-7 10-2 0 0zM54 49c0-1 1 1 0 0zm119 1c0-5 3 1 0 0zm125-1c-17-7 3-6 0 0zM28 49c1-2 1 1 0 0zm297 0c0-2 2 1 0 0zm42 0c-1-2 2 1 0 0zm-55 0c-7-7 6 1 0 0zM35 49c13-15 7 1 0 0zm161-1c2-4 1 3 0 0zm224 0c1-2 2 1 0 0zm49 0c7-6 3 1 0 0zm-359 0c-1-2 1 2 0 0zm77 0c-4-2 4 1 0 0zm82-1c-4-6 6 4 0 0zm106 1c1-1 1 1 0 0zm-176 0c1-2 0 1 0 0zM52 48c-1-6 6 1 0 0zm176 0c0-2 0 1 0 0zM23 47c1 0 1 1 0 0zm396 0c1-1 1 1 0 0zm47 0c3-1-2 2 0 0zm-311 0c1-1 1 1 0 0zm19 0c1-1 1 1 0 0zm142 0c-7-8 7 2 0 0zm3 0c0-2 2 2 0 0zm-137-1c1 0 0 2 0 0zm17 1c1-2 0 1 0 0zm263-1c0-1 1 2 0 0zm-342 0c1-7 3 1 0 0zm63 0c1-4 1 3 0 0zm120 0c0-1 0 1 0 0zm-129 0c-2-11 5 2 0 0zm126 0c-1-4 4 2 0 0zm4-1c-5-10 10 3 0 0zm-108 1c1-3 1 0 0 0zM28 45c1 0 0 1 0 0zm56 0c1-2 1 2 0 0zm368 0c4-13-12 5 0-9 10-17 18-5 10-3 0-2 4 2 8 0-10 6 9 2-9 10-2 3-6 2-9 2zm17 0c1-1 1 1 0 0zm-185 0c-9-7 5-1 0 0zm153 0c7-11 17-9 0 0zM52 45c1-3 1 0 0 0zm56-1c-1-3 2 3 0 0zm234 0c-2-4 4 2 0 0zm-164 0c-2-18 7-2 0 0zm131 0c-1-2 3 1 0 0zm7-1c-1-2 1 2 0 0zm128 0c0-3 1 2 0 0zm25 0c1-2 2 1 0 0zm-334 0c1-3 3 0 0 0zm62 0c0-1 0 1 0 0zm2 0c0-1 0 1 0 0zm198 0c1-1 1 1 0 0zM38 43c1-3 1 1 0 0zm48 0c1-2 1 1 0 0zm95 0c1-4 1 1 0 0zm294 0c2-4 3 1 0 0zM50 42c0-3 1 1 0 0zm18 0c1-2 1 1 0 0zm138 0c1-5 2 0 0 0zm-35 0c1-2 1 1 0 0zm-49-1c0-1 0 2 0 0zm43 0c1-11 4 3 1-2v2h-1zm128 0c-6-5 5-1 0 0zm201 0c0-1 3 1 0 0zm-15-1c2-1 1 2 0 0zm-152 0c-2-9 7 2 0 0zm118 0c1-2 2 1 0 0zM54 40c1-5 1 1 0 0zm85-1c2-2 1 1 0 0zm-4-1c0-2 2 0 0 0zm285 0c1-1 0 1 0 0zm-217 0c1-4 2 2 0 0zm227-1c2-1 1 1 0 0zm63-1c2-2 1 1 0 0zm-45 0c1-1 1-1 0 0zm-160-1c-3-4 4 3 0 0zm143 1c1-1 1 1 0 0zm-274-1c1-1 0 1 0 0zm46 0c1-4 0 2 0 0zm2 0c0-3 1 2 0 0zm27 0c0-1 1 0 0 0zm217 0c3-4 2 1 0 0zm-126 0c-1-3 2 0 0 0zm-125-1c1-2 1 2 0 0zm137 0c-1-5 4 2 0 0zm-169-1c0-1 0 2 0 0zm13 0c4-15 10-3 0 0zm-86 0c-1-2 4-4 0 0zm354 0c4-5 3 2 0 0zm-141-1c-1-2 2 1 0 0zm134 0c1-2 1 0 0 0zm-315 0c1-2 2 0 0 0zm341-1c1-1 1 1 0 0zm2 0c2-6 13-5 1 0zm6-4c2-2-4 2 0 0zm-336 3c-5-3 5-4 0 0zm-8-1c2-4 0 4 0 0zm85 0c1-1 1 1 0 0zm75 0c-1-3 3 3 0 0zm176 0c0-3 1 1 0 0zm-295-1c-2-14 6 0 0 0zm123 0c-3-12 10 4 0 0zm192 0c1-1 1 1 0 0zm30 0c0-2 1 1 0 0zm-233-1c-1-3 2 2 0 0zm195 0c2-2-1 2 0 0zm-273-1c1-1 0 2 0 0zm255 0c0-1 0 2 0 0zm-318-1c0-2-2-1 0 0zm322 0c1-1 1 1 0 0zm5 0c2-3 1 0 0 0zm-337 0c0-2 1 0 0 0zm349 0c3-3 3-1 0 0zm-369-1c1-1 0 1 0 0zm367 0c2-2 1 0 0 0zm-290-1c1-8 3 2 0 0zm275-1c5-8 6 0 0 0zm-254 1c1-2 1 1 0 0zm275-1c1-1 1 0 0 0zm-107-1c3-2-1 2 0 0zm-227-1c1-3 0 4 0 0zm67 1c1-2 1 1 0 0zm-71-1c1-2 1 2 0 0zm343-1c3-4 3 0 0 0zm-251-1c2-5 1 2 0 0zm263-1c1-4 2 3 0 0zm-119 0c1-1 1 1 0 0z"/></svg>