<svg xmlns="http://www.w3.org/2000/svg" viewBox="0 0 537.2 328.6"
   preserveAspectRatio="none"><path fill="#8485b5" d="M118 328c1-2 1 2 0 0zm36-1c0-1 0 1 0 0zm232-2c-4-9-19 3-15-6 9-4 4-2 11-3 9-3 7 7 4 7 3-1 1 5 0 2zm-13-7c-1-1-1 2 0 0zm-257 7c0-4 1 2 0 0zm9-2c1-2 1 2 0 0zm41 0s0 1 0 0zm-106 0c0-1 0 1 0 0zm31-1c1-2 1 2 0 0zm272-1c1-3 3 2 0 0zm47 0c-2-14 0-36-20-31-10-3-21 6-23-3-7 4 8 9 1 10 7 6 13 12-1 5 0 1-3-1-5 2-3-2-7-13-13-9 5-2 4-3 2-6-1-5-3 1-3 2-1-4-14 4-12-3-6 0 0 4-9 7 5-5 0-3-1-3-9-2 4 3-7 3-7 0-11 2-12-2-3-2-13-5-18-5 4-8-5 4-6 2-3-3-4-2-7-7-3 0-3-3-6-6-2 2-6 1-6 2 9 4-6 5-4-2-3 4-2-5-6-1 0 2 3 4 7 7-2 6-5-7-5 0 0-2-7-8-8-4-7-2-3 10-4 5 1-7 6 2 4 3-1 2-14-4-5 1 0 3-5 0-6-2-1 0-12 7-12 2-3-2-7-3-7 1 1 6-3-4-4 0 1 7-1 1-3 3 6-3-8-11-7-7 6 2-1 1 3 5-1-1-4 5-7 6-3-1-3-5-8-4-4-1-8 0-9 2 4 3-1 4 0 4-2-3-19-3-18-2l-8 2c-10-3 6-2-7-4-2 4 2 6-7 6-6 12-6 2-2-3-1-4-17-2-7-3 4-5 9 0 4-5 6-3-8-1-5-10-4-1-3-2-4-4-7 10-4-1-10-4s-4 11-9 7c-16 13 11-11-6-6-10 8-11 4-21 7-1-2-6 1-7-3 5-3-3 0 2-4-8 0 16-7-4-1-6-1-18 1-14-4l9-8c4-2 9-6 6-9-5-2 1-2 0-4-9-4 2-12 5-16-6-9-22-12-23-15-12-4-13-6-15-11 5 1 2 0 1-3 11 5 0-6 3-5 4-1 10 1 11-2 7 2 2-4 9-4 6-3-6-7-13-7 14 1-5-6 8-6 7-4 10-8 2-4-10 6-7-4-15 0-7 4-11-1-12 2 11-11-8-7-10-8 2-8 2-10-8-10 11 0 7-6 11-7 11 3 6-5 4-4 12 1-8-5 12-2-7-6 18 0 7-6 3-5 6 6 6 0 0-1-8-7-6-11 6 3 14 11 12 5-6-3-9-10-4-5 10 6-20-21 0-5 5 4 6 7 4-1 0-3-13-10-1-9 1-7-11-14-4-7-4 5-8-7-7-3 0 5-8-1-4-2 8 3-2-5-1-4-3-3 11 1 6 1-2 2 3 6 4 3-1-2-4-18-10-17 2-7 3-18 13-10 10 3-9-6 6-4 5 0 4-9 10-6 4 7 11 8 4 0 1 6 11 2 0-2-1-1-3-3-1-5 11-1 8-5 19-4-24-4 16-3 30-4-8-2-7-6 0-7 3 4 6 12 9 6-3-6-5-12-4-16 10 8 7-2 17 3-3 7-4 13 5 7 1 8 15 9 8 4 2-3-10-15 2-6 7-1 11-5 15 1 6 3 16 13 15 2 3 3 14 11 12 8-1-4 4-6 1-2 0 1 7-4 2-3-6-3-5-10 0-4 0-3 7-11 11-2-4 4-7 6-7 10 6-3 24-22 8-5-4 3-2 9 4 2 4 3 8 11 1 6-4 6 13-1 10 6 3 6 5 1 11 2 13-8 35-5 45-15-1-10 19-19 8-7-6 8 4-3 4 1 10-7-2 6 4 4-12 10-1 8 2 9-4 10 23-9 29-13 9-6 22-21 8-5-15 15-1 4 8 0-15 8 0 4 0 4-20 6 41-6 12-1-15 3 0 3-2 3 12-1-6 5 12 3 17 0 4 5 20 7 2 2-15-2-5 2 14 2 7 6 20 7 8-7 18-8 26-7 10 0 18-2 27 2 8 1 11-1 16 3-3 4-10 7-8 9-4 4 5 4-2 7-4 4 14 0 0 5-12 11 25 9 32 3 8-2 5-4 12-3 1 2-14 8-21 12-6 0 3 2-6 7-3 4 6 7 10 4 10 3-1 7-6 5 4 10-3 8-5 1-11 0-2 2-6 4 4 2 13 3 5 7-8 3 3 2-2 9 15 1 6 5 0 5 17 0 31-15 48-20-3 4-25 13-35 18-12 5 5 6-2 10 5 5-5 4-9 7-3 3 0 5-6 2-4 2 3 11 7 10-9-2-3 11-8 9-7 0-10 7-6 10-1 0-9-2-1 4 6-1 7-13 10-2 12-3 25-1 38-4 11-4 24-1 5 0l-35 7c-9 1-8 9 2 9 18 4 2 2-5 6-4-1-7 8-5 10 2-6 3 4 5 3 2 7 4 1 7 1 4-2 4-2 8-8 7-5 1 3 3 0 16-4 8-2 2 5 4 2-2 3-1 7-9-5-8 4-12 1-5 1-7 1-5-1-6-7-3-2-2 4 5 3 2 3-1 11 10 9-3-2-1 4 2 9-2 3-10 11 5 11 13 6 12 16 0 5 5 12 2 10 3 6-16-14-20-8-9-9-18-8-9 2 0 3 7 16-2 2-5-5-8-9-14-2-2 3 3 4 2 5 11 0-15 6 3 5-5 3 6 2 4-6 9 1 8 11 6 15-13-5-11 3-18 2-18 1 14 2-1 2 7 4-29-2-33 4-1 7 6 25 2 28zm-47-21c-1 0-1 1 0 0zm3 0c-1-1-1 1 0 0zm-5-1c-1-3-2 2 0 0zm6 0c0-1 0 0 0 0zm-219-1c0-2-1 2 0 0zm34-1s0 1 0 0zm-42-1s0 1 0 0zm21 0c0-1 0 0 0 0zm6 0c0-1 0 0 0 0zm1 0c0-1 0 0 0 0zm13 0c-1-2-1 1 0 0zm22 0c-1-1-1 1 0 0zm155-1c-4-7-3 1 0 0zm-197 0c1-2-4 2 0 0zm12 1c-1-1-1 0 0 0zm1 0c0-1 0 0 0 0zm2-1c-2-1-1 2 0 0zm186 0c-1 0-1 1 0 0zm-204 0c-2-1-1 0 0 0zm6 0c-3-1 0 0 0 0zm1 0c-1-1 0 1 0 0zm203 0c-1 0 0 0 0 0zm-168 0c0-1 0 0 0 0zm2-1c-1-1-1 2 0 0zm162 0c0-1-1 2 0 0zm1 0c-1 0 0 1 0 0zm2 0c0-1-1 2 0 0zm-209 0c-1-2-1 1 0 0zm5 0c-1-1-1 1 0 0zm15 0c-1 0-1 1 0 0zm185 0c12-9-15-11-5-4 1 1 2 4 5 4zm-2-2s0 1 0 0zm-1-1c1 0 1 1 0 0zm4-1c1-1 1 1 0 0zm-6-1c1-1 0 0 0 0zm0-1c0-3 1 1 0 0zm2-1s0 1 0 0zm2 0c1 0 0 1 0 0zm-181 7c-1-1-1 1 0 0zm1 0c0-1 0 1 0 0zm139 0c0-1 0 1 0 0zm37 0c0-1 0 1 0 0zm-180 0c0-1 0 0 0 0zm22 0c-1-1 0 0 0 0zm-1-1c-1-5-1 2 0 0zm-1 0c0-1 0 1 0 0zm156 0c0-1 0 1 0 0zm-171-1c4-6-5 2 0 0zm-30 0c-1-1-1 1 0 0zm34-1c0-3-1 3 0 0zm131 1c-5 0-5 1 0 0zm36 0c0-1-1 1 0 0zm2 0c-7-7 0-1 0 0zm-154-1c1-3-3 1 0 0zm104 1c-1-2-1 1 0 0zm-103-1c-1 0 0 1 0 0zm14 0c0-2-1 1 0 0zm-74 0c-1-1 0 0 0 0zm55 0c-1-1-1 0 0 0zm142 0c0-1 0 0 0 0zm-188-1s0 1 0 0zm174 0c-1 0-1 1 0 0zm1 0s0 1 0 0zm27 0s0 1 0 0zm-210 0c-1 0 0 1 0 0zm45 0c-1 0-1 1 0 0zm140 0c-1 0 0 1 0 0zm9 0c5-3 4-3-1-3-1 0-1 5 1 3zm-153-1c-1 0 1 1 0 0zm9 1c-1-2-1 1 0 0zm3 0c0-1 0 0 0 0zm4 0c0-1 0 0 0 0zm-18-1c-1 0 0 1 0 0zm4 0c-1 0-1 1 0 0zm117 0s1 1 0 0zm8 0s0 1 0 0zm18 0c-5-2-7 2 0 0zm-139 0s0 1 0 0zm7 0c-1-1-1 1 0 0zm-6 0c0-1 0 0 0 0zm2-1c-1 1 0 2 0 0zm8 1c-2-3-2 1 0 0zm102 0c-1-1-1 0 0 0zm51 0c0-1 0 0 0 0zm-165-1c-1 0 0 1 0 0zm1 0c-1 0 0 1 0 0zm14 0c-4-1-1 2 0 0zm22 0c-1 0 0 1 0 0zm-30 0s0 1 0 0zm15 0c-1 0-1 1 0 0zm0-2c-3-2 3 5 0 0zm14 2c1 2 5-6 1-2-1-1-3 2-1 2zm2-3c1-1 1 1 0 0zm14 3c-1 0-1 1 0 0zm64 0c-1 0 1 1 0 0zm24 0c-1 0 0 1 0 0zm15 0c-1-1 0 1 0 0zm11-1c-2 0 0 2 0 0zm-176 1c0-1 0 0 0 0zm18-1c0 1 1 1 0 0zm155 0c6-3-7 0 0 0zm-160 0c-2-1-1 2 0 0zm1 1c-1-1-1 0 0 0zm38-2c6-7-5 4 0 0zm1 2c-1-1-1 0 0 0zm73 0c-1-1-1 0 0 0zm-108-1c-1 0-1 1 0 0zm1 0c-1 0 0 1 0 0zm2 0c-1 0-1 1 0 0zm23 0c-1 0-1 1 0 0zm101 0c-1 0 0 1 0 0zm23 0s0 1 0 0zm-155 0c0-1 0 0 0 0zm21 0c-1-1-1 1 0 0zm2 0c0-1 0 0 0 0zm1 0c-1 0 1 0 0 0zm1 0c-1 0 1 0 0 0zm128-1c-1-4-2 2 0 0zm-150 0c-1 0 0 1 0 0zm5 0c-1-1 1 1 0 0zm10 0c-1 0-1 1 0 0zm36 0c-1-8-3-1 0 0zm-32 0c-2-1-2 1 0 0zm3 0c0-1-1 1 0 0zm119 0c-1-1-1 1 0 0zm-121-1c-1 0-1 2 0 0zm6 0c-2-2 1 2 0 0zm13 0s1 1 0 0zm-33 0s0 1 0 0zm18 0c-1 0-1 1 0 0zm18 0s1 1 0 0zm-50 0c-1-1 0 1 0 0zm13 0c0-1 0 1 0 0zm1 0c-1-1-1 1 0 0zm38-1c-1-1 0 2 0 0zm-30 0c-1-1-1 1 0 0zm4 0c-1 0 0 1 0 0zm16 0s0 1 0 0zm12 0c-6-7-8-3-1 0h1zm-34 0c0-1 0 1 0 0zm19 0c0-2-1 2 0 0zm5 0c2-3-3 1 0 0zm5 0c0-1 0 1 0 0zm24 0c-1-1 0 1 0 0zm31 0c2-4-5 2 0 0zm-153-1c-1 0-1 2 0 0zm1 1c-1-1-1 0 0 0zm78 0c0-1 0 0 0 0zm-10-1c-3-1 1 2 0 0zm1 0c-1-1-1 1 0 0zm51 0c-1 0-1 1 0 0zm-58 0c-1-1-1 1 0 0zm4 0c-1-1 0 0 0 0zm28 0c-1-1-1 0 0 0zm215 0c-12-1 6 0 0 0zm-242-1c-1 0-1 1 0 0zm1 0c-2-1 1 2 0 0zm9 0c-1 0-1 1 0 0zm-1 0c-1-1-1 1 0 0zm73 0c-1-1-1 1 0 0zm-59 0c-1-1-1 0 0 0zm26 0c-1-1 0 0 0 0zm-118-1c-1-4 0 0 0 0zm101 0s0 1 0 0zm214 0c-2 0 0 1 0 0zm-225-2c-1 1 0 1 0 0zm-3 0c-1 0 0 1 0 0zm-132-1c0-1-1 1 0 0zm170 0c-1-1-1 0 0 0zm3-1c0-3-1 3 0 0zm6 1c-1-2-1 0 0 0zm2-1c-2 0 0 1 0 0zm-7 0c-1-1 0 1 0 0zm-20-2c-3-2 1 4 0 0zm15 1c-1-1 0 2 0 0zm181 1c-1-1-1 0 0 0zm-198-1s0 1 0 0zm-134 0c0-2 0 1 0 0zm149-1c-2-2-2 2 0 0zm3 0c0-1 0 1 0 0zm5 0c-1-2-1 2 0 0zm2-1c-1-2 0 3 0 0zm1 1c0-1 0 1 0 0zm-7 0c-1-1 0 0 0 0zm3 0c-1-1-1 0 0 0zm4-1c-1 0 0 1 0 0zm-3 0c1-2-2 1 0 0zm176 0c1-3-2 2 0 0zm-184-1c-1 0 0 2 0 0zm9 0c0-1 0 1 0 0zm-157 0c-1 0-1 1 0 0zm106 0c0-1 0 0 0 0zm53 0c-1-1 0 0 0 0zm-142-1c-1-1-1 1 0 0zm133 0c1-1-3 2 0 0zm-131 0c-1-1-1 0 0 0zm314-1c-1 0 0 1 0 0zm-182-1c-1-1 0 0 0 0zm-178-2c-1-1-1 1 0 0zm387-5c-1-1 0 0 0 0zm14-24c-2-3-4 1 0 0zm-1 0c0-1 0 0 0 0zm1-10c-1-1-1 1 0 0zm5-11c0-1 0 1 0 0zm5-1c-5-4-6 0 0 0zm1-1c-2-1-1 1 0 0zm-1-1c-1-3-5 1 0 0zm-1 0c0-1 1 1 0 0zm3-1c-1 0-1 1 0 0zm1 0c-1-1 0 0 0 0zm-3-1c0-1 0 0 0 0zm2-1c0-1-3 2 0 0zm8 0c0-2-1 2 0 0zm-10-1c-2 0 0 2 0 0zm12-2c-1-1-1 1 0 0zm-6-1c-1-1-1 2 0 0zm0-2s1 1 0 0zm2-1c-2-1-1 2 0 0zm-29-4c-1-1-1 1 0 0zm10-3c-1-1 0 1 0 0zm-428-2c0-1 0 0 0 0zm1 0c0-1 0 0 0 0zm434-4c-1 0-1 1 0 0zm-423-1c-4-1-1 2 0 0zm418 0c-3-2 1 2 0 0zm-417-3c-1-1 0 1 0 0zm-2-2c-2-1 0 2 0 0zm411 0c-3 0-3 1 0 0zm-410-1c3 0-2 1 0 0zm409 0c-3 0 0 0 0 0zm-6-4c-2-1-2 1 0 0zm-1-6c-3 0-3 2 0 0zm0-1c-4-3-4 2 0 0zm-405 0c-1 0 0 1 0 0zm-24-1c-3-1-2 1 0 0zm33-5c-3-3-3 2 0 0zm400-17c-1-1-1 2 0 0zm1 1c-1-1-1 0 0 0zm0-1c-2-1-1 1 0 0zm20-9c-1-1 1 1 0 0zm-6-11c-1 0 0 1 0 0zm-10-7c11-5-8 1 0 0zm1-3c0-1 0 0 0 0zm5-5c3-4-3 0 0 0zm-2-1c-1-1 0 1 0 0zm-2-1c1-1-3 1 0 0zm-416-4c-1 0-1 1 0 0zm415-1s0 1 0 0zm-414 0c-1-6-5-2 0 0zm-3-2c-1-1 0 0 0 0zm4-1s0 1 0 0zm2-1c-3-4-12-1-6-1 1 1 5 2 6 1zm-4-1c0-1 2 2 0 0zm-3-1c0-1 0 0 0 0zm-3 1s0 1 0 0zm11-1c-4-2-1 2 0 0zm-12-2c-1-2-1 2 0 0zm4-1c0-1 0 0 0 0zm-5-1c-1-1-1 1 0 0zm12 0c-1 0-1 1 0 0zm2 0c-1-1-1 1 0 0zm-8-1c17-1-7 1 0 0zm-13 0c-2-4-2 2 0 0zm7 0c-1 0-1 1 0 0zm12 0c-1-1-1 1 0 0zm415-8c-1-1 0 0 0 0zm1 0c-1-1-1 0 0 0zm5-1c-4-1-5 1 0 0zm-8 0c-1-1-2 1 0 0zm11-1c2-1-5 2 0 0zm2-1c-1 0 0 1 0 0zm3 0c-2 0-2 1 0 0zm-8 0c2-1-4 1 0 0zm-2 0c-1-1 0 0 0 0zm4 0c-1-1-1 0 0 0zm12-3c-1-1-2 2 0 0zM65 76c-4-2-5 1 0 0zm-4-1c-5-2-4 1 0 0zm8-2c-2-1-3 1 0 0zm-3-2c-2-1-1 2 0 0zm6 0c-1-1-2 2 0 0zm14 1c0-1 0 0 0 0zm8-1c-3-2-7 1 0 0zm-31 0c-1-1 0 1 0 0zm31-1c-2-1-2 0 0 0zm-7-1c-1-1-1 0 0 0zm1-1c-4-1-3 1 0 0zm0-3c5-2-2-2 0 0zm4 1c-3-2-4 1 0 0zm224-1c-1-1-1 1 0 0zm3-1c-1 0 0 1 0 0zm2 0c-1 0 0 1 0 0zM86 64c-1-1-1 1 0 0zm233-1c-3 0-2 2 0 0zM87 63c-3-3-4-1 0 0zm5 0c-1-1-1 0 0 0zm146-2c1-1-2 2 0 0zm83 0c1-2-3 2 0 0zm-53-1s0 1 0 0zm-1 0c-2-1 0 1 0 0zm48 0c3-3-4 1 0 0zm94 0c0-1-1 1 0 0zm-138 0c-2-1-1 0 0 0zm137 0c-4-3-4 0 0 0zm-139-1c-2 0 0 1 0 0zm4 0c-1 0 0 1 0 0zm2 0c-1-2-1 1 0 0zm1-1c-4-2 2 2 0 0zM82 58c-2 0 0 1 0 0zm233-1c8-6-12 4 0 0zm91 1c-1-1-1 1 0 0zm-125-2c-4-1-4 2 0 0zM90 56c-10 0-7 1 0 0zm197 0c5-3-8 1 0 0zm19-1c6-4-7 2 0 0zm-15 0c-3-2-8-1 0 0zm3-1c5-6-9 1 0 0zm5-1c0-1-1 1 0 0zm-81-1c3-6-2 1 0 0zm225 0c-1 0 0 1 0 0zm1 0c-1-1 0 1 0 0zm-224-1c-1-1-1 2 0 0zm75-1c-1-3-4 3 0 0zm-128 0c-2-3-2 2 0 0zm-36-2c-1 0-1 1 0 0zm164 0c0-2-2 1 0 0zm-106-1c-1-1-1 2 0 0zm25 0c-2-3-2 3 0 0zm-2-3s1 1 0 0zm-59-1c-2-3-2 3 0 0zm200 0c17-8-13 2 0 0zm6-2c-1 0 0 1 0 0zm-180 0c-4-3 3 3 0 0zm179 0c-1 0-1 1 0 0zm0 0c0-1 0 0 0 0zm-193-1c0-1-1 1 0 0zm136-6c-1 0 0 1 0 0zm12 286c1-2 2 2 0 0zm-247 0c0-1 0 0 0 0zm41 0c0-1 0 0 0 0zm-29-1c1-2 1 2 0 0zm92-1c0-1 0 1 0 0zm119 0c1 0 0 1 0 0zm-159-1c0-1 0 1 0 0zm4 0c0-1 0 1 0 0zm-54-1c1-1 0 2 0 0zm253 0c0-2 2 1 0 0zm-203 0c0-2 1 0 0 0zm156-1c-2-14 13 5 0 0zm51 1c2-2 1 1 0 0zm29-1c1-2 1 1 0 0zm-290 0c1-3 3 2 0 0zm25 0c-2-5 4-3 0 0zm234-1c1-1 0 2 0 0zm34-1c-4-10 8 4 0 0zm-3 1c0-2 2 0 0 0zm-2-1c1-3 1 3 0 0zm-208 0c1-1 0 1 0 0zm-12-1c-1-1 2 1 0 0zm-69-1s0 1 0 0zm298 0c-1-4 2 2 0 0zm-277 0c0-1 0 1 0 0zm14 0c1-1 1 1 0 0zm236 0c1-2 1 1 0 0zm-211 0c0-1 0 1 0 0zm184 0c-3-4 4-1 0 0zm-253-1c1-2 0 2 0 0zm75 1c1-1 0 0 0 0zm241-1c0-1 0 2 0 0zm-261-1c1-6 2 4 0 0zm23 1c1-3 1 1 0 0zm5 0c1-1 1 1 0 0zm18-1c1-1 1 2 0 0zm134 0c1-2 3 2 0 0zm46 0c1 0 1 2 0 0zm-244 0c2-6 3 4 0 0zm40 0c0-2 0 2 0 0zm10 0c1-1 1 1 0 0zm180 0c0-4 4 1 0 0zm-205 0c0-2 3 2 0 0zm198-1c1-1 1 2 0 0zm37 0c1-1 1 2 0 0zm-35 0s0 1 0 0zm-4 0c0-1 0 1 0 0zm11 0c1-4 4 2 0 0zm15 0c1-1 1 1 0 0zm-189-1c0-1 0 1 0 0zm1 0c0-1 0 1 0 0zm158 0c1-1 0 1 0 0zm8 0c0-1 0 1 0 0zm-184-1c-4-2 4-2 0 0zm187 1c1-1 1 0 0 0zm11 0c1-1 1 0 0 0zm-273-1c1 0 0 1 0 0zm20 0s0 1 0 0zm19 0c-1-4 5 1 0 0zm159 0c1 0 0 1 0 0zm60 0c0-1 1 1 0 0zm-206-1c0-4 3 3 0 0zm-5 0c1-1 1 1 0 0zm32 0c1-1 0 1 0 0zm186 0c0-2 3 1 0 0zm-8 0c1 0 0 1 0 0zm4 0s0 1 0 0zm-259 0c-2-3 4-2 0 0zm16 0c-1-3 3-1 0 0zm3 0c-1-4 2 0 0 0zm231 0c-1-2 1 0 0 0zm11 0c1-2 1 1 0 0zm12 0c1-1 0 0 0 0zm4 0c0-1 0 0 0 0zm-1-1s0 1 0 0zm-25 0c0-4 4 1 0 0zm21 0c2-2 2 1 0 0zm-239-1s0 1 0 0zm77 1c0-1 0 0 0 0zm151-1c-1-4 9 1 0 0zm19 0s0 1 0 0zm-237 0c0-2 1 1 0 0zm39 0c0-1 0 0 0 0zm1 0c0-3 3 1 0 0zm-89-1c0-3 1 1 0 0zm97 0c1-1 1 2 0 0zm6 0c1-1 1 1 0 0zm169 0c1-1 1 1 0 0zm-239 0c1-2 1 1 0 0zm52 0c1-2 1 0 0 0zm75 0c-1-1 4-3 0 0zm49 0c1-1 0 1 0 0zm53 0c0-3 2 1 0 0zm56 0c0-2 2 2 0 0zm-266-1c1-4 4 3 0 0zm19 0c1 0 0 2 0 0zm24 0c-1-5 4 2 0 0zm103 1c-1-4 3 0 0 0zm88 0c1-1 0 0 0 0zm-260-1s0 1 0 0zm14 0c4-6 6-4 0 0zm32 0c-1-3 5-1 0 0zm9 0s0 1 0 0zm169 0c1 0 1 1 0 0zm9 0c1-1 1 1 0 0zm5 0c1-1 0 1 0 0zm-209-1c1-1 1 2 0 0zm195 0c-9-2 4-5 0 0zm-2 0c-1-1-1 0 0 0zm17 1c0-1 0 0 0 0zm13 0c-1-4 4 1 0 0zm-209-2c3-7 2 5 0 0zm37 1c0-2 2 1 0 0zm57 0c1 0 1 1 0 0zm-166 0c0-1 0 1 0 0zm70 0c1-2 1 1 0 0zm215 0c0-2 2 2 0 0zm-193 0c-1-2 1 0 0 0zm173-1c1-3 1 2 0 0zm18 1c1-2 1 1 0 0zm8 0c2-1 3 0 0 0zm-189-1c1-3 2 2 0 0zm69 0c0-1 0 1 0 0zm89 0c1 0 1 1 0 0zm2 0c3-3 1 2 0 0zm-169 0c1-1 1 1 0 0zm11 0c0-2 2 1 0 0zm21 0c-1-2 2 0 0 0zm72 0c1-1 0 1 0 0zm5 0c-3-4 4 0 0 0zm10 0c1-1 1 1 0 0zm100 0c0-2 1 1 0 0zm-64 0c1-1 1 0 0 0zm43 0c1-2 1 1 0 0zm-269-1c2-1 1 2 0 0zm42 0c0-3 2 2 0 0zm104 0c1-1 1 1 0 0zm92 0c1 0 0 1 0 0zm20 0c1-1 1 1 0 0zm-172 0c2-1 1 1 0 0zm23 0c1-1 1 1 0 0zm133-1c2-3 1 3 0 0zm4 1c-3-6 7 1 0 0zm20 0c2-6 2 2 0 0zm21 0c-1-3 3 2 0 0zm-301 0c-1-6 4-1 0 0zm61 0c1-1 0 0 0 0zm101 0c1-1 1 0 0 0zm87 0c0-3 2 0 0 0zm2 0c0-1 0 0 0 0zm55 0c0-1 0 0 0 0zm-265-1c-1-5 6 1 0 0zm76 0c0-1 1 1 0 0zm2 0c-3 0 0-5 1-4 4 1-1 3-1 4zm2-2c-1-1-1 1 0 0zm4 2c-5-1-2-4 2 0h-2zm9 0s0 1 0 0zm136 0c1-1 1 1 0 0zm2 0c1-4 1 3 0 0zm7 0c1 0 1 1 0 0zm-255 0c1-5 2 3 0 0zm72 0c1 0 0 1 0 0zm25 0c0-2 1 1 0 0zm105 0c-1-4 3 0 0 0zm49 0c-1-7 6 2 0 0zm-210 0c0-1 0 0 0 0zm16 0c1-1 0 0 0 0zm48 0c1-1 1 0 0 0zm1 0c1-1 1 0 0 0zm4 0c4-3 3 0 0 0zm25 0c-3-1 4-2 0 0zm58 0c1-1 1 0 0 0zm22 0c0-1 0 0 0 0zm-111-1c1-1 1 1 0 0zm73 0s0 1 0 0zm65 0c1-1 2 2 0 0zm13 0c1-1 2 1 0 0zm3 0c1-2 2 2 0 0zm20 0s0 1 0 0zm-243 0c0-2 3 1 0 0zm61 0s0 1 0 0zm9 0c0-2 1 2 0 0zm17 0c0-3 2 2 0 0zm118 0c0-4 7-3 0 0zm-64 0c0-1 0 0 0 0zm-63-1c1 0 1 1 0 0zm21 0c0-2 2 2 0 0zm34 0c0-1 0 1 0 0zm125 0c1 0 0 1 0 0zm-144 0c1-1 1 0 0 0zm24 0c0-1 0 0 0 0zm19 0c1-1 1 1 0 0zm19 0c1-1 1 1 0 0zm-245 0c0-1 0 0 0 0zm52-1c-5-7 7-2 0 0zm14 1c1-1 1 0 0 0zm63 0c1-1 0 0 0 0zm6-1c1-1 1 1 0 0zm9 0c2-1 1 1 0 0zm3 1c0-1 0 0 0 0zm10-1c0-1 0 2 0 0zm58 0c1-1 1 2 0 0zm50 1c2-1 1 0 0 0zm7-1c1-2 2 2 0 0zm5 0c1-1 1 2 0 0zm2 0c-3-3 4-1 0 0zm-91 0c1 0 1 1 0 0zm95 0c1-2 1 2 0 0zm-265 0c1-1 0 1 0 0zm8-1c1-5 2 4 0 0zm16 1c3-2-2 1 0 0zm19 0c1-1 1 1 0 0zm85 0c0-1 0 1 0 0zm45 0c1-1 0 1 0 0zm91 0c1-1 1 1 0 0zm27 0c0-1 0 1 0 0zm-280-1c2-1 1 2 0 0zm104 1c0-1 0 0 0 0zm44-1c-2-1 0-7 1-3 2 0 4-1 1 2-3 0 4 4-2 1zm108 0c1-2 0 0 0 0zm-249 0c1-3 3 1 0 0zm94 0c1 0 1 1 0 0zm17 0c1 0 0 1 0 0zm29 0c0-2 1 0 0 0zm33 0c4-2 0 2 0 0zm15 0c-1-2 2 1 0 0zm64 0c2-5 1 4 0 0zm-232 0c1-1 0 1 0 0zm6 0c2-1 2 1 0 0zm5 0c0-1 0 1 0 0zm115 0c1-1 1 1 0 0zm37 0c-6-2 6-3 0 0zm54 0c1-1 1 1 0 0zm17 0c-1-4 2 2 0 0zm-260-1c3-4 9 0 1 1zm100 1c1-1 1 0 0 0zm20 0c0-1 0 0 0 0zm-83-1c1 0 0 1 0 0zm83 0c1 0 0 1 0 0zm-86 0c0-1 0 1 0 0zm101 0c1-2 2 1 0 0zm38 0c-1-2 2 0 0 0zm37 0c1-2 2 1 0 0zm-164 0c1-1 0 0 0 0zm122 0c1-2 1 1 0 0zm81 0c0-1 0 0 0 0zm5-1c-1-2 2 1 0 0zm-237 0c1-3 0 3 0 0zm102 0c1 0 1 1 0 0zm65 0c-1-3 2 3 0 0zm3 0s0 1 0 0zm-72 0c1 0 0 1 0 0zm47 0c-3-4 4-2 3-7 7 2 3 2 1 2 1 1-2 5-4 5zm2-2c0-2-2 1 0 0zm0-1c-1-1 0 0 0 0zm6-2c-1-1-1 0 0 0zm5 5c0-5 12-8 8-2-7-2-3 3-8 2zm-140 0c1-1 0 0 0 0zm1 0c3-1 1 0 0 0zm3-1c0-3 5 4 0 0zm79 1c-1-2 2 0 0 0zm61 0c1-1 0 0 0 0zm14 0c1-1 1 0 0 0zm84 0c0-1 0 0 0 0zm-152-1s0 1 0 0zm23 0s0 1 0 0zm23 0c-1-4 4 1 0 0zm73 0c1-1 1 1 0 0zm34 0c1-1-1 2 0 0zm-282-1c2-8 5 3 0 0zm22 1c1 0 1 1 0 0zm15 0c-1-3 3 0 0 0zm2-1c2-3 0 3 0 0zm9 1c2-1 2 1 0 0zm75 0c1 0 0 1 0 0zm1 0c1 0 0 1 0 0zm9 0c2-3 2 2 0 0zm15 0s0 1 0 0zm212 0c2 0 0 1 0 0zm2 0c1 0 0 1 0 0zm1 0c1 0 1 1 0 0zm-226 0c1-1 0 1 0 0zm-124-1c1-5 3 3 0 0zm32 0c1-1 0 2 0 0zm-17 0c-1-4 4-1 0 0zm167 0c1 0 1 1 0 0zm86 0c1 0 0 1 0 0zm-260 0c0-2 1 1 0 0zm101 0c-1-2 2 1 0 0zm32 0c0-1 0 0 0 0zm8 0c0-1 0 0 0 0zm27 0c1-1 1 1 0 0zm185 0c0-1 0 0 0 0zm-368-1s0 1 0 0zm31 0c0-1 0 1 0 0zm10 0c2-2 1 2 0 0zm76 0c1 0 0 1 0 0zm41 0c1-5 3 0 0 0zm-132 0s0 1 0 0zm102 0c1-1 1 1 0 0zm56 0c2-1 1 1 0 0zm-181 0c1-3-1-2 0 0zm31 0c1-1 1 0 0 0zm13 0c1-1 0 0 0 0zm-43-1c1-1 2 0 0 0zm112 0c1-1 1 2 0 0zm14 0s0 1 0 0zm12 1c1-1 1 0 0 0zm14-1c1 0 0 1 0 0zm-181 0c2-1 1 1 0 0zm62 0c1 0 0 1 0 0zm3 0c0-2 1 1 0 0zm77 0c1 0 1 1 0 0zm34 0c1 0 1 1 0 0zm18 0c1 0 0 1 0 0zm-143 0c0-1 0 0 0 0zm118 0c0-1 0 0 0 0zm-113-1c1-2 1 1 0 0zm326 0c1 0 0 1 0 0zm-340-1c1-9 21 0 6 1-2-1-5 1-6-1zm20 0c0-4 3 3 0 0zm123 1c0-1 0 0 0 0zm1-1c1-1 2 1 0 0zm-176 0c1-2 0 2 0 0zm2 0c0-1 1 1 0 0zm53 0c1-1 1 1 0 0zm132 0s0 1 0 0zm10 0c-1-3 4 1 0 0zm175 0c4 0 1 1 0 0zm-394 0c1-1 1 1 0 0zm27 0c1-3 1 1 0 0zm381 0c-2-4 3 0 0 0zm-214 0c1-2 2 0 0 0zm23-1c0-4 2 3 0 0zm-165 0c2-3 2 2 0 0zm25 0c0-1 0 1 0 0zm-31 0c1-2 1 1 0 0zm353-1s0 1 0 0zm7 0c2 0 0 1 0 0zm-379 0c1-1 2 1 0 0zm17-1c2-3 6 1 0 0zm170 1c1-1 1 1 0 0zm-184-1c1-1 1 1 0 0zm-44 0s0 1 0 0zm43 0c1 0 1 1 0 0zm42 0c1-1 1 1 0 0zm142 0c1 0 0 1 0 0zm-137-1c1 0 1 1 0 0zm117 0c0-4 3 2 0 0zm-140 0c1-3-1-1 0 0zm138 0c0-1 0 0 0 0zm13 0c1-1 1 0 0 0zm-129-1c1-1 1 2 0 0zm-41 0c-1-3 1 1 0 0zm5 0c0-3 2 1 0 0zm27-1c-1-4 3 3 0 0zm10 1c0-2 2 0 0 0zm-54 0c1-1 1 0 0 0zm183-1c1-1 1 1 0 0zm-157-1c0-1 0 2 0 0zm-38 0c0-3 3 2 0 0zm34 0c0-1 0 1 0 0zm-24 0c0-1 0 0 0 0zm40 0c1-1 0 1 0 0zm-73 0c0-1 0 0 0 0zm409-1c2 0 1 1 0 0zm-195 0c-3-2 3 0 0 0zm-156-1c1-1 1 2 0 0zm368 0c0-1 1 1 0 0zm-400-1s0 1 0 0zm417 0s0 1 0 0zm-364 0c0-1 0 1 0 0zm327 0c1-1 0 0 0 0zm1 0c2-1 1 0 0 0zm2 0c2-1 0 0 0 0zm21 0c1-2 1 1 0 0zm21 0c0-1 0 0 0 0zm-15-1c-1-3 3 2 0 0zm-8 0c0-1 0 1 0 0zm-401-1c-1-2 2 1 0 0zm39 0c1-1 1 2 0 0zm359 1c0-1 0 0 0 0zm-347-1c0-1 0 1 0 0zm373-1c-1-3 4 3 0 0zm-455-1c-6-4 3 0 0 0zm411 0c1-1 0 1 0 0zm28-1c1 0 1 1 0 0zm-28 0c1-1 1 0 0 0zm2 0c0-1 0 0 0 0zm40-1c-1-2 2 2 0 0zm-39 0c2-2 2 2 0 0zm23 0c0-1 2 1 0 0zm3 0c-1-2 1 0 0 0zm-14 0c2-2 0 0 0 0zm32-1c1-4 4 3 0 0zm-51 0c1-1 1 1 0 0zm6-1c-2-2 4 1 0 0zm21 0c1-2 1 2 0 0zm-24 0c2-1 0 0 0 0zm25-1c1-2 1 1 0 0zm31 0c-2-3 3 0 0 0zm-41-1c1-4 4 2 0 0zm3-1c1-1 1 1 0 0zm-401-1c0-1 0 0 0 0zm399-2c1-1 1 0 0 0zm-3-1c1-1 0 1 0 0zm26-1c1-2 1 1 0 0zm9-3c0-4 4 2 0 0zm5 0c1-1 1 0 0 0zm-435-1c1-1 1 1 0 0zm429-1c-1-2 1 0 0 0zm40-1c-8-4-28-16-20-25-7-4 0-17 4-6 3 11 10 15 12 27 1 1 10 5 4 4zm-478-1c0-1 0 1 0 0zm430 0c1-1 1 1 0 0zm6 0c1-2 1 1 0 0zm-439-1c1-1 1 1 0 0zm427 0c1-1 1 1 0 0zm2 0c0-3 2 2 0 0zm14 0c1-1 1 0 0 0zm-425-1c1 0 0 1 0 0zm413 0c0-3 3 2 0 0zm14 0c1 0 1 1 0 0zm-19-1s0 1 0 0zm4 0c1 0 1 1 0 0zm3 0c0-1 0 1 0 0zm7 0c0-1 0 0 0 0zm5 0c0-2 1 1 0 0zm-22-1c1 0 1 1 0 0zm4 0c2 0 0 1 0 0zm7 0c-2-2 3 2 0 0zm4 0c1-1 1 1 0 0zm10 0s0 1 0 0zm-487 0c1 0 0 1 0 0zm53 0c-2-6 7 1 0 0zm418 0c1 0 1 1 0 0zm-6 0c-6-3 5-2 0 0zm11-1c1-2 0 2 0 0zm4 0c1-1 1 2 0 0zm-12 0c0-3 5-1 0 0zm2 0c1-2 1 2 0 0zm14 0c1-1 0 1 0 0zm-6 0c0-1 0 0 0 0zm4 0c0-1 0 1 0 0zm1 0c0-1 0 0 0 0zm-9-1c1-3 2 2 0 0zm6 0c0-1 0 0 0 0zm-14 0c1-1 0 0 0 0zm5-1c0-1 0 2 0 0zm1 1c1-1 0 0 0 0zm-468-1c2-2 4 2 0 0zm28 0c0-2 2 1 0 0zm446 0c-2-2 2 0 0 0zm15 0c1-2 1 1 0 0zm-24-1c0-1 1 2 0 0zm3 1c2-5 7 1 0 0zm-5-1c-1-2 2 1 0 0zm15 0c1-1 1 1 0 0zm-431-1c1 0 1 1 0 0zm418 0s0 1 0 0zm2 0c1 0 0 1 0 0zm6 0c2-1 1 1 0 0zm6 0s0 1 0 0zm9 0c1-2 2 0 0 0zm-447-1c0-4 3 3 0 0zm439 1c1-1 1 1 0 0zm-478 0c0-1 0 0 0 0zm475 0c1-2 1 1 0 0zm5-1c-1-2 5-4 0 0zm1-3c-1 0-1 1 0 0zm-459 3c1-1 1 1 0 0zm449 0s0 1 0 0zm1 0c1 0 1 1 0 0zm4 0c2-2 1 1 0 0zm-3-1c3-6 10 0 0 0zm-2 0c1 0 1 1 0 0zm18 0c1-1 1 1 0 0zm-21 0c2-1 2 1 0 0zm1-1c1-1 0 1 0 0zm-448-1c1 0 0 1 0 0zm448 0c-1-2 4 1 0 0zm-439 0c2-3 1 1 0 0zm-21 0c0-1 0 0 0 0zm467 0c1-1 1 0 0 0zm-9-2c0-2 2 2 0 0zm2 0c0-1 1 1 0 0zm-2-1c1-1 2 2 0 0zm4 0c0-3 2 3 0 0zm9 1c1-1 0 0 0 0zm-4-1c1-1 2 2 0 0zm-3 0c0-1 0 1 0 0zm-7-1c3-1 1 0 0 0zm8 1c0-1 0 0 0 0zm1 0c0-1 0 0 0 0zm-437-1c2-2 4 2 0 0zm445 0c0-1 0 1 0 0zm-8 0c0-1 0 0 0 0zm-5-1c2-2 2 0 0 0zm-3 0c0-2 1 1 0 0zm-3 0c1-2 1 1 0 0zm-422-1c2 0 0 1 0 0zm430 0c1 0 1 1 0 0zm3 0c0-1 2 1 0 0zm2 0s0 1 0 0zm5 0c1-1 1 1 0 0zm-444 0c-8-6-19-5-25-8 11 0 31-5 35 4-2 3-6 4-10 4zm431 0c1-1 1 1 0 0zm3-1c1 0 0 1 0 0zm-2 0c-8-1 6-2 0 0zm18 0c-2-2 3-1 0 0zm-15-1c-1-2 2 1 0 0zm-422 0s0 1 0 0zm429-1c1-2 1 3 0 0zm2 1c0-1 0 1 0 0zm-14-1c4-2-2 2 0 0zm9 0c2-4 1 3 0 0zm0 0c0-1 0 0 0 0zm10 0c1-1 1 1 0 0zm-471 0c1-1 0 0 0 0zm457-1c-1-3 4 1 0 0zm2 0c1-1 0 2 0 0zm-425 0c0-1 0 1 0 0zm4 0c2-1 1 1 0 0zm416-1c1-1 2 1 0 0zm2 0s0 1 0 0zm18 0c1-1 1 1 0 0zm-8 0c1-1 1 1 0 0zm-5 0c0-2 1 1 0 0zm-471-1c1-2 1 2 0 0zm47 0c1-1 1 1 0 0zm430 0c1 0 0 1 0 0zm-12 0c2-1 2 1 0 0zm3-1c-2-6 5 1 0 0zm1-2c-1-1-1 1 0 0zm3 2c0-2 3 1 0 0zm-7 0s0 1 0 0zm16 0c1 0 0 1 0 0zm-18-1c0-2 2 1 0 0zm1 0c3-3 3 1 0 0zm12 0c1 0 1 1 0 0zm-435-1c1 0 0 1 0 0zm430 0s0 1 0 0zm-441 0s0 1 0 0zm447 0c0-1 0 0 0 0zm-4-1s0 1 0 0zm3 0s0 1 0 0zm-454 0c-18-5 7-5 0 0zm9-1c0-6 2 3 0 0zm438 0c-9-6 4-3 0 0zm-3 0c-2-3 3 2 0 0zm9 0s0 1 0 0zm-438 0c1-2 1 1 0 0zm434 0c-2-4 3 1 0 0zm5-1c1-1 1 2 0 0zm5 0c1 0 1 1 0 0zm-468 0c2-1 2 1 0 0zm470 0c0-1 0 0 0 0zm-488-1c1 0 0 1 0 0zm480 0c0-1 0 1 0 0zm-11 0c1-1 0 1 0 0zm34 0c-2-4 4 0 0 0zm-27-1c0-3 2 1 0 0zm2 0c2-1 2 1 0 0zm2 0c1-1 1 1 0 0zm-12 0c1-1 1 1 0 0zm-459 0c-1-2 3 1 0 0zm5-1c3-1 2 1 0 0zm6 0c-3-7 20 3 0 0zm447 0s0 1 0 0zm11 0c1 0 1 1 0 0zm1 0c0-2 1 1 0 0zm17-2c2-1 1-1 0 0zm3-1c0-2 1 1 0 0zm-8-1c1-1 2 2 0 0zm4 0s0 1 0 0zm3 0c1-1 0 2 0 0zm9 0c-6 1 0-10-3-10 4 2 0-11 9-8 1 6-4 12-5 18h-1zm1-9c0-1 0 0 0 0zm-23 9c0-1 0 0 0 0zm-21-1c1-2 1 1 0 0zm-467-1c1-1 1 1 0 0zm471-1c1-6 1 5 0 0zm28 1c-4-8 13 0 0 0zm-472 0c2-1 1 0 0 0zm-19-1s0 1 0 0zm15 0c2-1 2 1 0 0zm3 0c1 0 0 1 0 0zm0 0c1 0 1 1 0 0zm449 0s0 1 0 0zM8 211c-1-2 2 1 0 0zm484-1c1-1 2 2 0 0zm6 0s0 1 0 0zm-6-1c0-2 2 2 0 0zm-4-1c1-1 2 2 0 0zm8 0s0 1 0 0zm-9-1c-9-19 8 2 0 0zm4 1c1-1 1 0 0 0zm8 0c0-1 0 0 0 0zm-6-1c1-1 1 2 0 0zm-465 0c2-2 2 1 0 0zm471 0c1 0 0 1 0 0zm-4 0c1-1 1 0 0 0zm25 0c-1-3 3 1 0 0zm-29-1c1 0 1 2 0 0zm6 0c1-1 1 1 0 0zm-4 0c1-1 1 1 0 0zm1-1c0-1 0 1 0 0zm5-1s0 1 0 0zm-473-1c2-3 2 2 0 0zm466 1c0-1 0 0 0 0zm3-1c-1-3 3 1 0 0zm-11 0c1-1 1 0 0 0zm16-1c0-1 0 1 0 0zm9-1c1-1 1 1 0 0zm-18-2s0 1 0 0zm-2 0c0-2 1 1 0 0zm29 0s0 1 0 0zm-25 0c1-2 0 1 0 0zm16 0c1-1 1 1 0 0zm-19-1c1-1 1 2 0 0zm33 0c1 0 1 1 0 0zm-479 0c1 0 1 1 0 0zm455 0c-3-5 5 1 0 0zm-456 0c1-1 0 1 0 0zm446 0c0-3 3-1 0 0zm-460-1c-2-10 7 2 0 0zm9-1c-2-7 9 3 0 0zm473 1c1-1 0 0 0 0zm-6-1c1-3 2 1 0 0zm4 0c1-1 0 0 0 0zm3 0c0-1 0 0 0 0zm15-1s0 1 0 0zm-23 0c1-1 1 1 0 0zm12 0c0-2 1 1 0 0zm-463-1c1-2 1 2 0 0zm-5-1c1-1 1 2 0 0zm12 1c1-2 1 1 0 0zm456-1c0-2 0 3 0 0zm-464 0c1 0 1 1 0 0zm-15 0c-16-3-1-9 2-1l-1 1h-1zm22 0c0-1 0 0 0 0zm439 0c1-1 0 0 0 0zm10-1c1-2 1 2 0 0zm-449-1c1-1 1 1 0 0zm431 0c-2-2 4 0 0 0zm3 0c0-7 5 2 0 0zm3-1c1-1 0 0 0 0zm-4-1s0 1 0 0zm-2 0c1-1 1 1 0 0zm-439-1s0 1 0 0zm-13 0c0-1 0 1 0 0zm459 0c0-2 2 0 0 0zm14 0c1-1 0 1 0 0zm-461 0c1-1 1 0 0 0zm12-1c3 0 3 1 0 0zm439 0c-1-4 4 1 0 0zm-16 0c-1-4 2 2 0 0zm8-1c1-1 1 1 0 0zm-1 0c1-1 0 1 0 0zm-431 0c-2-3 1 1 0 0zm0 0c1-1 1 0 0 0zm429 0c1-1 0 0 0 0zm-5-1c1 0 1 1 0 0zm15 0c1 0 1 1 0 0zm-8-1c1-1 0 1 0 0zm-471-1c1 0 0 1 0 0zm28 0c3-1-1 1 0 0zm-33-2c1-2 3 2 0 0zm24 0c-3-2 6 2 0 0zm-35 0c1-1 1 0 0 0zm33 0c0-2 2 1 0 0zm6 0c1-1 1 0 0 0zm11 0c0-1 0 0 0 0zm-2-1c-6-5 1-6 1 0zm423 0c-1-2 2 0 0 0zm-426-1c0-2 1 1 0 0zm-20 0c-1-2 5 1 0 0zm-2-1c0-2 2 1 0 0zm-8 0c2 0 1 1 0 0zm25 0c0-2 3 2 0 0zm432 0s0 1 0 0zm-6 0c2 0 0 1 0 0zm-445 0c0-1 0 0 0 0zm450 0c1-1 0 0 0 0zm9-1c-1-6 4 1 0 0zm1-1s0 1 0 0zm-442 1s0 1 0 0zm448 0c0-1 0 1 0 0zm-435-1c0-4 4 4 0 0zm434 0c1-5 3 0 0 0zm10 0c1 0 1 1 0 0zm-26-1c-1-5 5 1 0 0zm18 0c1-1 1 0 0 0zm-435 0c-1-2 2 0 0 0zm-40-2c0-1 3 1 0 0zm476 0c0-1 2 1 0 0zm-17 0c0-2 1 1 0 0zM0 172c1-1 1 2 0 0zm481 0c1-3 1 3 0 0zm5 0c2-1 2 1 0 0zm2-1c-6-14 7 1 0 0zm-471 0c3-1 0 1 0 0zm462 0c0-4 2 2 0 0zM3 171c1-1 0 0 0 0zm16 0c1-1 1 0 0 0zm9 0c0-2 0 1 0 0zm-8-1c1-1 1 1 0 0zm490 0c1-1 1 0 0 0zm-475-1c1-1 1 1 0 0zm442 0c1-1 1 1 0 0zm-453 0c1-1 1 1 0 0zm13-1c0-1 0 1 0 0zm447-3c1-2 0 1 0 0zm-461 0c1-3 2 1 0 0zm465-1c0-1 0 1 0 0zm-4-1c1-1 1 0 0 0zm3-1c0-2 2 1 0 0zm3-1c1-4 4 2 0 0zm-470-1c1 0 1 1 0 0zm3-1c1 0 0 1 0 0zm0 0c0-1 0 0 0 0zm472-1c-1-3 2 1 0 0zm-481-1c0-4 5 3 0 0zm484-1c0-1 2 1 0 0zm21-2s0 1 0 0zm3-1c1-1 0 0 0 0zm-501-1c1 0 0 1 0 0zm461 0c1-1 2 1 0 0zm13 0s0 1 0 0zm-479 0c2-1 3 1 0 0zm-13-3c-1-2 2 1 0 0zm9 0c1-1 1 1 0 0zm20-1c0-1 1 1 0 0zm467-5c-2-6 6 1 0 0zM7 143c1 0 1 1 0 0zm32 0c1 0 1 1 0 0zm463-1c0-2 2 2 0 0zM5 142c1 0 1 1 0 0zm0-1c-6-3 5 2 0 0zm22 0c1 0 1 1 0 0zm6 0c-12-6 5 0 0 0zm-15-1c-2-3 5 2 0 0zm29 0c-1-6 5 2 0 0zm-46-1c-3-2 5 2 0 0zm41 1c1-2 1 1 0 0zm4 0c0-1 0 0 0 0zm6-2s0 1 0 0zm448 0c1 0 0 1 0 0zm1 0c1-1 1 1 0 0zm-474-1c0-1 0 1 0 0zm21 0c0-2 1 0 0 0zm1 0c1-1 1 0 0 0zm-7-1s0 1 0 0zm479 0c1-5 4 3 0 0zm-24 0s0 1 0 0zm-445-1c1 0 1 1 0 0zm-1-1c-3-4 4 3 0 0zm-22 1c1-1 0 0 0 0zm14-1c-4-3 4 1 0 0zm5 1c1-1 1 0 0 0zm-45-1c-4-1 3 1 0 0zm58 0c1-1 0 1 0 0zm-61-1c1-1 1 2 0 0zm38 0s0 2 0 0zm27 1c0-1 0 0 0 0zm-13-2c0-1 0 0 0 0zm8 0c2-1 1 0 0 0zm2-1s0 1 0 0zm434-1s0 1 0 0zm-436 0c1-1 1 1 0 0zm-25-1c-3-2 4 1 0 0zm459 0s0 1 0 0zm1 0c1 0 0 1 0 0zm-436 0c0-1 0 0 0 0zm-21-1c1-1 1 1 0 0zm18 0c1-1 1 0 0 0zm-2-1s0 1 0 0zm-28 0c1-1 0 0 0 0zm26-1c0-1 1 2 0 0zm-42 0s0 1 0 0zm31 0c1 0 0 1 0 0zm-36 0c1-1 1 1 0 0zm31 0c2-1-1 0 0 0zm15 0c-3-5 5-2 0 0zm4-1c-1-3 2 2 0 0zm-20-1c3-3 1 2 0 0zm-11-1c1 0 1 1 0 0zm24-1s0 1 0 0zm15 0c-3-2 3 1 0 0zm-43 0c1-3 3 2 0 0zm-14-1c1 0 0 1 0 0zm30 0c0-1 0 0 0 0zm7-1c-2-4 4 3 0 0zm17 0c-1-3 3 2 0 0zm452 0s0 1 0 0zm-483 0c0-1 0 0 0 0zm472-1c-4-9 10 1 0 0zm4 1c1-1 1 0 0 0zm-444-1c0-2 1 1 0 0zm-24-1s0 1 0 0zm-15 0c1-1 0 1 0 0zm27-2c-1-2 1 2 0 0zm-5 0c0-3 3 2 0 0zm-8 0c1-1 0 0 0 0zm10-1c1-1 1 1 0 0zm12 0c-1-2 2 1 0 0zm-9 0c0-1 0 0 0 0zm0-1c-5-4 5 2 0 0zm4 0c2-1-1 1 0 0zm2-1c0-1 0 0 0 0zm-1-1c0-1 0 1 0 0zm-7 0c0-1 0 0 0 0zm14 0c0-2 2 0 0 0zm-15-1c1-1 1 1 0 0zm2 0c0-1 0 1 0 0zm-30-1c-2-3 4 3 0 0zm6 0c-2-2 3 3 0 0zm18 0c1-1 1 2 0 0zm20 0s0 1 0 0zm-61 0c1 0 1 1 0 0zm50 0c2-4 1 2 0 0zm5 0c-4-2 4-1 0 0zm-14-1c1-2 1 1 0 0zm11-1c1-3 2 1 0 0zm-2-1c0-1 0 1 0 0zm-4 0c1 0 0 1 0 0zm5-1c0-2 1 2 0 0zm3 1c0-1 0 0 0 0zm430 0c1-1 1 0 0 0zm-425-1c0-1 0 1 0 0zm-17-1c1-1 1 2 0 0zm452 0c0-1 1 1 0 0zm-456-1s0 1 0 0zm9 0c0-1 0 1 0 0zm-35-1c0-1 0 1 0 0zm43 0c1-1 1 1 0 0zm-21 0c0-1 0 0 0 0zm8 0c1-2 1 1 0 0zm462-1c1-1 0 0 0 0zm-478-1s0 1 0 0zm12 0c0-1 0 1 0 0zm-16-2c1 0 0 1 0 0zm18 0c2-1 1 1 0 0zm451 0c1 0 0 1 0 0zM14 98c-1-1 3 2 0 0zm24 0c0-1 0 0 0 0zm5 0c-3-2 6 1 0 0zm-28-1c1 0 1 1 0 0zm25-1s0 1 0 0zm15 0c1 0 0 1 0 0zm-2-1s0 1 0 0zm1 0c1 0 1 1 0 0zm455 0c1-2 1 2 0 0zM41 94c-1-5 3 2 0 0zm2 1c0-1 0 0 0 0zm-9-2c1-1 2 2 0 0zm10 0c1-1 1 1 0 0zm7 0c0-1 0 1 0 0zm2 0c0-1 0 1 0 0zm-37 0c0-3 2 0 0 0zm12-1c1-1 1 1 0 0zm10 0c1-2 2 2 0 0zm461 0c1-1 0 1 0 0zM29 91c1 0 1 2 0 0zm21 1c5-2 0-1 0 0zm-21-2c1-1 1 2 0 0zm18 0c0-2 3 2 0 0zm4 0c1 0 1 1 0 0zm-16-1c2 0 1 1 0 0zm5-1s0 1 0 0zm6 0s0 1 0 0zm-5 0c1 0 0 1 0 0zm-7-2c-3-4 5 2 0 0zm-18-1s0 1 0 0zm468 0c-1-2-2 0 0 0zM19 84c0-1 0 1 0 0zm17 0c2-1 1 1 0 0zm439 0c0-1 0 1 0 0zm4-1c1-1 0 2 0 0zm10 0c1-1 1 0 0 0zm24 0c0-1 0 0 0 0zm-44-1c1 0 1 1 0 0zm29 0c1 0 1 1 0 0zm16-1c3-2 3 0 0 0zM46 81c1-1 1 1 0 0zm459-1c1 0 0 1 0 0zm-25 0c-1-3-2 0 0 0zm36 0c1 0 1 1 0 0zM28 80c-5-5 3 0 0 0zm477-1c1 0 0 1 0 0zm6-1c1-1 0 0 0 0zm1-1c3-2-1 1 0 0zM37 76c1 0 1 1 0 0zm452 0c1-1 1 1 0 0zM13 76c1-1 1 1 0 0zm16 0c-1-2 1 1 0 0zm461 0c1-1 1 0 0 0zM26 75c0-2 1 1 0 0zm449-1c1 0 1 1 0 0zm1-2c0-2 2 0 0 0zM57 71c0-1 0 1 0 0zm8-3c-8 0-10-9 0-4 3 0 3 5 0 4zm-29-1c0-1 1 1 0 0zm12-2c-1-1 2 2 0 0zm-17-1c1 0 1 1 0 0zm52 0c2 0 0 1 0 0zm-38-1c1 0 0 1 0 0zm34-1c1 0 0 1 0 0zm166-3c-1-2 2 1 0 0zM76 59c1-1 1 1 0 0zm170 0c1-1 1 1 0 0zm-8 0c1-1 0 0 0 0zM75 58s0 1 0 0zm164 0c-3-1 6 1 0 0zm170 0c0-1 0 1 0 0zM76 58c-1-1 3 1 0 0zm-2 0c1-1 0 0 0 0zm164-1c1-1 0 1 0 0zm170 0c1-1 1 0 0 0zm76 0c1-1 0 0 0 0zM39 56s0 1 0 0zm35 0c0-1 2 2 0 0zm334 0s0 1 0 0zM71 56c1-1 1 0 0 0zm2 0c1-1 0 0 0 0zm7 0c0-1 0 0 0 0zm173 0c1-1 1 1 0 0zm163-1c0-1 0 0 0 0zM37 55c1-1 1 0 0 0zm191-1c3-1-1 2 0 0zm35 0s0 1 0 0zm139 0c1 0 1 1 0 0zM83 54c4-1 1 0 0 0zm150 0c-1-5 5-1 0 0zm167 0c1-1 1 1 0 0zm-146-1c1 0 1 1 0 0zm-25 0c1 0 1 1 0 0zM85 53c1-1 0 1 0 0zm163 0c1-1 0 1 0 0zm66-1c4-6 0 3 0 0zM78 52s0 1 0 0zm322 1c-1-2 2 0 0 0zM39 52s0 1 0 0zm191 0c-1-2 2 1 0 0zm1 0c1-1 1 1 0 0zm42 0c1-2 0 1 0 0zm121 0c1-1 1 0 0 0zm10-1c-15-10 12 0 0 0zm24 1c0-1 0 0 0 0zm-199-1c2-1 1 1 0 0zm172 0c1 0 0 1 0 0zm45 0c1-1 1 1 0 0zm-215 0c1-2 0 1 0 0zm1 0c0-1 0 0 0 0zM75 50s0 1 0 0zm239 0c1 0 0 1 0 0zm137 0c1 0 0 1 0 0zm18 0c1-1 1 1 0 0zm-157 0c1-1 1 1 0 0zm-38 0c0-1 0 0 0 0zm-41-1c0-3 4 1 0 0zM85 49s0 1 0 0zm1 0c2 0 0 1 0 0zm2 0c1 0 0 1 0 0zm3-1c1-1 1 1 0 0zm130 0c2-2 4 2 0 0zm-21 0c1-2 1 1 0 0zm112 0c0-2 1 0 0 0zm-107 0c1-1 1 0 0 0zm84-1s0 1 0 0zm-73-1c2-5 2 2 0 0zm22 1c0-1 0 0 0 0zm-132-1c-8-11 10-14 9-3-10-5-10-4-2 3h-7zm96 0c1-2 2 1 0 0zm4 0c0-1 0 1 0 0zm17 0c0-1 0 0 0 0zm6 0c1-1 0 1 0 0zm3 0c1-3 2 0 0 0zm-71 0c0-1 0 0 0 0zm31 0c1-1 1 0 0 0zm126 0c2-4 1 1 0 0zm-87-1c1-1 0 1 0 0zM36 45c0-1 0 1 0 0zm25-1c-4-9 5 3 0 0zm163 1c0-1 0 1 0 0zm-29-1c0-1 0 2 0 0zm-82 0c1-1 1 1 0 0zm115 0c1-1 0 2 0 0zm63 0c1-2 0 1 0 0zM35 44c1-1 1 1 0 0zm164 0c0-1 0 1 0 0zm37 0c1-1 1 1 0 0zm-34 0c-1-7 5 0 0 0zm36 0c1-1 1 0 0 0zm43 0c0-2 0 1 0 0zm136 0c1-1 1 0 0 0zM51 43c-3-6 4 3 0 0zm196 0c1 0 1 1 0 0zm41 0c3-6 1 3 0 0zm-83 0c1-1 1 1 0 0zm25 0c1-1 1 1 0 0zm-31-1s0 1 0 0zm1-1c1-5 2 4 0 0zm110 1c1-1 1 0 0 0zm11 0c1 0 0 1 0 0zm-116 0c0-1 0 1 0 0zm24 0s0 1 0 0zm-40 0c1-1 1 0 0 0zm37 0c1-3 2 0 0 0zm26 0c1-1 1 0 0 0zm10 0c1-1 1 0 0 0zm-67-1c0-1 1 2 0 0zm2 0c1 0 1 1 0 0zm1 0c0-2 0 1 0 0zm4 0c-5 0-12-15-1-8 1 6 3 3 1 8zm27 0c-1-3-2 0 0 0zm-108 0c-2-2 2 1 0 0zm7 0c1-1 1 0 0 0zm245 0c1-1 1 0 0 0zm4 0c1-1 0 0 0 0zm19 0c1-2 0 1 0 0zm-192-1c0-4 1 1 0 0zm26 0c0-1 0 1 0 0zm184 0c1 0 0 1 0 0zM94 40c0-1 0 1 0 0zm98 0c0-3 3 2 0 0zm2 0c1-1 1 1 0 0zm1 0c0-4 3 2 0 0zm202 0c1 0 1 1 0 0zm-208 0c0-2 2 1 0 0zm47 0c1-1 1 0 0 0zm136 0c1-1 0 0 0 0zm39 0c0-1 0 1 0 0zm-283 0c0-1 0 0 0 0zm26-1c-1-1 1 1 0 0zm2 1c1-1 1 0 0 0zm75-1c1-1-1 2 0 0zm105 0s0 1 0 0zm62 0c1-1 2 2 0 0zm-279 0s0 1 0 0zm80 0c1 0 1 1 0 0zm46 0c2-1 2 0 0 0zm123 0s0 1 0 0zM49 39c-1-3 3 0 0 0zm76 0c-1-2 3 2 0 0zm3 0c0-1 0 1 0 0zm242 0c2-1 1 0 0 0zm16 0c0-1 0 0 0 0zM58 38c-3-5 5 2 0 0zm133 0c1 0 1 1 0 0zm3 0c0-1 0 1 0 0zm54 0c-5-5 7-2 0 0zm-96-1c-1-8 6 4 0 0zm-25-1c-4-12 2 4 0 0zm106 2c0-1 0 0 0 0zm162-1c2 0 1 2 0 0zm1 1c1-1 1 0 0 0zm-274-1c1-1 1 1 0 0zm116 0c1-1 1 1 0 0zm151 0c-4-1 6 1 0 0zm-185-1c-1-5 4 3 0 0zm27 0c1-1-1 2 0 0zm8 1c1-1 1 0 0 0zm66 0c0-1 0 0 0 0zm81 0c1-1 0 0 0 0zm-256-1c0-1 1 1 0 0zm56 0c0-1 0 1 0 0zm7 0s0 1 0 0zm37 0c1-1 0 1 0 0zm150 0c2-1 3 1 0 0zm3 0c2 0 0 1 0 0zm-211 0c0-1 0 1 0 0zm35 0c0-1 0 1 0 0zm15 0c0-1 0 1 0 0zm-40-1c-1-3 2 2 0 0zm49 1c1-2 0 1 0 0zm75 0c0-1 0 0 0 0zm2-1c1-7 10-9 0 0zm-131 0c-2-4 4 2 0 0zm156 0c1-2 0 1 0 0zm55-1c2-2 0 2 0 0zm21 1c1-2 0 1 0 0zm-178-1c1 0 1 1 0 0zm2 0s0 1 0 0zm-19 0c0-2 0 1 0 0zm15 0c1-2 2-1 0 0zm-7 0c1-2 1 1 0 0zm135-1c4-1-2 2 0 0zm-202 0c-15-7 6-6 0 0zm29 0c1-1 0 2 0 0zm22 0c1-1 1 1 0 0zm-36 0c-6-7 7 1 0 0zm46-1c2-2 0 3 0 0zm1 1c1-2 1 1 0 0zm1 0c1-2-1-1 0 0zm7 0c0-2 2 0 0 0zm165 0s0 1 0 0zm22 0s0 1 0 0zm-208-1c2-5 3 0 0 0zm9 1c1-1 1 0 0 0zm1 0c2-6 3-2 0 0zm-86-2c-4-6 6 5 0 0zm80 1c1-1 1 1 0 0zm-20 0c1-1 1 0 0 0zm24 0c1-1 1 1 0 0zm-37-1c-3-6 5 3 0 0zm3 0c0-1 1 1 0 0zm25-1c1-3 2 4 0 0zm14 0c4-7 1 3 0 0zm-4 0c1 0 1 1 0 0zm9 0c0-2 1 0 0 0zm-59 0c-9-8-19-19-4-6 0 2 14 5 4 6zm113 0c1-2 1 1 0 0zM68 29c-8-11 2-1 0 0zm91 1c0-3 2 2 0 0zm154 0c1-1 0 1 0 0zm-121 0c1-1 1 0 0 0zm114 0c1-1 1 0 0 0zm-163-1c-6-6 5 0 0 0zm54 0c0-1 0 1 0 0zm4 0c-2-3 2 0 0 0zm115 0c1-1 1 0 0 0zm58-1c5-3-1 3 0 0zm-206 0c0-2 1 2 0 0zm6 0s0 1 0 0zm49 0s0 1 0 0zm78 0c2-7 6-3 0 0zm64 0c2-3 2 0 0 0zm-190-1c0-1 0 1 0 0zm31 0s0 1 0 0zm5 0c0-1 0 1 0 0zm12 0c1-4 2-3 0 0zM42 27c0-1 0 0 0 0zm98-1c-1-2 1 1 0 0zm12-1c-5-5 4 0 0 0zm68 0c1 0 0 2 0 0zm99 1c1-2-1 1 0 0zm-125-1c1 0 1 1 0 0zm11 0c0-1 0 1 0 0zm111 0c1-1 0 1 0 0zm99 0c2-1 1 1 0 0zm-229-1c-3-8 7 2 0 0zm14 0c1-4 1 2 0 0zm28 0c1-1 2 0 0 0zm-32 0c1-1 0 1 0 0zm12 0s0 1 0 0zm20 0s0 1 0 0zm-92 0c0-1 0 0 0 0zm233-1c0-1 1 1 0 0zM22 23c1-1 1 1 0 0zm38 0c0-1 0 1 0 0zm169 0c1-1 1 0 0 0zm146 0c2-2 2 0 0 0zm-145-2c0-1 0 2 0 0zm163 1c1-3 2-1 0 0zm-199-1s0 1 0 0zm31 0s0 1 0 0zm12 0c1-2-2 2 0 0zm-81 0c0-1 0 1 0 0zm251-1c9-7 9-2 0 0zM63 20s0 1 0 0zm167 0c1-2 2-1 0 0zm150 0c0-1 0 1 0 0zm-232 0c-1-2 2 0 0 0zm78-1c0-1 0 1 0 0zm66 0c1-4 2-2 0 0zm103 0c2-1 1 1 0 0zm-213-1c1-1 0 2 0 0zm12 1c-2-5 4 0 0 0zm-48-1c1-1 2 1 0 0zm56 0c1-1 1 1 0 0zm8 0s0 1 0 0zm16 0c0-1 0 1 0 0zm12 0c1 0 1 1 0 0zm1 0c0-1 0 0 0 0zM61 16c-7-12 3 3 0 0zm264 1c2-3 3 0 0 0zm-152 0c1-1 1 0 0 0zm12 0c0-1 0 0 0 0zm25-1c1-1 1 2 0 0zm9 0s0 1 0 0zm29 0s0 1 0 0zm-83 0c0-1 0 0 0 0zm62-1s0 1 0 0zm22 0c1-1 0 1 0 0zm-36 0c0-1 0 0 0 0zm-41-1c0-1 0 0 0 0zm62 0c0-1 0 0 0 0zm-85 0c-1-2 2 0 0 0zm78-1c1-1 0 2 0 0zM78 12c0-2 2 2 0 0zm75 0c-3-9 8 3 0 0zm36 1c1-1 1 0 0 0zm62-1s0 1 0 0zm-109-1c1-3 2 2 0 0zm84 0c0-1 0 1 0 0zm44 0c1-1 1 0 0 0zM147 9s0 1 0 0zm37 0s0 1 0 0zm199-1c4-3-2 3 0 0zM162 8c-1-2 2 2 0 0zm7 0s0 1 0 0zm168 0c1-1 1 1 0 0zm-75-1c0-1 0 0 0 0zm-87-1s0 1 0 0zm87 0c1-1 1 1 0 0zm148-1c0-1 1 2 0 0zM242 5c1-1 1 1 0 0zM88 4c1-2 1 1 0 0zm301 0c0-1 0 0 0 0zM226 3c1-2 0 1 0 0zm14 0c1-1 1 1 0 0zm85-1c1 0 1 1 0 0zm32-2c1 0 1 1 0 0z"/></svg>