<svg xmlns="http://www.w3.org/2000/svg" viewBox="0 0 580 275"
   preserveAspectRatio="none"><path fill="#8485b5" d="M398 276c1-2 1 1 0 0zm-11-3c-5-10 7-1 0 0zm55-5c-21-14 3-11 0 0zm-44-1c0-1 0 1 0 0zm46-1c-4-4-3-16 2-3-1 1-3 2-2 3zm-47 0c0-2 0 1 0 0zm23-1c-3-6 2 0 0 0zm76-1c-15-11 4-7 0 0zm-89-1c0-1 0 1 0 0zm-232-2c1-1-1 2 0 0zm230 0c-4-7 5 2 0 0zm10 0c-4-13-15 2-12-13 14-5-10-2-5-13-5-19-8 5-4 6-1 13-5-6-12-2-8-1-2-6-8-8-6-6-2-2-4-6-1 3-11 11-14 8-1-8-9 0-11 1-6 6-7 2-14 3-7 4-13 13-9 4 8-10-14 3-14-2 7-5 13-10 8-10-15 12-33 14-52 10-12 2-36 3-41-5l-23 5c-11 1-25-1-19-11 0-2 5-7-3-2 3-8-5 3-3 3-5 1-1-6-9 0 1 7 8-6 5 6 4-4 2 9 1 8-3 11-1-9-5-5-2 5-10 3-13 8-8-7 14-2 11-13-6 0-2-4-8-1-2 3-11 16-9 9 5-7-7 2-6-4 0-2 3-8-7-3-12 4 3-8 4-11 8-6-5 1 0-4-2-3-9 5-12 1-2 3-6-2-10 1-2 4-12 6-11 5-5-3-18 11-15 8-4-1 9-14-8-6-14 5 2-5 5-9-5 1 3-3-11-5-8-4-19 2-14-3-4-3-11-4-13-7-7-3 8-3-5-4 0-3 4-4-1-7 1 0 16-1 7-4 0-2-12-2-12-3s11-1 0-3c-7 3 17-6 3-4-9-1 11-1 3-2 13-1 2-3 11-5-5 0 5-2-8-2-16 2 6-1 0-2 5 1-11-2 5-1-11-4 12-2-5-4 7-2-17-2-8-4 0-2-2-2-12-3 21 2 15-6-2-3-14 1 28-11 5-10-6-7-19-2-21-7 12 0 29-3 36 4 11-6-13-14-20-10 14 0-21-2-4-2 13 0-7-1 9-2 12 1 10-6 10-5-4 0 17-5 5-6 12-1 17-3 1-3-19 4 14-8 5-8 14 0-10-6-14-5 0-3 19-3 22-4-10-4-42 7-16-2 19-4-24 5-4-2-8 1-18 3-14-2 5-4-3-1-4-4 4 1-17-10 0-14 13-3 16-8 21-7 2-2-1-9-1-11-1-8 28-3 23-6 1-3 30 5 33-5 7 5 8-7 6 5 3-5 1 3 5 0 1 8 1-5 4 2-1-5 1 0 4-2 2 5-5 1 2 4 1 3 8-1 1-1-4-4 7 1 7 0 11 2 16 3 10-3 2-1-9-5-13-8 4-5 29 16 33 6-6-11 2 4 2-1-5-4-6-9-1-14-2 5 0 7 1 5 0 4 5-1 4 5 6 2-2-7 4-4-2-2 0 6 2 4 0-1 6 4 6 1 5 2-5-5 4 0 1-4 4 4 2-5 2-7 3 2 8 5-8-1-5 2 0 2 9 3-6-5 7 0-4-2 8 0-6-3 10 1-17-11-5-9 9 0 9 16 16 4 14 1-3 14 14 8-5-6-5-12-6-17 11 10 11-8 18 6-11 8 3 3 6 6 7 12 8 4 8-3-13-9 6 1 9-4 4 8 14-4 8 4 9-10 0 3 5 1 7-5-3 5 2 2 0 6 18-6 6-9 5-11 7 11 12-1-10 13-9 9 0 6 6-6 28-28 10-9-5 6 19-17 4 0-8 13 10-7 10-12 5-2 11-9 6 1 2-1-5 11 2 1 9-1-3 14-7 16-8 4-6 7-2 5-6 9 2-7 5-2 1-8 18-3 14-15 0-3 10-3 7 3 2 1 3 9 0 12-4-2-1-13-6-7-4 4-17 6-13 9 4-3 0 8 9-2-10 9 3 4 6 1-2 6 0 4 5 2-8 11 3 0 8-1 8 8 2 2 4 2 14 0 7 2 1-3 7 0 10-2 13-6s18 13 6 1c3 1 10 4 14 4-9 5 16 0 21 0 16-3 3 1 23-2 16 3 35 3 51 8 9-7-3 5 6 4l10-6c10-9 0 9 7 0 10-3-5 3 3 7 8 2 13-2 12 4 4-2 1 18 8 6-1 0 7 21 16 12-6-11 22-27 13-18-8 5-20 32-13 31 5-6 1-13 9-17 12-3-3 12 7 9 8-5 27-14 18-3-10 6-23 18-28 24 5 0-8 18-14 9-10 6 5 9 12 4 9 1 28-3 30 0-9 0-17 7-10 14-3 8-23 15-19 15 16-6-12 5 7 0-2 1 14-3 5 4 2-1-2 4 5 2-5 2 18 10 0 16-12 3-15 7-20 6-3 2 2 12 1 11 9-5-6 6-5 5 4 9-2 13-7 14 0 8 5-2 11 0 7-8 0-13 10-11 0 6 4 3 1 11 5 1-5 11-3 1 1-9-5 0-10 2-11 1-5 6-7 4 0 2 6 5-5 1 11 12 14-6 18 12 15 23-15 20-27 13-9-2-6 0-8 2-12-6-15-8-26-6-1 6-6 4-14 7s-15-2-22-6c-16-4-5 1-4 9-5 7 7-4 9 10-8-4-14-7-4 3-7-4 8 20-3 4-12-2-14-17-11-23-9-17 2 12-9-3 4-2-17-2-13 6 0 9 13 15 8 23 1 6-2 6-3 9zm-260-18c-1-1 0 1 0 0zm249-1c-2-1-1 3 0 0zm-80 0c-1-1-2 1 0 0zm-2 0c-1-1-1 1 0 0zm-172-1c0-2-2 2 0 0zm174 0c-1-1-1 0 0 0zm67-1c-1-1-1 1 0 0zm-247-1c-1-1-1 1 0 0zm166 0c0-1 0 0 0 0zm2-1c-1-1-2 2 0 0zm-163 0c-1-1-1 0 0 0zm3-1c1-5-4 3 0 0zm161 0s0 1 0 0zm-165 0c-1-1-1 1 0 0zm1-1c-1-1-1 2 0 0zm188 0c-1 0 0 1 0 0zm6 0c0-1-3 2 0 0zm1-1c-1-1 0 1 0 0zm-175-1c1-6-5 3 0 0zm-17-1c-1-1-1 1 0 0zm-20 0c-1-1-1 0 0 0zm13-1c2-6-2 2 0 0zm-12 0c0-1-2 2 0 0zm32 0c-1 0-1 1 0 0zm-72-1c-1-1-2 1 0 0zm42 0c-1 0-1 1 0 0zm-44 0c-1 0-1 1 0 0zm42 0c-1 0-1 1 0 0zm186 0c-1 0-1 1 0 0zm-160 0c-1-1-1 0 0 0zm203-1c8-2 4-6 1-1-2-1-2 3-1 1zm4-2c0-1 0 1 0 0zm-231 1c6-5 8-9 0 0zm4-4c0-1 0 0 0 0zm1-1s0 1 0 0zm-47 6c-1-1-1 0 0 0zm271-1c-2 0-1 2 0 0zm-199 0c-1 0 0 1 0 0zm153 0c-1 0-1 1 0 0zm3 0c0-1-1 1 0 0zm41-1c3-4-5 3 0 0zm6 0c-1-1-1 1 0 0zm-289 0c0-1 0 0 0 0zm2-1c-1-1-2 2 0 0zm279 0c-1 0 0 1 0 0zm1 0c-1-1-1 1 0 0zm-279-1s0 1 0 0zm86 0c0-1 0 1 0 0zm201 0c-1-1-1 1 0 0zm0 0c0-1 0 0 0 0zm-263-1c-1 0 0 1 0 0zm6 0c0-1-3 2 0 0zm28 0s0 1 0 0zm225 0c-1 0-1 1 0 0zm-1 0c0-1 0 0 0 0zm3-1c0 1 1 1 0 0zm-1 0c-1 0-1 1 0 0zm-253 0c-1 0 0 1 0 0zm257 0c-1 0-1 1 0 0zm-232-1c-1 1 0 1 0 0zm2 0c3-3-5 3 0 0zm2 0c-1 0-1 1 0 0zm226 0c0-1-1 2 0 0zm-186 0c1-2-2 1 0 0zm320 0c-2-1 1 1 0 0zm6 0c-3-2 3 1 0 0zm-365 0c0-1 0 0 0 0zm0-1c0-1 0 0 0 0zm356 0c-1-1 0 1 0 0zm-411-2c-1 0-1 1 0 0zm38 0c6-6-7-1 0 0zm5-1c7-4-5 2 0 0zm2 0c1-1-1 1 0 0zm9 0c3-4-5 1 0 0zm-2 0c-1-2-1 1 0 0zm-50-1c0-1-2 1 0 0zm37 0c0-1-5 0 0 0zm1 0c0-1-1 1 0 0zm6 0c-1 0 0 1 0 0zm-4 0c1-2-2 1 0 0zm5-1c-1-1-1 1 0 0zm0 0s0 1 0 0zm-46 0c0-1-1 1 0 0zm-14-4c-1-1 0 2 0 0zm-5-2c-2 0-2 2 0 0zm-2 0c0-1-1 1 0 0zm-7-2c-1-1 0 1 0 0zm473-2c-5-2-5 1 0 0zm-3 0c1-1 1 0 0 0zm0-1c-1 0-1 1 0 0zm-476-1c-1-1 0 0 0 0zm-4-1c-1-1 0 1 0 0zm3 0c-2 0-1 1 0 0zm-3-1c-3-1-1 0 0 0zm477-1c-1-1 0 1 0 0zm-475 0c-1-1-1 0 0 0zm474-2c-1-2 0 1 0 0zm-474-1c-8-3-5 1 0 0zm-5-2c-2-1-1 2 0 0zm477 0s0 1 0 0zm-2 0c-3-2 2 1 0 0zm-473 0c0-1 0 0 0 0zm1-1c-1-1-1 0 0 0zm-2-1c-1-1 0 2 0 0zm483 0c-1-1 0 1 0 0zm2 0c-1-2-1 1 0 0zm-8 0c0-1 0 0 0 0zm1-5c-3 0-4 5 0 0zm-469 2c-1-1-1 0 0 0zm-2-1c-1-1-1 0 0 0zm1 0c0-1 0 0 0 0zm-2-1c-1 0 0 1 0 0zm469 0c-1-3-3 2 0 0zm-48-1c-2-1-2 1 0 0zm42 0c-3-3-3-1 0 0zm5 0c0-1 0 0 0 0zm-472-1c0-1 0 1 0 0zm468 0c0-1 0 0 0 0zm-469-1s0 1 0 0zm1 0s0 1 0 0zm5-1c-2 0-1 2 0 0zm460 1c-4-3-5 0 0 0zm-2-1s0 1 0 0zm-466 1c-1-1 0 0 0 0zm6 0c-1-1 0 0 0 0zm3 0c-1-1-1 0 0 0zm1 0c12 1-1-4 0 0zm6-1c-2-3-3 1 0 0zm3 0c7-2-7 0 0 0zm479 0c1-6-5 3 0 0zm-498 0c-2-1-3 1 0 0zm6 0c-1-1 0 0 0 0zm11 0c0-2-1 1 0 0zm443-2c-2-1-1 1 0 0zm3 0c-2-2-5 1 0 0zm-443 0c-1 0-1 1 0 0zm474-1c-1 0 0 1 0 0zm-498-1c-1 0-1 1 0 0zm2 0c-1 0 0 1 0 0zm465 0c-2 0 0 1 0 0zm-464 0c1-1-1 1 0 0zm4 0c-1-1-1 1 0 0zm457 0c0-1 0 0 0 0zm-462-3s0 1 0 0zm2-3c-2 0 0 1 0 0zm7-1c-1 0 0 1 0 0zm1-1c-1-1 0 0 0 0zm3-1c-1 0-1 1 0 0zm-4-3c-4-1-5 1 0 0zm-4-1s0 1 0 0zm2-1c-1 0 0 1 0 0zm4-3c-1-1-1 0 0 0zm464-18s0 1 0 0zm5 0c17-1-15-4-2 0h2zm9 0c18-4-7-1 0 0zm14 0c0-1-1 1 0 0zm3-1c3-2-5 2 0 0zm2-1c-1-1-1 1 0 0zm-10 0c-1-1 0 0 0 0zm3-1c-3-1-3 1 0 0zm-29 0c-5-4-4-1 0 0zm32-1c-1-1-5 2 0 0zm-29 0c-2-1-2 0 0 0zm31-1c-1-1 0 1 0 0zm-39-1c-1-1 0 2 0 0zm30-4c-2-1-2 1 0 0zm1-1s0 1 0 0zm-9-1c-5-1-4 1 0 0zm-495-5c-1-1 0 0 0 0zm-7-2c9-2-4 2-5 0zm0-1c4 0-2 1 0 0zm-2 0c-1 0 0 1 0 0zm496-17c0-1-1 1 0 0zm-4-2c-1-1 0 1 0 0zm2-3c2-3-4 1 0 0zm3-4c-2-2-1 2 0 0zm-476 0c-1 0-1 1 0 0zm7 0c-6-3-10 2 0 0zm471-1c15-2 9-14-2-12-1 2 5 3 4 5-3 5 7 5-5 3-2 0 0 6 3 4zm-1-2c2-2 1 1 0 0zm9-3s0 1 0 0zm-3-1c1 0 1 1 0 0zm-1 0c1-1 1 0 0 0zm-473 6c-2-1-1 1 0 0zm-8-2c12 1-10-1 0 0zm1 0c-1 0 0 1 0 0zm468-1c-1-1 0 0 0 0zm2-2c5-2-5 1 0 0zM57 94c-1 0-1 1 0 0zm-5-1c-2-1-3 2 0 0zm-15-2c-1-1-1 1 0 0zm2-1c-2 0 0 1 0 0zm-10-5c-1 0 0 1 0 0zm3-1c2-1 0 0 0 0zm4-1c-4-2-3 1 0 0zm5-1c18-3-11 1 0 0zm-4 0c-1 0 0 1 0 0zm-10 0c0-1 0 1 0 0zm511-1c-2-2-1 3 0 0zM29 81c4-2-4 2 0 0zm20 0c-1-1-1 0 0 0zm-17-1c-1-1-1 1 0 0zm518-2c12-7-8-5 0 0zm6-3c2-4-4 2 0 0zm-23-4c-1-1-1 0 0 0zm-59-9c-2-1 0 0 0 0zm34-1c0-7-5 2 0 0zm-6 0c0-1 0 0 0 0zm7-1c-1-1 0 1 0 0zm-22-1c-1 0 0 1 0 0zm5 0c0-1-1 1 0 0zm-21-1c-2-1-1 1 0 0zm10 0c0-1-1 0 0 0zm25-2c-2-1 0 3 0 0zm3 1c2-4-4 3 0 0zm-6 0c-1 0 0 1 0 0zm-27 0c-1-1-1 0 0 0zm-4-1s0 1 0 0zm28 0c-1 0 1 1 0 0zm7 0s1 1 0 0zm-29 0c-2-1-2 0 0 0zm20-1s0 1 0 0zm4-1c2-3-5-11-8-3 7-1 6-1 8 3zm-3 0c-3-2-2 2 0 0zm7 0c-1 0-1 1 0 0zm2 0c8-3-5-2 0 0zm-371-2c-1 0 0 1 0 0zm28 0c-1 0 0 1 0 0zm-47 0c0-1 0 1 0 0zm4 0c0-1 0 1 0 0zm-6-1c-2-1-2 2 0 0zm7 1c0-1 0 0 0 0zm20-1c-3-1-3 2 0 0zm348 0c0-1-1 2 0 0zm-378 0c-1-2-1 2 0 0zm62 0c-1 0 0 1 0 0zm-66 0c-2-2-1 1 0 0zm391 0c-1-1-1 1 0 0zm4-1c1-4-4 2 0 0zm-391-1c-3-3-1 3 0 0zm54 1c0-1 0 1 0 0zm316 0c-2-1-2 1 0 0zm-379-1s1 1 0 0zm69 0s0 1 0 0zm337-1c0-3-4 3 0 0zm-408 1c-1 0-1 1 0 0zm65 0s0 1 0 0zm309 0c0-1 0 0 0 0zm12-1c-1 0 0 1 0 0zm-388 0c0-1-2 2 0 0zm4 0s0 1 0 0zm4 0c-1 0-1 1 0 0zm376 0c-1-2-1 2 0 0zm6 0c-2-6-4 1 0 0zm12 0c2-3-4 3 0 0zM97 48c2-5-4 0 0 0zm375 0c-1 0 0 1 0 0zm10-1c-1 0 1 2 0 0zm10 1c-1-1 0 1 0 0zm-321 0c0-1 0 0 0 0zm73-1c0-8-7 2 0 0zm233 0c-1 0 1 2 0 0zm9-1c-3-4-2 5 0 0zm19 2c-1-3-1 1 0 0zm-366-1s0 1 0 0zm0 0c-1 0-1 1 0 0zm27 0c1-2-2 1 0 0zm305 0c-1-2-1 2 0 0zm-371-1c-2-1 1 3 0 0zm60 1c0-1 0 0 0 0zm324 0c2-7-5-1 0 0zm10-1c4-6-7 2 0 0zm-326 0c-1-1 1 1 0 0zm25 0s0 1 0 0zm-34 0c-1-1-1 0 0 0zm12 0c-1-1 0 1 0 0zm2 0c0-2-1 1 0 0zm2 0c-1-1-1 0 0 0zm330 0c0-1 0 0 0 0zm-344-1c-2-1-2 2 0 0zm3 1c0-1 0 0 0 0zm28 0c-1-1 0 0 0 0zm5 0c0-1 0 0 0 0zm-23-1c-1 0 0 1 0 0zm15 0s0 1 0 0zm11 0s0 1 0 0zm291 0c-2-2-1 2 0 0zm-315 0c-1 0-1 0 0 0zm2 0c-1-1 0 1 0 0zm13 0c-1-1-1 1 0 0zm6 0c-1-1-1 1 0 0zm291 0c6-10-6-1 0 0zm-302 0c0-1 0 0 0 0zm3-1c-3-1-2 2 0 0zm3 0c0-1-1 2 0 0zm-32 0s0 1 0 0zm2 0c-2-2 1 2 0 0zm23 0c0-1 0 1 0 0zm261 0c-1-1-1 1 0 0zm-269-1c-2 0 0 2 0 0zm5 1c-6-3 1 1 0 0zm18 0c-1-1 0 1 0 0zm-35-1c1-3 0 0-3-2-4 0 1 3 3 2zm18 0c-2-1 0 2 0 0zm-10 0c-1 0-1 1 0 0zm162 0c-1 0 0 1 0 0zm119 0c-2-1-1 1 0 0zm-284 0c0-1-1 1 0 0zm14 0c-1-2 0 1 0 0zm267-1c-9-1-4 2 1 1h-1zm24 1c-1-3 1-2 0 0zm-293 0c0-3-2 1 0 0zm22-1c-7-6-2 2 0 0zm67 0c3-5-5 4 0 0zm184 0c-7-2-3 1 0 0zm-285 0c-1-1-1 1 0 0zm96 0c-1-1-1 1 0 0zm-91 0c-1-1 0 0 0 0zm4 0c0-1 0 0 0 0zm293-1c-2-1-2 2 0 0zm-313 0c-2-2 0 2 0 0zm193 0c-5-2-5 2 0 0zm96 0s0 1 0 0zm44-1c-1-5-1 4 0 0zm-24 0c-2-1-1 2 0 0zm1 1c-1-1 0 0 0 0zm-271-1s0 1 0 0zm96-1c8-5 20-12 12-15-4 3-9 9-14 16zm-136 0s0 1 0 0zm231 0c-3-2 1 2 0 0zm-231 0c-1-2-1 1 0 0zm3 0c-1-1-1 0 0 0zm230-1c-5-3 0 3 0 0zm-229 0c-2-1 0 2 0 0zm300 1c-1-1-1 0 0 0zm-233-1c0-4-2 2 0 0zm262 0s0 1 0 0zm-336-1s0 1 0 0zm227 0c-3-1-3 1 0 0zm-26-1c-11-1-8 2 0 0zm17 1c-4-4-5-1 0 0zm-217 0c-1-1-1 0 0 0zm203-1c-3-1-2 2 0 0zm16 1c-1-2-1 0 0 0zm-1-1c-2-2-2 0 0 0zm-218-1c-1-1-1 0 0 0zm86-1c-1-1-1 2 0 0zm116 0c0-1-1 1 0 0zm-80-1c-1-1-1 1 0 0zm88-3c0-1 0 0 0 0zm-56-2c-1-1 0 2 0 0zm-9-1c5-6-2 4-2 1zm9-2c-1 0-1 1 0 0zm2-1c2-5-4 3 0 0zm-4 0c-1-1-1 1 0 0zm2 0s0 1 0 0zm0-1c-1-1-1 2 0 0zm0-2c2-7-8 1 0 0zm19 0c2-6-4 4 0 0zm-17-1c0-1 0 2 0 0zm-6 0c8-10-3-5 0 0zm19-2s1 1 0 0zm-14 0c-1-3-1 1 0 0zm-6-1c0-1 0 0 0 0zm7-5c-1-5-1 5 0 0zm83 248c-2-5 4 3 0 0zm-225 0c-6-4-3-12 2-3 1 1-2 5-2 3zm285 1c-7-7-7-15 0-3 1 1 3 3 0 3zm-27-1s0 1 0 0zm-8-2c1 0 0 1 0 0zm6 0c-1-1 1 0 0 0zm4 0c1-1 1 1 0 0zm-19-1c1-2 1 2 0 0zm-14 0c-10-12 9-4 0 0zm29-2c-14-20 16 2 0 0zm65 0c-7-8 9-1 0 0zm-319 0c2-1 1 1 0 0zm213-2c-3-8 8 0 0 0zm-19-1c0-1 0 1 0 0zm24 0c-1-4 3 1 0 0zm-213 0c-1-6 2 0 0 0zm141-1c1 0 1 1 0 0zm-138 0c0-3 2 1 0 0zm280-1s0 1 0 0zm2 0s0 1 0 0zm24 0c-9 2-15-19-2-4-2-4 6 7 2 4zm-88 0c-3-8 7-1 0 0zm64-1c-1-2 3 1 0 0zm-291 0c1-1 1 1 0 0zm211 0c1 0 1 1 0 0zm-236 0c1-9 3 1 0 0zm249 0s0 1 0 0zm62-2c-9-8 6-3 2 2l-2-2zm-281 1c0-4 3 2 0 0zm145 0c0-1 0 1 0 0zm32 0c0-5 3 2 0 0zm125 0c0-1 0 1 0 0zm-116 0c-2-7 8 0 0 0zm87 0s0 1 0 0zm15 0c0-1 1 1 0 0zm4-1c-3-4 5 3 0 0zm8 0c-3-4 4 2 0 0zm-95-1c-2-5 3-3 0 0zm50 0c0-6 4 3 0 0zm30 0c-5-7 6 3 0 0zm-321 0c0-1 0 1 0 0zm39 0c1-3 2 1 0 0zm197-1c-2-6 4 1 0 0zm2 1c0-1 0 0 0 0zm93 0c1-1 1 0 0 0zm-71-1c0-1 0 1 0 0zm-81 0c0-1 0 0 0 0zm60-1c0-1 0 2 0 0zm-61 0c1 0 1 1 0 0zm151 0c-1-2 2 2 0 0zm-291 0c1-1 1 1 0 0zm191 0c1-2 1 0 0 0zm-191-1c1-8 10 1 0 0zm243 0c0-3 2 2 0 0zm-96 0c0-1 0 1 0 0zm-183-1c1-1 0 2 0 0zm176 1c0-1 0 0 0 0zm63 0c0-1 0 0 0 0zm-7-1c1 0 1 1 0 0zm-9-1c5-5-5 4 0 0zm18 1c0-1 0 0 0 0zm-76-1c1 0 1 1 0 0zm12 0c4-2 4 0 0 0zm50 0c1 0 1 1 0 0zm2 0c1-1 1 0 0 0zm-284 0c1-1 1 0 0 0zm296 0c0-1 0 0 0 0zm39-1c-2-2 2 2 0 0zm-46 0c-1-4 3 2 0 0zm-177 0c1-1 1 0 0 0zm123-1c1 0 1 1 0 0zm136 0c0-1 1 1 0 0zm-318 0c1-1 1 0 0 0zm200 0c4-4 7 0 0 0zm3-1s0 1 0 0zm29 1c0-1 0 0 0 0zm-232 0c0-1 0 0 0 0zm1-1c1-1 1 1 0 0zm179 1c0-1 0 0 0 0zm47-1c1-1-1 2 0 0zm-31 0s0 1 0 0zm33 0c1-1 1 1 0 0zm8 0c1-1 1 0 0 0zm104 0c-16-8 8-1 0 0zm-391-1c0-1 0 2 0 0zm277 0c1-1 1 2 0 0zm51 1c0-4 4 1 0 0zm77-1c0-1 1 2 0 0zm-71 0c-1-1 1 0 0 0zm-285 0c1-1 1 1 0 0zm223 0c0-1 0 1 0 0zm87 0c1-1 1 1 0 0zm-80-1c6-7 3-2 0 0zm5 1c0-1 0 0 0 0zm-234-1s0 1 0 0zm319 0c-9-6 4-3 0 0zm-240 0c1-2 1 1 0 0zm-90 0c0-1 0 0 0 0zm223-1c2 0 0-1 0 0zm-131 0c1-1 1 1 0 0zm203 0c1-1 1 1 0 0zm-116 0c1-1 1 1 0 0zm61-1c1-1-1 1 0 0zm54 0c-2-5 3 2 0 0zm62 0c2-1 0-1 0 0zm-397 0c0-1 0 0 0 0zm408-1c-15-10 10-1 0 0zm-409 0c1 0 1 1 0 0zm224 0c1-1 1 1 0 0zm116 0c-2-5 4 2 0 0zm75 0c1-1 2 2 0 0zm-361 0c1-1 1 0 0 0zm172 0c1-2 1 0 0 0zm54 0c1-1 1 0 0 0zm2 0c1-1 1 0 0 0zm-1-1c1 0 1 1 0 0zm108 0c1-1 0 1 0 0zm-382 0s0 1 0 0zm276 0s0 1 0 0zm-283 0c0-1 0 0 0 0zm227-1c1 0 1 1 0 0zm54 0c9-4-1 2 0 0zm-52 0c2-1 2 0 0 0zm157 0c-4-6 6 2 0 0zm-101 0c1-1 2 0 0 0zm53 0c1-1 1 1 0 0zm-349 0c1-1 1 0 0 0zm12 0c4-3 4-1 0 0zm279-1c3-2-1 2 0 0zm-3 0c1 0 1 1 0 0zm-46 0c1-1 1 0 0 0zm51 0c1-1 1 1 0 0zm128-1c-15-9 6-1 0 0zm-319 0c1-1 0 2 0 0zm-48 0s0 1 0 0zm240 0c1-1 1 1 0 0zm51-1c-1-2 2 3 0 0zm100 1c1-1 0 1 0 0zm-430 0c1-1 1 0 0 0zm280 0c1-1 1 0 0 0zm74-1c-3-7 6 4 0 0zm75 1c0-1 0 0 0 0zm-388-1c1-1-1 1 0 0zm-23 0c4-4 7 0 0 0zm3-1s0 1 0 0zm304 0c2-5 3 2 0 0zm-327 1c0-1 0 0 0 0zm44 0c0-1 0 0 0 0zm310-1s0 1 0 0zm-339 0c1 0 1 1 0 0zm30 0c1-2 1 0 0 0zm308-1c-1-1 2 2 0 0zm-263 0c2-1 2 1 0 0zm241 0c2-3 1 2 0 0zm-289 0c1-1 1 0 0 0zm50 0c1-1 1 1 0 0zm-45 0c0-1 0 0 0 0zm348 0c0-1 0 0 0 0zm-2-1c1-1 1 1 0 0zm-39 0c-1-2 2 0 0 0zm-366-1c1 0 1 1 0 0zm345-1c1 0 1 1 0 0zm-342 0c1-1 1 0 0 0zm-9-1c1 0 1 1 0 0zm10 0c2-2 2 0 0 0zm55 0c0-1 0 0 0 0zm-5 0c0-1 0 0 0 0zm6 0c1-1 1 0 0 0zm-8-1c0-1 0 1 0 0zm-50-1c1-6 3 4 0 0zm4 1c1-1 1 0 0 0zm2-1c2-1 2 0 0 0zm2-1c1-1 1 1 0 0zm-9-3c1 0 1 1 0 0zm474-3c1-1-1 2 0 0zm-5-1c-6-4-3-12 2-3 1 1-2 5-2 3zm-509-1s0 1 0 0zm23 0c1-1 0 1 0 0zm-15-4c1-3 1 3 0 0zm503 0c2-1 1 1 0 0zm-500-3c0-1 0 1 0 0zm505 0c-1-6 2 0 0 0zm-21-1c1 0 1 1 0 0zm24 0c0-3 2 1 0 0zm-25 0c-1-2 1 1 0 0zm3-1c-1-1 1 0 0 0zm-5 0c1 0 0 1 0 0zm-483-1c1 0 1 1 0 0zm501 0c1-1 1 1 0 0zm-13 0c0-5 2 1 0 0zm-486 0c1-1 1 1 0 0zm504-1c0-4 3 2 0 0zm-21-1c0-1 1 1 0 0zm-490-1c2 0 0 1 0 0zm514 0c1-3 2 1 0 0zm-512-1c2 0 0 1 0 0zm-1 0c1-1 0 0 0 0zm512-1c1-1 1 1 0 0zm-509-1c1 0 0 1 0 0zm509 0c1-8 10 1 0 0zm-505-4c0-1 0 1 0 0zm-4-3c-1-3 2 2 0 0zm-12-2c0-1 0 0 0 0zm2 0c1-1 0 0 0 0zm0-1c1 0 1 1 0 0zm505 0s0 1 0 0zm-505-3c1 0 0 1 0 0zm3 0c3-1 1 1 0 0zm510-1c2-5-9-3 2-6 6 12-1 3-2 6zm1-5s0 1 0 0zm5 5c1-1 0 2 0 0zm-516 0c2-1 1 1 0 0zm2 0c2-1 1 0 0 0zm516-1c1-3 1 1 0 0zm-526 0c1-1 1 1 0 0zm2 0c-1-2 2 1 0 0zm1 0c1-1 1 0 0 0zm521-2c0-3 3-1 0 0zm-519-1c5 0 1 0 0 0zm-6-1c1-1 0 1 0 0zm11-2c-1-1 2 2 0 0zm5 0c1 0 0 1 0 0zm2 0c1 0 0 1 0 0zm-21 0c5-2-2 1 0 0zm23 0c1-1 1 1 0 0zm507-1c-1-5 4 2 0 0zm-545 0c1 0 0 1 0 0zm38 0c1 0 0 1 0 0zm-19 0c1-1 0 1 0 0zm513 0c1-2 0 1 0 0zm-510-1c2-1 4 2 0 0zm14 1c-2-2 3 1 0 0zm4 0c1-1 1 0 0 0zm-45-1c19-1-11 1 0 0zm30 0c2-1 1 1 0 0zm2 0c1-1 0 1 0 0zm504 0c-3-4 3 0 0 0zm-502 0c1-1 0 0 0 0zm-37-1c4-1 1 0 0 0zm16 0c2-1 1 0 0 0zm-20 0c1-1 0 0 0 0zm8 0c15-1-20-1 2-2-19-1 34-4 8-2-12 2-11 3 2 2l-12 2zm4-3c-1 0 0 1 0 0zm544 2c1-1 0 1 0 0zm-540 0c1 0 1 1 0 0zm2 0c1-1 1 1 0 0zm527-1c3-2-2 3 0 0zm-531-1c4 0-2 1 0 0zm5 0c1 0 0 1 0 0zm3 0c1 0 0 1 0 0zm1 0c2 0 1 1 0 0zm20 0c1 0 0 1 0 0zm2 0c1 0 0 1 0 0zm497 0c1 0 1 1 0 0zm12 0c1-1 1 1 0 0zm-526-1c2-1 0 0 0 0zm4 0c0-1 0 0 0 0zm-19-1c3-1 5 2 0 0zm29 0c1-1 0 2 0 0zm4 0c-3-1 3 1 0 0zm-28 0c2 0 1 1 0 0zm2 0c2 0 0 1 0 0zm26-1c-5 0 7 1 0 0zm512 0c1-2 1 1 0 0zm-512-1c1 0 0 1 0 0zm0-1c2-1 1 1 0 0zm-6 0c2-1 1 0 0 0zm2 0c0-1 0 0 0 0zm2 0c0-1 0 0 0 0zm-23-1c5-1 8 1 0 0zm7 0c1 0 0 1 0 0zm8-3c2 0 0 1 0 0zm504-24c0-1 0 0 0 0zm-516-1c-20-5 23-4 1-3 3 1 1 3-1 3zm9 0c-1-4 3 2 0 0zm6-1c1-1 1 1 0 0zm-8-1c1 0 0 1 0 0zm-8-2c3 0 1 0 0 0zm-11 0c2-2 1 1 0 0zm23-1c1 0 0 1 0 0zm-3-4c3-1 5 2 0 0zm5 0c2 0 0 1 0 0zm-15-2c0-1 0 1 0 0zm-4 0c1-2 1 1 0 0zm10-1c3-1-1 0 0 0zm9-3c1-1 1 1 0 0zm-4 0c-13-4 12-2 0 0zm529-2c2 0 0 1 0 0zm-532-4c-19-4-4-10 4-3 2 3-2 4-4 3zm529-2c2-2 1 1 0 0zm-545-4c-1-7 7 4 0 0zm17 0c-2-3 5 1 0 0zm-2-1c0-3 2 1 0 0zm9 0c2-1 2 1 0 0zm11 0c1-1 1 0 0 0zm2 0c0-2 1 1 0 0zm-15-1c2-1 5-4 0 0zm507 0c0-1 1 1 0 0zm-530-1c-18-4 1-9 0 0zm560-1c1 0 0 1 0 0zm-532 0c1-2 2 0 0 0zm4-1c-4-5 7 1 0 0zm-4-2c1-1 1 1 0 0zm0-7c0-1 0 0 0 0zm511-4c0-9 16-5 1 1l-1-1zm12-14c2-3 0 2 0 0zm8-8c2-1 1 1 0 0zM38 57c-2-1 3 1 0 0zm480-2c0-4 2 1 0 0zM39 54c0-1 0 1 0 0zm480-3c-1-5 4 2 0 0zm-389-1c-5-1 4-2 0 0zm-12 0c1-1 1 0 0 0zm14-1c1-1 1 0 0 0zm5 0c0-2 1 1 0 0zm-12-1c1 0 1 1 0 0zm10 0c1 0 0 1 0 0zm-13 0s0 1 0 0zm12 0c1 0 0 1 0 0zm384 0c1-1 1 1 0 0zm-395 0c-1-3 2 1 0 0zm-2-1c-5-4 2 0 0 0zm10 0c1 0 0 1 0 0zm-13 0c1-1 0 1 0 0zm9 0c1 0 1 1 0 0zm7 0c3-1 3 1 0 0zm18 0c0-1 0 1 0 0zm-43 0c0-1 0 0 0 0zm6-2c2-4 5 2 0 0zm3 1c1-1 0 1 0 0zm4 0c1-2 1 1 0 0zm-30 0c1-2 2-1 0 0zm40 0c1-1 0 0 0 0zm385-1-8-4c4-9 9 1 8 4zm-6-4c-1-2-1 2 0 0zm3-2s0 1 0 0zm-406 6c0-2 0 2 0 0zm1 0c0-1 0 1 0 0zm0 0c2-1 1 1 0 0zm23 0c1-1 1 1 0 0zm-21-1c1-2 0 3 0 0zm1 1c0-1 0 0 0 0zm406-1c1-1 1 2 0 0zm-4 0c1-2 1 1 0 0zm-407 0c0-1 0 1 0 0zm5 0c-1-1 2 1 0 0zm42 0c0-1 0 1 0 0zm396 0c0-1 0 1 0 0zm0 0c1-1 1 0 0 0zm-441-1c1-1 2 0 0 0zm9 0c1 0 1 1 0 0zm384 0c0-5 2 1 0 0zm18 0c2-3 2 1 0 0zm-417 0c0-1 0 0 0 0zm4 0c0-1 0 0 0 0zm88 0c1-1 0 0 0 0zm286 0c0-5 5-2 0 0zM92 42c1-1 0 1 0 0zm8 0c1 0 1 1 0 0zm88 0c1 0 0 1 0 0zm-90 0c1-2 0 1 0 0zm-3 0c0-1 0 0 0 0zm5 0c1-1 0 0 0 0zm3 0c1-1 0 0 0 0zm4 0c1-1 1 1 0 0zm78 0c2-1-1 1 0 0zm-84-1c1-1 1 1 0 0zm8 0c2 0 0 1 0 0zm-19 0c1-2 1 1 0 0zm9 0c2 0 0 1 0 0zm53 0c0-2 0 1 0 0zm-44 0c1-1 1 0 0 0zm411 0c0-5 2 0 0 0zM91 40c2-5 3 2 0 0zm388 0s0 1 0 0zm-378 0c1 0 0 1 0 0zm69 0c-1-3 3 2 0 0zm98 0c2-3-1 2 0 0zM94 40c0-2 2 0 0 0zm57-1c-4-2-3-9 2-5-1 3 0 3-2 5zm22 1c1-1 1 1 0 0zm-65-1c1 0 0 1 0 0zm45 0c0-2 1 1 0 0zm23 0c1-1 1 0 0 0zm127 0c2-1 0 1 0 0zm200 0c-3-5 9-4 0 0zm1-1c0-2 0 0 0 0zm-314 1c1-2 1 1 0 0zm-95 0c1-1 1 0 0 0zm9 0c0-1 0 0 0 0zm64 0c0-1 0 0 0 0zm1-1c-1-4 4 1 0 0zm3 1c1-1 1 0 0 0zm-67-1s0 1 0 0zm44 0c1-2 1 2 0 0zm30 0s0 1 0 0zm9 0c1 0 0 1 0 0zm79 0s0 1 0 0zM93 38c1-1 1 0 0 0zm79 0c2-1 0 0 0 0zm15 0c1-1 0 1 0 0zm309 0c0-1 0 0 0 0zM96 38c2-1 0 0 0 0zm10 0c1-1 0 0 0 0zm70-1c-1-2 2 2 0 0zm313 0c3-5 5-1 0 0zm6 1c1-1 0 0 0 0zm-321-1c-4-4 2 0 0 0zm333 0c1-1 0 1 0 0zm-336 0c1-1 0 1 0 0zm349-1c0-4 5 2 0 0zm-410 0c1 0 1 1 0 0zm157 0c2-3 2-1 0 0zm70 0c0-4 2 1 0 0zm6 0c1-1 1 1 0 0zm-71 0c1-1 0 1 0 0zm115 0c0-1 0 1 0 0zm115 0c1-1 1 1 0 0zm6 0c0-2 0 1 0 0zm-340-1c4-4 3 2 0 0zm3 1c1-1 0 0 0 0zm4-1c1-1 1 1 0 0zm202 1c1-1 1 0 0 0zm4 0c1-1 1 0 0 0zm-236-1c1-1 2 0 0 0zm40 0c1 0 0 1 0 0zm-24-1c0-1 0 2 0 0zm36 1c1-1 1 1 0 0zm65 0c0-1 0 1 0 0zm11 0c0-1 0 1 0 0zm233 0c1-4 3 0 0 0zm-344 0c0-1 0 0 0 0zm0-1c2-1 1 2 0 0zm349 1c1-2 1 1 0 0zm-347-1c1-3 0 2 0 0zm1 0c1 0 1 1 0 0zm144 0c1 0 1 1 0 0zm-79 0c1-1 1 1 0 0zm3 0c0-1 0 1 0 0zm232 0c-3-5 5-1 0 0zm-305 0c1-2 0 1 0 0zm5 0c-1-2 3 1 0 0zm30 0c1-1 1 0 0 0zm186 0c0-1 0 0 0 0zm108 0c0-1 0 0 0 0zm-288-1c0-1 2 2 0 0zm139 0c0-2 2 1 0 0zm161 0c0-1 0 1 0 0zm19 0c0-1 0 1 0 0zm-358 0c1-2 2 0 0 0zm10 0s0 1 0 0zm337-1c3-2-2 3 0 0zm-133 0c-4-4 4 3 0 0zm-216 0s0 1 0 0zm69 0c-2-6 7 2 0 0zm231 0c1-3 2 1 0 0zm-315 0c1-1 1 1 0 0zm8 0c1 0 1 1 0 0zm116 0c2-3-2 2 0 0zm-118-1c1-1 0 2 0 0zm48 1c0-1 0 0 0 0zm174-1c-7-6 6 3 0 0zm95 0c0-2 2 2 0 0zm-320 0c1 0 0 1 0 0zm5 0c1 0 0 1 0 0zm3 0c1 0 0 1 0 0zm4 0c1 0 1 1 0 0zm179 0c1-9 7 0 0 0zm-185 0c1-1 1 1 0 0zm8 0c2 0 0 1 0 0zm344 0s0 1 0 0zm-363 0c1-2 2 0 0 0zm9 0c2-1 0 0 0 0zm312 0c0-3 2 2 0 0zm40 0c1-2 1 1 0 0zm14 0c1-1 0 1 0 0zm-357 0c1-1 1 0 0 0zm45-1c1 0 0 1 0 0zm-61 0c1-6 2 2 0 0zm312 0c-1-4 3 1 0 0zm-303 0c1-1 0 0 0 0zm218-1c-8-6 3 0 0 0zm87 1c-1-2 2 0 0 0zm-312-1c1-1 2 1 0 0zm31 1c1-1 0 0 0 0zm76-1c-2-3 3 1 0 0zm9 1c2-2 2-1 0 0zm-102-1c1 0 0 1 0 0zm68 0c1-1 1 1 0 0zm231-1c4-2 0 0 0 0zm-312 0c1 0 1 1 0 0zm9 0s0 1 0 0zm216 0c0-1 1 1 0 0zm149 0c1-2 1 1 0 0zm-364 0c1-1 1 1 0 0zm57 0c0-2 1 1 0 0zm17 0c-16-9 6-6 0 0zm235-1c1-2 1 3 0 0zm-321 1c1-1 1 0 0 0zm115-1s0 1 0 0zm-112 0c2 0 1 1 0 0zm10 0c1 0 0 1 0 0zm88 0c-4-6 5 2 0 0zm119 0s0 1 0 0zm103 0c1-1 1 1 0 0zm-264-2c-4-5 5 6 0 0zm260 1c-1-4 3 1 0 0zm-302 0c1-1 1 1 0 0zm88-1c-2-5 5 3 0 0zm4 1c0-2 0 1 0 0zm201-1c0-1 2 1 0 0zm15 1c-1-3 2 0 0 0zm-231-1c-7-7 7-4 0 0zm221-1c-1-3 3 3 0 0zm-225 0c0-3 2 3 0 0zm-17-1c-4-6 5 3 0 0zm245 0c3-2-1 2 0 0zm-187 0c0-4 3 3 0 0zm-8 0c1-1 1 0 0 0zm32 0c1-2-1 1 0 0zm-56-1s0 1 0 0zm221 0c1 0 0 1 0 0zm-12 0c0-2 2 0 0 0zm9 0c0-1 0 1 0 0zm2 0c1-2 2-1 0 0zm-249-2c1-1 1 2 0 0zm109 1c0-1 0 0 0 0zm-97-2c-3-6 4 4 0 0zm41 0c1 0 1 1 0 0zm197 0s0 1 0 0zm-204-1c-2-6 6 2 0 0zm201 1c0-3 3 1 0 0zm-130-2c2-5-10-3 2-7 5 13-2 3-2 7zm1-5c0-1 0 0 0 0zm-63 5c2-1 2 0 0 0zm31 0c1 0 1 1 0 0zm37 0c0-1 0 1 0 0zm2-1c1-3 1 1 0 0zm-117-2c1-1 1 1 0 0zm34-1c1-1 0 1 0 0zm13 0c-2-4 3 0 0 0zm68 0c0-5 3 1 0 0zm-116 0c1-1 1 1 0 0zm95 0c0-5 5-3 1 0h-1zm-4-1c0-1 0 1 0 0zm2-2c1-1 0 1 0 0zm9 0c-6-1 6-3 0 0zm15-1c0-5 5 1 0 0zm-31 0c1-1 1 0 0 0zm19-1c1-2 0 2 0 0zM226 8c0-1 1 1 0 0zm101-1c2-5 4-1 0 0zm-97-1c-3-11 8 5 0 0zm-12 0c0-4 3 2 0 0zm122 0c1-1 0 1 0 0zm-31-1s0 1 0 0zm17-1c1-1 1 0 0 0zm-15-1c2-2 2 0 0 0zm27 0c1-1 0 1 0 0zm4-2c1-2 1 1 0 0z"/></svg>