<svg xmlns="http://www.w3.org/2000/svg" viewBox="0 0 538 385.4" preserveAspectRatio="none"><path fill="#8485b5" d="M119 390c1-1 0 1 0 0zm267-5c-4-9-16 4-15-5 5-2 8-7 9-2 3-8 11 0 10 4-10-7 0 7-4 3zm-269 1c0-1 0 1 0 0zm9-2c1-1 0 1 0 0zm238-2c1-3 3 1 0 0zm47-1c-5-10 4-38-13-36-7-5-28 4-28-1-3-5-6-3-17-5-3 3 6 1 7 5-2 9 9 1 11 8-4 1 10 15-3 5-2 5-4 0-8 2-1-8-8-12-6-14-6-8-2-2-9-1-10 5 3-9-8-3-7 1-1 5-8 9 4-7-3-9-1-4-7 0-6 6-15 6-3 1-7-9-7-3-2-10-18-4-15-8 1-7 2-5-6 0 6 7-9 0-5-2-8-4-2-5-10-9-5-6-1 3-5 0 5 6-4 6-4-1-1 0-11-4-5 1-4 0-8-3-11 3 0 11-8 2-2 11-4-2-5-9-9-2 0-3-1-11-3 0-6 7-7-7-12-1-1 12-1-1-3 1-4-5-5 4-7-5-3-1-6 0-2 5 4 7-4-1-3 7-1 5-6-1-8-3-5 1-13-1-11 5-1 2 1 5-4 2 2-2-13-1-17-2-1 2-7 6-6 0-1-3-12-3-8 3-4-2-17 19-9 3 5-8-9-5-3-9 0-4 7-1 1-8-8 4-1-16-9-10 4-12-6 9-6-2 0-8-12-9-10 2-6 3-1-17-14-4-7 6-7 2-15 5-4 1-12-3-5-7-12-1 16-9-3-4-6 2-19 2-14-6 7-5 7-6 14-13l-2-9c-7-7 5-15 6-21-3-8-20-12-20-16-13-4-17-6-17-12-3-4 8 2-1-5 15 3-4-9 7-7 7 2 8-2 14-2-4-4 10-7 3-10-8-5-15-1-7-5-7-3 9-9 11-12-8-3-14 7-17 1-4-4-15 12-14 0-6 9 6-13-8-7-13 9 2-10-6-9-8-4-6-2 4-7-11-7 18-1 4-8 6-1 5-3 13-4 4-6 13 0 13-7-2 0-11-12-2-9 2 10 15 3 2-3-5-5 12 8-1-4-13-21 13 15 7-2-4-8-11-11-2-14-2-9-7-14-9-21-2-13-9-13-5-24 3-10 22 7 10-5 10 3 9-5 14-7 3-2 16 14 6 1 3 4 11 2 0-4-2-3-2-6 9-7 0-5 20-3 3-6-3-3 31 0 36-3-12-2 3-15 5-1 0 7 10 0 3-6-2-8-6-13 3-11 6 9 3-10 12 3-7 7-2 14 5 7 0 10 15 12 8 5 3-4-10-17 2-8 7-2 11-2 17 3 5 10 13 7 16 5 4 7 9 8 11 4 8-7-6-4-3-13 5 13 8-14 14 3-4 5-11 11-4 10 5-5 9-12 4-2-1 6-3 7 1 5 13-14 0 8 11 5 4-9 4 3 5 8l14-4c12-7 30-6 41-13-5-8 18-26 10-14-7 13 0 1 2 4 12-10-3 10 6 3-13 13-3 12 0 13-3 5 8 2 1 7 12-12 30-21 40-35 12-13-26 31-3 11 11-8-7 6 5 1-11 5 20-7 6 2 8-2 14 0 10 3 17-3 15 4 25 7 7 3-13 0 0 5 10 1 12 9 14 6 6 2 15-8 23-8 9-2 18 1 30 0 6 5 16 0 20 6-1 5-13 10-7 14 2 0-8 10 3 8-19 8-1 15 12 13 10-1 21-10 27-10 0 3-11 8-18 12-6 2-6 5-6 8-9 7 0 6 3 12-5 3 2 18-5 8 0-10-13-4-9 0 3 2 15 5 5 10-7 2 2 11 7 13-6 1-12 4 1 2-7 3 7 6 2 9 3 8-3 4-10 9-1 8 0 3-7 3 0 5 5 12 9 12-10-2-3 16-10 9-12 3 1 20-7 12-5 3 2 7 6 6 3-17 3 3 12-3 13-1 27-3 40-6 20-1-20 5-26 7-8 5-16 2-19 9 0 6 26 9 13 9-7 2-14 4-14 8-4 14 2 0 2 9 2 2 6 5 0 4 0 5 8 14 5 12 0 7-5 13-5 16-1 5 2 4-1 8-12 0-6 17 3 16-3 5 3 12 3 16 5 11-5 0-15-7-6 6-14-13-20-4 8 1 5 11 8 16 2 5-8-14-14-14-6 6-6 10-1 13-9 2 2 10 5 5-2-18 14 4 7 8-5-1-15 4-24 5 18 5-7 3-21 4-18-2 2 30-5 36zm-44-24c-1-1-1 1 0 0zm-5-2c-1-4-2 2 0 0zm6 0c-1 0 1 1 0 0zm-219-2c-2 0 0 3 0 0zm-8-1c-1 0 1 1 0 0zm21-2c-5-1 1 3 0 0zm7 2c-1-1-1 0 0 0zm35-1c-1-1-1 2 0 0zm155 0c-2-5-7-13-3-4 0 1 1 7 3 4zm-185 0c-1-1-1 1 0 0zm3 0c-1-2-4 1 0 0zm186 0c-1-2-1 1 0 0zm-198-1c-1-3-3 2 0 0zm203 0s1 1 0 0zm-166-1c-1-1 0 3 0 0zm163 0c-1 0-1 2 0 0zm0 0c0 1 1 2 0 0zm-206 0c-1-3-1 2 0 0zm19 0s1 1 0 0zm189 0s1 1 0 0zm-184 0c-1 0 1 1 0 0zm139 0c-1 0 0 1 0 0zm37 0c-1 0 1 1 0 0zm-180 0c-1 0 0 1 0 0zm22 0c-1-1 0 1 0 0zm-1-1c-1-7-2 2 0 0zm155 0c0-1 0 1 0 0zm-171-2c2-6-5 5 0 0zm-30 1c-2-1-1 1 0 0zm34-2c-2-1-1 4 0 0zm131 2c-5-2-5 1 0 0zm-116 0c2-3 1-1 0 0zm-59-2c-1-1-1 1 0 0zm197 0c-1 0 1 1 0 0zm-142 0c-1 0-1 1 0 0zm129 0c-1 0 1 1 0 0zm-1 0c-1-1-1 0 0 0zm-183-1s1 1 0 0zm46 0c-1 0-1 1 0 0zm-4 0c-1 0 0 1 0 0zm9 0c-1-2-1 2 0 0zm3 0s0 1 0 0zm4 0c-1 0 0 1 0 0zm-18-1c-1 0 0 2 0 0zm3 0c0 1 1 1 0 0zm118 0c-1 1 0 1 0 0zm8 1c0-1 0 0 0 0zm-121-1c-1 0 0 1 0 0zm7 0c-1-1-1 2 0 0zm-6 0c-1 0 0 1 0 0zm10 0c-2-4-3 2 0 0zm-12 0c-1-2-1 1 0 0zm4-1c-1-1 0 2 0 0zm109 1c0-1 0 0 0 0zm52 0c0-1 0 0 0 0zm-164-1c0-2-2 1 0 0zm6 0c-1 0 0 1 0 0zm8 0c-1-1-4 1-1 1zm22 1c-1-1 0 0 0 0zm118-1c0-2-2 2 0 0zm-119 0c6-1 2-8 0-3-1 2-3 2 0 3zm15 0s0 1 0 0zm65 0c-1 0 0 1 0 0zm24 0c-1-1-1 1 0 0zm-150 0c-1 0 0 0 0 0zm19-1c-3 0-1 2 0 0zm-6 0c-1-2-2 2 0 0zm0 0s1 1 0 0zm39 0s1 1 0 0zm93 0c-1-1-1 1 0 0zm-125 0c0-1 0 1 0 0zm14-2c-2 0 1 4 0 0zm132 1c-1-7-2 4 0 0zm-130 1c0-1 0 0 0 0zm1-1c-1 0 0 1 0 0zm1 0c-1 0 0 1 0 0zm-22 0c-1 0 0 1 0 0zm14 0c0-1 0 1 0 0zm-9-1c-1-1 1 2 0 0zm17 0c-1-1-1 2 0 0zm17 0s1 1 0 0zm-19-1c-1-1-1 3 0 0zm6 0c-2-2 0 3 0 0zm-34 0c-2-1 0 2 0 0zm14 1c0-1 0 0 0 0zm36-1c-1 0 1 1 0 0zm-37 0c-1 0-1 1 0 0zm0 0s0 1 0 0zm9 0c-1-2-1 1 0 0zm4 0c-1-2-1 1 0 0zm26 0c-1-2-1 1 0 0zm2-1c-4-8-11-5 0 1zm-15-1c0-2-1 4 0 0zm10 1c-1 0 1 1 0 0zm-98-1c-2 0 0 2 0 0zm79 1c-1-1 0 1 0 0zm-78 0c-1-1-1 0 0 0zm69-1c-2-3-2 0 0 0zm-8-1c0 1 1 1 0 0zm4 1c0-1 0 1 0 0zm29 0c-1-2-1 1 0 0zm217 0c-8-2-10 1 0 0zm-235-1s1 1 0 0zm-9 0c-1 0-1 1 0 0zm8 0c0-2 0 1 0 0zm73 0c0-1 0 1 0 0zm-149-1c1-5-6-3 0 0zm315 0c-3-1-3 1 0 0zm-229-2c-1-1-1 1 0 0zm3 0c-1 0 0 1 0 0zm35-3c-1 0-1 1 0 0zm8 0c0-1 0 1 0 0zm3 0c-2-2-2 2 0 0zm-27-1c-2-5-2 2 0 0zm15-1c-2 0 1 3 0 0zm-17 1c-1 0 1 1 0 0zm-134-1c-2-1 1 2 0 0zm148-1c-1-2 0 3 0 0zm4 1c3-3-2 0 0 0zm4 0c3-6-3 0 0 0zm3-1c2-4-4 0 0 0zm1 1c-1-1-1 0 0 0zm173-2c1-3-2 3 0 0zm-184-1c-2 1 0 0 0 0zm-42 0c0-1 0 0 0 0zm44-1c1-3-3 3 0 0zm9 1c-1-1 0 0 0 0zm-142-1c-1-2-1 2 0 0zm2-1c-1 0 0 1 0 0zm314 0c-1-1 0 0 0 0zm-182-2c-1-1-1 1 0 0zm-178-2c-1-1-1 0 0 0zm387-7c-1-1-1 2 0 0zm14-40c-1-1-1 1 0 0zm-11-34c-2-1 0 3 0 0zm10-4c-1-1 0 2 0 0zm-428-2c-1 0 0 1 0 0zm1 0c-1 0 0 1 0 0zm11-5c-1-3-4 2 0 0zm418 0c-2-3-1 1 0 0zm-417-4c-1-1-1 1 0 0zm409-2c-3-1-3 1 0 0zm-409-1c2-2-5 1 0 0zm408-1c2-2-5 2 0 0zm-7-5c0-2-1 2 0 0zm-1-6c1-3-4 3 0 0zm-404-2c-1 0 0 1 0 0zm404 0c0-5-6 2 0 0zm-428-1c0-3-5 1 0 0zm33-5c-3-5-4 2 0 0zm401-22c-3-1 0 3 0 0zm-2 1c0-2 0 1 0 0zm22-11c-2-2 1 1 0 0zm-16-22c16-7-8 0 0 0zm1-4c0-1-1 1 0 0zm6-7c-3-1-1 0 0 0zm-3 0c-1 0 0 1 0 0zm-2-1c1-2-3 1 0 0zm-416-5c-1-2-1 2 0 0zm415-1c-1 0-1 1 0 0zm-414 0c0-10-7 0 0 0zm1-4s0 1 0 0zm2-1c-2-5-13-2-7-1 2 1 5 3 7 1zm-4-1s0 1 0 0zm5 0c0-4-5 2 0 0zm-13-6c-1-2-1 2 0 0zm12 0c-1 0-1 1 0 0zm1 0c0-2 0 2 0 0zm-7-1c7 0-5-1 0 0zm-7 0c0-1 0 0 0 0zm13-1c-1-1-1 2 0 0zm414-10c0 1 1 1 0 0zm1 0c0 1 1 1 0 0zm4 0c7-3-7 2 0 0zm-6 0c-2-2-2 2 0 0zm11-1c1-2-5 2 0 0zm2-1c-1-2-1 2 0 0zm-4-1c-3-1-4 2 0 0zm-3 0c-1-1-1 1 0 0zm15-3c1-2-2 2 0 0zM66 87c-6-3-4 3 0 0zm-4-1c-6-4-4 2 0 0zm8-3c0-2-5 2 0 0zm-3-1c-3-3-2 2 0 0zm5-1c-1-1 0 3 0 0zm15 1c-1 0 1 1 0 0zm8-1c-3-2-8 1 0 0zm-31 0c-1-1-1 1 0 0zm31-2c-4-1 0 2 0 0zm-7-1c0-3-4 1 0 0zm1-4c7-4-6 1 0 0zm4 1c-3-3-4 2 0 0zm223-1c-1-1 0 1 0 0zm4-1c-1-1-1 1 0 0zm2 0c-1-1-1 1 0 0zM86 73c-1-1-1 0 0 0zm233-1c1-3-3 3 0 0zM88 71c-3-3-5 0 0 0zm234-1c2-3-4 1 0 0zm-54-2c-3-2-1 2 0 0zm1 0s0 1 0 0zm47 0c2-4-4 2 0 0zm94 0c-1-1-1 1 0 0zm-138 0c-2-2-2 1 0 0zm-3-1c-1 0 0 1 0 0zm1 0c-1-1-1 1 0 0zm4 0c-1-1-1 1 0 0zm1-1c-1-1 0 2 0 0zm3 0c-4-2-4 1 0 0zM83 66c-2-2-2 1 0 0zm199-2c-2-3-5 3 0 0zM90 64c-1-2-11 1 0 0zm198-1c12-5-8-1 0 0zm20-2c1-4-6 4 0 0zm-13 0c4-9-10 1 0 0zm4-2c0-1 0 2 0 0zm145 0c-1-2-2 1 0 0zm1-1c-2-1 0 2 0 0zm-149-1c-3-3-1-1 0 0zm-128-1c-1-5-5 2 0 0zm128-3c1-3-3 3 0 0zm-106 0c0-2-1 2 0 0zm-36-5c-1-4-3 3 0 0zm199-1c19-9-10 1 0 0zm-172-2c-2-3-3 2 0 0zm179 1c-1-1-1 0 0 0zm-1-1c-1 0 1 1 0 0zm-193-1c-2-1 0 2 0 0zm135-7s1 1 0 0zm13 343c0-1 1 1 0 0zm-235 0c1-2 1 1 0 0zm2-4s0 1 0 0zm253 0c1-1 1 1 0 0zm-47-1c-2-17 12 4 0 0zm51 0c1 0 1 1 0 0zm29-1c1-1 0 2 0 0zm-290 0c1-1 1 1 0 0zm25 0c-1-5 2-2 0 0zm268-1c-6-9 7-1 0 0zm-3 0c1-1 1 1 0 0zm-210-1s0 1 0 0zm208 0c1-1 1 1 0 0zm-220-1c-1-1 1 0 0 0zm229-2c0-1 0 2 0 0zm-27 1c1-2 1 1 0 0zm-27-1c-1-5 2 1 0 0zm63 0c0-1 0 0 0 0zm-316-1s0 1 0 0zm55 0c-1-5 2 2 0 0zm23 0c0-1 0 1 0 0zm5 0c1 0 1 1 0 0zm153 0c0-2 1 1 0 0zm45 0c0-1 0 0 0 0zm-244-1c2-6 2 4 0 0zm230 0c-1-4 3 2 0 0zm-205 0c1-1 1 1 0 0zm198 0c1-1 0 0 0 0zm37-1c1 0 1 1 0 0zm-28-1c1-2 1 3 0 0zm-15 0c0-1 0 0 0 0zm-177-2c1-4 3 3 0 0zm-35 0c-1-4 4 1 0 0zm268 0c1-1 1 1 0 0zm-255-1c-5-12 3 5 0 0zm-5 1c1-1 0 0 0 0zm218 0c0-3 2 0 0 0zm41-1c0-1 1 1 0 0zm-304 0c-2-4 2-2 0 0zm250 0c0-1 0 1 0 0zm11 0c1 0 0 1 0 0zm-245 0c-1-2 3-1 0 0zm3-1c1-3 0 3 0 0zm232-1c2-2 2 3 0 0zm21 1c2-2 1 1 0 0zm-11-2c-3-3 10 0 0 0zm32 1c0-1 0 1 0 0zm-250 0c0-1 0 1 0 0zm40 0c0-2 2 0 0 0zm-89-1c0-2 1 2 0 0zm97 0c0-1 0 1 0 0zm175 0c1-1 0 0 0 0zm-240-1c2-1 2 2 0 0zm53 0s0 1 0 0zm75 0c1-1 2 2 0 0zm102 0c1-1 1 2 0 0zm56 0c1 0 1 1 0 0zm-266 0c1-5 4 2 0 0zm43 0c1-6 2 3 0 0zm103 0c0-4 0 2 0 0zm-158-1c2-2 1 2 0 0zm32 0c3-4 1 3 0 0zm90 0c0-1 0 1 0 0zm101 0c1 0 1 1 0 0zm-103 0c2-3 1 1 0 0zm90 0c-9-3 2-7 0 0zm28 0c1-2 1 1 0 0zm-209-1c2-8 3 3 0 0zm37 0c1-1 1 2 0 0zm-109 0s0 1 0 0zm285 0c1 0 0 1 0 0zm7 0c0-1 0 1 0 0zm-200 0c0-1 0 0 0 0zm160 0c0-1 0 0 0 0zm31 0c0-1 0 0 0 0zm-190-1c0-1 0 1 0 0zm9 0c1-1 1 1 0 0zm158 0s0 1 0 0zm3 0c1-1 1 1 0 0zm2 0c1-2 1 2 0 0zm-220 0c1-1 1 1 0 0zm59 0c0-2 1 1 0 0zm93 0c0-1 0 1 0 0zm5 0c-3-5 4 1 0 0zm10 0c0-1 0 1 0 0zm100 0c0-1 0 1 0 0zm-290 0c1-2 1 0 0 0zm66-1c1-2 0 2 0 0zm37 1c1-1 1 0 0 0zm166 0c1-1 1 0 0 0zm-11-1c1 0 1 1 0 0zm-216 0c1-3 1 1 0 0zm-18 0c1-2 0 1 0 0zm62 0c1-1 1 0 0 0zm155-1c2-3 1 2 0 0zm5 1c-4-6 6-2 0 0zm21-1c1-2 1 2 0 0zm20 1c-1-2 2 1 0 0zm-52-1c1-2 1 1 0 0zm-248 0c-3-5 2 0 0 0zm40 0c0-6 5 1 0 0zm76 0s0 1 0 0zm2 0c1 0 1 1 0 0zm6 0c1 0 0 1 0 0zm145 0c1-1 1 1 0 0zm2 0c0-4 1 1 0 0zm-248 0c0-3 1 1 0 0zm201-1c2-3 2 3 0 0zm50 1c0-7 5 1 0 0zm-157-1c0-9 6 0 0 0zm3-2c-1-2-1 2 0 0zm2 2c-4-4 3-2 0 0zm2 0c2-1 0 2 0 0zm10 0c4-1-3 2 0 0zm24 0c-2-1 3-1 0 0zm98 0s0 1 0 0zm-174 0c1-3 4 2 0 0zm196 0c1-1 1 1 0 0zm3 0c1-3 1 2 0 0zm-223 0c1-2 2 1 0 0zm69 0c0-1 0 0 0 0zm138 0c1-1 1 1 0 0zm-2-1c0-4 6-3 0 0zm-135 0s0 1 0 0zm-47 0c1-1 1 0 0 0zm197 0c4-6 5 0 0 0zm-238-2c-2-7 7-2 0 0zm20 1c1-2 4 1 0 0zm86 0c0-1 0 0 0 0zm58 0c0-1 0 0 0 0zm57 0c0-3 3 1 0 0zm5 0c0-1 0 0 0 0zm1-1c0-4 3 2 0 0zm-237 0c2-1 2 0 0 0zm27 0c1-1 1 1 0 0zm67 0c1 0 0 1 0 0zm148 0c1 0 1 1 0 0zm-257 0c-1-3 3-3 0 0zm35 0c0-1 0 1 0 0zm62 0c1-1 1 1 0 0zm159 0c1-1 0 1 0 0zm-253 0c1-1 1 0 0 0zm148-1c-3-3 3-7 1 0h-1zm86 0c2 0 1 2 0 0zm22 0c-1-3 3 2 0 0zm-249 0c2-4 1 2 0 0zm140 0c0-1 0 1 0 0zm34 0c0-1 0 1 0 0zm14 0c1-2 1 1 0 0zm64-1c1-2 1 3 0 0zm-226 1c2-1 1 0 0 0zm90 0c1-2 1 1 0 0zm58 0c1-1 1 0 0 0zm9 0c-5-1 5-3 0 0zm47 0c0-1 0 0 0 0zm7 0c1-1 1 0 0 0zm16-1c1-2 2 2 0 0zm-258 0c3-5 6 1 0 0zm123 0c0-1 0 1 0 0zm-4 0c0-1 0 1 0 0zm15-1c1-2 1 2 0 0zm75 0c1-1 1 2 0 0zm46 0c1-7 2 5 0 0zm18 1c1-1 1 0 0 0zm-151-1c0-6 1-1 0 0zm49 0c0-2 2 2 0 0zm74 0c-3-5 4 0 0 0zm-125 0c2-3-1 2 0 0zm133 0c1-2 0 1 0 0zm-237-1c0-2 1 2 0 0zm146 0c0-3 0 0 0 0zm21 1c-1-2 1 0 0 0zm-34-1c-2-3 3 2 0 0zm25 0c-4-10 9 2 0 0zm-136 0c0-4 2 2 0 0zm79 0c0-1 0 0 0 0zm53 0c-1-5 3 0 0 0zm103 0c1-1 0 0 0 0zm-241-1c0-2 1 2 0 0zm12 0c0-1 0 2 0 0zm85 0c-2-2 2 0 0 0zm145 0s0 1 0 0zm-279-1c3-9 3 5 0 0zm151 1c-2-1 3 0 0 0zm-112 0c1-3 1 1 0 0zm98 0c0-1 0 0 0 0zm-124-1c2-5 2 3 0 0zm32 0c1 0 0 1 0 0zm139 0c-4-9 13 2 0 0zm-156 0c0-6 2 1 0 0zm23 0s0 1 0 0zm113 0c2-1 2 1 0 0zm4 0c0-4 4 0 0 0zm82 0c0-1 0 1 0 0zm108 0c2 0 1 1 0 0zm-191 0c0-1 0 0 0 0zm-120-1c1-1 0 1 0 0zm104 0c1-2 2 1 0 0zm13 0c-1-2 3-2 0 0zm-5 0c1-1 1 1 0 0zm31 0c1-1 0 1 0 0zm-181 0c1-2 1 0 0 0zm263-1c0-2 1 2 0 0zm-150 0c1-1 1 1 0 0zm-141 0c1-1 0 1 0 0zm30 0c1-1-1 1 0 0zm158 0c0-6 7-3 0 0zm-8-1s0 1 0 0zm-41 0c1-1 1 1 0 0zm38 0c1-1 0 1 0 0zm4 0c-3-6 2-1 0 0zm-125 0c1-2 1 1 0 0zm136-1c1 0 1 2 0 0zm-150 0c4-12 20 2 1 0h-1zm136 0c-1-6 3 2 0 0zm-116 0c0-4 2 1 0 0zm142 0c0-1 1 1 0 0zm-18 0c2-1-1 1 0 0zm-176-1c0-1 0 1 0 0zm197 0c-1-2 2 1 0 0zm-219 0c1 0 1 1 0 0zm27 0c0-2 0 1 0 0zm177-1c-3-6 7 3 0 0zm2 0c-1-2-1 2 0 0zm-1-1c-1 0 0 1 0 0zm203 2c-2-4 2 2 0 0zm-214 0c1-1 1 0 0 0zm22-1c1-2 1 3 0 0zm-164 0c1-3 1 3 0 0zm-6-1c1 0 1 1 0 0zm144-1c3-3-3 5 0 0zm12 1c-1-1 2 1 0 0zm-152-1c-1-8 7-1 0 0zm150 0c-2-7 3 2 0 0zm1-1c0-1-1 2 0 0zm-157 1c3-4 4 0 0 0zm148 0s0 1 0 0zm-121 0c0-1 0 1 0 0zm122-1c0-3 1 1 0 0zm10 0c0-1 0 1 0 0zm-150-1c1-1 1 1 0 0zm21 0c1-2 2 0 0 0zm-35 0c0-3-2-1 0 0zm-6-1c1-2 1 1 0 0zm166 0c0-1 0 1 0 0zm2 0c1 0 0 1 0 0zm-135 0c0-4 1 2 0 0zm10 0c1-1 0 1 0 0zm-53-1s0 1 0 0zm31 0c0-1 0 1 0 0zm2 0c1-1 1 1 0 0zm153 0c1-1 1 0 0 0zm-161-1s0 1 0 0zm-38 0c1-2 1 2 0 0zm33 0c1 0 1 1 0 0zm157-1s0 1 0 0zm1-1c0-1 1 1 0 0zm-156 0c1 0 0 1 0 0zm348 0c2-1 3 0 0 0zm20 0c0-1 0 1 0 0zm-392-2c0-1 0 1 0 0zm396 0c1-1 0 1 0 0zm6-1c-1-3 2 2 0 0zm-370 0c1-2 1 1 0 0zm-40 0c0-2 2 0 0 0zm398 0c1-1 1 0 0 0zm27-3c-1-2 3 3 0 0zm-42 1c1-1 0 0 0 0zm-413-2c0-1 0 1 0 0zm410-1c1 0 0 1 0 0zm-388-1s0 1 0 0zm392 0c1-2 1 1 0 0zm23 0c0-1 0 1 0 0zm3 0c0-1 0 1 0 0zm-15-1c2-1 2 2 0 0zm33 0c-1-4 4 2 0 0zm-44-1c1-1 0 1 0 0zm20 0c1-1 0 1 0 0zm-21 0c1-1 0 0 0 0zm22-2c0-1 1 1 0 0zm31 0c-1-2 2 1 0 0zm-41-1c1-4 2 3 0 0zm24-7c1-1 1 0 0 0zm9-4c0-4 4 2 0 0zm-430-1c1 0 1 1 0 0zm429-2c0-1 0 2 0 0zm40 0c-9-7-26-18-21-30 1-3-5-20 5-9 1 13 11 20 12 34-1 1 11 6 4 5zm-42-2c1-1 0 1 0 0zm-439-1s0 1 0 0zm427 0c1 0 1 1 0 0zm2 0c0-1 0 1 0 0zm0-1c0-1 0 1 0 0zm2 0c0-2 2 2 0 0zm-1 0c0-1 0 0 0 0zm15-1c0-1 0 0 0 0zm-11-1c1 0 1 1 0 0zm-420 0c-4-7 8 0 0 0zm5-1c2-1 1 2 0 0zm407 0c-2-5 3 3 0 0zm7 1c1-1 1 0 0 0zm4-1c0-1 0 1 0 0zm-8-1c2-4 2 3 0 0zm2 0c1 0 1 1 0 0zm11 0c1 0 1 1 0 0zm-18 0c0-1 0 0 0 0zm11 0c1-2 1 1 0 0zm-470-2c3-1 0 2 0 0zm28 0c0-2 3 3 0 0zm445 0c0-2 2 2 0 0zm16 0c1-1 1 1 0 0zm-24 0c0-1 0 0 0 0zm3 0c1-4 6-1 0 0zm-5-1c1-1 0 0 0 0zm15 0c0-1 0 0 0 0zm-5-1c1 0 0 1 0 0zm15 0c1-2 1 1 0 0zm-447-1c-1-5 3 4 0 0zm441 0c-1-3 4 1 0 0zm-458-1s0 1 0 0zm454 0c1 0 1 1 0 0zm-3 0c3-7 5 0 0 0zm16-1s0 1 0 0zm-21 0c0-1 0 1 0 0zm9-1c0-2 2 2 0 0zm3 0c1-3 2 2 0 0zm-450-1c0-6 2 3 0 0zm439 0c-1-1 3 1 0 0zm8 0c1-1 1 1 0 0zm3 0c0-1 0 1 0 0zm-14-2c1-1 2 1 0 0zm3 0c1-1 0 1 0 0zm-2-1c1 0 0 1 0 0zm4 0c0-2 2 2 0 0zm5-1c1 0 0 2 0 0zm-7 0c-4-6 2-3 0 0zm-3 0c-1-2 1 0 0 0zm-427-1c3 0-2 1 0 0zm428 0c1 0 1 1 0 0zm3-1c1 0 0 1 0 0zm-6 0c1-1 1 0 0 0zm3 0c0-1 0 0 0 0zm4 0c1-1 0 0 0 0zm4-1c1-1 0 1 0 0zm-437-1c-9-5-16-7-26-8 11-3 23-1 34-1 7 5-3 10-8 9zm431 0s0 1 0 0zm1-1c-6 0 5-1 0 0zm18 0c0-2 1 1 0 0zm-15-1c0-1 1 2 0 0zm7 0c0-3 1 2 0 0zm2 0s0 1 0 0zm-15-1c1 0 1 1 0 0zm10 1c-1-3 2-1 0 0zm0-1s0 1 0 0zm-9 0c0-2 1 1 0 0zm5-1c-1-2 3 1 0 0zm-419 0c1-1 1 0 0 0zm416-1c1-1 1 0 0 0zm7-1c0-1 0 1 0 0zm-471 0c0-2 1 0 0 0zm47 0c1-1 0 1 0 0zm418 0c1-1 0 0 0 0zm3-1c-3-7 5 0 0 0zm4 0c1-2 1 1 0 0zm-9-2c0-2 1 2 0 0zm2 0c1-3 2 1 0 0zm-444-3c-18-6 10-3 0 0zm10 0c0-6 2 3 0 0zm435 0c0-4 1 2 0 0zm3-1c-6-6 5 2 0 0zm2 0c-1-2 3 0 0 0zm-434 0c0-1 0 1 0 0zm-23-1s0 1 0 0zm484-2c0-3 2 2 0 0zm-27 1c0-3 1 1 0 0zm2 0c1-2 0 1 0 0zm2-1c1 0 0 1 0 0zm-6-1-6-4c3-1 5-4 7-6 3 4 3-5 6-8-1 6 16-4 6 5-3 4 1 4-2 6 3 7-8 0-11 7 1 0 2 2 0 0zm0-2c-3-2-4 1 0 0zm1 0c-3-5-5-1 0 0zm0-3s0 1 0 0zm2-1c-1-1-1 2 0 0zm-3-1c-1 0 0 1 0 0zm2 0c0-2-3 2 0 0zm8 0c0-2-1 1 0 0zm-4-5c-1-3-2 2 0 0zm0-3s1 2 0 0zm1 0c-1-3 0 2 0 0zM32 258c1 0 1 1 0 0zm6 0c2 0 0 1 0 0zm5 0c-2-8 15 4 0 0zm447 0c-5-3 7 0 0 0zm9 0c1-1 1 1 0 0zm3 0c0-1 0 0 0 0zm-450-1c1 0 0 1 0 0zm7-1c1 0 0 1 0 0zm460-1c0-3 2 3 0 0zm-18 0c1-1 0 1 0 0zm21-1c0-1 0 1 0 0zm-8 0c1-1 1 0 0 0zm6-1c1-1 1 1 0 0zm8 0c-4-12 4-10 0-13-2-8 10-12 6-5 2 2-2 18-5 18h-1zm-40-2c0-1 0 1 0 0zm31-1c-2-8 10 1 0 0zm-29 0c0-3 2 1 0 0zm-446 0c1-1 0 0 0 0zm-35-1c0-2 1 1 0 0zm484 0c0-2 2 2 0 0zm0-2c1-1 1 1 0 0zm-4-1c1 0 1 1 0 0zm-1-1c-2-8 6 1 0 0zm-458-1c1-1-1 1 0 0zm491 0c0-1 2 2 0 0zm-23 0c1-1 1 1 0 0zm-4 0c0-1 0 0 0 0zm-467-4c1-3 2 2 0 0zm461 0c-1-4 1 1 0 0zm8 0c0-2 1 2 0 0zm12 0c1-3 0 2 0 0zm8-1c1-1 0 1 0 0zm1-1c1 0 1 1 0 0zm-29 0c1 1 1 0 0 0zm22-1s0 1 0 0zm-21-2c1-1 1 0 0 0zm21 0c1-1 0 0 0 0zm-19-1c0-1 0 1 0 0zm33 0s0 1 0 0zm-24 0c-5-5 6-1 0 0zm-10-1c0-1 2-1 0 0zm-460-1c-3-11 7 2 0 0zm9-1c0-8 7 4 0 0zm467 0c1-1 1 1 0 0zm4 0c0-1 0 0 0 0zm-5-1c1 0 1 1 0 0zm-451-1c1-1 1 1 0 0zm-5-1c0-1 0 2 0 0zm12 1c1-1 1 0 0 0zm455-1c1-1 1 1 0 0zm-479-1c-19-8 8-6 0 0zm472 0c0-2 1 1 0 0zm-449-2c1 0 0 1 0 0zm432 0c0-2 2 0 0 0zm1 0c1-7 5 2 0 0zm-2-1c1-1 0 1 0 0zm5 0c1 0 1 1 0 0zm-5-1c1 0 0 1 0 0zm-440-1c1 0 1 1 0 0zm16 0c1 0 0 1 0 0zm431-1c0-1 0 2 0 0zm14 1c0-1 0 0 0 0zm-449-1c1 0 1 1 0 0zm439-1c0-4 2 3 0 0zm-16 0c0-2 1 2 0 0zm8 0c1-1 1 0 0 0zm-1-1s0 1 0 0zm-432-1c1-1 1 1 0 0zm-11-2c2-1 0 1 0 0zm-32-2c-3-3 3 0 0 0zm23 0c-1-2 5 1 0 0zm-2-1c1-1 0 0 0 0zm15-1c-8-6 6-1 0 0zm423-1s0 1 0 0zm-446 0c1-2 3 1 0 0zm-2-1c1-1 0 2 0 0zm17 0c2-1 2 1 0 0zm10 0c1-1 2 1 0 0zm416 0c1-1 1 0 0 0zm14-1c2-3 1 2 0 0zm-428-1c-1-4 4 2 0 0zm-23 0c1 0 1 1 0 0zm16-1c-2-2 7 0 0 0zm441 0c0-2 1 3 0 0zm-6 0c0-4 2 2 0 0zm-10-1c0-6 3 4 0 0zm17 0c0-2 0 1 0 0zm-434-1c1-1 1 1 0 0zm-40-1c1-1 2 1 0 0zm35 0c0-1 0 1 0 0zm441 0c1-1 1 1 0 0zm-477 0c1-1 1 1 0 0zm-18-1c2-1 1 1 0 0zm482 0c0-2 1-1 0 0zm5 0c1-1 1 1 0 0zm2-2c-5-12 6-1 0 0zm-9 0c0-3 1 2 0 0zm-451 0c0-1 0 0 0 0zm-8-1c1 0 1 1 0 0zm4-1c1-1 0 1 0 0zm460-5c0-1 0 0 0 0zm-461-1c2-1 1 2 0 0zm464-3c0-1 0 1 0 0zm3-1c1-4 3 3 0 0zm4-4c1-1 2 2 0 0zm-480-1c0-3 4 2 0 0zm484 0c0-1 0 1 0 0zm-16-6c1 0 1 1 0 0zm-466 0c1 0 1 1 0 0zm-14-3c1-2 1 1 0 0zm30-1c0-1 0 0 0 0zm-1-3c0-1 0 0 0 0zm4-3c1 0 0 1 0 0zm-1 0s0 1 0 0zm465 0c-3-6 6 1 0 0zm3-1c0-3 2 1 0 0zm-470-2c-11-8 4-1 0 0zm-28 0c-3-2 3 1 0 0zm40 0c0-1 0 1 0 0zm-26-1c-1-3 3 3 0 0zm29 0c-2-6 4 2 0 0zm-5 0c0-1 0 0 0 0zm12-1c-4-7 6 0 0 0zm-54 0c1-1 0 0 0 0zm53-1s0 1 0 0zm-27-2c1 0 1 1 0 0zm21 0c1-1 1 0 0 0zm474-1c1-5 3 3 0 0zm-470-1c-3-4 3-2 0 0zm-9-1c-2-2 4 1 0 0zm-40 0c1-1 0 0 0 0zm494-4c8-7 40-25 36-22-12 7-23 16-36 22zm-461-2c-1-1 2 1 0 0zm3-1c0-1 0 0 0 0zm14 0c0-1 0 0 0 0zm-16-3c0-1 1 1 0 0zm21 0c1-1 1 0 0 0zm-6-1c1-4 2 3 0 0zm7 0c1 0 1 1 0 0zm-4 0c0-2 2 1 0 0zm-19-2c1-1 1 2 0 0zm28-2c-2-2 3 2 0 0zm-43 0c1-1 1 1 0 0zm23-2c-2-3 3 2 0 0zm17 0c-1-2 3 2 0 0zm441-1c-2-11 7 2 0 0zm-479-2s0 1 0 0zm27-2c0-1 0 2 0 0zm-5 0c-1-2 2 2 0 0zm14-1c0-1 0 1 0 0zm-5-2c0-1 0 2 0 0zm-4 0c1-1 1 1 0 0zm5-1c0-1 0 0 0 0zm7-1c0-1 0 1 0 0zm-43-1c-2-2 3 1 0 0zm6 0c1-1 1 1 0 0zm18-1c1-1 1 1 0 0zm20 0s0 1 0 0zm-11 0c1-4 1 2 0 0zm5-1c-2-3 3 2 0 0zm427 0c2-1 1 0 0 0zm-441-1c1-1 1 2 0 0zm12 0c-1-3 1-1 0 0zm-3-1c0-1 0 0 0 0zm449 0c-16-10 13-9 0 0zm-448-1c0-2 1 0 0 0zm4 0c-2 0-3-10-6-4-2 0-4-7 2-3 0-7-4-1-4-7 7-2 2 10 10 8-11 2 7 3-2 6zm-13-1c1-2 1 1 0 0zm452-1s0 1 0 0zm-448-2c1 0 1 1 0 0zm-4-1c1-1 1 1 0 0zm-2-4c1 0 0 1 0 0zm2-2c-2-2 5 1 0 0zm10 0c-1-2 4 2 0 0zm-6 0c1-1 1 0 0 0zm-1-1c1-2 0 1 0 0zm1-1c1-1 0 0 0 0zm462-1c0-2 1 1 0 0zm-468-1c1-1 1 2 0 0zm-7-1c1-1 1 1 0 0zm10 0c1-1 0 0 0 0zm-3-1s0 1 0 0zm12 0s0 1 0 0zm-37 0c2-4 1 3 0 0zm12 0c0-1 0 0 0 0zm10 0c1-1 1 1 0 0zm13-1c-2-2 4 0 0 0zm443-1c0-1 0 0 0 0zm-465-1s0 1 0 0zm18 0c1-2 2 1 0 0zm-13-5c-1-2 4 2 0 0zm450-2s0 2 0 0zm-5-1c0-1 0 1 0 0zm35-2c0-1 0 0 0 0zm-35-2c1-1 1 1 0 0zM28 91c-1-3 3 3 0 0zm452 0c1-1 1 1 0 0zm30 0c2-1-1 1 0 0zm3-3c1 0 1 1 0 0zM14 87c1-1 0 1 0 0zm49-10c-12-5 4-9 4 0h-4zm414-4s0 1 0 0zM80 71c1-1 1 0 0 0zm166-4c0-2 0 1 0 0zm1 0c1-1 0 0 0 0zm-8-1c-1-2 5 1 0 0zm171 0c0-1 0 0 0 0zM77 65s0 1 0 0zm328-2c1-1 0 0 0 0zm-176-2c1-1 1 1 0 0zm2-1c-1-2 2 1 0 0zm4 0s0 1 0 0zm-2 0c1-1 0 0 0 0zm81-1c1 0 1 1 0 0zm-85 0c2-1 1 1 0 0zm86-1c2-3-1 2 0 0zm-84 0c1 0 0 1 0 0zm43 0c0-1 0 0 0 0zm121 0c0-1 0 0 0 0zm10-1c-6-12 8 4 0 0zm-5 0c1-1 0 0 0 0zm-84-1c1-1 1 1 0 0zM90 56c2 0 0 1 0 0zm380 0c1-1 1 1 0 0zm-157 0c1-1 1 0 0 0zm-79-1c1-2 1 1 0 0zm-12-1c2-1 3 1 0 0zm181 0c1-1 0 0 0 0zm-195-1c-1-3 5-2 0 0zm105 0c0-1 0 1 0 0zm-96-2c1-3 1 2 0 0zm-109 0c-7-7 0-19 9-7-2 7-18-7-4 5 3 3-4 2-5 2zm96 0c-1-2 1 2 0 0zm30-1s0 2 0 0zm85 0c1-1 0 2 0 0zM62 49c-4-8 4 0 0 0zm141-2c1-6 1 5 0 0zM52 47c-5-10 4 5 0 0zm237 0c3-6 0 3 0 0zm-94 0c1-1 1 2 0 0zm7-2c-4-2 3 0 0 0zm26 0c0-1 0 1 0 0zm2 0c1-1 0 1 0 0zm-108 0c0-1 0 0 0 0zm71-2c1-1 1 3 0 0zm3 0c1-3 1 3 0 0zm9 1c0-2 1 0 0 0zm25 0c0-1 0 1 0 0zm141 0c0-1 0 1 0 0zm-6 0c1-1 1 0 0 0zm7 0c1-1 1 0 0 0zm-182-1c1-1 1 1 0 0zm210 0c0-1 0 1 0 0zm-173 0c0-1 0 0 0 0zM50 42c1-2 1 2 0 0zm76 0c1 0 1 1 0 0zm-67 0c-2-5 3 1 0 0zm140 0c-10-10 5-10 4 0-2-2-2 1-4 0zm49-1c-2-6 7 1 0 0zm-95 0c-1-7 6 2 0 0zm202 0c4-2 3 0 0 0zm-126 0c1-2 0 1 0 0zm137 0c4-2 3 0 0 0zm30 0c1-1 0 0 0 0zm-273-1s0 1 0 0zm267 0c-3-1 5 1 0 0zm-185 0c-1-6 3 2 0 0zm166 0c8-2 6 0 0 0zm10-1c1-1 2 2 0 0zm-250 0s0 1 0 0zm246 0c2 0 1 1 0 0zm-22-1s0 1 0 0zm-47 0c3-8 7-3 0 0zm-130-1c2-1 0 0 0 0zm-24 0c0-1 0 1 0 0zm235 0c1-1 0 1 0 0zm-32 0c0-1 0 1 0 0zm1-1c1-1 0 1 0 0zm-173 0c0-1 0 0 0 0zm-29-1c-12-6 5-6 0 0zm16 0c-6-5 4 0 0 0zm46 0c0-1 0 1 0 0zm1 0c1-1 1 1 0 0zm7 0c1-1 1 1 0 0zm-10 0c0-1 0 0 0 0zm-87-2c-4-6 5 5 0 0zm77 0c1-3 0 2 0 0zm-30 0c-2-5 4 2 0 0zm3 0s0 1 0 0zm25-1c1-2 1 3 0 0zm12 0c1 0 1 1 0 0zm2 0c2-4 1 1 0 0zm59 0c1-1 0 1 0 0zm-113-1c-13-11 9-1 0 0zm-4 0c0-2 2 2 0 0zm153 0c1-1-1 2 0 0zM68 30c-4-8 1-3 1 1zm75 0c-3-7 5 4 0 0zm59 0c-2-2 2 0 0 0zm173 0c4-3-2 2 0 0zm-206-1c0-1 1 2 0 0zm133-1c3-6 4-1 0 1zm64 1c0-1 0 1 0 0zm1-1c2-2-2 2 0 0zm-226-1c0-1 0 1 0 0zm11-2c-2-4 4 4 0 0zm264 1c1-1 1 0 0 0zm-229-1c-3-9 6 1 0 0zm14-1c1-2 1 1 0 0zm169 0c1-2 0 1 0 0zm-212 0c0-1 0 0 0 0zm-4-4c-7-9 10 10 0 0zm239 2c2-2 2-1 0 0zm16-2c7-7 7-4 0 0zm-28 0c0-1 0 0 0 0zm-232-1s0 1 0 0zm247-1c1 0 1 1 0 0zm-213 0c0-1 0 1 0 0zm12 0c-1-4 3 0 0 0zm-48 0c1-1 1 0 0 0zm146-1c0-1 1 0 0 0zm34-1c1-3 2 0 0 0zm-177 0c-1-1 2 0 0 0zm-88 0c1-1 1 0 0 0zm-1-3c0-1 0 1 0 0zm0-1c0-1 0 1 0 0zm89 0c1-1 1 1 0 0zm4-2c-3-11 7 4 0 0zm-11-1c0-3 1 2 0 0zM59 9c1 0 1 1 0 0zm325-3c2-3-1 2 0 0zM89 0c1 0 1 1 0 0z"/></svg>