<?xml version="1.0" standalone="no"?>
<!DOCTYPE svg PUBLIC "-//W3C//DTD SVG 20010904//EN"
 "http://www.w3.org/TR/2001/REC-SVG-20010904/DTD/svg10.dtd">
<svg version="1.0" xmlns="http://www.w3.org/2000/svg"
 width="154.000000pt" height="300.000000pt" viewBox="0 0 154.000000 300.000000"
 preserveAspectRatio="xMidYMid meet">
<metadata>
Created by potrace 1.10, written by Peter Selinger 2001-2011
</metadata>
<g transform="translate(0.000000,300.000000) scale(0.100000,-0.100000)"
fill="#000000" stroke="none">
<path d="M940 2910 c0 -6 9 -14 21 -18 20 -8 19 -8 -5 -22 -14 -7 -26 -17 -26
-22 0 -4 -4 -8 -10 -8 -5 0 -10 7 -10 15 0 8 -6 15 -14 15 -15 0 -29 -27 -21
-41 4 -5 -3 -18 -14 -30 -10 -11 -22 -33 -26 -47 -3 -15 -18 -44 -31 -65 -14
-22 -23 -46 -20 -54 4 -9 -8 -29 -29 -50 -19 -19 -35 -40 -35 -46 0 -7 -9 -23
-20 -37 -11 -14 -20 -33 -20 -42 0 -10 -9 -23 -20 -30 -11 -7 -20 -16 -20 -20
0 -12 -47 -58 -59 -58 -6 0 -16 -11 -21 -25 -5 -13 -20 -27 -34 -31 -15 -3
-29 -17 -35 -35 -5 -16 -15 -29 -22 -29 -6 0 -9 -8 -6 -19 3 -13 -5 -29 -24
-47 -16 -15 -29 -22 -29 -15 0 7 -8 11 -17 9 -23 -4 -23 -33 -1 -32 13 1 4
-14 -28 -52 -26 -30 -50 -54 -55 -54 -5 0 -11 -11 -15 -25 -4 -17 -12 -24 -27
-22 -16 1 -23 -4 -25 -23 -4 -28 -38 -80 -53 -80 -21 0 -79 -70 -79 -95 0 -14
5 -25 11 -25 6 0 9 -6 6 -12 -2 -7 -14 -11 -27 -10 -22 4 -22 1 -18 -47 4 -40
2 -51 -11 -56 -14 -5 -13 -8 4 -17 28 -16 35 -29 24 -49 -12 -24 -4 -27 60
-24 41 3 59 9 80 29 15 14 32 26 38 26 6 0 35 27 64 61 30 33 87 96 127 139
39 43 72 84 72 89 0 6 15 28 33 48 18 21 46 58 62 82 16 24 38 49 47 55 10 6
18 15 18 19 0 10 121 159 126 155 1 -2 -1 -21 -5 -44 -4 -22 -5 -77 -2 -122 5
-59 3 -82 -5 -82 -15 0 -26 -41 -14 -55 5 -6 5 -17 0 -25 -6 -8 -10 -30 -10
-47 0 -18 -4 -33 -10 -33 -15 0 -12 -28 5 -37 13 -7 13 -12 -1 -38 -10 -20
-14 -43 -10 -67 4 -25 1 -41 -9 -52 -8 -8 -15 -29 -15 -46 0 -27 3 -32 20 -27
15 4 20 0 20 -13 0 -10 -7 -20 -15 -24 -8 -3 -15 -12 -15 -21 0 -9 7 -18 15
-21 10 -4 15 -20 15 -44 0 -31 -3 -37 -17 -34 -21 6 -37 -17 -48 -64 -6 -29
-5 -32 19 -32 24 0 25 -1 12 -31 -7 -18 -21 -36 -30 -41 -19 -11 -21 -48 -2
-48 32 0 20 -137 -14 -148 -5 -2 -10 -15 -10 -28 0 -13 -5 -24 -11 -24 -7 0
-9 -15 -5 -42 3 -24 5 -52 4 -63 -1 -11 -1 -48 -1 -83 0 -34 -3 -62 -7 -62
-12 0 -19 -37 -30 -160 -13 -140 -16 -159 -30 -233 -10 -53 -10 -60 7 -74 11
-9 14 -16 7 -19 -35 -15 -47 -34 -52 -82 -3 -39 0 -55 12 -67 9 -9 16 -27 16
-41 0 -15 6 -24 15 -24 8 0 15 7 15 16 0 9 6 14 12 12 7 -3 13 -13 13 -24 0
-30 33 -30 45 0 5 15 17 26 27 26 17 -1 17 -1 1 -11 -22 -13 -24 -49 -2 -49
22 0 74 55 74 78 0 11 7 23 15 26 12 4 14 14 10 40 -6 29 -4 34 11 33 22 -2
42 60 43 136 1 33 8 57 21 75 12 14 20 35 19 46 -1 12 1 28 4 36 7 19 15 85
30 240 7 69 16 131 20 138 5 7 5 41 2 76 -5 42 -3 66 4 70 14 9 15 66 1 66 -6
0 -10 15 -9 33 1 17 -2 41 -6 52 -8 20 -8 20 8 0 15 -19 16 -19 22 -2 4 9 2
23 -4 31 -6 7 -9 21 -5 30 4 9 0 18 -9 22 -21 7 -11 31 15 37 19 5 20 12 16
63 -3 39 0 71 11 98 12 30 12 41 3 44 -17 5 -15 27 3 42 12 10 14 24 10 54 -4
23 -6 49 -6 58 0 9 -7 19 -15 22 -8 3 -14 18 -14 35 0 22 5 30 25 35 21 5 25
13 26 44 1 51 17 270 26 366 9 89 24 106 47 53 8 -20 23 -44 33 -54 11 -11 25
-46 31 -79 15 -75 59 -138 98 -142 16 -2 34 -8 41 -14 20 -16 76 2 106 34 27
29 37 81 17 93 -5 3 -10 27 -10 53 0 72 -47 194 -101 263 -16 20 -29 42 -29
48 0 7 -7 14 -15 17 -8 4 -15 14 -15 23 0 10 -11 28 -25 41 -14 13 -25 31 -25
41 0 9 -7 19 -15 23 -8 3 -15 16 -15 29 0 34 -25 54 -45 37 -12 -10 -15 -9
-15 5 0 10 -8 23 -17 30 -16 12 -16 14 0 30 17 16 15 52 -3 65 -14 10 -20 130
-8 150 16 25 -3 50 -24 33 -7 -6 -34 -14 -60 -17 -41 -6 -47 -5 -42 8 5 12 -1
16 -25 16 -17 0 -31 -5 -31 -10z"/>
<path d="M1022 1699 c2 -6 8 -10 13 -10 5 0 11 4 13 10 2 6 -4 11 -13 11 -9 0
-15 -5 -13 -11z"/>
</g>
</svg>
