<?xml version="1.0" standalone="no"?>
<!DOCTYPE svg PUBLIC "-//W3C//DTD SVG 20010904//EN"
 "http://www.w3.org/TR/2001/REC-SVG-20010904/DTD/svg10.dtd">
<svg version="1.0" xmlns="http://www.w3.org/2000/svg"
 width="300.000000pt" height="214.000000pt" viewBox="0 0 300.000000 214.000000"
 preserveAspectRatio="xMidYMid meet">
<metadata>
Created by potrace 1.10, written by Peter Selinger 2001-2011
</metadata>
<g transform="translate(0.000000,214.000000) scale(0.100000,-0.100000)"
fill="#000000" stroke="none">
<path d="M694 2100 c-81 -19 -139 -81 -150 -161 l-6 -44 -39 3 c-62 6 -106 -6
-146 -41 -48 -43 -73 -99 -73 -169 l0 -58 -44 6 c-52 8 -105 -8 -147 -43 -61
-52 -59 -31 -59 -631 0 -517 1 -553 20 -627 23 -90 83 -218 135 -287 l35 -48
440 0 440 0 73 36 c93 47 190 144 235 236 56 114 64 177 60 483 l-3 272 -30
48 c-43 69 -100 98 -182 93 l-63 -4 0 296 c0 182 -4 310 -11 335 -25 92 -105
149 -201 144 -50 -3 -50 -3 -63 35 -31 91 -131 148 -221 126z"/>
<path d="M2172 2054 c-51 -25 -87 -68 -101 -120 -6 -24 -10 -26 -78 -27 -63
-2 -76 -5 -110 -33 -76 -61 -78 -69 -81 -425 l-3 -317 -37 9 c-78 17 -175 -30
-214 -104 -22 -41 -23 -49 -23 -337 0 -258 2 -303 18 -355 40 -131 126 -247
232 -314 l49 -31 486 0 486 0 48 79 c55 91 100 215 116 316 7 45 10 252 8 582
l-3 511 -31 38 c-54 67 -77 79 -155 79 l-69 0 0 59 c0 126 -76 206 -197 206
-62 0 -63 0 -63 28 -1 70 -66 152 -138 172 -56 15 -83 12 -140 -16z"/>
</g>
</svg>
