<?xml version="1.0" standalone="no"?>
<!DOCTYPE svg PUBLIC "-//W3C//DTD SVG 20010904//EN"
 "http://www.w3.org/TR/2001/REC-SVG-20010904/DTD/svg10.dtd">
<svg version="1.0" xmlns="http://www.w3.org/2000/svg"
 width="300.000000pt" height="300.000000pt" viewBox="0 0 300.000000 300.000000"
 preserveAspectRatio="xMidYMid meet">
<metadata>
Created by potrace 1.10, written by Peter Selinger 2001-2011
</metadata>
<g transform="translate(0.000000,300.000000) scale(0.100000,-0.100000)"
fill="#000000" stroke="none">
<path d="M1040 2840 c-326 -15 -483 -55 -620 -159 -143 -108 -209 -248 -247
-521 -25 -185 -25 -1136 1 -1320 29 -213 64 -315 147 -422 110 -144 271 -216
554 -249 152 -18 1098 -18 1250 0 284 33 444 104 554 249 85 111 127 236 152
457 21 174 17 1122 -4 1285 -28 208 -63 309 -146 420 -107 142 -251 211 -516
245 -142 18 -847 28 -1125 15z m398 -960 c55 -24 259 -161 318 -213 58 -51 84
-102 84 -167 0 -89 -38 -141 -178 -239 -254 -179 -350 -206 -438 -120 -56 54
-64 100 -64 359 0 259 8 305 64 359 55 54 123 60 214 21z"/>
</g>
</svg>
