<?xml version="1.0" standalone="no"?>
<!DOCTYPE svg PUBLIC "-//W3C//DTD SVG 20010904//EN"
 "http://www.w3.org/TR/2001/REC-SVG-20010904/DTD/svg10.dtd">
<svg version="1.0" xmlns="http://www.w3.org/2000/svg"
 width="162.000000pt" height="300.000000pt" viewBox="0 0 162.000000 300.000000"
 preserveAspectRatio="xMidYMid meet">
<metadata>
Created by potrace 1.10, written by Peter Selinger 2001-2011
</metadata>
<g transform="translate(0.000000,300.000000) scale(0.100000,-0.100000)"
fill="#000000" stroke="none">
<path d="M322 2878 c-7 -7 -20 -13 -30 -13 -15 0 -17 -11 -16 -75 1 -82 19
-166 39 -190 8 -8 17 -28 21 -45 4 -16 17 -51 30 -77 13 -26 24 -52 24 -59 0
-6 12 -25 26 -42 19 -22 22 -32 13 -38 -9 -5 -10 -11 -2 -21 6 -7 13 -25 17
-40 3 -16 11 -28 16 -28 6 0 10 -18 10 -40 0 -28 5 -43 16 -47 9 -3 14 -13 11
-25 -3 -10 1 -31 9 -46 32 -62 11 -112 -48 -112 -13 0 -32 -7 -42 -15 -11 -8
-28 -15 -39 -15 -10 0 -33 -6 -50 -14 -18 -8 -54 -20 -82 -27 -74 -19 -127
-45 -155 -74 -24 -26 -24 -27 -7 -40 17 -12 18 -18 7 -51 -14 -42 -5 -54 46
-54 16 0 35 -5 40 -10 21 -21 169 10 269 56 17 7 60 24 97 37 l66 24 11 -24
c6 -13 11 -29 11 -36 1 -19 37 -57 54 -57 19 0 34 -22 18 -28 -18 -6 -14 -32
4 -32 12 0 15 -6 10 -24 -4 -18 -1 -29 13 -38 11 -8 19 -20 18 -28 -1 -26 24
-80 38 -80 18 0 47 -59 39 -82 -3 -11 -1 -24 4 -31 5 -7 13 -27 17 -44 3 -18
10 -32 13 -32 19 3 33 -2 27 -10 -7 -13 25 -109 68 -199 6 -12 16 -22 23 -22
7 0 10 -8 7 -21 -3 -11 1 -34 10 -52 8 -18 23 -51 33 -74 9 -24 21 -43 26 -43
4 0 8 -17 8 -39 0 -22 6 -44 15 -51 8 -7 15 -18 15 -26 0 -7 6 -17 13 -21 20
-13 37 -51 31 -67 -4 -11 2 -19 19 -25 33 -13 42 -28 27 -46 -10 -12 -8 -17
11 -24 18 -7 19 -10 7 -10 -10 -1 -18 -8 -18 -17 0 -11 6 -15 18 -12 17 5 18
0 14 -43 -4 -41 -2 -49 12 -49 9 0 16 8 17 18 0 9 7 -1 15 -23 9 -22 26 -62
40 -90 13 -27 24 -54 24 -60 0 -5 22 -33 48 -61 26 -28 46 -58 44 -67 -2 -10
3 -17 12 -17 9 0 16 5 16 10 0 24 29 8 32 -17 2 -21 9 -29 27 -31 32 -5 42 7
47 59 3 24 10 45 15 47 5 2 9 26 9 53 0 50 -13 62 -38 37 -9 -9 -12 1 -12 45
0 44 3 57 15 57 18 0 20 37 3 42 -7 3 -15 31 -19 64 -4 32 -13 79 -19 104 -12
43 -18 58 -40 98 -22 41 -64 139 -67 156 -2 11 -10 27 -17 35 -7 9 -16 30 -20
46 -11 51 -28 85 -41 85 -7 0 -10 9 -8 23 3 14 -2 31 -11 40 -9 8 -16 27 -16
41 0 14 -9 35 -20 46 -11 11 -20 26 -20 33 -1 6 -9 30 -20 52 -11 22 -19 46
-20 53 0 6 -8 12 -18 12 -13 0 -18 9 -20 33 -4 55 -22 107 -37 107 -7 0 -21
22 -30 51 -11 34 -25 54 -41 61 -18 9 -22 16 -18 34 4 15 -2 36 -16 59 -12 19
-19 35 -15 35 3 0 -3 13 -14 28 -23 34 -51 108 -51 139 0 28 41 47 150 73 85
19 148 38 170 51 8 5 22 12 30 15 76 28 178 98 179 121 1 7 15 22 31 35 58 42
26 70 -85 74 -58 2 -74 -1 -92 -18 -22 -21 -113 -35 -113 -18 0 10 -61 2 -100
-12 -14 -5 -27 -10 -30 -10 -3 0 -14 -5 -25 -11 -11 -6 -23 -11 -27 -12 -5 0
-7 -4 -6 -10 1 -5 9 -9 18 -8 8 2 5 -3 -8 -9 -17 -8 -25 -9 -30 -1 -8 13 -100
14 -108 1 -3 -4 -27 -8 -55 -8 -39 0 -49 3 -49 16 0 18 -39 87 -52 92 -4 2 -8
14 -8 26 0 13 -5 37 -11 55 -9 26 -16 31 -37 29 -22 -2 -27 1 -28 20 -1 12 -9
31 -18 41 -9 9 -13 21 -10 24 4 4 1 13 -5 21 -7 8 -10 20 -7 25 4 5 0 13 -7
18 -8 4 -30 39 -51 77 -27 52 -34 72 -25 82 14 17 3 35 -19 32 -11 -2 -19 9
-26 34 -6 20 -23 48 -38 62 -16 14 -28 33 -28 42 0 13 -74 94 -85 94 -1 0 -7
-6 -13 -12z m1138 -702 c0 -3 -4 -8 -10 -11 -5 -3 -10 -1 -10 4 0 6 5 11 10
11 6 0 10 -2 10 -4z m-250 -35 c0 -16 -44 -32 -73 -25 l-31 6 25 13 c24 13 79
17 79 6z m-123 -28 c-4 -3 -10 -3 -14 0 -3 4 0 7 7 7 7 0 10 -3 7 -7z m-970
-390 c-4 -3 -7 0 -7 7 0 7 3 10 7 7 3 -4 3 -10 0 -14z m1193 -773 c0 -5 -4
-10 -10 -10 -5 0 -10 5 -10 10 0 6 5 10 10 10 6 0 10 -4 10 -10z"/>
<path d="M30 1775 c0 -8 7 -15 15 -15 8 0 15 7 15 15 0 8 -7 15 -15 15 -8 0
-15 -7 -15 -15z"/>
<path d="M1536 313 c-11 -11 -6 -23 9 -23 8 0 15 4 15 9 0 13 -16 22 -24 14z"/>
</g>
</svg>
