<?xml version="1.0" standalone="no"?>
<!DOCTYPE svg PUBLIC "-//W3C//DTD SVG 20010904//EN"
 "http://www.w3.org/TR/2001/REC-SVG-20010904/DTD/svg10.dtd">
<svg version="1.0" xmlns="http://www.w3.org/2000/svg"
 width="300.000000pt" height="249.000000pt" viewBox="0 0 300.000000 249.000000"
 preserveAspectRatio="xMidYMid meet">
<metadata>
Created by potrace 1.10, written by Peter Selinger 2001-2011
</metadata>
<g transform="translate(0.000000,249.000000) scale(0.100000,-0.100000)"
fill="#000000" stroke="none">
<path d="M1307 2403 c-12 -11 -8 -23 8 -23 8 0 15 7 15 15 0 16 -12 20 -23 8z"/>
<path d="M1310 2359 c-49 -14 -76 -19 -140 -25 -30 -3 -59 -10 -65 -15 -5 -5
-20 -9 -33 -9 -23 0 -89 -42 -105 -67 -4 -7 -17 -13 -27 -13 -22 0 -70 -20
-70 -30 0 -3 5 -11 12 -18 14 -14 -7 -43 -26 -36 -14 5 -86 -63 -86 -82 0 -6
-16 -31 -35 -55 -19 -24 -35 -49 -35 -55 0 -20 -47 -62 -66 -61 -15 2 -19 -6
-20 -41 -2 -47 -18 -74 -39 -66 -18 7 -29 -14 -16 -30 8 -9 3 -20 -19 -41 -17
-16 -30 -37 -30 -47 0 -10 -7 -18 -15 -18 -8 0 -15 -5 -15 -12 0 -12 -27 -77
-56 -131 -7 -16 -17 -47 -21 -70 -3 -23 -12 -46 -19 -52 -12 -10 -46 -94 -65
-165 -6 -19 -14 -44 -19 -55 -5 -11 -11 -36 -14 -55 -11 -75 -19 -106 -31
-120 -18 -21 -46 -280 -49 -447 -1 -23 -4 -45 -9 -49 -4 -4 -7 -16 -7 -26 0
-15 -5 -18 -21 -13 -14 5 -25 2 -30 -6 -14 -22 -10 -66 6 -82 8 -8 11 -17 8
-21 -9 -9 28 -46 45 -46 9 0 24 -7 34 -17 11 -10 45 -19 91 -23 67 -6 128 -19
203 -41 17 -5 45 -9 62 -9 18 0 32 -4 32 -10 0 -5 24 -10 54 -10 37 0 58 -5
67 -16 8 -10 24 -14 46 -12 22 3 33 0 33 -9 0 -14 44 -29 73 -24 9 1 17 -3 17
-10 0 -7 11 -10 30 -7 18 3 31 0 34 -9 3 -7 16 -13 30 -13 13 0 26 -4 28 -9 2
-6 39 -7 93 -3 l90 7 -2 30 c-2 28 -1 29 12 12 16 -21 55 -15 55 9 0 8 6 14
13 14 24 0 50 38 45 65 -3 15 4 44 19 72 13 26 21 53 19 59 -3 7 2 18 10 24 8
7 14 18 14 24 0 7 11 23 25 36 26 25 32 59 14 77 -9 9 -6 20 9 45 11 18 28 52
37 74 24 60 96 134 130 134 15 0 33 -7 39 -15 6 -8 29 -16 51 -18 38 -2 40 -1
37 26 -2 15 1 27 6 27 16 0 62 -41 62 -56 0 -8 5 -14 10 -14 20 0 71 -67 106
-140 19 -41 42 -86 49 -100 25 -43 56 -114 68 -152 6 -20 19 -39 28 -41 10 -3
29 -23 43 -46 30 -47 51 -51 115 -23 82 37 110 112 72 197 -11 26 -21 53 -21
60 0 6 -14 33 -31 59 -24 35 -37 46 -50 43 -16 -4 -18 -1 -13 19 4 17 1 26
-10 30 -9 3 -16 10 -16 15 0 17 -43 69 -57 69 -7 0 -13 -8 -13 -19 0 -11 -9
-21 -22 -25 -32 -8 -35 -8 -52 10 -14 14 -14 17 8 37 33 32 40 70 16 92 -18
16 -20 16 -26 1 -3 -9 -4 -22 -1 -29 3 -8 2 -19 -2 -26 -19 -30 -100 35 -129
103 -15 35 -59 75 -83 76 -8 0 -33 13 -55 30 -40 30 -63 37 -80 21 -5 -5 -29
-5 -59 1 -119 23 -134 22 -166 -8 -16 -15 -29 -33 -29 -39 0 -5 -11 -27 -24
-46 -38 -56 -72 -120 -85 -161 -7 -21 -16 -38 -21 -38 -4 0 -20 -25 -35 -55
-16 -30 -38 -61 -50 -69 -14 -9 -25 -29 -28 -53 -4 -21 -18 -50 -32 -65 -14
-15 -25 -34 -25 -43 0 -8 -4 -15 -10 -15 -5 0 -26 -15 -46 -32 -31 -27 -48
-34 -97 -38 -67 -6 -85 -23 -40 -41 l28 -12 -25 -7 c-30 -8 -100 -1 -117 12
-7 5 -16 7 -21 4 -5 -3 -22 6 -36 19 -15 14 -31 26 -37 26 -5 1 -12 2 -16 3
-5 1 -27 6 -50 10 -28 5 -44 14 -48 27 -4 10 -11 19 -16 19 -16 0 -97 39 -104
50 -10 15 23 24 40 10 14 -12 35 -6 35 10 0 13 -67 43 -79 35 -10 -5 -19 167
-12 215 1 8 5 40 8 70 3 30 9 60 13 65 4 6 10 35 14 65 6 51 20 100 61 225 9
28 21 68 27 90 12 43 33 99 48 127 6 10 10 26 10 37 0 10 6 24 14 30 20 17 76
135 76 162 0 12 8 27 17 34 10 8 17 27 18 46 0 27 4 34 20 34 23 0 85 58 85
79 0 21 84 93 118 101 17 3 38 17 46 31 9 13 23 24 31 24 8 0 34 19 58 43 150
145 182 164 281 174 85 8 232 -13 268 -38 15 -11 31 -19 36 -19 5 0 15 -7 22
-15 7 -8 19 -15 27 -15 8 0 24 -11 34 -24 11 -14 42 -32 69 -41 28 -9 50 -21
50 -26 0 -15 71 -89 85 -89 8 0 16 -8 20 -18 3 -11 16 -24 29 -30 14 -6 23
-18 23 -29 -1 -11 4 -18 15 -17 14 1 17 -6 16 -37 -1 -31 5 -43 30 -67 23 -21
38 -28 57 -25 18 4 25 1 25 -11 0 -9 -4 -16 -10 -16 -14 0 -13 -27 1 -36 6 -3
14 -1 18 5 9 13 34 -10 71 -64 14 -20 33 -44 43 -53 9 -9 17 -21 17 -26 0 -15
49 -114 60 -121 6 -3 15 -26 21 -50 6 -25 17 -50 25 -56 8 -6 14 -20 14 -30 0
-10 5 -21 10 -24 6 -3 10 -13 10 -21 0 -14 22 -68 73 -174 11 -25 25 -67 29
-95 5 -27 11 -66 15 -85 3 -19 12 -44 19 -55 8 -11 14 -29 14 -40 0 -11 7 -31
16 -44 13 -18 15 -36 10 -87 -4 -37 -3 -64 3 -64 5 0 18 -16 30 -35 11 -19 28
-35 37 -35 9 0 23 -8 30 -17 12 -17 14 -17 33 4 12 12 21 27 21 34 0 6 11 22
25 35 14 13 25 27 25 33 0 5 5 11 12 13 9 3 9 12 -2 37 -12 31 -12 35 9 50 19
15 22 23 16 54 -4 21 -13 41 -20 45 -7 4 -15 20 -17 37 -2 18 -10 31 -19 33
-22 4 -31 -22 -19 -53 7 -20 6 -25 -5 -25 -9 0 -15 9 -15 21 0 12 -5 39 -12
61 -9 31 -9 44 1 59 13 23 6 88 -13 104 -6 6 -19 36 -29 68 -18 56 -32 68 -54
46 -8 -8 -13 -5 -18 12 -5 14 -3 25 4 27 13 4 4 111 -10 127 -5 5 -9 17 -9 27
0 11 -15 28 -35 39 -28 17 -33 24 -24 35 14 17 5 44 -16 44 -9 0 -15 9 -15 23
0 30 -28 87 -46 94 -8 3 -14 12 -14 19 0 8 -7 17 -15 20 -8 4 -15 16 -15 28 0
30 -24 61 -39 51 -7 -4 -11 -16 -8 -26 3 -10 2 -21 -3 -24 -7 -5 -17 37 -23
95 -1 17 -8 25 -22 25 -12 0 -21 8 -23 20 -2 11 -15 30 -30 42 -24 20 -25 25
-14 43 15 25 8 40 -18 40 -13 0 -30 21 -55 64 -36 66 -51 82 -88 101 -12 6
-27 21 -34 35 -6 13 -21 28 -33 32 -11 4 -24 18 -29 31 -11 28 -29 37 -74 37
-29 0 -30 1 -12 14 16 12 17 16 6 30 -7 9 -24 16 -37 16 -13 0 -24 6 -24 13 0
8 -9 22 -20 32 -19 17 -27 17 -92 -10 -14 -5 -18 -2 -18 14 0 19 -11 26 -34
22 -5 -1 -17 6 -27 15 -10 9 -22 13 -27 10 -5 -3 -15 1 -22 9 -11 13 -8 15 14
15 15 0 41 -7 57 -16 17 -8 33 -13 36 -10 13 12 -9 37 -37 42 -16 4 -30 10
-30 15 0 5 -9 9 -19 9 -11 0 -22 4 -25 9 -9 13 -115 24 -129 13 -12 -9 -153
-8 -192 1 -11 3 -36 1 -55 -4z m818 -1740 c9 -14 10 -25 4 -31 -6 -6 -13 2
-20 21 -13 36 -3 41 16 10z m78 -100 c3 -6 1 -16 -5 -22 -9 -9 -14 -8 -21 3
-9 15 -4 30 10 30 5 0 12 -5 16 -11z m-1211 -249 c3 -6 -1 -7 -9 -4 -18 7 -21
14 -7 14 6 0 13 -4 16 -10z"/>
<path d="M1580 1016 c0 -17 36 -29 71 -24 13 2 24 10 24 18 0 11 -13 16 -47
18 -38 2 -48 0 -48 -12z"/>
<path d="M1755 980 c-8 -12 20 -24 35 -15 5 3 10 10 10 16 0 12 -37 12 -45 -1z"/>
<path d="M1844 936 c-9 -24 12 -44 28 -28 10 10 8 16 -5 29 -15 15 -17 15 -23
-1z"/>
<path d="M2810 820 c0 -11 7 -20 15 -20 8 0 15 9 15 20 0 11 -7 20 -15 20 -8
0 -15 -9 -15 -20z"/>
<path d="M607 396 c-7 -16 1 -26 20 -26 7 0 13 9 13 20 0 23 -25 27 -33 6z"/>
<path d="M692 348 c5 -15 55 -35 64 -25 4 3 4 13 1 22 -8 19 -71 21 -65 3z"/>
<path d="M796 333 c-16 -17 -4 -34 22 -31 15 2 26 7 25 13 -2 11 -39 26 -47
18z"/>
</g>
</svg>
