<?xml version="1.0" standalone="no"?>
<!DOCTYPE svg PUBLIC "-//W3C//DTD SVG 20010904//EN"
 "http://www.w3.org/TR/2001/REC-SVG-20010904/DTD/svg10.dtd">
<svg version="1.0" xmlns="http://www.w3.org/2000/svg"
 width="157.000000pt" height="300.000000pt" viewBox="0 0 157.000000 300.000000"
 preserveAspectRatio="xMidYMid meet">
<metadata>
Created by potrace 1.10, written by Peter Selinger 2001-2011
</metadata>
<g transform="translate(0.000000,300.000000) scale(0.100000,-0.100000)"
fill="#000000" stroke="none">
<path d="M170 2919 c0 -7 -11 -8 -30 -4 -27 6 -30 4 -30 -19 0 -14 4 -26 9
-26 5 0 7 -9 4 -20 -3 -11 2 -42 11 -69 9 -28 16 -62 16 -78 0 -15 7 -37 15
-47 8 -11 21 -43 30 -71 8 -29 22 -58 30 -65 8 -7 15 -19 15 -26 0 -8 4 -22 9
-32 5 -9 16 -33 24 -52 8 -19 38 -82 65 -140 71 -148 89 -190 97 -227 4 -18
11 -35 16 -38 5 -4 9 -18 9 -33 0 -15 9 -35 20 -45 11 -9 20 -23 20 -31 0 -8
5 -27 12 -43 6 -15 10 -32 10 -36 -1 -4 7 -27 18 -52 11 -24 20 -50 20 -57 0
-7 9 -24 20 -38 11 -14 20 -37 20 -52 0 -15 5 -30 10 -33 6 -3 8 -16 5 -28 -4
-16 0 -25 17 -32 18 -8 22 -16 20 -42 -2 -20 1 -33 8 -33 6 0 8 -5 5 -10 -3
-6 0 -13 8 -16 8 -3 15 -16 15 -28 0 -13 11 -41 26 -62 20 -29 26 -51 26 -90
0 -29 3 -54 8 -56 10 -4 44 -116 38 -127 -3 -4 1 -17 9 -27 8 -10 15 -29 15
-41 0 -13 5 -23 10 -23 14 0 12 -28 -2 -32 -8 -3 -4 -12 10 -26 12 -12 22 -30
22 -40 0 -10 6 -27 14 -38 8 -11 17 -41 21 -68 4 -26 15 -55 25 -64 10 -9 20
-37 23 -62 3 -25 8 -58 12 -74 7 -26 6 -28 -16 -21 -13 4 -35 19 -49 34 -47
49 -130 112 -140 106 -5 -3 -17 6 -26 20 -9 14 -24 25 -33 25 -10 0 -24 11
-31 25 -7 14 -17 25 -22 25 -4 0 -8 7 -8 15 0 10 -10 15 -29 15 -26 0 -42 15
-45 42 -2 11 -53 48 -68 48 -7 0 -27 12 -43 28 -16 15 -36 27 -45 27 -9 0 -16
11 -18 27 -2 19 -9 28 -21 28 -10 0 -24 6 -30 14 -7 8 -27 17 -47 20 -25 5
-34 12 -32 24 2 9 -5 18 -16 20 -11 2 -28 14 -38 26 -15 18 -19 19 -28 6 -9
-13 -11 -13 -20 0 -8 13 -11 13 -25 -1 -19 -18 -11 -67 11 -76 8 -3 14 -13 14
-22 0 -10 7 -26 15 -37 8 -10 15 -27 15 -37 0 -9 17 -36 38 -60 21 -23 42 -50
45 -60 4 -9 14 -20 23 -24 9 -3 37 -26 63 -50 25 -24 73 -63 105 -86 33 -23
87 -68 120 -99 33 -32 66 -58 73 -58 7 0 33 -19 56 -42 24 -24 62 -59 85 -78
24 -19 56 -46 72 -60 52 -46 59 -50 78 -50 10 0 39 -22 63 -50 24 -27 50 -50
57 -50 7 0 23 -9 35 -20 39 -37 123 -79 146 -73 11 3 21 9 21 14 0 5 9 4 19
-3 15 -9 23 -9 36 2 13 11 18 11 24 1 29 -46 112 76 116 169 1 30 7 67 13 82
8 19 8 29 1 34 -6 4 -7 9 -3 13 32 23 37 60 40 256 2 217 -19 414 -44 423 -10
3 -13 -7 -11 -44 3 -40 0 -49 -14 -52 -9 -2 -17 -8 -17 -13 0 -6 -4 -8 -10 -4
-15 9 -50 -18 -50 -39 0 -13 5 -17 20 -13 15 4 20 0 20 -14 0 -10 -4 -19 -9
-19 -13 0 -42 -60 -35 -71 3 -5 -2 -9 -11 -9 -13 0 -16 -9 -14 -51 2 -39 -1
-53 -14 -60 -9 -6 -17 -21 -17 -34 0 -13 -4 -26 -9 -29 -5 -4 -12 -24 -16 -46
-9 -54 -22 -58 -42 -13 -10 21 -21 40 -25 41 -5 2 -8 11 -8 21 0 15 -30 86
-60 143 -15 26 -48 129 -55 170 -4 21 -13 42 -21 49 -7 6 -16 26 -20 45 -3 19
-10 37 -15 40 -5 3 -7 10 -3 15 3 5 -1 20 -9 33 -9 13 -13 34 -10 51 4 20 1
32 -11 41 -11 8 -22 38 -29 82 -7 39 -19 78 -28 89 -16 18 -34 83 -32 112 1 8
-6 20 -15 27 -11 8 -15 24 -14 48 2 25 -2 38 -12 42 -9 3 -18 22 -22 41 -10
54 -51 165 -68 185 -9 10 -18 29 -22 42 -3 14 -12 30 -20 37 -8 6 -14 17 -14
24 0 6 -11 33 -25 59 -14 26 -25 54 -25 62 0 7 -7 14 -15 14 -13 0 -20 18 -16
42 0 4 -4 19 -9 34 -7 17 -15 24 -25 20 -10 -4 -16 2 -17 17 -3 44 -5 53 -22
94 -10 23 -24 44 -33 47 -10 4 -13 14 -9 31 4 16 2 25 -5 25 -7 0 -9 9 -5 25
5 21 2 27 -18 35 -29 11 -66 83 -66 128 0 16 -9 37 -20 47 -11 10 -20 24 -20
30 0 7 -7 18 -15 25 -8 7 -15 23 -15 36 0 13 -6 27 -13 31 -21 12 -51 64 -52
87 0 14 -7 21 -20 21 -12 0 -21 8 -23 20 -7 37 -72 77 -72 44z"/>
<path d="M1315 19 c-10 -15 1 -23 20 -15 9 3 13 10 10 16 -8 13 -22 13 -30 -1z"/>
</g>
</svg>
