<?xml version="1.0" standalone="no"?>
<!DOCTYPE svg PUBLIC "-//W3C//DTD SVG 20010904//EN"
 "http://www.w3.org/TR/2001/REC-SVG-20010904/DTD/svg10.dtd">
<svg version="1.0" xmlns="http://www.w3.org/2000/svg"
 width="300.000000pt" height="353.000000pt" viewBox="0 0 300.000000 353.000000"
 preserveAspectRatio="xMidYMid meet">
<metadata>
Created by potrace 1.10, written by Peter Selinger 2001-2011
</metadata>
<g transform="translate(0.000000,353.000000) scale(0.050000,-0.050000)"
fill="#000000" stroke="none">
<path d="M2659 6455 c-107 -54 -81 -8 -805 -1445 l-504 -1000 0 -887 0 -886
-550 -288 c-624 -327 -703 -389 -769 -599 -138 -438 282 -878 710 -744 126 39
2117 1086 2177 1144 l48 47 72 -60 c61 -51 1130 -622 1952 -1043 528 -271
1003 -23 965 504 -21 297 -99 369 -785 729 l-540 283 -10 900 -10 900 -596
1175 c-686 1351 -691 1358 -944 1275 -59 -20 -86 -18 -151 8 -107 43 -154 40
-260 -13z m667 -1690 l335 -935 -2 -170 c-3 -292 -19 -281 -160 119 -172 488
-271 599 -528 601 -248 1 -334 -100 -511 -598 l-130 -365 -13 97 c-38 274 -40
264 317 1258 184 510 339 928 345 928 6 0 162 -421 347 -935z"/>
</g>
</svg>
