<?xml version="1.0" standalone="no"?>
<!DOCTYPE svg PUBLIC "-//W3C//DTD SVG 20010904//EN"
 "http://www.w3.org/TR/2001/REC-SVG-20010904/DTD/svg10.dtd">
<svg version="1.0" xmlns="http://www.w3.org/2000/svg"
 width="179.000000pt" height="290.000000pt" viewBox="0 0 179.000000 290.000000"
 preserveAspectRatio="xMidYMid meet">
<metadata>
Created by potrace 1.10, written by Peter Selinger 2001-2011
</metadata>
<g transform="translate(0.000000,290.000000) scale(0.050000,-0.050000)"
fill="#000000" stroke="none">
<path d="M1925 5716 c-137 -67 -23 -221 140 -187 220 45 278 0 408 -314 l105
-255 -1120 0 c-1215 0 -1204 1 -1254 -109 -33 -74 -33 -1028 0 -1102 32 -71
114 -109 235 -109 l101 0 0 -1340 0 -1340 -220 0 -220 0 0 -370 0 -370 1710 0
1710 0 0 370 0 370 -230 0 -230 0 0 1340 0 1340 111 0 c257 0 269 31 269 660
0 681 14 660 -445 660 l-287 0 -126 309 -126 310 -109 40 c-60 23 -144 59
-187 81 -86 44 -166 49 -235 16z m-25 -2436 c35 -35 40 -67 40 -270 l0 -230
210 0 c226 0 290 -27 290 -120 0 -93 -64 -120 -290 -120 l-210 0 0 -600 c0
-677 -1 -680 -150 -680 -149 0 -150 3 -150 680 l0 600 -200 0 c-215 0 -280 28
-280 120 0 92 65 120 280 120 l200 0 0 230 c0 265 22 310 150 310 43 0 85 -15
110 -40z"/>
</g>
</svg>
