<?xml version="1.0" standalone="no"?>
<!DOCTYPE svg PUBLIC "-//W3C//DTD SVG 20010904//EN"
 "http://www.w3.org/TR/2001/REC-SVG-20010904/DTD/svg10.dtd">
<svg version="1.0" xmlns="http://www.w3.org/2000/svg"
 width="153.000000pt" height="300.000000pt" viewBox="0 0 153.000000 300.000000"
 preserveAspectRatio="xMidYMid meet">
<metadata>
Created by potrace 1.10, written by Peter Selinger 2001-2011
</metadata>
<g transform="translate(0.000000,300.000000) scale(0.100000,-0.100000)"
fill="#000000" stroke="none">
<path d="M202 2934 c-9 -10 -12 -27 -8 -49 4 -19 2 -36 -4 -40 -13 -8 -10 -84
4 -93 6 -4 12 -23 12 -42 4 -96 17 -156 41 -182 14 -14 22 -31 19 -37 -10 -16
34 -130 56 -145 13 -10 17 -21 12 -42 -7 -37 36 -193 72 -266 8 -14 14 -36 14
-47 0 -26 15 -27 29 -3 9 15 10 15 11 -5 0 -12 -5 -25 -10 -28 -13 -8 -3 -44
19 -68 11 -14 15 -35 13 -77 -2 -32 2 -61 8 -65 5 -3 10 -17 10 -31 0 -14 6
-27 14 -30 7 -3 16 -26 20 -50 3 -25 15 -58 26 -74 11 -15 20 -44 20 -64 0
-19 6 -39 13 -43 20 -13 37 -51 37 -83 0 -26 26 -97 41 -110 11 -10 23 -45 25
-75 4 -55 23 -138 34 -149 5 -5 10 -26 10 -45 0 -20 9 -60 20 -89 11 -29 20
-61 20 -72 0 -12 6 -23 14 -26 8 -3 12 -12 10 -19 -3 -8 0 -48 6 -90 6 -42 9
-79 6 -82 -3 -3 -20 8 -38 26 -17 17 -35 31 -39 31 -5 0 -59 39 -96 70 -6 5
-32 20 -57 32 -25 12 -49 31 -52 42 -8 26 -22 36 -52 36 -15 0 -26 9 -34 28
-15 33 -57 71 -80 72 -10 0 -18 7 -18 16 0 11 -6 14 -20 9 -11 -3 -20 -2 -20
4 0 5 -17 15 -37 22 -21 6 -43 16 -50 21 -7 5 -17 7 -22 3 -6 -3 -28 3 -50 13
-45 22 -67 13 -50 -20 6 -11 10 -50 10 -86 0 -75 15 -130 42 -151 10 -7 22
-23 26 -35 5 -11 17 -21 27 -21 12 0 18 -6 16 -17 -3 -18 33 -61 61 -71 10 -4
23 -20 28 -37 6 -16 17 -30 24 -30 7 0 15 -7 19 -15 3 -8 12 -15 21 -15 8 0
14 -5 13 -12 -2 -6 16 -22 40 -34 24 -12 49 -30 57 -40 10 -15 26 -19 74 -19
66 0 101 -19 101 -54 0 -25 25 -44 49 -36 21 6 30 -3 36 -36 6 -31 26 -51 46
-46 22 6 62 -35 54 -55 -8 -21 71 -64 89 -49 9 7 19 6 34 -5 19 -13 20 -18 9
-35 -10 -18 -9 -23 7 -33 10 -6 26 -19 35 -28 21 -24 47 -23 64 3 10 14 17 17
22 9 4 -7 2 -17 -4 -23 -17 -17 -13 -27 9 -27 11 0 20 6 20 13 0 7 14 21 31
31 18 11 28 23 25 32 -3 8 1 14 8 14 8 0 21 10 29 22 l16 23 7 -22 c7 -26 9
-27 33 -13 23 12 64 106 58 131 -3 10 2 24 10 30 26 23 51 93 62 179 10 81 9
86 -10 102 -16 14 -20 24 -14 45 4 19 9 23 15 14 4 -8 13 -10 20 -6 10 6 9 11
-4 20 -15 11 -15 13 -1 19 33 12 41 86 10 86 -8 0 -17 5 -21 11 -4 8 0 9 15 4
19 -6 21 -2 21 29 0 25 -4 36 -15 36 -14 0 -20 15 -27 65 -2 13 -12 21 -31 23
-23 3 -27 0 -27 -22 0 -14 -4 -26 -10 -26 -5 0 -10 -20 -10 -45 0 -44 -15 -60
-26 -30 -8 20 -34 19 -34 -1 0 -8 7 -22 15 -30 21 -21 8 -45 -23 -42 -33 4
-40 -19 -10 -31 12 -6 17 -10 9 -10 -10 -1 -12 -12 -8 -46 5 -52 -10 -95 -34
-95 -23 0 -37 -19 -58 -79 -23 -67 -31 -73 -31 -25 0 22 -6 48 -14 59 -15 22
-32 93 -41 171 -3 28 -14 69 -24 90 -14 27 -16 43 -9 51 7 9 7 23 -1 44 -6 18
-11 49 -11 71 0 23 -9 54 -23 76 -13 20 -21 45 -19 55 2 10 -3 29 -12 42 -9
13 -16 33 -16 45 0 11 -7 20 -15 20 -17 0 -20 31 -4 47 13 13 -7 119 -28 144
-7 8 -13 29 -13 45 0 16 -7 39 -15 51 -8 11 -17 39 -21 62 -4 22 -13 46 -20
52 -8 6 -14 17 -14 25 0 27 -24 64 -41 64 -21 0 -36 39 -20 50 7 3 9 14 5 23
-7 20 -16 21 -31 6 -7 -7 -9 5 -5 40 3 36 0 58 -11 74 -9 13 -17 39 -19 58 -4
44 -37 55 -39 12 -2 -26 -2 -26 -6 -4 -3 13 -11 31 -19 38 -16 17 -19 59 -4
68 21 13 11 55 -15 65 -24 9 -35 30 -15 30 6 0 10 7 10 15 0 9 -9 15 -23 15
-24 0 -47 33 -47 68 0 10 -5 23 -12 30 -8 8 -8 15 1 26 16 19 9 63 -13 79 -11
8 -19 29 -21 57 -3 52 -13 80 -27 80 -5 0 -7 8 -4 18 3 9 -3 34 -14 55 -11 20
-20 47 -20 60 0 13 -9 32 -19 41 -10 10 -22 32 -25 50 -4 18 -15 41 -26 51
-11 10 -20 30 -20 45 0 16 -11 38 -29 56 -21 20 -28 35 -25 50 7 27 -12 40
-32 23 -12 -10 -16 -9 -21 9 -6 26 -13 27 -31 6z m482 -1109 c3 -8 1 -15 -4
-15 -6 0 -10 7 -10 15 0 8 2 15 4 15 2 0 6 -7 10 -15z m333 -1102 c-4 -3 -7 0
-7 7 0 7 3 10 7 7 3 -4 3 -10 0 -14z m333 -383 c0 -5 -7 -10 -16 -10 -8 0 -12
5 -9 10 3 6 10 10 16 10 5 0 9 -4 9 -10z"/>
<path d="M645 1971 c-6 -11 9 -23 19 -14 9 9 7 23 -3 23 -6 0 -12 -4 -16 -9z"/>
<path d="M1381 1041 c-15 -28 -14 -61 3 -61 23 0 47 30 44 54 -4 28 -34 32
-47 7z"/>
<path d="M1420 860 c0 -11 7 -20 15 -20 8 0 15 9 15 20 0 11 -7 20 -15 20 -8
0 -15 -9 -15 -20z"/>
</g>
</svg>
